<?xml version="1.0" standalone="no"?>
<!DOCTYPE svg PUBLIC "-//W3C//DTD SVG 20010904//EN"
 "http://www.w3.org/TR/2001/REC-SVG-20010904/DTD/svg10.dtd">
<svg version="1.0" xmlns="http://www.w3.org/2000/svg"
 width="87.000000pt" height="88.000000pt" viewBox="0 0 87.000000 88.000000"
 preserveAspectRatio="xMidYMid meet" fill="#D6DCE1">
<g transform="translate(0.000000,88.000000) scale(0.100000,-0.100000)"
 >
<path d="M350 784 c-118 -32 -212 -123 -250 -243 -43 -135 -9 -262 96 -363
101 -96 264 -123 391 -64 73 33 138 97 173 171 35 73 40 199 10 277 -39 105
-139 195 -247 223 -70 18 -102 18 -173 -1z m225 -55 c65 -31 121 -88 154 -158
36 -76 37 -191 2 -269 -79 -176 -310 -240 -475 -130 -170 112 -184 371 -28
509 93 82 235 102 347 48z M412 608 c-16 -16 -15 -23 4 -42 21 -22 56 -3 52
27 -3 25 -37 34 -56 15z M390 480 c0 -11 7 -20 15 -20 12 0 15 -15 15 -79 0
-72 -2 -79 -21 -84 -41 -11 -14 -32 41 -32 55 0 82 21 41 32 -20 5 -21 12 -21
104 l0 99 -35 0 c-28 0 -35 -4 -35 -20z"/>
</g>
</svg>
