<?xml version="1.0" standalone="no"?>
<!DOCTYPE svg PUBLIC "-//W3C//DTD SVG 20010904//EN"
 "http://www.w3.org/TR/2001/REC-SVG-20010904/DTD/svg10.dtd">
<svg version="1.0" xmlns="http://www.w3.org/2000/svg"
 width="84.000000pt" height="85.000000pt" viewBox="0 0 84.000000 85.000000"
 preserveAspectRatio="xMidYMid meet" fill="#D6DCE1">
<g transform="translate(0.000000,85.000000) scale(0.100000,-0.100000)"
 >
<path d="M340 755 c-106 -30 -186 -99 -232 -202 -31 -68 -31 -198 -1 -266 31
-66 113 -150 176 -178 77 -35 201 -34 277 2 69 33 133 97 168 169 23 47 27 68
27 140 0 76 -4 93 -33 152 -72 146 -234 224 -382 183z m218 -59 c147 -74 207
-263 131 -414 -87 -174 -305 -219 -466 -96 -100 76 -135 252 -74 372 78 153
259 214 409 138z M368 595 c-32 -18 -48 -44 -48 -79 0 -16 6 -26 15 -26 8 0
15 9 15 20 0 29 39 60 75 60 40 0 65 -27 65 -68 0 -34 -7 -43 -57 -72 -40 -24
-49 -80 -13 -80 13 0 20 7 20 20 0 11 12 26 29 35 41 21 61 53 61 97 0 78 -93
132 -162 93z M401 286 c-15 -18 -3 -46 20 -46 25 0 35 26 19 45 -15 19 -24 19
-39 1z"/>
</g>
</svg>
