<?xml version="1.0" standalone="no"?>
<!DOCTYPE svg PUBLIC "-//W3C//DTD SVG 20010904//EN"
 "http://www.w3.org/TR/2001/REC-SVG-20010904/DTD/svg10.dtd">
<svg version="1.0" xmlns="http://www.w3.org/2000/svg"
 width="89.000000pt" height="81.000000pt" viewBox="0 0 89.000000 81.000000"
 preserveAspectRatio="xMidYMid meet" fill="#D6DCE1">
<g transform="translate(0.000000,81.000000) scale(0.100000,-0.100000)"
 >
<path d="M402 713 c-38 -33 -322 -535 -322 -570 0 -62 7 -63 366 -63 l323 0
20 26 c12 15 21 32 21 39 0 21 -300 539 -326 563 -30 27 -55 28 -82 5z m54
-21 c6 -4 50 -74 99 -157 246 -422 228 -387 212 -409 -11 -15 -44 -16 -332
-14 l-320 3 -3 22 c-2 13 53 118 149 285 139 239 163 278 179 278 3 0 10 -4
16 -8z M419 528 c-14 -26 -6 -215 10 -231 7 -7 15 -6 26 3 19 16 22 219 3 238
-17 17 -26 15 -39 -10z M420 236 c-18 -22 -5 -48 22 -44 17 2 23 10 23 28 0
29 -26 38 -45 16z"/>
</g>
</svg>
