<?xml version="1.0" standalone="no"?>
<!DOCTYPE svg PUBLIC "-//W3C//DTD SVG 20010904//EN"
 "http://www.w3.org/TR/2001/REC-SVG-20010904/DTD/svg10.dtd">
<svg version="1.0" xmlns="http://www.w3.org/2000/svg"
 width="76.000000pt" height="85.000000pt" viewBox="0 0 76.000000 85.000000"
 preserveAspectRatio="xMidYMid meet" fill="#D6DCE1">
<g transform="translate(0.000000,85.000000) scale(0.100000,-0.100000)"
 >
<path d="M295 754 c-97 -29 -195 -67 -206 -80 -7 -8 -9 -67 -7 -171 3 -144 5
-162 27 -205 54 -105 216 -227 284 -214 44 8 149 78 193 129 71 81 88 135 92
290 6 179 9 174 -152 226 -137 45 -157 47 -231 25z m217 -55 l129 -40 -3 -152
c-3 -134 -6 -158 -26 -198 -30 -62 -105 -135 -175 -170 l-58 -30 -52 24 c-69
32 -146 103 -182 169 -29 51 -30 59 -33 199 -3 112 -1 148 10 156 12 10 230
81 252 82 5 1 67 -17 138 -40z M357 604 c-13 -14 -8 -221 6 -232 30 -25 38 2
35 119 -2 93 -6 114 -18 117 -9 1 -19 0 -23 -4z M356 305 c-18 -18 -6 -55 18
-55 23 0 41 30 30 48 -15 23 -29 25 -48 7z"/>
</g>
</svg>
