<?xml version="1.0" standalone="no"?>
<!DOCTYPE svg PUBLIC "-//W3C//DTD SVG 20010904//EN"
 "http://www.w3.org/TR/2001/REC-SVG-20010904/DTD/svg10.dtd">
<svg version="1.0" xmlns="http://www.w3.org/2000/svg"
 width="83.000000pt" height="84.000000pt" viewBox="0 0 83.000000 84.000000"
 preserveAspectRatio="xMidYMid meet" fill="#D6DCE1">
<g transform="translate(0.000000,84.000000) scale(0.100000,-0.100000)"
 >
<path d="M275 731 c-69 -32 -137 -100 -168 -169 -31 -67 -31 -217 0 -284 30
-66 96 -133 162 -165 49 -24 68 -28 146 -28 79 0 97 4 142 28 75 39 115 78
154 149 32 59 34 69 34 158 0 109 -17 155 -86 233 -93 107 -255 140 -384 78z
m261 -30 c196 -87 243 -358 87 -502 -156 -143 -401 -95 -484 95 -31 70 -30
182 0 252 69 155 242 223 397 155z M457 436 l-97 -101 -44 48 c-43 47 -66 59
-66 34 0 -15 101 -117 116 -117 16 0 215 211 211 223 -7 23 -26 10 -120 -87z"/>
</g>
</svg>
