<?xml version="1.0" standalone="no"?>
<!DOCTYPE svg PUBLIC "-//W3C//DTD SVG 20010904//EN"
 "http://www.w3.org/TR/2001/REC-SVG-20010904/DTD/svg10.dtd">
<svg version="1.0" xmlns="http://www.w3.org/2000/svg"
 width="83.000000pt" height="84.000000pt" viewBox="0 0 83.000000 84.000000"
 preserveAspectRatio="xMidYMid meet" fill="#D6DCE1">
<g transform="translate(0.000000,84.000000) scale(0.100000,-0.100000)"
 >
<path d="M275 732 c-257 -124 -261 -494 -7 -619 82 -40 202 -40 283 0 215 105
259 388 87 554 -69 67 -119 88 -218 91 -77 3 -91 0 -145 -26z m258 -30 c230
-102 237 -442 11 -553 -120 -59 -246 -40 -341 53 -62 61 -87 125 -88 223 0 83
15 125 68 197 72 97 230 133 350 80z M290 527 c0 -7 20 -33 45 -57 25 -24 45
-49 45 -54 0 -6 -21 -31 -46 -57 -28 -29 -43 -52 -39 -59 5 -8 25 5 61 41 l54
53 55 -54 c45 -45 57 -52 65 -40 7 11 -3 28 -42 67 l-51 51 47 50 c43 46 57
72 38 72 -4 0 -30 -23 -57 -50 l-49 -50 -51 50 c-50 50 -75 62 -75 37z"/>
</g>
</svg>
