<?xml version="1.0" standalone="no"?>
<!DOCTYPE svg PUBLIC "-//W3C//DTD SVG 20010904//EN"
 "http://www.w3.org/TR/2001/REC-SVG-20010904/DTD/svg10.dtd">
<svg version="1.0" xmlns="http://www.w3.org/2000/svg"
 width="83.000000pt" height="84.000000pt" viewBox="0 0 83.000000 84.000000"
 preserveAspectRatio="xMidYMid meet" fill="#D6DCE1">
<g transform="translate(0.000000,84.000000) scale(0.100000,-0.100000)"
 >
<path d="M275 732 c-72 -35 -137 -102 -172 -179 -23 -49 -25 -64 -21 -146 5
-105 23 -151 90 -223 64 -69 135 -99 238 -99 102 0 155 21 228 89 140 131 141
356 3 493 -65 64 -121 87 -221 91 -77 3 -91 0 -145 -26z m258 -30 c186 -82
237 -346 95 -491 -183 -187 -492 -80 -515 178 -22 237 206 407 420 313z M257
449 c-23 -13 -22 -46 2 -59 19 -10 51 8 51 29 0 19 -35 39 -53 30z M527 449
c-39 -22 -4 -79 35 -58 10 5 18 18 18 29 0 25 -30 41 -53 29z M387 444 c-13
-14 -7 -43 12 -53 23 -13 45 8 39 36 -3 18 -38 30 -51 17z"/>
</g>
</svg>
