<?xml version="1.0" standalone="no"?>
<!DOCTYPE svg PUBLIC "-//W3C//DTD SVG 20010904//EN"
 "http://www.w3.org/TR/2001/REC-SVG-20010904/DTD/svg10.dtd">
<svg version="1.0" xmlns="http://www.w3.org/2000/svg"
 width="84.000000pt" height="85.000000pt" viewBox="0 0 84.000000 85.000000"
 preserveAspectRatio="xMidYMid meet" fill="#D6DCE1">
<g transform="translate(0.000000,85.000000) scale(0.100000,-0.100000)"
 >
<path d="M328 757 c-89 -26 -168 -92 -216 -182 -24 -45 -27 -61 -27 -150 0
-86 3 -107 25 -150 100 -205 363 -259 529 -109 130 117 153 304 56 451 -78
118 -233 177 -367 140z m220 -57 c106 -53 162 -138 170 -257 9 -132 -51 -239
-165 -295 -201 -99 -422 31 -441 258 -18 232 227 398 436 294z M402 598 c-18
-18 -16 -199 2 -224 28 -36 37 -4 34 116 -3 112 -10 134 -36 108z M396 304
c-12 -12 -13 -20 -5 -35 14 -27 53 -22 57 8 4 30 -31 49 -52 27z"/>
</g>
</svg>
