<?xml version="1.0" standalone="no"?>
<!DOCTYPE svg PUBLIC "-//W3C//DTD SVG 20010904//EN"
 "http://www.w3.org/TR/2001/REC-SVG-20010904/DTD/svg10.dtd">
<svg version="1.0" xmlns="http://www.w3.org/2000/svg"
 width="84.000000pt" height="85.000000pt" viewBox="0 0 84.000000 85.000000"
 preserveAspectRatio="xMidYMid meet" fill="#D6DCE1">
<g transform="translate(0.000000,85.000000) scale(0.100000,-0.100000)"
 >
<path d="M339 757 c-196 -56 -303 -261 -236 -455 24 -68 102 -153 172 -187
163 -80 366 -8 450 162 41 82 43 201 4 284 -72 153 -241 238 -390 196z m187
-44 c67 -23 154 -110 177 -177 25 -74 22 -179 -7 -241 -74 -158 -259 -222
-414 -144 -135 67 -197 232 -145 385 22 64 110 154 173 177 60 21 155 21 216
0z M465 440 l-99 -100 -46 45 c-42 42 -70 56 -70 37 0 -4 27 -34 61 -67 l61
-60 104 109 c93 97 120 136 96 136 -4 0 -52 -45 -107 -100z"/>
</g>
</svg>
