<?xml version="1.0" standalone="no"?>
<!DOCTYPE svg PUBLIC "-//W3C//DTD SVG 20010904//EN"
 "http://www.w3.org/TR/2001/REC-SVG-20010904/DTD/svg10.dtd">
<svg version="1.0" xmlns="http://www.w3.org/2000/svg"
 width="91.000000pt" height="79.000000pt" viewBox="0 0 91.000000 79.000000"
 preserveAspectRatio="xMidYMid meet" fill="#D6DCE1">
<g transform="translate(0.000000,79.000000) scale(0.100000,-0.100000)"
 >
<path d="M359 695 c-81 -26 -208 -160 -179 -189 8 -8 13 -7 20 4 92 161 245
211 389 129 63 -36 120 -117 128 -181 l6 -43 -36 33 c-24 23 -37 30 -42 22 -7
-11 79 -110 95 -110 13 0 89 103 84 112 -4 5 -21 -5 -40 -23 l-34 -33 0 35
c-1 77 -76 181 -164 226 -63 32 -160 40 -227 18z M121 363 c-27 -32 -37 -51
-30 -58 6 -6 18 0 33 20 l24 30 7 -30 c56 -261 388 -330 545 -113 22 30 27 44
19 52 -8 8 -16 4 -27 -14 -38 -55 -66 -80 -119 -107 -146 -71 -319 -2 -372
147 -11 30 -18 57 -16 59 2 2 18 -8 35 -23 35 -29 50 -33 50 -12 0 13 -90 96
-103 96 -3 0 -24 -21 -46 -47z"/>
</g>
</svg>
