<?xml version="1.0" standalone="no"?>
<!DOCTYPE svg PUBLIC "-//W3C//DTD SVG 20010904//EN"
 "http://www.w3.org/TR/2001/REC-SVG-20010904/DTD/svg10.dtd">
<svg version="1.0" xmlns="http://www.w3.org/2000/svg"
 width="100.000000pt" height="85.000000pt" viewBox="0 0 100.000000 85.000000"
 preserveAspectRatio="xMidYMid meet" fill="#D6DCE1">
<g transform="translate(0.000000,85.000000) scale(0.100000,-0.100000)"
 >
<path d="M437 759 c-59 -14 -91 -34 -140 -89 -30 -34 -49 -66 -58 -99 -10 -41
-17 -50 -39 -55 -34 -6 -86 -49 -105 -87 -19 -36 -19 -122 0 -159 8 -16 31
-42 52 -57 33 -25 46 -28 131 -32 76 -2 93 0 90 10 -3 10 -30 16 -89 19 -94 6
-121 17 -149 63 -53 86 -5 196 94 216 25 6 31 13 43 61 28 110 104 173 217
178 63 3 78 0 126 -25 63 -33 120 -113 120 -170 0 -29 4 -33 42 -43 75 -21
128 -102 108 -169 -23 -82 -57 -104 -164 -111 -51 -3 -81 -9 -84 -17 -3 -10
17 -13 79 -13 70 0 89 4 125 25 44 26 84 90 84 134 0 72 -59 157 -124 178 -25
8 -32 18 -44 61 -35 126 -186 213 -315 181z M431 403 c-39 -45 -57 -71 -50
-78 6 -6 24 7 50 38 22 26 45 47 50 47 6 0 8 -61 5 -153 -5 -149 0 -187 23
-173 7 5 11 61 11 169 l0 162 46 -48 c34 -35 50 -45 57 -38 8 8 -7 29 -53 76
-35 36 -68 65 -71 65 -4 0 -34 -30 -68 -67z"/>
</g>
</svg>
