<?xml version="1.0" standalone="no"?>
<!DOCTYPE svg PUBLIC "-//W3C//DTD SVG 20010904//EN"
 "http://www.w3.org/TR/2001/REC-SVG-20010904/DTD/svg10.dtd">
<svg version="1.0" xmlns="http://www.w3.org/2000/svg"
 width="101.000000pt" height="85.000000pt" viewBox="0 0 101.000000 85.000000"
 preserveAspectRatio="xMidYMid meet" fill="#D6DCE1">
<g transform="translate(0.000000,85.000000) scale(0.100000,-0.100000)"
 >
<path d="M445 761 c-102 -27 -185 -110 -205 -206 -4 -23 -13 -32 -39 -39 -82
-23 -134 -121 -112 -206 23 -84 86 -130 181 -130 82 0 77 23 -6 30 -110 9
-152 59 -146 172 3 42 57 96 108 109 38 10 44 15 44 38 1 65 63 149 135 182
48 22 151 25 198 6 72 -31 147 -129 147 -194 0 -16 8 -24 28 -29 101 -24 151
-125 104 -213 -24 -45 -74 -71 -134 -71 -36 0 -48 -4 -48 -15 0 -11 12 -15 51
-15 122 0 198 93 175 214 -9 46 -72 114 -114 122 -20 4 -32 13 -32 23 0 61
-93 177 -165 207 -42 17 -131 25 -170 15z M502 458 c-8 -8 -12 -62 -12 -162
l0 -150 -49 48 c-33 32 -51 44 -56 36 -5 -7 17 -37 56 -78 35 -37 66 -69 68
-72 5 -8 131 133 131 147 0 23 -16 14 -64 -37 l-46 -49 0 159 c0 155 -5 181
-28 158z"/>
</g>
</svg>
