<?xml version="1.0" standalone="no"?>
<!DOCTYPE svg PUBLIC "-//W3C//DTD SVG 20010904//EN"
 "http://www.w3.org/TR/2001/REC-SVG-20010904/DTD/svg10.dtd">
<svg version="1.0" xmlns="http://www.w3.org/2000/svg"
 width="83.000000pt" height="77.000000pt" viewBox="0 0 83.000000 77.000000"
 preserveAspectRatio="xMidYMid meet" fill="#D6DCE1">
<g transform="translate(0.000000,77.000000) scale(0.100000,-0.100000)"
 >
<path d="M122 683 c-7 -3 -19 -18 -28 -35 -13 -25 -15 -65 -10 -266 3 -131 6
-243 6 -249 0 -7 9 -22 20 -33 19 -19 33 -20 299 -20 154 0 287 3 296 6 8 4
23 20 31 37 14 26 15 58 9 226 l-7 196 -71 73 -71 72 -231 -1 c-126 0 -236 -3
-243 -6z m108 -108 c0 -73 3 -86 19 -95 28 -15 274 -13 289 2 7 7 12 44 12 95
0 106 13 108 98 19 l62 -64 0 -199 c0 -141 -3 -202 -12 -211 -7 -7 -31 -12
-55 -12 l-43 0 0 87 c0 125 3 123 -185 123 -104 0 -155 -4 -163 -12 -8 -8 -12
-46 -12 -105 l0 -93 -48 0 c-26 0 -53 5 -60 12 -17 17 -17 509 0 526 7 7 31
12 55 12 l43 0 0 -85z m300 5 l0 -80 -134 0 -133 0 -6 53 c-3 29 -3 65 0 80
l5 27 134 0 134 0 0 -80z m30 -380 l0 -90 -145 0 -145 0 0 83 c0 46 3 87 7 90
3 4 69 7 145 7 l138 0 0 -90z M447 603 c-13 -13 -7 -53 8 -53 10 0 15 10 15
30 0 29 -9 38 -23 23z"/>
</g>
</svg>
