<?xml version="1.0" standalone="no"?>
<!DOCTYPE svg PUBLIC "-//W3C//DTD SVG 20010904//EN"
 "http://www.w3.org/TR/2001/REC-SVG-20010904/DTD/svg10.dtd">
<svg version="1.0" xmlns="http://www.w3.org/2000/svg"
 width="88.000000pt" height="80.000000pt" viewBox="0 0 88.000000 80.000000"
 preserveAspectRatio="xMidYMid meet" fill="#D6DCE1">
<g transform="translate(0.000000,80.000000) scale(0.100000,-0.100000)"
 >
<path d="M101 694 c-20 -25 -21 -39 -21 -279 0 -328 -14 -305 186 -305 121 0
144 2 144 15 0 12 -14 15 -70 15 l-70 0 0 90 0 89 132 3 c94 2 133 7 136 16 3
9 -29 12 -136 12 -175 0 -172 2 -172 -121 l0 -89 -50 0 c-38 0 -52 4 -60 19
-6 12 -10 113 -10 260 0 270 0 271 71 271 l39 0 0 -83 c0 -51 5 -88 12 -95 17
-17 289 -17 306 0 7 7 12 44 12 95 0 61 3 83 13 83 7 0 40 -28 74 -62 57 -58
62 -67 65 -113 2 -36 7 -50 18 -50 12 0 15 13 14 58 -1 59 -2 59 -70 128 l-68
69 -238 0 -237 0 -20 -26z m419 -84 l0 -81 -132 3 -133 3 -3 78 -3 77 136 0
135 0 0 -80z M440 610 c0 -16 5 -30 10 -30 6 0 10 14 10 30 0 17 -4 30 -10 30
-5 0 -10 -13 -10 -30z M611 303 c-102 -98 -113 -113 -125 -161 -16 -63 -8 -72
53 -53 47 13 254 219 259 255 3 24 -37 66 -63 66 -7 0 -63 -48 -124 -107z
m152 55 c8 -12 7 -21 -3 -32 -12 -15 -15 -15 -36 5 -19 17 -21 25 -12 36 14
17 38 13 51 -9z m-82 -117 c-68 -78 -101 -107 -137 -118 -30 -10 -30 -10 -26
21 3 23 26 53 85 113 l81 83 23 -22 22 -21 -48 -56z"/>
</g>
</svg>
