<?xml version="1.0" standalone="no"?>
<!DOCTYPE svg PUBLIC "-//W3C//DTD SVG 20010904//EN"
 "http://www.w3.org/TR/2001/REC-SVG-20010904/DTD/svg10.dtd">
<svg version="1.0" xmlns="http://www.w3.org/2000/svg"
 width="82.000000pt" height="89.000000pt" viewBox="0 0 82.000000 89.000000"
 preserveAspectRatio="xMidYMid meet" fill="#D6DCE1">
<g transform="translate(0.000000,89.000000) scale(0.100000,-0.100000)"
 >
<path d="M125 798 c-44 -25 -44 -29 -45 -356 l0 -313 25 -24 c24 -25 24 -25
235 -25 165 0 211 3 208 13 -4 9 -56 13 -208 15 -130 1 -208 6 -217 13 -21 18
-19 622 3 643 12 13 41 16 155 16 l139 0 0 -83 c0 -111 7 -117 123 -117 l87 0
0 -95 c0 -78 3 -95 15 -95 12 0 15 17 15 93 l0 93 -89 99 c-120 133 -124 135
-291 135 -83 0 -143 -5 -155 -12z m408 -116 l78 -79 -73 2 c-40 1 -76 3 -80 3
-7 2 -12 152 -5 152 1 0 38 -35 80 -78z M600 280 l0 -50 -44 0 c-45 0 -69 -16
-46 -30 7 -4 30 -5 51 -3 l38 5 3 -52 c4 -76 28 -80 28 -5 l0 56 50 -2 c53 -3
66 3 55 21 -4 7 -27 10 -54 8 l-46 -2 -3 52 c-2 37 -7 52 -18 52 -10 0 -14
-13 -14 -50z"/>
</g>
</svg>
