<?xml version="1.0" standalone="no"?>
<!DOCTYPE svg PUBLIC "-//W3C//DTD SVG 20010904//EN"
 "http://www.w3.org/TR/2001/REC-SVG-20010904/DTD/svg10.dtd">
<svg version="1.0" xmlns="http://www.w3.org/2000/svg"
 width="81.000000pt" height="89.000000pt" viewBox="0 0 81.000000 89.000000"
 preserveAspectRatio="xMidYMid meet" fill="#D6DCE1">
<g transform="translate(0.000000,89.000000) scale(0.100000,-0.100000)"
 >
<path d="M106 789 l-26 -20 0 -323 c0 -390 -12 -359 147 -364 108 -4 153 1
153 18 0 6 -47 10 -116 10 -63 0 -124 5 -135 10 -18 10 -19 24 -19 324 0 255
3 316 14 325 9 8 59 11 152 9 l139 -3 3 -85 c3 -106 8 -110 119 -110 l83 0 0
-60 c0 -47 3 -60 15 -60 12 0 15 14 15 67 l0 67 -108 108 -108 108 -151 0
c-137 0 -153 -2 -177 -21z m493 -176 c2 -2 -30 -3 -72 -3 l-77 0 0 72 0 72 72
-69 c40 -39 74 -71 77 -72z M563 318 c-101 -99 -117 -122 -128 -181 -8 -42 -4
-44 57 -25 30 9 63 37 139 117 54 58 99 113 99 122 0 18 -44 59 -63 59 -5 0
-52 -42 -104 -92z m136 43 c18 -32 -14 -50 -41 -24 -11 12 -17 26 -14 32 11
18 44 13 55 -8z m-109 -140 c-41 -45 -79 -81 -86 -81 -7 0 -19 -2 -27 -5 -10
-5 -13 2 -9 27 4 24 24 50 81 104 74 71 76 72 95 54 18 -18 17 -20 -54 -99z"/>
</g>
</svg>
