<?xml version="1.0" standalone="no"?>
<!DOCTYPE svg PUBLIC "-//W3C//DTD SVG 20010904//EN"
 "http://www.w3.org/TR/2001/REC-SVG-20010904/DTD/svg10.dtd">
<svg version="1.0" xmlns="http://www.w3.org/2000/svg"
 width="78.000000pt" height="89.000000pt" viewBox="0 0 78.000000 89.000000"
 preserveAspectRatio="xMidYMid meet" fill="#D6DCE1">
<g transform="translate(0.000000,89.000000) scale(0.100000,-0.100000)"
 >
<path d="M105 785 l-25 -24 0 -314 c0 -392 -13 -362 161 -362 89 0 123 3 126
13 4 9 -23 12 -110 12 -92 0 -119 3 -131 16 -24 23 -24 615 0 638 12 13 41 16
145 16 l129 0 0 -83 c0 -110 7 -117 118 -117 l82 0 0 -50 c0 -38 4 -50 15 -50
11 0 15 13 15 54 0 59 0 59 -125 195 -69 74 -90 81 -245 81 -126 0 -132 -1
-155 -25z m410 -173 c-84 -4 -85 -3 -85 79 l0 71 71 -74 71 -73 -57 -3z M470
395 c-11 -13 0 -15 88 -15 113 0 112 1 111 -90 0 -38 -6 -52 -39 -88 l-39 -43
-68 3 -68 3 -3 93 c-1 50 -7 92 -12 92 -6 0 -10 -3 -10 -7 0 -5 -3 -45 -6 -91
-7 -116 -2 -122 92 -122 l75 0 51 48 51 49 5 76 c6 105 4 107 -118 107 -75 0
-100 -4 -110 -15z"/>
</g>
</svg>
