<?xml version="1.0" standalone="no"?>
<!DOCTYPE svg PUBLIC "-//W3C//DTD SVG 20010904//EN"
 "http://www.w3.org/TR/2001/REC-SVG-20010904/DTD/svg10.dtd">
<svg version="1.0" xmlns="http://www.w3.org/2000/svg"
 width="84.000000pt" height="89.000000pt" viewBox="0 0 84.000000 89.000000"
 preserveAspectRatio="xMidYMid meet" fill="#D6DCE1">
<g transform="translate(0.000000,89.000000) scale(0.100000,-0.100000)"
 >
<path d="M109 780 l-30 -29 3 -310 c3 -308 3 -311 26 -333 22 -22 27 -23 235
-23 117 0 222 3 235 7 29 10 50 54 34 70 -8 8 -14 5 -21 -15 -12 -32 -7 -31
-276 -28 -155 1 -182 4 -192 18 -10 13 -13 92 -13 314 0 257 2 300 16 313 12
13 41 16 145 16 l129 0 0 -84 c0 -110 6 -116 110 -116 78 0 79 0 82 -27 5 -41
28 -41 28 0 0 43 -33 89 -133 185 l-75 72 -137 0 -137 0 -29 -30z m396 -100
l69 -70 -72 0 -72 0 0 70 c0 39 1 70 3 70 1 0 34 -31 72 -70z M630 450 c0 -5
19 -27 43 -49 l42 -40 -127 -1 c-116 0 -154 -8 -134 -27 3 -3 62 -5 132 -5
l127 0 -42 -42 c-22 -23 -41 -45 -41 -49 0 -20 31 -1 80 48 l54 54 -20 22
c-74 84 -114 115 -114 89z"/>
</g>
</svg>
