<?xml version="1.0" standalone="no"?>
<!DOCTYPE svg PUBLIC "-//W3C//DTD SVG 20010904//EN"
 "http://www.w3.org/TR/2001/REC-SVG-20010904/DTD/svg10.dtd">
<svg version="1.0" xmlns="http://www.w3.org/2000/svg"
 width="85.000000pt" height="89.000000pt" viewBox="0 0 85.000000 89.000000"
 preserveAspectRatio="xMidYMid meet" fill="#D6DCE1">
<g transform="translate(0.000000,89.000000) scale(0.100000,-0.100000)"
 >
<path d="M109 781 l-29 -29 0 -307 0 -307 29 -29 29 -29 215 0 c202 0 216 1
241 21 15 12 26 30 26 45 0 29 -16 32 -25 4 -11 -34 -34 -38 -242 -39 -191 -1
-204 0 -223 19 -19 19 -20 33 -20 319 0 362 -16 331 167 331 l123 0 0 -82 c0
-46 5 -90 10 -98 7 -11 34 -16 97 -20 87 -5 88 -5 91 -32 4 -36 32 -38 32 -3
0 42 -23 75 -123 173 l-94 92 -137 0 -138 0 -29 -29z m396 -101 l69 -70 -72 0
-72 0 0 70 c0 39 1 70 3 70 1 0 34 -31 72 -70z M640 446 c0 -7 18 -30 40 -50
l40 -36 -129 0 c-98 0 -131 -3 -140 -14 -16 -19 -10 -158 6 -163 9 -3 13 17
15 66 l3 71 124 4 124 5 -43 -44 c-25 -26 -39 -48 -35 -55 7 -12 125 94 125
113 0 11 -112 117 -122 117 -5 0 -8 -6 -8 -14z"/>
</g>
</svg>
