<?xml version="1.0" standalone="no"?>
<!DOCTYPE svg PUBLIC "-//W3C//DTD SVG 20010904//EN"
 "http://www.w3.org/TR/2001/REC-SVG-20010904/DTD/svg10.dtd">
<svg version="1.0" xmlns="http://www.w3.org/2000/svg"
 width="80.000000pt" height="89.000000pt" viewBox="0 0 80.000000 89.000000"
 preserveAspectRatio="xMidYMid meet" fill="#D6DCE1">
<g transform="translate(0.000000,89.000000) scale(0.100000,-0.100000)"
 >
<path d="M105 785 l-25 -24 0 -316 0 -316 25 -24 c24 -25 24 -25 239 -25 118
0 226 4 240 10 15 5 28 20 32 35 9 38 -5 44 -28 12 l-20 -27 -213 0 c-181 0
-216 2 -229 16 -24 23 -24 615 0 638 12 13 41 16 145 16 l129 0 0 -84 c0 -111
5 -116 116 -116 l84 0 0 -95 c0 -78 3 -95 15 -95 21 0 21 165 1 205 -16 30
-170 191 -197 206 -10 5 -79 9 -154 9 -131 0 -137 -1 -160 -25z m474 -172 c2
-2 -30 -3 -72 -3 l-77 0 0 72 0 72 72 -69 c40 -39 74 -71 77 -72z M453 238 c3
-10 38 -13 132 -13 94 0 129 3 133 13 3 9 -28 12 -133 12 -105 0 -136 -3 -132
-12z"/>
</g>
</svg>
