<?xml version="1.0" standalone="no"?>
<!DOCTYPE svg PUBLIC "-//W3C//DTD SVG 20010904//EN"
 "http://www.w3.org/TR/2001/REC-SVG-20010904/DTD/svg10.dtd">
<svg version="1.0" xmlns="http://www.w3.org/2000/svg"
 width="82.000000pt" height="88.000000pt" viewBox="0 0 82.000000 88.000000"
 preserveAspectRatio="xMidYMid meet" fill="#D6DCE1">
<g transform="translate(0.000000,88.000000) scale(0.100000,-0.100000)"
 >
<path d="M109 781 l-24 -19 0 -322 0 -322 24 -19 c20 -17 40 -19 158 -19 103
0 134 3 131 13 -3 8 -41 13 -134 15 -107 2 -131 5 -141 19 -17 22 -19 594 -3
624 10 17 23 19 155 19 l145 0 0 -80 c0 -109 11 -120 120 -120 l80 0 0 -61 c0
-62 14 -104 31 -94 14 10 11 142 -5 173 -8 15 -57 69 -109 120 l-94 92 -156 0
c-137 0 -157 -2 -178 -19z m430 -179 c-89 -4 -89 -4 -89 80 l0 72 75 -74 76
-75 -62 -3z M475 341 c-56 -25 -108 -86 -95 -110 13 -26 77 -81 107 -92 77
-29 186 5 234 72 21 29 21 33 7 58 -9 14 -37 41 -63 59 -56 38 -125 43 -190
13z m143 -17 c40 -16 92 -61 92 -79 0 -18 -52 -63 -94 -80 -61 -26 -118 -13
-173 38 l-44 41 34 33 c32 33 92 62 130 63 10 0 34 -7 55 -16z M522 293 c-31
-28 -35 -56 -11 -86 34 -44 89 -36 108 16 24 62 -48 112 -97 70z m59 -13 c32
-18 19 -80 -17 -80 -17 0 -44 28 -44 45 0 13 26 45 36 45 3 0 14 -5 25 -10z"/>
</g>
</svg>
