<?xml version="1.0" standalone="no"?>
<!DOCTYPE svg PUBLIC "-//W3C//DTD SVG 20010904//EN"
 "http://www.w3.org/TR/2001/REC-SVG-20010904/DTD/svg10.dtd">
<svg version="1.0" xmlns="http://www.w3.org/2000/svg"
 width="92.000000pt" height="73.000000pt" viewBox="0 0 92.000000 73.000000"
 preserveAspectRatio="xMidYMid meet" fill="#D6DCE1">
<g transform="translate(0.000000,73.000000) scale(0.100000,-0.100000)"
 >
<path d="M102 627 c-21 -23 -22 -31 -22 -265 0 -229 1 -243 20 -262 19 -19 33
-20 270 -20 216 0 250 2 250 15 0 13 -34 15 -243 15 -176 0 -246 3 -255 12
-19 19 -17 472 2 487 10 8 44 11 98 10 81 -3 84 -4 124 -41 l41 -38 170 0
c127 0 173 -3 181 -13 6 -7 12 -44 14 -82 4 -91 22 -90 26 1 2 59 -1 75 -18
97 l-21 27 -171 0 -171 0 -43 40 -44 40 -93 0 c-85 0 -96 -2 -115 -23z M700
265 l0 -55 -51 0 c-66 0 -63 -24 4 -28 l46 -3 3 -46 c4 -67 28 -70 28 -4 l0
51 39 0 c44 0 71 8 71 21 0 5 -25 9 -55 9 l-55 0 0 55 c0 42 -3 55 -15 55 -12
0 -15 -13 -15 -55z"/>
</g>
</svg>
