<?xml version="1.0" standalone="no"?>
<!DOCTYPE svg PUBLIC "-//W3C//DTD SVG 20010904//EN"
 "http://www.w3.org/TR/2001/REC-SVG-20010904/DTD/svg10.dtd">
<svg version="1.0" xmlns="http://www.w3.org/2000/svg"
 width="93.000000pt" height="77.000000pt" viewBox="0 0 93.000000 77.000000"
 preserveAspectRatio="xMidYMid meet" fill="#D6DCE1">
<g transform="translate(0.000000,77.000000) scale(0.100000,-0.100000)"
 >
<path d="M106 669 l-26 -20 0 -245 0 -245 25 -24 c24 -25 27 -25 195 -25 163
0 170 1 170 20 0 19 -7 20 -168 20 -117 0 -172 4 -180 12 -13 13 -18 441 -6
472 5 13 24 16 108 16 l102 0 34 -35 34 -35 177 0 c208 0 209 0 209 -87 0 -75
24 -68 28 8 2 44 -1 61 -18 82 l-21 27 -183 0 -182 0 -39 40 -39 40 -97 0
c-82 0 -100 -3 -123 -21z M668 283 c-97 -100 -106 -112 -113 -156 -3 -26 -3
-47 0 -47 3 0 26 5 51 11 38 10 60 27 144 117 55 59 100 113 100 122 0 20 -41
60 -61 60 -8 0 -62 -48 -121 -107z m150 53 c2 -10 -1 -23 -7 -29 -14 -14 -57
25 -46 43 11 17 49 8 53 -14z m-53 -36 c18 -20 17 -22 -51 -93 -38 -41 -76
-76 -84 -79 -8 -3 -23 -9 -32 -13 -16 -6 -17 -3 -12 26 5 24 28 56 77 107 40
39 74 72 78 72 3 0 14 -9 24 -20z"/>
</g>
</svg>
