<?xml version="1.0" standalone="no"?>
<!DOCTYPE svg PUBLIC "-//W3C//DTD SVG 20010904//EN"
 "http://www.w3.org/TR/2001/REC-SVG-20010904/DTD/svg10.dtd">
<svg version="1.0" xmlns="http://www.w3.org/2000/svg"
 width="97.000000pt" height="74.000000pt" viewBox="0 0 97.000000 74.000000"
 preserveAspectRatio="xMidYMid meet" fill="#D6DCE1">
<g transform="translate(0.000000,74.000000) scale(0.100000,-0.100000)"
 >
<path d="M122 653 c-36 -14 -42 -57 -42 -282 0 -236 5 -262 49 -280 17 -8 116
-10 286 -9 223 3 260 5 260 18 0 13 -39 16 -275 20 l-275 5 0 245 0 245 100 3
100 3 35 -36 34 -35 182 0 c135 0 184 -3 192 -13 6 -7 12 -37 14 -67 5 -82 28
-79 28 4 0 105 -2 106 -216 106 l-176 0 -45 40 -46 40 -96 -1 c-53 0 -102 -3
-109 -6z M760 342 c0 -4 18 -26 41 -47 l40 -40 -127 -5 c-89 -4 -129 -9 -132
-17 -3 -10 26 -13 122 -13 69 0 126 -4 126 -8 0 -4 -16 -23 -35 -42 -19 -19
-35 -38 -35 -42 0 -21 30 -3 77 49 l53 57 -53 57 c-48 52 -77 71 -77 51z"/>
</g>
</svg>
