<?xml version="1.0" standalone="no"?>
<!DOCTYPE svg PUBLIC "-//W3C//DTD SVG 20010904//EN"
 "http://www.w3.org/TR/2001/REC-SVG-20010904/DTD/svg10.dtd">
<svg version="1.0" xmlns="http://www.w3.org/2000/svg"
 width="95.000000pt" height="77.000000pt" viewBox="0 0 95.000000 77.000000"
 preserveAspectRatio="xMidYMid meet" fill="#D6DCE1">
<g transform="translate(0.000000,77.000000) scale(0.100000,-0.100000)"
 >
<path d="M105 665 l-25 -24 0 -241 0 -241 25 -25 c24 -24 25 -24 192 -22 141
3 168 5 168 18 0 13 -26 15 -164 18 -101 1 -170 7 -178 13 -10 9 -13 62 -13
234 0 123 3 230 6 239 5 13 24 16 101 16 95 0 96 0 134 -35 l39 -35 173 0 c94
0 178 -4 185 -9 8 -5 15 -26 15 -47 2 -28 7 -40 20 -42 29 -6 23 72 -8 103
-24 25 -27 25 -196 25 l-172 0 -43 40 -44 40 -95 0 c-88 0 -98 -2 -120 -25z
M610 395 c-15 -18 -20 -17 108 -15 123 2 121 4 117 -137 -1 -69 1 -93 10 -93
20 0 25 25 25 129 0 130 -2 131 -142 131 -82 0 -108 -3 -118 -15z M556 324
c-3 -9 -6 -58 -6 -109 0 -133 4 -137 140 -133 84 2 105 6 108 18 2 13 -14 15
-100 15 l-103 0 -3 113 c-2 86 -6 112 -16 112 -8 0 -17 -7 -20 -16z"/>
</g>
</svg>
