<?xml version="1.0" standalone="no"?>
<!DOCTYPE svg PUBLIC "-//W3C//DTD SVG 20010904//EN"
 "http://www.w3.org/TR/2001/REC-SVG-20010904/DTD/svg10.dtd">
<svg version="1.0" xmlns="http://www.w3.org/2000/svg"
 width="93.000000pt" height="74.000000pt" viewBox="0 0 93.000000 74.000000"
 preserveAspectRatio="xMidYMid meet" fill="#D6DCE1">
<g transform="translate(0.000000,74.000000) scale(0.100000,-0.100000)"
 >
<path d="M123 650 c-12 -5 -26 -18 -32 -29 -15 -28 -15 -462 0 -495 17 -37 45
-41 244 -40 323 2 335 2 335 19 0 13 -36 15 -268 15 -195 0 -271 3 -280 12
-14 14 -17 454 -4 476 6 8 39 13 101 15 l92 2 36 -37 37 -38 176 0 c124 0 180
-4 188 -12 7 -7 12 -42 12 -86 0 -54 3 -73 13 -70 8 3 13 30 15 74 2 59 -1 75
-18 97 l-21 27 -171 0 -170 0 -48 40 c-48 40 -48 40 -131 39 -46 0 -94 -4
-106 -9z M585 239 c-4 -6 -4 -13 0 -17 6 -7 257 -4 264 3 1 2 0 8 -4 14 -9 15
-251 15 -260 0z"/>
</g>
</svg>
