<?xml version="1.0" standalone="no"?>
<!DOCTYPE svg PUBLIC "-//W3C//DTD SVG 20010904//EN"
 "http://www.w3.org/TR/2001/REC-SVG-20010904/DTD/svg10.dtd">
<svg version="1.0" xmlns="http://www.w3.org/2000/svg"
 width="82.000000pt" height="82.000000pt" viewBox="0 0 82.000000 82.000000"
 preserveAspectRatio="xMidYMid meet" fill="#D6DCE1">
<g transform="translate(0.000000,82.000000) scale(0.100000,-0.100000)"
 >
<path d="M307 728 c-24 -19 -34 -68 -13 -68 9 0 16 5 16 10 0 6 39 10 96 10
76 0 99 -3 112 -17 16 -16 17 -15 20 11 6 52 -19 66 -123 66 -57 0 -97 -5
-108 -12z M92 628 c-18 -18 5 -38 42 -38 30 0 32 -2 29 -27 -2 -16 5 -120 16
-232 24 -267 10 -251 230 -251 184 0 197 5 211 80 15 85 44 419 37 427 -18 17
-27 -26 -47 -222 -12 -115 -25 -217 -29 -225 -7 -12 -38 -16 -171 -18 -90 -1
-167 1 -171 5 -5 5 -15 94 -24 198 -9 105 -20 206 -24 226 l-8 37 41 6 c22 4
146 6 274 5 128 -1 235 1 239 4 3 3 3 13 0 22 -6 13 -47 15 -320 15 -227 0
-316 -3 -325 -12z M327 493 c-11 -11 -8 -271 3 -278 22 -13 25 8 22 144 -3
130 -7 153 -25 134z M467 493 c-4 -3 -7 -69 -7 -145 0 -107 3 -139 13 -136 9
3 13 44 15 146 2 129 -2 155 -21 135z"/>
</g>
</svg>
