<?xml version="1.0" standalone="no"?>
<!DOCTYPE svg PUBLIC "-//W3C//DTD SVG 20010904//EN"
 "http://www.w3.org/TR/2001/REC-SVG-20010904/DTD/svg10.dtd">
<svg version="1.0" xmlns="http://www.w3.org/2000/svg"
 width="88.000000pt" height="87.000000pt" viewBox="0 0 88.000000 87.000000"
 preserveAspectRatio="xMidYMid meet" fill="#D6DCE1">
<g transform="translate(0.000000,87.000000) scale(0.100000,-0.100000)"
 >
<path d="M302 774 c-12 -8 -22 -26 -22 -39 0 -29 18 -43 26 -21 5 13 24 16
104 16 80 0 99 -3 104 -16 3 -8 10 -12 16 -9 16 10 11 44 -10 65 -26 26 -182
29 -218 4z M92 678 c-33 -33 3 -36 316 -31 169 2 313 7 321 9 11 3 11 7 1 19
-16 20 -618 23 -638 3z M163 533 c15 -234 30 -355 48 -376 15 -20 29 -22 124
-25 99 -4 107 -3 103 15 -3 16 -15 18 -98 21 -51 1 -99 7 -105 12 -7 6 -15 52
-18 102 -18 252 -31 348 -45 348 -13 0 -14 -16 -9 -97z M626 599 c-10 -53 -7
-89 8 -89 14 0 26 42 26 91 0 40 -26 38 -34 -2z M327 543 c-4 -3 -7 -69 -7
-145 0 -116 2 -138 15 -138 13 0 15 23 15 145 0 133 -4 157 -23 138z M460 496
c0 -44 3 -56 16 -56 12 0 14 10 12 52 -4 74 -28 77 -28 4z M610 369 c-13 -5
-32 -17 -41 -25 -15 -13 -17 -13 -22 1 -12 29 -27 15 -27 -25 0 -39 1 -40 34
-40 19 0 38 5 41 10 3 6 -1 10 -9 10 -26 0 -18 18 14 35 79 41 170 -10 170
-94 0 -83 -62 -140 -136 -127 -35 7 -56 27 -36 34 27 9 9 22 -28 22 -39 0 -40
-1 -40 -35 0 -33 14 -48 22 -23 3 7 13 5 32 -7 35 -23 103 -24 142 -1 93 56
99 193 10 251 -32 21 -93 28 -126 14z"/>
</g>
</svg>
