<?xml version="1.0" standalone="no"?>
<!DOCTYPE svg PUBLIC "-//W3C//DTD SVG 20010904//EN"
 "http://www.w3.org/TR/2001/REC-SVG-20010904/DTD/svg10.dtd">
<svg version="1.0" xmlns="http://www.w3.org/2000/svg"
 width="85.000000pt" height="84.000000pt" viewBox="0 0 85.000000 84.000000"
 preserveAspectRatio="xMidYMid meet" fill="#D6DCE1">
<g transform="translate(0.000000,84.000000) scale(0.100000,-0.100000)"
 >
<path d="M246 736 c-105 -52 -158 -135 -164 -259 -4 -68 -1 -84 22 -132 77
-157 282 -213 421 -116 l40 29 92 -91 c73 -72 95 -89 105 -79 10 10 -7 32 -78
105 l-91 92 28 51 c106 191 -35 424 -256 424 -53 -1 -82 -6 -119 -24z m242
-40 c86 -44 132 -123 132 -228 -1 -144 -109 -250 -255 -250 -98 0 -182 50
-228 136 -30 57 -30 174 0 231 68 130 220 177 351 111z M356 593 c-3 -3 -6
-28 -6 -55 l0 -48 -50 0 c-38 0 -50 -4 -50 -15 0 -11 12 -15 49 -15 l50 0 3
-52 c4 -71 26 -76 30 -6 l3 53 47 0 c25 0 49 3 53 7 16 15 -9 28 -56 28 l-49
0 0 49 c0 47 -9 68 -24 54z"/>
</g>
</svg>
