<?xml version="1.0" standalone="no"?>
<!DOCTYPE svg PUBLIC "-//W3C//DTD SVG 20010904//EN"
 "http://www.w3.org/TR/2001/REC-SVG-20010904/DTD/svg10.dtd">
<svg version="1.0" xmlns="http://www.w3.org/2000/svg"
 width="88.000000pt" height="85.000000pt" viewBox="0 0 88.000000 85.000000"
 preserveAspectRatio="xMidYMid meet" fill="#D6DCE1">
<g transform="translate(0.000000,85.000000) scale(0.100000,-0.100000)"
 >
<path d="M97 752 c-35 -38 -22 -63 103 -205 l119 -136 3 -122 3 -123 74 -44
c40 -24 80 -41 87 -38 11 4 14 40 14 169 l0 163 120 134 c125 142 139 169 102
203 -16 15 -53 17 -314 17 -273 0 -296 -1 -311 -18z m603 -42 c0 -18 -81 -115
-203 -247 -29 -32 -30 -32 -34 -180 -3 -81 -6 -149 -8 -151 -1 -2 -26 11 -54
28 l-51 32 0 116 0 117 -120 137 c-66 75 -120 144 -120 152 0 14 33 16 295 16
290 0 295 0 295 -20z M711 371 c-14 -14 -37 -21 -72 -23 -74 -4 -79 -28 -6
-28 41 0 58 -5 72 -20 23 -25 57 -26 78 -2 24 26 21 47 -9 71 -33 26 -39 26
-63 2z m55 -50 c-10 -16 -36 -13 -43 5 -8 22 18 37 36 20 7 -8 10 -19 7 -25z
M621 224 c-16 -13 -34 -24 -40 -24 -17 0 -13 -20 6 -27 9 -4 25 -15 35 -25 24
-24 43 -23 70 4 17 17 32 21 65 19 34 -2 43 1 43 13 0 12 -11 16 -45 16 -33 0
-47 5 -54 19 -16 30 -48 32 -80 5z m59 -34 c0 -24 -26 -38 -42 -22 -16 16 -2
42 22 42 13 0 20 -7 20 -20z"/>
</g>
</svg>
