<?xml version="1.0" standalone="no"?>
<!DOCTYPE svg PUBLIC "-//W3C//DTD SVG 20010904//EN"
 "http://www.w3.org/TR/2001/REC-SVG-20010904/DTD/svg10.dtd">
<svg version="1.0" xmlns="http://www.w3.org/2000/svg"
 width="84.000000pt" height="71.000000pt" viewBox="0 0 84.000000 71.000000"
 preserveAspectRatio="xMidYMid meet" fill="#D6DCE1">
<g transform="translate(0.000000,71.000000) scale(0.100000,-0.100000)"
 >
<path d="M256 614 c-20 -51 14 -104 66 -104 50 0 82 53 62 104 -9 23 -119 23
-128 0z m99 -34 c0 -29 -4 -36 -23 -38 -43 -6 -69 37 -40 66 7 7 24 12 38 10
21 -3 25 -8 25 -38z M91 586 c-19 -23 22 -39 85 -34 60 5 69 10 61 33 -9 21
-129 22 -146 1z M413 585 c-3 -9 -4 -18 -1 -20 11 -11 330 -7 341 4 23 23 -17
31 -176 31 -133 0 -159 -2 -164 -15z M493 414 l-26 -27 -171 2 c-177 2 -206
-1 -206 -25 0 -11 35 -14 194 -14 160 0 195 -3 199 -14 3 -8 17 -22 32 -32 43
-28 105 14 105 72 0 24 -47 64 -75 64 -15 0 -37 -11 -52 -26z m89 -29 c9 -21
8 -28 -7 -45 -10 -11 -24 -20 -31 -20 -17 0 -44 28 -44 45 0 20 28 45 51 45
11 0 24 -11 31 -25z M640 364 c0 -12 10 -14 52 -12 74 4 77 28 4 28 -44 0 -56
-3 -56 -16z M265 205 c-41 -41 -23 -102 36 -120 58 -19 103 74 58 121 -29 31
-63 31 -94 -1z m85 -26 c16 -28 -12 -72 -43 -67 -28 4 -46 50 -27 72 18 23 57
20 70 -5z M90 155 c0 -12 14 -15 70 -15 56 0 70 3 70 15 0 12 -14 15 -70 15
-56 0 -70 -3 -70 -15z M407 163 c-20 -20 8 -23 165 -21 126 2 172 6 176 16 3
9 -35 12 -165 12 -94 0 -173 -3 -176 -7z"/>
</g>
</svg>
