<?xml version="1.0" standalone="no"?>
<!DOCTYPE svg PUBLIC "-//W3C//DTD SVG 20010904//EN"
 "http://www.w3.org/TR/2001/REC-SVG-20010904/DTD/svg10.dtd">
<svg version="1.0" xmlns="http://www.w3.org/2000/svg"
 width="86.000000pt" height="85.000000pt" viewBox="0 0 86.000000 85.000000"
 preserveAspectRatio="xMidYMid meet" fill="#D6DCE1">
<g transform="translate(0.000000,85.000000) scale(0.100000,-0.100000)"
 >
<path d="M373 762 c-6 -4 -14 -23 -18 -43 -10 -53 -45 -67 -92 -38 l-35 22
-44 -44 -44 -44 24 -35 c32 -48 21 -77 -34 -86 -46 -7 -53 -22 -48 -95 3 -43
4 -44 46 -52 54 -11 69 -39 41 -79 -27 -37 -24 -49 20 -92 l39 -39 36 22 c51
32 81 21 92 -32 l9 -42 58 -3 c67 -3 82 5 91 52 9 46 44 55 93 25 l35 -22 41
42 42 41 -23 40 c-28 50 -18 74 35 87 l38 9 0 64 0 64 -39 11 c-51 15 -60 39
-32 87 l21 37 -40 41 c-44 45 -50 47 -84 21 -35 -27 -77 -11 -87 32 -3 18 -11
38 -16 45 -11 13 -105 17 -125 4z m107 -59 c0 -36 7 -44 51 -65 34 -15 37 -15
72 5 l37 21 24 -23 25 -24 -23 -34 c-23 -33 -23 -36 -9 -73 13 -33 21 -40 54
-45 37 -6 39 -8 39 -45 0 -36 -2 -38 -38 -44 -31 -5 -41 -12 -55 -42 -17 -35
-17 -37 4 -70 l21 -35 -22 -24 -23 -24 -36 20 c-34 20 -38 20 -73 5 -27 -12
-39 -24 -44 -44 -11 -52 -13 -53 -51 -50 -33 3 -37 7 -47 42 -9 31 -18 41 -48
53 -35 14 -40 14 -73 -5 -34 -20 -35 -21 -57 -2 l-23 19 20 38 c19 35 20 41 6
76 -12 32 -19 38 -52 43 -37 6 -39 8 -39 44 0 37 2 39 40 45 35 6 41 11 51 45
10 34 9 43 -10 73 l-21 34 25 23 24 23 35 -21 c34 -20 37 -20 75 -4 34 14 41
23 46 55 7 36 8 37 51 37 41 0 44 -2 44 -27z M383 534 c-69 -34 -91 -114 -50
-175 76 -113 239 -56 224 78 -5 50 -28 80 -74 99 -41 18 -60 17 -100 -2z m102
-30 c20 -8 45 -56 45 -87 0 -62 -79 -104 -138 -73 -34 18 -42 33 -42 86 0 61
69 99 135 74z"/>
</g>
</svg>
