<?xml version="1.0" standalone="no"?>
<!DOCTYPE svg PUBLIC "-//W3C//DTD SVG 20010904//EN"
 "http://www.w3.org/TR/2001/REC-SVG-20010904/DTD/svg10.dtd">
<svg version="1.0" xmlns="http://www.w3.org/2000/svg"
 width="89.000000pt" height="74.000000pt" viewBox="0 0 89.000000 74.000000"
 preserveAspectRatio="xMidYMid meet" fill="#D6DCE1">
<g transform="translate(0.000000,74.000000) scale(0.100000,-0.100000)"
 >
<path d="M154 648 c-5 -8 66 -84 207 -221 317 -308 364 -350 378 -333 9 11
-45 68 -270 282 -154 148 -287 272 -294 277 -8 4 -17 2 -21 -5z M374 611 c-56
-14 -68 -21 -57 -32 7 -7 30 -7 69 0 137 22 287 -45 361 -162 30 -47 25 -63
-37 -131 -33 -36 -38 -45 -26 -55 15 -13 62 33 105 102 l23 37 -26 44 c-39 66
-136 151 -202 176 -64 23 -162 33 -210 21z M164 488 c-22 -24 -50 -60 -63 -81
l-23 -37 32 -50 c93 -145 261 -223 405 -189 40 9 60 19 60 29 0 10 -7 14 -20
11 -11 -2 -60 -4 -110 -5 -77 -1 -98 3 -145 25 -59 27 -141 102 -166 151 -14
27 -13 31 5 61 11 18 35 47 55 66 19 18 32 40 29 47 -8 22 -18 17 -59 -28z
M417 494 c-12 -12 4 -24 33 -24 35 0 90 -44 90 -72 0 -27 19 -60 31 -53 27 18
-9 108 -55 136 -30 18 -86 25 -99 13z M321 396 c-26 -67 45 -156 125 -156 59
0 55 23 -6 31 -56 8 -90 45 -90 99 0 46 -16 61 -29 26z"/>
</g>
</svg>
