<?xml version="1.0" standalone="no"?>
<!DOCTYPE svg PUBLIC "-//W3C//DTD SVG 20010904//EN"
 "http://www.w3.org/TR/2001/REC-SVG-20010904/DTD/svg10.dtd">
<svg version="1.0" xmlns="http://www.w3.org/2000/svg"
 width="80.000000pt" height="81.000000pt" viewBox="0 0 80.000000 81.000000"
 preserveAspectRatio="xMidYMid meet" fill="#D6DCE1">
<g transform="translate(0.000000,81.000000) scale(0.100000,-0.100000)"
 >
<path d="M303 712 c-234 -84 -301 -365 -129 -538 228 -228 612 -9 532 304 -47
186 -234 295 -403 234z m222 -50 c141 -72 197 -259 120 -401 -16 -28 -31 -50
-35 -49 -4 2 -96 94 -205 206 -158 161 -196 206 -184 213 8 6 37 22 64 35 63
32 175 30 240 -4z m48 -491 c-78 -60 -209 -74 -295 -32 -94 45 -168 160 -168
260 0 51 25 132 51 166 l22 27 204 -204 c185 -185 202 -204 186 -217z"/>
</g>
</svg>
