<?xml version="1.0" standalone="no"?>
<!DOCTYPE svg PUBLIC "-//W3C//DTD SVG 20010904//EN"
 "http://www.w3.org/TR/2001/REC-SVG-20010904/DTD/svg10.dtd">
<svg version="1.0" xmlns="http://www.w3.org/2000/svg"
 width="76.000000pt" height="86.000000pt" viewBox="0 0 76.000000 86.000000"
 preserveAspectRatio="xMidYMid meet" fill="#D6DCE1">
<g transform="translate(0.000000,86.000000) scale(0.100000,-0.100000)"
 >
<path d="M294 766 c-34 -15 -72 -58 -79 -90 -2 -12 -7 -56 -10 -98 l-7 -78
-34 0 c-24 0 -43 -8 -59 -25 -24 -24 -25 -27 -25 -185 0 -158 1 -161 25 -185
l24 -25 251 0 251 0 24 25 c24 24 25 27 25 185 0 223 15 210 -245 210 l-195 0
0 75 c0 125 33 165 136 165 47 0 67 -5 88 -21 32 -25 60 -12 36 16 -36 44
-140 59 -206 31z m337 -312 c8 -10 14 -61 17 -155 4 -117 2 -143 -12 -164
l-16 -25 -233 0 c-171 0 -238 3 -250 13 -23 16 -30 304 -8 330 20 25 481 26
502 1z M358 359 c-19 -11 -24 -54 -8 -64 6 -3 10 -26 10 -51 0 -37 3 -44 20
-44 17 0 20 7 20 45 0 25 4 45 9 45 20 0 23 41 5 61 -19 21 -31 23 -56 8z"/>
</g>
</svg>
