<?xml version="1.0" standalone="no"?>
<!DOCTYPE svg PUBLIC "-//W3C//DTD SVG 20010904//EN"
 "http://www.w3.org/TR/2001/REC-SVG-20010904/DTD/svg10.dtd">
<svg version="1.0" xmlns="http://www.w3.org/2000/svg"
 width="84.000000pt" height="73.000000pt" viewBox="0 0 84.000000 73.000000"
 preserveAspectRatio="xMidYMid meet" fill="#D6DCE1">
<g transform="translate(0.000000,73.000000) scale(0.100000,-0.100000)"
 >
<path d="M100 630 c-19 -19 -20 -33 -20 -263 0 -242 0 -244 23 -265 23 -22 29
-22 320 -22 284 0 298 1 317 20 19 19 20 33 20 265 0 232 -1 246 -20 265 -19
19 -33 20 -320 20 -287 0 -301 -1 -320 -20z m623 -147 c3 -71 2 -134 -2 -140
-5 -9 -22 3 -56 37 -27 28 -54 50 -60 50 -5 -1 -50 -39 -100 -85 l-90 -84 -35
34 c-46 45 -57 44 -105 -6 -22 -22 -66 -63 -97 -91 l-58 -50 0 231 0 231 299
0 298 0 6 -127z m1 -273 c2 -37 0 -70 -6 -77 -8 -10 -78 -13 -288 -13 l-277 0
88 87 89 87 43 -41 42 -42 95 89 95 89 57 -57 c56 -56 57 -58 62 -122z M222
517 c-30 -32 -28 -71 4 -96 34 -27 55 -26 82 2 28 30 28 68 -1 95 -30 28 -58
28 -85 -1z m72 -33 c7 -19 -10 -44 -29 -44 -19 0 -36 25 -29 44 3 9 16 16 29
16 13 0 26 -7 29 -16z"/>
</g>
</svg>
