<?xml version="1.0" standalone="no"?>
<!DOCTYPE svg PUBLIC "-//W3C//DTD SVG 20010904//EN"
 "http://www.w3.org/TR/2001/REC-SVG-20010904/DTD/svg10.dtd">
<svg version="1.0" xmlns="http://www.w3.org/2000/svg"
 width="84.000000pt" height="81.000000pt" viewBox="0 0 84.000000 81.000000"
 preserveAspectRatio="xMidYMid meet" fill="#D6DCE1">
<g transform="translate(0.000000,81.000000) scale(0.100000,-0.100000)"
 >
<path d="M396 708 c-8 -13 -31 -58 -52 -100 -27 -59 -41 -78 -56 -78 -11 0
-60 -7 -109 -16 -122 -23 -124 -33 -27 -133 l74 -76 -12 -65 c-18 -98 -17
-149 2 -157 10 -4 55 13 111 40 l93 47 90 -45 c88 -44 123 -54 134 -36 4 5 -1
58 -10 117 l-16 107 71 71 c102 103 97 115 -63 137 l-86 12 -48 96 c-51 101
-71 117 -96 79z m178 -217 c34 -5 81 -13 105 -16 l43 -7 -72 -73 -73 -73 16
-99 c8 -54 14 -99 12 -101 -2 -2 -44 17 -94 42 l-91 46 -90 -45 c-49 -25 -90
-40 -90 -34 0 7 5 52 12 101 l12 89 -73 73 -73 74 88 11 c49 7 96 13 104 14 8
1 37 45 64 97 l49 94 45 -91 46 -92 60 -10z"/>
</g>
</svg>
