<?xml version="1.0" standalone="no"?>
<!DOCTYPE svg PUBLIC "-//W3C//DTD SVG 20010904//EN"
 "http://www.w3.org/TR/2001/REC-SVG-20010904/DTD/svg10.dtd">
<svg version="1.0" xmlns="http://www.w3.org/2000/svg"
 width="81.000000pt" height="82.000000pt" viewBox="0 0 81.000000 82.000000"
 preserveAspectRatio="xMidYMid meet" fill="#D6DCE1">
<g transform="translate(0.000000,82.000000) scale(0.100000,-0.100000)"
 >
<path d="M337 730 c-206 -52 -312 -274 -219 -462 57 -117 157 -180 286 -181
286 -2 429 344 227 551 -76 77 -198 116 -294 92z m154 -46 c73 -21 158 -107
184 -184 71 -215 -131 -429 -347 -366 -266 77 -277 457 -14 548 64 22 107 22
177 2z M390 485 l0 -54 -57 -3 c-44 -2 -58 -7 -58 -18 0 -11 14 -16 58 -18
l57 -3 0 -54 c0 -42 4 -55 15 -55 12 0 15 13 15 55 l0 55 53 0 c58 0 68 4 60
26 -3 10 -22 14 -59 14 l-54 0 0 55 c0 42 -3 55 -15 55 -11 0 -15 -13 -15 -55z"/>
</g>
</svg>
