<?xml version="1.0" standalone="no"?>
<!DOCTYPE svg PUBLIC "-//W3C//DTD SVG 20010904//EN"
 "http://www.w3.org/TR/2001/REC-SVG-20010904/DTD/svg10.dtd">
<svg version="1.0" xmlns="http://www.w3.org/2000/svg"
 width="73.000000pt" height="79.000000pt" viewBox="0 0 73.000000 79.000000"
 preserveAspectRatio="xMidYMid meet" fill="#D6DCE1">
<g transform="translate(0.000000,79.000000) scale(0.100000,-0.100000)"
 >
<path d="M244 695 c-5 -11 -22 -15 -69 -15 -72 0 -95 -6 -95 -26 0 -12 48 -14
286 -14 266 0 285 1 282 18 -3 14 -16 17 -81 20 -59 2 -77 6 -77 17 0 22 -238
22 -246 0z m170 -1 c36 -14 12 -24 -55 -24 -62 0 -70 2 -59 15 13 15 83 21
114 9z M82 573 c2 -11 14 -19 29 -21 26 -3 27 -5 33 -100 13 -181 27 -305 37
-324 19 -35 66 -45 196 -43 131 2 168 14 178 58 4 19 35 367 35 396 0 5 12 11
27 13 17 2 29 10 31 21 3 16 -16 17 -283 17 -267 0 -286 -1 -283 -17z m468
-45 c0 -13 -7 -104 -15 -203 -12 -148 -17 -182 -31 -192 -12 -9 -58 -13 -146
-13 -155 0 -153 -2 -162 145 -3 55 -8 142 -12 193 l-7 92 187 0 186 0 0 -22z
M285 468 c-3 -8 -4 -68 -3 -133 3 -106 5 -120 21 -123 16 -3 17 6 15 129 -2
95 -7 134 -15 137 -7 2 -15 -3 -18 -10z M416 473 c-3 -3 -6 -64 -6 -135 0
-107 2 -128 15 -128 13 0 15 21 15 129 0 118 -6 152 -24 134z"/>
</g>
</svg>
