<?xml version="1.0" standalone="no"?>
<!DOCTYPE svg PUBLIC "-//W3C//DTD SVG 20010904//EN"
 "http://www.w3.org/TR/2001/REC-SVG-20010904/DTD/svg10.dtd">
<svg version="1.0" xmlns="http://www.w3.org/2000/svg"
 width="80.000000pt" height="73.000000pt" viewBox="0 0 80.000000 73.000000"
 preserveAspectRatio="xMidYMid meet" fill="#D6DCE1">
<g transform="translate(0.000000,73.000000) scale(0.100000,-0.100000)"
 >
<path d="M100 630 c-19 -19 -20 -33 -20 -265 0 -232 1 -246 20 -265 19 -19 33
-20 305 -20 l285 0 16 25 c15 22 16 52 12 235 -3 150 -8 213 -18 224 -10 13
-39 16 -160 16 l-148 0 -26 35 -27 35 -110 0 c-96 0 -111 -2 -129 -20z m271
-87 l44 -68 130 -5 130 -5 6 -165 c3 -91 3 -168 0 -172 -5 -5 -496 -13 -548
-9 -10 1 -13 57 -13 246 l0 245 104 0 103 0 44 -67z m272 -2 c30 -1 37 -5 37
-21 0 -20 -5 -20 -121 -18 -114 3 -123 4 -137 26 l-15 23 99 -5 c54 -2 116 -5
137 -5z"/>
</g>
</svg>
