<?xml version="1.0" standalone="no"?>
<!DOCTYPE svg PUBLIC "-//W3C//DTD SVG 20010904//EN"
 "http://www.w3.org/TR/2001/REC-SVG-20010904/DTD/svg10.dtd">
<svg version="1.0" xmlns="http://www.w3.org/2000/svg"
 width="78.000000pt" height="80.000000pt" viewBox="0 0 78.000000 80.000000"
 preserveAspectRatio="xMidYMid meet" fill="#D6DCE1">
<g transform="translate(0.000000,80.000000) scale(0.100000,-0.100000)"
 >
<path d="M106 699 l-26 -20 0 -279 0 -279 25 -19 c24 -19 38 -20 292 -16 229
4 270 7 285 21 17 15 18 39 18 294 l0 278 -26 20 c-25 20 -39 21 -284 21 -245
0 -259 -1 -284 -21z m552 -121 c3 -94 2 -98 -20 -103 -13 -3 -133 -4 -268 -3
l-245 3 -3 89 c-2 49 -1 95 2 103 5 11 55 13 268 11 l263 -3 3 -97z m2 -208
l0 -70 -270 0 -270 0 0 70 0 70 270 0 270 0 0 -70z m-12 -109 c10 -1 12 -19
10 -68 l-3 -68 -267 -3 -268 -2 0 69 0 70 53 3 c42 2 424 1 475 -1z M372 598
c-17 -17 -15 -47 4 -55 23 -9 51 23 38 44 -14 22 -27 26 -42 11z M370 370 c0
-15 5 -20 18 -18 9 2 17 10 17 18 0 8 -8 16 -17 18 -13 2 -18 -3 -18 -18z
M371 206 c-16 -19 -6 -36 20 -36 15 0 20 6 17 22 -4 27 -21 33 -37 14z"/>
</g>
</svg>
