<?xml version="1.0" standalone="no"?>
<!DOCTYPE svg PUBLIC "-//W3C//DTD SVG 20010904//EN"
 "http://www.w3.org/TR/2001/REC-SVG-20010904/DTD/svg10.dtd">
<svg version="1.0" xmlns="http://www.w3.org/2000/svg"
 width="81.000000pt" height="79.000000pt" viewBox="0 0 81.000000 79.000000"
 preserveAspectRatio="xMidYMid meet" fill="#D6DCE1">
<g transform="translate(0.000000,79.000000) scale(0.100000,-0.100000)"
 >
<path d="M390 534 l0 -178 -55 54 c-43 43 -57 52 -67 42 -10 -10 4 -29 65 -90
l77 -77 77 77 c61 61 75 80 65 90 -10 10 -24 1 -67 -42 l-55 -54 -2 174 c-3
157 -5 175 -20 178 -17 3 -18 -10 -18 -174z M102 418 c-6 -7 -12 -77 -14 -155
-3 -123 -1 -145 14 -159 15 -15 50 -17 293 -20 274 -4 307 -1 327 30 12 17 9
275 -2 297 -13 23 -60 26 -60 4 0 -8 7 -15 15 -15 12 0 15 -16 15 -88 l0 -89
-97 -6 c-123 -9 -421 -9 -450 -1 -22 6 -23 12 -23 90 0 73 2 85 20 94 11 6 18
15 15 21 -9 13 -41 11 -53 -3z m588 -263 l0 -35 -282 2 -283 3 -3 27 -3 28
283 3 c156 1 284 3 286 5 1 1 2 -14 2 -33z"/>
</g>
</svg>
