<?xml version="1.0" standalone="no"?>
<!DOCTYPE svg PUBLIC "-//W3C//DTD SVG 20010904//EN"
 "http://www.w3.org/TR/2001/REC-SVG-20010904/DTD/svg10.dtd">
<svg version="1.0" xmlns="http://www.w3.org/2000/svg"
 width="82.000000pt" height="75.000000pt" viewBox="0 0 82.000000 75.000000"
 preserveAspectRatio="xMidYMid meet" fill="#D6DCE1">
<g transform="translate(0.000000,75.000000) scale(0.100000,-0.100000)"
 >
<path d="M330 595 c-58 -59 -72 -77 -62 -87 10 -10 24 -1 67 42 l55 54 0 -154
c0 -152 6 -190 29 -176 7 5 11 62 11 173 l0 166 57 -56 c38 -37 61 -53 67 -47
7 7 -16 36 -64 85 -41 41 -77 75 -80 75 -3 0 -39 -34 -80 -75z M105 406 c-23
-23 -23 -28 -21 -160 2 -90 8 -141 16 -151 11 -13 57 -15 310 -15 275 0 298 1
313 18 14 15 17 42 17 155 0 124 -2 139 -20 157 -25 25 -50 26 -50 1 0 -10 7
-21 15 -25 12 -4 15 -24 15 -89 l0 -84 -221 -6 c-121 -3 -252 -3 -290 0 l-69
6 0 84 c0 65 3 85 15 89 17 7 21 44 5 44 -6 0 -22 -11 -35 -24z m591 -282 c-5
-12 -49 -14 -288 -12 l-283 3 -3 27 -3 28 288 2 c272 3 288 2 291 -15 2 -10 1
-25 -2 -33z"/>
</g>
</svg>
