<?xml version="1.0" standalone="no"?>
<!DOCTYPE svg PUBLIC "-//W3C//DTD SVG 20010904//EN"
 "http://www.w3.org/TR/2001/REC-SVG-20010904/DTD/svg10.dtd">
<svg version="1.0" xmlns="http://www.w3.org/2000/svg"
 width="94.000000pt" height="71.000000pt" viewBox="0 0 94.000000 71.000000"
 preserveAspectRatio="xMidYMid meet" fill="#D6DCE1">
<g transform="translate(0.000000,71.000000) scale(0.100000,-0.100000)"
 >
<path d="M415 621 c-71 -18 -157 -92 -172 -149 -3 -14 -23 -32 -54 -47 -143
-73 -148 -254 -8 -325 35 -18 60 -20 292 -20 245 0 255 1 298 23 60 31 92 92
86 163 -4 66 -34 107 -97 136 -38 17 -50 28 -54 51 -8 38 -53 99 -93 127 -64
44 -129 57 -198 41z m140 -50 c55 -26 95 -71 116 -133 15 -44 22 -54 51 -63
70 -22 98 -58 98 -127 0 -41 -5 -54 -34 -86 l-34 -37 -269 -3 c-252 -2 -270
-1 -300 17 -63 39 -84 128 -46 193 16 28 43 47 111 77 8 4 20 24 27 46 36 105
177 164 280 116z"/>
</g>
</svg>
