<?xml version="1.0" standalone="no"?>
<!DOCTYPE svg PUBLIC "-//W3C//DTD SVG 20010904//EN"
 "http://www.w3.org/TR/2001/REC-SVG-20010904/DTD/svg10.dtd">
<svg version="1.0" xmlns="http://www.w3.org/2000/svg"
 width="81.000000pt" height="79.000000pt" viewBox="0 0 81.000000 79.000000"
 preserveAspectRatio="xMidYMid meet" fill="#D6DCE1">
<g transform="translate(0.000000,79.000000) scale(0.100000,-0.100000)"
 >
<path d="M390 529 l0 -183 -55 54 c-43 43 -57 52 -67 42 -10 -10 3 -27 57 -82
38 -39 74 -70 80 -70 6 0 42 31 80 70 54 55 67 72 57 82 -10 10 -24 1 -67 -42
l-55 -54 -2 179 c-2 132 -6 179 -15 183 -10 3 -13 -37 -13 -179z M690 425 c-1
-5 -2 -75 -3 -155 l-2 -145 -282 -3 -283 -2 0 27 0 28 277 0 c257 0 278 1 281
18 3 16 -15 17 -278 17 l-282 0 4 105 c3 105 -2 121 -30 93 -8 -8 -12 -57 -12
-154 0 -136 1 -144 22 -158 19 -14 65 -16 305 -16 352 0 323 -15 323 174 0
118 -2 137 -20 157 -10 13 -20 20 -20 14z"/>
</g>
</svg>
