<?xml version="1.0" standalone="no"?>
<!DOCTYPE svg PUBLIC "-//W3C//DTD SVG 20010904//EN"
 "http://www.w3.org/TR/2001/REC-SVG-20010904/DTD/svg10.dtd">
<svg version="1.0" xmlns="http://www.w3.org/2000/svg"
 width="80.000000pt" height="82.000000pt" viewBox="0 0 80.000000 82.000000"
 preserveAspectRatio="xMidYMid meet" fill="#D6DCE1">
<g transform="translate(0.000000,82.000000) scale(0.100000,-0.100000)"
 >
<path d="M203 721 c-37 -23 -31 -8 -83 -234 -31 -139 -40 -199 -40 -271 0
-143 -17 -136 323 -136 339 0 317 -10 317 143 0 81 -9 139 -40 282 -36 165
-41 182 -70 208 l-30 27 -173 0 c-152 0 -176 -2 -204 -19z m389 -38 c13 -15
88 -328 88 -366 0 -9 -73 -12 -280 -12 -154 0 -280 3 -280 7 0 4 18 85 40 179
22 95 40 173 40 175 0 1 7 10 16 18 24 25 354 23 376 -1z m86 -487 c2 -49 -1
-72 -10 -77 -15 -10 -508 -12 -532 -3 -20 8 -23 139 -3 147 6 3 131 5 277 4
l265 -2 3 -69z M566 215 c-20 -21 -5 -55 25 -55 24 0 36 27 22 48 -14 23 -29
25 -47 7z"/>
</g>
</svg>
