<?xml version="1.0" standalone="no"?>
<!DOCTYPE svg PUBLIC "-//W3C//DTD SVG 20010904//EN"
 "http://www.w3.org/TR/2001/REC-SVG-20010904/DTD/svg10.dtd">
<svg version="1.0" xmlns="http://www.w3.org/2000/svg"
 width="68.000000pt" height="83.000000pt" viewBox="0 0 68.000000 83.000000"
 preserveAspectRatio="xMidYMid meet" fill="#D6DCE1">
<g transform="translate(0.000000,83.000000) scale(0.100000,-0.100000)"
 >
<path d="M152 734 c-36 -25 -41 -44 -57 -233 -22 -268 -21 -354 8 -385 26 -29
21 -28 270 -27 240 1 227 -8 227 167 0 175 -19 413 -36 446 -23 44 -42 48
-221 48 -136 0 -173 -3 -191 -16z m376 -36 c5 -7 15 -85 21 -173 7 -88 14
-171 16 -185 l4 -25 -225 0 c-212 0 -224 1 -224 19 0 64 33 353 42 363 15 18
351 18 366 1z m30 -430 c7 -7 12 -37 12 -68 0 -31 -5 -61 -12 -68 -17 -17
-409 -17 -426 0 -13 13 -17 130 -5 141 12 13 418 8 431 -5z M452 228 c-30 -30
1 -73 36 -51 23 14 25 29 7 47 -20 19 -27 20 -43 4z"/>
</g>
</svg>
