<?xml version="1.0" standalone="no"?>
<!DOCTYPE svg PUBLIC "-//W3C//DTD SVG 20010904//EN"
 "http://www.w3.org/TR/2001/REC-SVG-20010904/DTD/svg10.dtd">
<svg version="1.0" xmlns="http://www.w3.org/2000/svg"
 width="86.000000pt" height="80.000000pt" viewBox="0 0 86.000000 80.000000"
 preserveAspectRatio="xMidYMid meet" fill="#D6DCE1">
<g transform="translate(0.000000,80.000000) scale(0.100000,-0.100000)"
 >
<path d="M380 711 c-55 -18 -108 -51 -143 -90 -46 -51 -62 -83 -77 -154 l-12
-59 -23 22 c-13 12 -29 19 -35 15 -13 -8 65 -95 85 -95 6 0 31 20 55 45 37 37
41 45 26 51 -11 4 -26 -2 -42 -16 -23 -23 -24 -23 -24 -3 0 39 33 122 62 157
16 20 51 48 76 64 63 36 194 39 257 5 206 -111 206 -397 1 -506 -63 -33 -184
-31 -253 5 -28 14 -54 24 -57 20 -16 -15 -1 -33 52 -59 78 -38 191 -39 267 -3
64 31 124 91 155 155 35 71 35 200 1 265 -63 119 -154 181 -275 186 -39 2 -82
0 -96 -5z M447 584 c-4 -4 -7 -49 -7 -100 l0 -92 69 -51 c38 -28 74 -51 80
-51 28 0 6 32 -49 71 l-59 41 -3 91 c-3 83 -12 110 -31 91z"/>
</g>
</svg>
