<?xml version="1.0" standalone="no"?>
<!DOCTYPE svg PUBLIC "-//W3C//DTD SVG 20010904//EN"
 "http://www.w3.org/TR/2001/REC-SVG-20010904/DTD/svg10.dtd">
<svg version="1.0" xmlns="http://www.w3.org/2000/svg"
 width="82.000000pt" height="81.000000pt" viewBox="0 0 82.000000 81.000000"
 preserveAspectRatio="xMidYMid meet" fill="#D6DCE1">
<g transform="translate(0.000000,81.000000) scale(0.100000,-0.100000)"
 >
<path d="M254 657 c-162 -89 -179 -100 -170 -115 9 -15 309 -172 328 -172 15
0 305 153 323 171 6 6 4 14 -5 23 -28 27 -299 166 -322 166 -13 -1 -82 -33
-154 -73z m296 -32 c66 -36 124 -65 130 -65 5 0 10 -4 10 -10 0 -5 -5 -10 -10
-10 -6 0 -68 -31 -139 -70 l-129 -69 -142 73 -141 73 128 71 c70 39 138 71
151 71 13 1 76 -28 142 -64z M118 437 c-21 -12 -38 -27 -38 -34 0 -14 304
-173 331 -173 24 0 329 158 329 170 0 12 -71 60 -87 60 -25 0 -22 -19 6 -36
l30 -18 -132 -73 c-73 -40 -138 -72 -146 -73 -11 0 -263 131 -279 146 -2 1 10
10 27 19 17 8 31 20 31 25 0 16 -33 10 -72 -13z M128 300 c-45 -24 -54 -38
-37 -55 22 -21 301 -165 320 -165 30 0 320 157 326 177 6 16 -55 53 -84 53
-32 0 -28 -15 8 -32 l31 -15 -131 -72 c-72 -39 -140 -71 -151 -71 -11 0 -80
32 -152 72 l-131 72 32 15 c29 14 37 31 15 37 -5 2 -26 -6 -46 -16z"/>
</g>
</svg>
