<?xml version="1.0" standalone="no"?>
<!DOCTYPE svg PUBLIC "-//W3C//DTD SVG 20010904//EN"
 "http://www.w3.org/TR/2001/REC-SVG-20010904/DTD/svg10.dtd">
<svg version="1.0" xmlns="http://www.w3.org/2000/svg"
 width="81.000000pt" height="81.000000pt" viewBox="0 0 81.000000 81.000000"
 preserveAspectRatio="xMidYMid meet" fill="#D6DCE1">
<g transform="translate(0.000000,81.000000) scale(0.100000,-0.100000)"
 >
<path d="M405 716 c-39 -18 -301 -283 -314 -319 -16 -42 -2 -63 131 -194 167
-164 148 -166 336 20 79 78 150 154 158 169 10 19 14 64 14 158 0 126 -1 132
-25 155 -23 24 -30 25 -147 25 -82 -1 -133 -5 -153 -14z m283 -170 l3 -139
-143 -143 c-109 -111 -148 -144 -168 -144 -19 0 -54 29 -143 118 -64 64 -117
125 -117 135 0 20 263 294 295 308 11 4 76 7 145 6 l125 -2 3 -139z M520 603
c-63 -23 -43 -123 25 -123 60 0 85 73 39 109 -27 21 -37 24 -64 14z m53 -45
c6 -18 -11 -48 -27 -48 -20 0 -37 25 -30 44 7 19 50 22 57 4z"/>
</g>
</svg>
