<?xml version="1.0" standalone="no"?>
<!DOCTYPE svg PUBLIC "-//W3C//DTD SVG 20010904//EN"
 "http://www.w3.org/TR/2001/REC-SVG-20010904/DTD/svg10.dtd">
<svg version="1.0" xmlns="http://www.w3.org/2000/svg"
 width="67.000000pt" height="78.000000pt" viewBox="0 0 67.000000 78.000000"
 preserveAspectRatio="xMidYMid meet" fill="#D6DCE1">
<g transform="translate(0.000000,78.000000) scale(0.100000,-0.100000)"
 >
<path d="M130 686 l-45 -12 0 -294 c0 -256 2 -295 15 -295 12 0 16 21 18 118
3 116 3 118 28 127 41 16 124 11 192 -10 73 -23 128 -25 201 -8 l51 12 -2 175
c-3 170 -4 176 -23 173 -103 -15 -144 -13 -216 7 -83 23 -150 25 -219 7z m219
-47 c59 -17 91 -20 143 -15 l68 6 0 -102 c0 -138 -7 -176 -34 -184 -39 -13
-121 -6 -200 16 -77 21 -145 23 -188 5 -17 -7 -18 4 -18 138 0 165 -7 154 94
156 34 0 93 -8 135 -20z"/>
</g>
</svg>
