<?xml version="1.0" standalone="no"?>
<!DOCTYPE svg PUBLIC "-//W3C//DTD SVG 20010904//EN"
 "http://www.w3.org/TR/2001/REC-SVG-20010904/DTD/svg10.dtd">
<svg version="1.0" xmlns="http://www.w3.org/2000/svg"
 width="78.000000pt" height="76.000000pt" viewBox="0 0 78.000000 76.000000"
 preserveAspectRatio="xMidYMid meet" fill="#D6DCE1">
<g transform="translate(0.000000,76.000000) scale(0.100000,-0.100000)"
 >
<path d="M102 664 c-44 -31 -30 -60 93 -189 l114 -120 1 -97 c0 -94 1 -97 28
-116 45 -32 112 -63 122 -57 6 4 10 65 10 138 l1 132 114 120 c123 129 138
160 93 189 -35 22 -545 22 -576 0z m558 -43 c0 -10 -7 -25 -17 -32 -9 -8 -60
-61 -113 -119 l-97 -106 4 -64 c2 -36 0 -89 -4 -117 l-8 -53 -42 26 -43 25 0
96 0 96 -66 68 c-36 38 -63 73 -59 79 12 19 -6 48 -40 69 -48 28 -46 45 5 38
22 -3 40 -1 40 4 0 5 95 9 220 9 209 0 220 -1 220 -19z"/>
</g>
</svg>
