<?xml version="1.0" standalone="no"?>
<!DOCTYPE svg PUBLIC "-//W3C//DTD SVG 20010904//EN"
 "http://www.w3.org/TR/2001/REC-SVG-20010904/DTD/svg10.dtd">
<svg version="1.0" xmlns="http://www.w3.org/2000/svg"
 width="75.000000pt" height="64.000000pt" viewBox="0 0 75.000000 64.000000"
 preserveAspectRatio="xMidYMid meet" fill="#D6DCE1">
<g transform="translate(0.000000,64.000000) scale(0.100000,-0.100000)"
 >
<path d="M240 552 c0 -16 46 -52 67 -52 22 0 73 35 73 51 0 15 -36 10 -50 -6
-12 -14 -15 -14 -36 0 -25 16 -54 20 -54 7z M440 415 c-22 -24 -27 -25 -189
-27 -149 -3 -166 -5 -169 -20 -3 -17 10 -18 161 -18 l165 0 30 -30 c19 -18 41
-30 57 -30 17 0 37 11 55 30 22 24 36 30 68 30 23 0 44 5 48 11 11 18 -18 30
-57 25 -31 -5 -38 -2 -58 24 -28 39 -77 41 -111 5z m84 -27 c15 -25 -4 -53
-35 -53 -17 0 -25 6 -27 23 -7 46 38 67 62 30z M244 230 c-12 -5 -28 -18 -36
-29 -11 -15 -28 -21 -68 -23 -43 -2 -56 -7 -58 -20 -3 -15 5 -18 51 -18 49 0
59 -4 86 -31 36 -35 72 -34 104 3 47 56 -12 145 -79 118z m56 -45 c15 -18 10
-45 -12 -59 -35 -22 -74 27 -48 59 16 19 44 19 60 0z M365 169 c-15 -24 17
-29 156 -27 120 3 144 5 144 18 0 13 -24 15 -147 18 -100 2 -149 -1 -153 -9z"/>
</g>
</svg>
