<?xml version="1.0" standalone="no"?>
<!DOCTYPE svg PUBLIC "-//W3C//DTD SVG 20010904//EN"
 "http://www.w3.org/TR/2001/REC-SVG-20010904/DTD/svg10.dtd">
<svg version="1.0" xmlns="http://www.w3.org/2000/svg"
 width="75.000000pt" height="74.000000pt" viewBox="0 0 75.000000 74.000000"
 preserveAspectRatio="xMidYMid meet" fill="#D6DCE1">
<g transform="translate(0.000000,74.000000) scale(0.100000,-0.100000)"
 >
<path d="M180 405 c0 -140 -4 -255 -8 -255 -5 0 -21 13 -37 30 -27 28 -55 40
-55 22 0 -4 25 -34 55 -67 l56 -59 59 59 c45 46 57 64 50 75 -8 12 -16 8 -50
-25 l-40 -39 0 257 c0 222 -2 257 -15 257 -13 0 -15 -35 -15 -255z M428 633
c-42 -3 -58 -8 -58 -18 0 -13 25 -15 145 -15 117 0 145 3 145 14 0 26 -50 30
-232 19z M377 474 c-4 -4 -7 -13 -7 -21 0 -11 28 -13 148 -11 123 3 147 5 147
18 0 12 -24 15 -141 18 -77 1 -143 -1 -147 -4z M377 323 c-4 -3 -7 -12 -7 -20
0 -10 23 -13 98 -13 103 0 119 4 101 27 -12 14 -179 20 -192 6z M377 164 c-22
-23 -4 -34 54 -34 52 0 60 2 57 18 -2 13 -15 18 -53 20 -28 2 -54 0 -58 -4z"/>
</g>
</svg>
