<?xml version="1.0" standalone="no"?>
<!DOCTYPE svg PUBLIC "-//W3C//DTD SVG 20010904//EN"
 "http://www.w3.org/TR/2001/REC-SVG-20010904/DTD/svg10.dtd">
<svg version="1.0" xmlns="http://www.w3.org/2000/svg"
 width="80.000000pt" height="56.000000pt" viewBox="0 0 80.000000 56.000000"
 preserveAspectRatio="xMidYMid meet" fill="#D6DCE1">
<g transform="translate(0.000000,56.000000) scale(0.100000,-0.100000)"
 >
<path d="M95 460 c16 -18 31 -20 125 -20 100 0 130 7 130 32 0 4 -61 8 -137 8
-135 0 -136 0 -118 -20z M467 458 c13 -15 34 -18 118 -18 84 0 105 3 118 18
15 16 9 17 -118 17 -127 0 -133 -1 -118 -17z M97 342 c-21 -23 -25 -230 -5
-250 8 -8 50 -12 124 -12 142 0 144 2 144 136 0 77 -3 95 -21 118 -20 25 -24
26 -123 26 -87 0 -105 -3 -119 -18z m218 -127 l0 -100 -100 0 -100 0 -3 89
c-2 49 0 96 2 103 4 11 28 13 103 11 l98 -3 0 -100z M462 337 c-19 -21 -22
-35 -22 -118 0 -137 2 -139 144 -139 74 0 116 4 124 12 8 8 12 50 12 123 0
145 0 145 -137 145 -91 0 -101 -2 -121 -23z m226 -102 c5 -131 9 -126 -106
-123 l-97 3 -3 89 c-2 49 0 96 2 103 4 11 28 13 103 11 l98 -3 3 -80z"/>
</g>
</svg>
