<?xml version="1.0" standalone="no"?>
<!DOCTYPE svg PUBLIC "-//W3C//DTD SVG 20010904//EN"
 "http://www.w3.org/TR/2001/REC-SVG-20010904/DTD/svg10.dtd">
<svg version="1.0" xmlns="http://www.w3.org/2000/svg"
 width="81.000000pt" height="47.000000pt" viewBox="0 0 81.000000 47.000000"
 preserveAspectRatio="xMidYMid meet" fill="#D6DCE1">
<g transform="translate(0.000000,47.000000) scale(0.100000,-0.100000)"
 >
<path d="M96 368 c-20 -28 -20 -33 0 -52 21 -22 61 -20 74 3 14 27 13 37 -6
55 -22 22 -50 20 -68 -6z M257 354 c-20 -21 13 -24 234 -24 188 0 240 3 237
13 -5 13 -458 24 -471 11z M100 160 c-24 -24 -24 -29 -4 -58 18 -27 45 -28 67
-4 22 24 21 45 -1 65 -24 22 -38 21 -62 -3z M255 139 c-16 -25 20 -29 241 -27
196 3 229 5 229 18 0 13 -34 15 -232 18 -161 2 -234 -1 -238 -9z"/>
</g>
</svg>
