<?xml version="1.0" standalone="no"?>
<!DOCTYPE svg PUBLIC "-//W3C//DTD SVG 20010904//EN"
 "http://www.w3.org/TR/2001/REC-SVG-20010904/DTD/svg10.dtd">
<svg version="1.0" xmlns="http://www.w3.org/2000/svg"
 width="88.000000pt" height="77.000000pt" viewBox="0 0 88.000000 77.000000"
 preserveAspectRatio="xMidYMid meet" fill="#D6DCE1">
<g transform="translate(0.000000,77.000000) scale(0.100000,-0.100000)"
 >
<path d="M130 683 c-50 -18 -50 -19 -50 -298 0 -237 2 -263 18 -278 13 -12 49
-16 175 -19 l157 -3 0 303 0 302 -142 -1 c-79 0 -150 -3 -158 -6z m266 -64
c-3 -17 -6 -137 -6 -266 l0 -234 -132 3 -133 3 -3 250 c-1 137 0 255 3 262 3
10 40 13 141 13 l137 0 -7 -31z M453 388 l-1 -303 156 3 c125 3 161 7 175 19
15 15 17 41 17 277 0 144 -4 266 -8 272 -18 27 -56 34 -194 34 l-144 0 -1
-302z m305 250 c17 -17 17 -489 0 -506 -8 -8 -54 -12 -139 -12 -110 0 -128 2
-133 17 -4 9 -6 129 -5 265 l1 248 132 0 c89 0 136 -4 144 -12z"/>
</g>
</svg>
