<?xml version="1.0" standalone="no"?>
<!DOCTYPE svg PUBLIC "-//W3C//DTD SVG 20010904//EN"
 "http://www.w3.org/TR/2001/REC-SVG-20010904/DTD/svg10.dtd">
<svg version="1.0" xmlns="http://www.w3.org/2000/svg"
 width="82.000000pt" height="82.000000pt" viewBox="0 0 82.000000 82.000000"
 preserveAspectRatio="xMidYMid meet" fill="#D6DCE1">
<g transform="translate(0.000000,82.000000) scale(0.100000,-0.100000)"
 >
<path d="M290 718 c-77 -30 -159 -114 -189 -193 -93 -247 142 -504 393 -431
147 43 234 151 244 301 14 234 -226 408 -448 323z m226 -35 c66 -22 145 -101
167 -167 49 -145 -5 -289 -134 -361 -48 -27 -63 -30 -139 -30 -93 0 -137 16
-202 74 -99 87 -117 270 -37 380 78 108 214 149 345 104z M384 566 c-10 -26 4
-48 28 -44 33 4 33 52 0 56 -13 2 -25 -3 -28 -12z M370 450 c0 -11 5 -20 10
-20 6 0 10 -33 10 -80 0 -66 -3 -80 -16 -80 -36 0 -4 -25 36 -28 50 -4 72 11
41 27 -19 11 -21 20 -21 106 l0 95 -30 0 c-23 0 -30 -4 -30 -20z"/>
</g>
</svg>
