<?xml version="1.0" standalone="no"?>
<!DOCTYPE svg PUBLIC "-//W3C//DTD SVG 20010904//EN"
 "http://www.w3.org/TR/2001/REC-SVG-20010904/DTD/svg10.dtd">
<svg version="1.0" xmlns="http://www.w3.org/2000/svg"
 width="91.000000pt" height="69.000000pt" viewBox="0 0 91.000000 69.000000"
 preserveAspectRatio="xMidYMid meet" fill="#D6DCE1">
<g transform="translate(0.000000,69.000000) scale(0.100000,-0.100000)"
 >
<path d="M377 600 c-58 -15 -135 -57 -183 -102 -59 -55 -114 -130 -114 -158 0
-53 126 -185 218 -228 50 -24 70 -27 157 -27 88 0 107 3 158 27 65 31 170 130
202 190 19 37 19 39 1 73 -86 159 -288 263 -439 225z m226 -68 c65 -32 146
-108 177 -167 18 -33 3 -61 -70 -135 -170 -173 -422 -147 -565 60 -34 49 -30
69 29 135 124 142 279 181 429 107z M405 466 c-111 -50 -112 -195 -2 -250 113
-55 234 82 167 191 -36 59 -108 85 -165 59z m116 -55 c62 -62 20 -171 -65
-171 -55 0 -101 45 -101 100 0 88 104 132 166 71z"/>
</g>
</svg>
