<?xml version="1.0" standalone="no"?>
<!DOCTYPE svg PUBLIC "-//W3C//DTD SVG 20010904//EN"
 "http://www.w3.org/TR/2001/REC-SVG-20010904/DTD/svg10.dtd">
<svg version="1.0" xmlns="http://www.w3.org/2000/svg"
 width="81.000000pt" height="72.000000pt" viewBox="0 0 81.000000 72.000000"
 preserveAspectRatio="xMidYMid meet" fill="#D6DCE1">
<g transform="translate(0.000000,72.000000) scale(0.100000,-0.100000)"
 >
<path d="M88 616 c-7 -34 5 -101 17 -101 6 0 11 28 13 63 2 48 0 62 -11 62 -8
0 -17 -11 -19 -24z M690 582 c0 -64 6 -78 27 -61 8 7 13 32 13 65 0 47 -2 54
-20 54 -18 0 -20 -7 -20 -58z M90 185 c0 -73 3 -86 19 -95 26 -13 158 -13 166
1 11 16 5 18 -75 22 l-75 4 -3 76 c-2 60 -6 77 -17 77 -12 0 -15 -17 -15 -85z
M690 196 l0 -75 -77 -3 c-61 -2 -78 -6 -78 -18 0 -12 17 -16 82 -18 77 -3 83
-1 98 22 23 35 17 159 -7 164 -16 3 -18 -6 -18 -72z"/>
</g>
</svg>
