<?xml version="1.0" standalone="no"?>
<!DOCTYPE svg PUBLIC "-//W3C//DTD SVG 20010904//EN"
 "http://www.w3.org/TR/2001/REC-SVG-20010904/DTD/svg10.dtd">
<svg version="1.0" xmlns="http://www.w3.org/2000/svg"
 width="76.000000pt" height="74.000000pt" viewBox="0 0 76.000000 74.000000"
 preserveAspectRatio="xMidYMid meet" fill="#D6DCE1">
<g transform="translate(0.000000,74.000000) scale(0.100000,-0.100000)"
 >
<path d="M86 644 c-18 -46 -5 -69 99 -181 l105 -113 0 -94 c0 -92 1 -95 28
-114 35 -25 108 -62 122 -62 6 0 10 48 10 133 l1 132 114 120 c116 121 133
153 103 183 -9 9 -88 12 -294 12 -248 0 -283 -2 -288 -16z m554 -32 c0 -7 -48
-65 -107 -128 l-108 -114 -6 -94 c-6 -109 -20 -134 -63 -114 -25 11 -26 14
-26 108 l0 96 -46 44 c-52 51 -140 155 -106 126 22 -19 22 -19 22 7 0 20 -6
28 -25 33 -14 3 -30 15 -35 25 -9 16 -5 18 42 22 29 2 144 4 256 3 164 0 202
-3 202 -14z M520 228 c0 -7 11 -24 25 -38 l25 -26 -25 -24 c-14 -13 -25 -27
-25 -32 0 -15 27 -8 45 12 23 25 33 25 61 -1 35 -33 51 -13 18 22 l-28 29 28
29 c33 35 17 55 -18 22 -28 -26 -38 -26 -61 -1 -20 22 -45 27 -45 8z"/>
</g>
</svg>
