<?xml version="1.0" standalone="no"?>
<!DOCTYPE svg PUBLIC "-//W3C//DTD SVG 20010904//EN"
 "http://www.w3.org/TR/2001/REC-SVG-20010904/DTD/svg10.dtd">
<svg version="1.0" xmlns="http://www.w3.org/2000/svg"
 width="86.000000pt" height="73.000000pt" viewBox="0 0 86.000000 73.000000"
 preserveAspectRatio="xMidYMid meet" fill="#D6DCE1">
<g transform="translate(0.000000,73.000000) scale(0.100000,-0.100000)"
 >
<path d="M135 639 c-4 -6 12 -31 38 -57 l45 -47 -47 -52 c-26 -29 -57 -70 -69
-91 l-22 -40 43 -58 c88 -119 183 -176 297 -178 74 -1 160 20 160 40 0 22 -15
24 -66 8 -111 -35 -236 5 -324 104 -78 87 -77 95 21 204 l34 38 55 -51 c30
-29 133 -125 228 -215 95 -90 177 -164 182 -164 31 0 2 35 -148 177 -337 319
-420 394 -427 382z M330 589 c-33 -13 -35 -16 -21 -33 9 -11 19 -13 37 -5 14
5 56 9 93 9 104 0 205 -58 270 -156 l30 -47 -21 -31 c-12 -17 -33 -43 -47 -59
-20 -22 -22 -30 -12 -40 10 -10 21 -3 53 33 22 25 47 58 55 74 14 28 14 31
-24 85 -51 72 -140 144 -204 165 -56 18 -170 20 -209 5z M405 480 c-10 -16 4
-30 30 -30 32 0 85 -46 85 -74 0 -22 17 -46 32 -46 15 0 8 65 -11 96 -28 47
-118 82 -136 54z M311 401 c-25 -46 0 -120 51 -151 49 -30 138 -26 138 6 0 10
-14 14 -51 14 -28 0 -58 4 -68 10 -24 13 -45 64 -37 94 8 33 -18 55 -33 27z"/>
</g>
</svg>
