<?xml version="1.0" standalone="no"?>
<!DOCTYPE svg PUBLIC "-//W3C//DTD SVG 20010904//EN"
 "http://www.w3.org/TR/2001/REC-SVG-20010904/DTD/svg10.dtd">
<svg version="1.0" xmlns="http://www.w3.org/2000/svg"
 width="78.000000pt" height="78.000000pt" viewBox="0 0 78.000000 78.000000"
 preserveAspectRatio="xMidYMid meet" fill="#D6DCE1">
<g transform="translate(0.000000,78.000000) scale(0.100000,-0.100000)"
 >
<path d="M286 684 c-95 -34 -178 -131 -199 -229 -9 -43 -8 -58 1 -67 17 -17
32 5 32 45 0 41 23 90 67 137 100 111 266 122 383 24 l34 -29 -44 -5 c-31 -3
-45 -10 -45 -20 0 -12 15 -15 75 -15 l75 0 3 60 c1 33 -2 66 -7 74 -14 22 -31
3 -31 -35 l0 -36 -44 39 c-76 67 -206 92 -300 57z M667 393 c-2 -5 -8 -26 -12
-48 -15 -86 -70 -161 -147 -199 -98 -49 -227 -31 -304 42 l-29 27 40 5 c27 3
40 10 40 20 0 12 -14 15 -70 15 l-70 0 -3 -68 c-3 -62 -1 -68 15 -65 12 2 20
15 23 36 l5 33 34 -35 c19 -20 59 -45 88 -56 167 -62 352 29 404 199 11 39 18
78 15 86 -6 16 -22 20 -29 8z"/>
</g>
</svg>
