<?xml version="1.0" standalone="no"?>
<!DOCTYPE svg PUBLIC "-//W3C//DTD SVG 20010904//EN"
 "http://www.w3.org/TR/2001/REC-SVG-20010904/DTD/svg10.dtd">
<svg version="1.0" xmlns="http://www.w3.org/2000/svg"
 width="80.000000pt" height="81.000000pt" viewBox="0 0 80.000000 81.000000"
 preserveAspectRatio="xMidYMid meet" fill="#D6DCE1">
<g transform="translate(0.000000,81.000000) scale(0.100000,-0.100000)"
 >
<path d="M486 716 c-41 -15 -146 -111 -146 -133 0 -25 24 -13 80 41 70 67 110
78 179 50 37 -16 50 -28 69 -66 36 -71 25 -116 -46 -190 -43 -45 -53 -61 -44
-70 9 -9 24 -1 63 37 65 64 79 92 79 157 0 69 -25 116 -81 150 -56 34 -104 42
-153 24z M385 410 c-103 -103 -127 -132 -117 -142 10 -10 39 14 142 117 122
122 147 155 117 155 -7 0 -71 -58 -142 -130z M163 418 c-86 -88 -101 -148 -57
-235 20 -42 35 -57 77 -77 89 -45 147 -32 232 54 46 46 56 63 47 72 -9 9 -26
-2 -76 -50 -61 -59 -67 -62 -113 -62 -108 0 -180 98 -143 195 5 14 33 50 61
80 44 47 56 75 31 75 -4 0 -31 -24 -59 -52z"/>
</g>
</svg>
