<?xml version="1.0" standalone="no"?>
<!DOCTYPE svg PUBLIC "-//W3C//DTD SVG 20010904//EN"
 "http://www.w3.org/TR/2001/REC-SVG-20010904/DTD/svg10.dtd">
<svg version="1.0" xmlns="http://www.w3.org/2000/svg"
 width="82.000000pt" height="83.000000pt" viewBox="0 0 82.000000 83.000000"
 preserveAspectRatio="xMidYMid meet" fill="#D6DCE1">
<g transform="translate(0.000000,83.000000) scale(0.100000,-0.100000)"
 >
<path d="M346 691 c-43 -44 -57 -64 -52 -77 6 -15 13 -11 51 26 l45 44 0 -108
c0 -97 2 -107 18 -104 15 3 17 16 17 105 l0 102 42 -41 c32 -31 46 -39 54 -31
9 9 -3 28 -47 77 -33 36 -61 66 -64 66 -3 0 -32 -27 -64 -59z M137 482 c-31
-32 -57 -62 -57 -67 0 -14 113 -125 127 -125 24 0 14 24 -27 65 -31 32 -37 42
-23 42 136 -1 193 4 193 18 0 12 -19 15 -107 15 l-107 0 43 44 c38 38 47 66
23 66 -4 0 -33 -26 -65 -58z M603 524 c-4 -10 8 -30 33 -55 l38 -39 -107 0
c-88 0 -107 -3 -107 -15 0 -12 19 -15 107 -15 l107 0 -43 -44 c-41 -41 -47
-66 -17 -66 7 0 39 27 71 61 l58 61 -64 64 c-35 35 -65 64 -67 64 -1 0 -5 -7
-9 -16z M390 249 l0 -103 -39 38 c-27 26 -45 37 -56 32 -14 -5 -12 -12 17 -45
18 -21 48 -51 66 -66 l33 -28 60 59 c32 32 59 64 59 71 0 23 -25 14 -61 -23
l-34 -35 -5 98 c-4 83 -8 98 -22 101 -16 3 -18 -7 -18 -99z"/>
</g>
</svg>
