<?xml version="1.0" standalone="no"?>
<!DOCTYPE svg PUBLIC "-//W3C//DTD SVG 20010904//EN"
 "http://www.w3.org/TR/2001/REC-SVG-20010904/DTD/svg10.dtd">
<svg version="1.0" xmlns="http://www.w3.org/2000/svg"
 width="83.000000pt" height="84.000000pt" viewBox="0 0 83.000000 84.000000"
 preserveAspectRatio="xMidYMid meet" fill="#D6DCE1">
<g transform="translate(0.000000,84.000000) scale(0.100000,-0.100000)"
 >
<path d="M253 750 c-31 -13 -43 -41 -43 -105 0 -48 3 -56 18 -53 13 2 18 16
22 63 l5 60 219 3 c153 2 223 -1 232 -9 19 -15 20 -429 2 -447 -7 -7 -36 -12
-66 -12 -46 0 -53 -3 -50 -17 3 -19 61 -29 104 -19 53 14 54 19 54 271 l0 234
-26 20 c-25 20 -39 21 -238 20 -116 0 -221 -4 -233 -9z M106 537 l-26 -26 0
-189 c0 -176 1 -191 21 -216 l20 -26 200 0 c260 0 239 -21 239 234 0 170 -2
196 -17 215 -17 21 -29 22 -214 28 l-197 6 -26 -26z m412 -211 c2 -130 -1
-193 -9 -202 -15 -19 -359 -20 -377 -2 -13 13 -18 351 -6 382 6 14 30 16 198
14 l191 -3 3 -189z"/>
</g>
</svg>
