<?xml version="1.0" standalone="no"?>
<!DOCTYPE svg PUBLIC "-//W3C//DTD SVG 20010904//EN"
 "http://www.w3.org/TR/2001/REC-SVG-20010904/DTD/svg10.dtd">
<svg version="1.0" xmlns="http://www.w3.org/2000/svg"
 width="82.000000pt" height="30.000000pt" viewBox="0 0 82.000000 30.000000"
 preserveAspectRatio="xMidYMid meet" fill="#D6DCE1">
<g transform="translate(0.000000,30.000000) scale(0.100000,-0.100000)"
 >
<path d="M124 208 c-47 -22 -50 -93 -5 -117 74 -40 140 56 75 108 -30 23 -39
24 -70 9z m54 -45 c13 -26 4 -43 -23 -43 -27 0 -40 26 -24 46 16 19 37 17 47
-3z M383 208 c-66 -32 -40 -128 36 -128 22 0 61 44 61 70 0 43 -57 77 -97 58z
m56 -45 c14 -26 -15 -56 -40 -42 -21 11 -25 45 -6 52 23 10 36 7 46 -10z M640
207 c-38 -19 -49 -61 -23 -95 29 -39 74 -42 102 -6 26 33 27 55 4 82 -24 27
-53 34 -83 19z m48 -36 c23 -14 10 -46 -18 -46 -16 0 -26 6 -28 19 -3 16 12
36 28 36 3 0 11 -4 18 -9z"/>
</g>
</svg>
