<?xml version="1.0" standalone="no"?>
<!DOCTYPE svg PUBLIC "-//W3C//DTD SVG 20010904//EN"
 "http://www.w3.org/TR/2001/REC-SVG-20010904/DTD/svg10.dtd">
<svg version="1.0" xmlns="http://www.w3.org/2000/svg"
 width="76.000000pt" height="78.000000pt" viewBox="0 0 76.000000 78.000000"
 preserveAspectRatio="xMidYMid meet" fill="#D6DCE1">
<g transform="translate(0.000000,78.000000) scale(0.100000,-0.100000)"
 >
<path d="M273 618 c-54 -45 -119 -100 -145 -122 l-48 -41 0 -177 c0 -165 1
-178 19 -188 28 -14 194 -13 209 2 8 8 12 47 12 110 l0 98 60 0 60 0 0 -98 c0
-63 4 -102 12 -110 8 -8 46 -12 103 -12 128 0 125 -5 125 201 0 90 -4 169 -8
175 -13 19 -282 244 -292 244 -5 0 -54 -37 -107 -82z m212 -44 c55 -47 115
-99 133 -114 l33 -29 -3 -153 -3 -153 -82 -3 -83 -3 0 91 c0 118 -10 130 -110
130 -86 0 -90 -6 -90 -130 l0 -91 -82 3 -83 3 -3 155 -2 155 132 112 c73 62
135 113 138 113 3 0 50 -39 105 -86z"/>
</g>
</svg>
