<?xml version="1.0" standalone="no"?>
<!DOCTYPE svg PUBLIC "-//W3C//DTD SVG 20010904//EN"
 "http://www.w3.org/TR/2001/REC-SVG-20010904/DTD/svg10.dtd">
<svg version="1.0" xmlns="http://www.w3.org/2000/svg"
 width="73.000000pt" height="67.000000pt" viewBox="0 0 73.000000 67.000000"
 preserveAspectRatio="xMidYMid meet" fill="#D6DCE1">
<g transform="translate(0.000000,67.000000) scale(0.100000,-0.100000)"
 >
<path d="M202 467 c-67 -67 -122 -127 -122 -132 0 -15 243 -255 258 -255 28 0
7 30 -90 127 -61 62 -97 104 -88 105 8 1 121 2 250 3 215 0 235 1 238 18 3 16
-14 17 -255 17 l-258 0 109 109 c94 95 119 131 88 131 -4 0 -62 -55 -130 -123z"/>
</g>
</svg>
