<?xml version="1.0" standalone="no"?>
<!DOCTYPE svg PUBLIC "-//W3C//DTD SVG 20010904//EN"
 "http://www.w3.org/TR/2001/REC-SVG-20010904/DTD/svg10.dtd">
<svg version="1.0" xmlns="http://www.w3.org/2000/svg"
 width="74.000000pt" height="67.000000pt" viewBox="0 0 74.000000 67.000000"
 preserveAspectRatio="xMidYMid meet" fill="#D6DCE1">
<g transform="translate(0.000000,67.000000) scale(0.100000,-0.100000)"
 >
<path d="M395 580 c-4 -6 40 -59 96 -118 l102 -107 -244 -3 c-265 -2 -278 -4
-259 -27 11 -13 48 -15 257 -13 133 2 243 1 243 -2 0 -3 -45 -50 -100 -105
-95 -95 -116 -125 -87 -125 14 0 257 241 257 255 0 10 -241 255 -251 255 -4 0
-11 -5 -14 -10z"/>
</g>
</svg>
