<?xml version="1.0" standalone="no"?>
<!DOCTYPE svg PUBLIC "-//W3C//DTD SVG 20010904//EN"
 "http://www.w3.org/TR/2001/REC-SVG-20010904/DTD/svg10.dtd">
<svg version="1.0" xmlns="http://www.w3.org/2000/svg"
 width="68.000000pt" height="74.000000pt" viewBox="0 0 68.000000 74.000000"
 preserveAspectRatio="xMidYMid meet" fill="#D6DCE1">
<g transform="translate(0.000000,74.000000) scale(0.100000,-0.100000)"
 >
<path d="M203 537 c-96 -94 -124 -129 -119 -142 5 -14 27 3 119 91 l112 109 5
-255 c4 -218 7 -255 20 -255 13 0 16 37 20 253 l5 252 105 -105 c57 -58 108
-105 113 -105 4 0 10 7 13 15 5 13 -230 253 -258 264 -5 2 -66 -53 -135 -122z"/>
</g>
</svg>
