<?xml version="1.0" standalone="no"?>
<!DOCTYPE svg PUBLIC "-//W3C//DTD SVG 20010904//EN"
 "http://www.w3.org/TR/2001/REC-SVG-20010904/DTD/svg10.dtd">
<svg version="1.0" xmlns="http://www.w3.org/2000/svg"
 width="75.000000pt" height="67.000000pt" viewBox="0 0 75.000000 67.000000"
 preserveAspectRatio="xMidYMid meet" fill="#D6DCE1">
<g transform="translate(0.000000,67.000000) scale(0.100000,-0.100000)"
 >
<path d="M101 564 c-20 -25 -21 -39 -21 -229 0 -190 1 -204 21 -229 l20 -26
258 0 c237 0 259 1 274 18 15 16 17 45 17 194 0 221 10 208 -164 208 l-127 0
-20 35 c-29 49 -45 55 -148 55 -85 0 -91 -1 -110 -26z m167 -21 c-27 -2 -69
-2 -95 0 -27 2 -5 3 47 3 52 0 74 -1 48 -3z m80 -55 c22 -22 31 -23 140 -21
64 2 125 0 134 -3 16 -5 18 -21 18 -168 0 -120 -3 -166 -12 -172 -7 -5 -123
-7 -258 -4 l-245 5 -3 184 c-2 141 1 186 10 193 7 4 53 8 102 8 79 0 92 -3
114 -22z"/>
</g>
</svg>
