<?xml version="1.0" standalone="no"?>
<!DOCTYPE svg PUBLIC "-//W3C//DTD SVG 20010904//EN"
 "http://www.w3.org/TR/2001/REC-SVG-20010904/DTD/svg10.dtd">
<svg version="1.0" xmlns="http://www.w3.org/2000/svg"
 width="66.000000pt" height="76.000000pt" viewBox="0 0 66.000000 76.000000"
 preserveAspectRatio="xMidYMid meet" fill="#D6DCE1">
<g transform="translate(0.000000,76.000000) scale(0.100000,-0.100000)"
 >
<path d="M105 656 l-24 -24 2 -255 c2 -235 3 -257 21 -276 18 -20 28 -21 227
-21 l208 0 20 26 c19 25 21 40 21 201 l0 175 -91 99 -92 99 -134 0 c-128 0
-135 -1 -158 -24z m265 -96 c0 -96 8 -103 106 -98 l64 3 -2 -170 -3 -170 -205
0 -205 0 -3 245 c-1 134 0 250 3 257 3 10 37 13 125 13 l120 0 0 -80z"/>
</g>
</svg>
