<?xml version="1.0" standalone="no"?>
<!DOCTYPE svg PUBLIC "-//W3C//DTD SVG 20010904//EN"
 "http://www.w3.org/TR/2001/REC-SVG-20010904/DTD/svg10.dtd">
<svg version="1.0" xmlns="http://www.w3.org/2000/svg"
 width="76.000000pt" height="66.000000pt" viewBox="0 0 76.000000 66.000000"
 preserveAspectRatio="xMidYMid meet" fill="#D6DCE1">
<g transform="translate(0.000000,66.000000) scale(0.100000,-0.100000)"
 >
<path d="M107 563 c-22 -25 -29 -441 -8 -466 12 -15 43 -17 266 -17 206 0 255
3 264 14 20 24 57 245 44 264 -9 15 -39 17 -261 20 -247 2 -252 2 -273 -19
l-22 -22 6 68 c4 37 8 69 10 71 1 2 36 6 77 9 41 3 82 8 91 11 9 3 24 -2 32
-11 12 -12 42 -15 146 -15 l131 0 0 -25 c0 -16 6 -25 15 -25 18 0 21 50 3 68
-8 8 -52 12 -134 12 l-122 0 -32 40 -32 40 -92 0 c-76 0 -96 -3 -109 -17z
m203 -36 c0 -9 -26 -13 -95 -15 -81 -3 -95 -1 -95 12 0 13 16 16 95 16 70 0
95 -3 95 -13z m327 -193 c3 -8 -3 -61 -13 -117 l-19 -102 -234 -3 c-129 -1
-238 1 -242 5 -9 9 29 215 41 223 4 3 110 6 235 7 192 2 227 0 232 -13z M295
435 c-27 -12 -14 -13 128 -14 143 -1 157 1 157 17 0 12 -3 13 -8 5 -6 -10 -28
-10 -92 -3 -112 13 -149 12 -185 -5z"/>
</g>
</svg>
