<?xml version="1.0" standalone="no"?>
<!DOCTYPE svg PUBLIC "-//W3C//DTD SVG 20010904//EN"
 "http://www.w3.org/TR/2001/REC-SVG-20010904/DTD/svg10.dtd">
<svg version="1.0" xmlns="http://www.w3.org/2000/svg"
 width="72.000000pt" height="73.000000pt" viewBox="0 0 72.000000 73.000000"
 preserveAspectRatio="xMidYMid meet" fill="#D6DCE1">
<g transform="translate(0.000000,73.000000) scale(0.100000,-0.100000)"
 >
<path d="M96 634 c-22 -21 -24 -515 -3 -533 9 -7 101 -11 266 -13 240 -3 253
-2 267 16 11 16 14 65 14 240 l0 220 -42 43 -42 43 -222 0 c-189 0 -225 -2
-238 -16z m104 -94 c0 -100 1 -100 158 -100 144 0 145 1 146 102 1 84 10 91
61 51 l35 -28 0 -222 0 -223 -40 0 -40 0 0 68 c0 109 -4 112 -164 112 -89 0
-136 -4 -144 -12 -7 -7 -12 -43 -12 -91 l0 -78 -42 3 -43 3 3 239 c2 132 5
243 8 248 3 4 21 8 40 8 l34 0 0 -80z m270 10 l0 -70 -115 0 -115 0 0 70 0 70
115 0 115 0 0 -70z m8 -357 l3 -73 -123 0 -123 0 3 75 4 76 116 -3 117 -3 3
-72z M390 550 c0 -23 4 -30 20 -30 16 0 20 7 20 30 0 23 -4 30 -20 30 -16 0
-20 -7 -20 -30z"/>
</g>
</svg>
