<?xml version="1.0" standalone="no"?>
<!DOCTYPE svg PUBLIC "-//W3C//DTD SVG 20010904//EN"
 "http://www.w3.org/TR/2001/REC-SVG-20010904/DTD/svg10.dtd">
<svg version="1.0" xmlns="http://www.w3.org/2000/svg"
 width="76.000000pt" height="101.000000pt" viewBox="0 0 76.000000 101.000000"
 preserveAspectRatio="xMidYMid meet" fill="#D6DCE1">
<g transform="translate(0.000000,101.000000) scale(0.100000,-0.100000)"
 >
<path d="M96 908 c-13 -19 -16 -62 -16 -264 0 -294 -10 -274 143 -274 88 0
107 3 107 15 0 11 -12 15 -45 15 l-46 0 3 73 3 72 99 5 c67 3 101 9 104 18 3
9 -23 12 -106 12 -136 0 -142 -4 -142 -108 l0 -72 -40 0 -40 0 2 248 3 247 38
3 37 3 0 -74 c0 -104 4 -107 157 -107 149 0 153 3 153 108 0 83 15 94 63 44
25 -26 27 -35 27 -105 0 -70 2 -77 20 -77 18 0 20 7 20 81 l0 81 -41 39 -41
39 -224 0 c-219 0 -223 0 -238 -22z m374 -78 l0 -70 -115 0 -115 0 0 70 0 70
115 0 115 0 0 -70z M392 828 c4 -43 33 -46 33 -3 0 21 -5 31 -18 33 -15 3 -18
-2 -15 -30z M483 547 c-94 -93 -103 -106 -109 -148 -7 -54 -3 -58 51 -51 34 4
54 19 147 110 116 113 125 132 85 170 -42 39 -64 29 -174 -81z m150 59 c22
-33 1 -53 -32 -30 -21 15 -21 17 -5 35 21 23 19 24 37 -5z m-98 -136 c-39 -39
-76 -68 -83 -65 -7 3 -10 0 -7 -5 3 -6 2 -10 -4 -10 -5 0 -16 -3 -25 -6 -37
-14 10 61 78 127 70 67 71 68 91 48 19 -19 19 -19 -50 -89z"/>
</g>
</svg>
