<?xml version="1.0" standalone="no"?>
<!DOCTYPE svg PUBLIC "-//W3C//DTD SVG 20010904//EN"
 "http://www.w3.org/TR/2001/REC-SVG-20010904/DTD/svg10.dtd">
<svg version="1.0" xmlns="http://www.w3.org/2000/svg"
 width="75.000000pt" height="73.000000pt" viewBox="0 0 75.000000 73.000000"
 preserveAspectRatio="xMidYMid meet" fill="#D6DCE1">
<g transform="translate(0.000000,73.000000) scale(0.100000,-0.100000)"
 >
<path d="M205 638 c-2 -7 -6 -37 -7 -67 l-3 -54 -40 -4 c-69 -7 -75 -19 -75
-158 0 -141 7 -155 78 -155 l42 0 0 -48 c0 -26 5 -53 12 -60 17 -17 309 -17
326 0 7 7 12 34 12 60 l0 48 40 0 c68 0 80 23 80 157 0 133 -11 153 -80 153
l-40 0 0 58 c0 32 -5 63 -12 70 -17 17 -327 17 -333 0z m305 -73 l0 -55 -140
0 -140 0 0 55 0 55 140 0 140 0 0 -55z m118 -204 c3 -124 0 -131 -50 -131 -23
0 -28 4 -28 24 0 43 -17 47 -186 44 l-159 -3 -10 -32 c-7 -27 -14 -33 -36 -33
-16 0 -31 5 -35 11 -7 12 -6 218 2 231 3 5 116 7 252 6 l247 -3 3 -114z m-118
-166 l0 -75 -140 0 -140 0 0 68 c0 38 3 72 7 75 3 4 66 7 140 7 l133 0 0 -75z
M290 190 c0 -20 5 -21 83 -18 65 2 82 6 82 18 0 12 -17 16 -82 18 -78 3 -83 2
-83 -18z"/>
</g>
</svg>
