<?xml version="1.0" standalone="no"?>
<!DOCTYPE svg PUBLIC "-//W3C//DTD SVG 20010904//EN"
 "http://www.w3.org/TR/2001/REC-SVG-20010904/DTD/svg10.dtd">
<svg version="1.0" xmlns="http://www.w3.org/2000/svg"
 width="73.000000pt" height="73.000000pt" viewBox="0 0 73.000000 73.000000"
 preserveAspectRatio="xMidYMid meet" fill="#D6DCE1">
<g transform="translate(0.000000,73.000000) scale(0.100000,-0.100000)"
 >
<path d="M221 636 c-15 -18 -10 -118 6 -123 8 -3 13 13 15 49 l3 53 180 0 180
0 0 -245 0 -245 -180 0 -180 0 -3 47 c-2 34 -7 48 -18 48 -10 0 -14 -14 -14
-54 0 -83 8 -86 216 -86 238 0 217 -28 217 289 -1 183 -4 256 -13 266 -18 22
-392 22 -409 1z M270 468 c0 -7 16 -28 35 -48 l34 -35 -127 0 c-106 0 -127 -2
-127 -15 0 -12 22 -15 123 -18 l124 -3 -31 -35 c-65 -74 -25 -74 48 0 l54 54
-53 56 c-51 54 -80 70 -80 44z"/>
</g>
</svg>
