<?xml version="1.0" standalone="no"?>
<!DOCTYPE svg PUBLIC "-//W3C//DTD SVG 20010904//EN"
 "http://www.w3.org/TR/2001/REC-SVG-20010904/DTD/svg10.dtd">
<svg version="1.0" xmlns="http://www.w3.org/2000/svg"
 width="74.000000pt" height="73.000000pt" viewBox="0 0 74.000000 73.000000"
 preserveAspectRatio="xMidYMid meet" fill="#D6DCE1">
<g transform="translate(0.000000,73.000000) scale(0.100000,-0.100000)"
 >
<path d="M97 632 c-15 -16 -17 -50 -17 -269 0 -229 1 -251 18 -266 27 -25 382
-25 407 -1 22 23 17 107 -7 112 -14 3 -17 -6 -20 -45 l-3 -48 -175 0 -175 0
-3 248 -2 247 37 0 c21 1 97 2 169 4 72 2 136 1 142 -3 6 -3 12 -27 14 -51 2
-32 7 -45 18 -45 23 0 26 91 4 116 -16 17 -33 19 -204 19 -168 0 -189 -2 -203
-18z M534 467 c-4 -10 5 -28 25 -49 l31 -33 -127 -5 c-88 -4 -128 -9 -131 -17
-3 -10 28 -13 134 -13 l138 0 -37 -38 c-38 -39 -47 -62 -23 -62 11 0 116 101
116 112 0 2 -27 30 -60 63 -47 47 -61 55 -66 42z"/>
</g>
</svg>
