<?xml version="1.0" standalone="no"?>
<!DOCTYPE svg PUBLIC "-//W3C//DTD SVG 20010904//EN"
 "http://www.w3.org/TR/2001/REC-SVG-20010904/DTD/svg10.dtd">
<svg version="1.0" xmlns="http://www.w3.org/2000/svg"
 width="75.000000pt" height="75.000000pt" viewBox="0 0 75.000000 75.000000"
 preserveAspectRatio="xMidYMid meet" fill="#D6DCE1">
<g transform="translate(0.000000,75.000000) scale(0.100000,-0.100000)"
 >
<path d="M302 655 c-104 -29 -177 -100 -208 -201 -19 -64 -18 -99 8 -174 49
-147 210 -230 360 -186 94 27 191 130 200 212 4 43 -21 37 -37 -9 -40 -115
-148 -185 -270 -175 -167 14 -276 181 -220 337 45 128 192 200 322 157 48 -16
133 -78 133 -96 0 -5 -24 -10 -52 -12 -83 -5 -62 -23 30 -26 l82 -3 0 75 c0
44 -5 78 -11 82 -15 9 -29 -14 -29 -50 l0 -28 -37 32 c-76 67 -177 91 -271 65z"/>
</g>
</svg>
