<?xml version="1.0" standalone="no"?>
<!DOCTYPE svg PUBLIC "-//W3C//DTD SVG 20010904//EN"
 "http://www.w3.org/TR/2001/REC-SVG-20010904/DTD/svg10.dtd">
<svg version="1.0" xmlns="http://www.w3.org/2000/svg"
 width="72.000000pt" height="69.000000pt" viewBox="0 0 72.000000 69.000000"
 preserveAspectRatio="xMidYMid meet" fill="#D6DCE1">
<g transform="translate(0.000000,69.000000) scale(0.100000,-0.100000)"
 >
<path d="M97 592 c-10 -10 -17 -22 -17 -26 0 -5 45 -57 100 -117 l100 -109 0
-88 c0 -72 3 -92 18 -104 27 -25 122 -69 132 -63 6 4 10 61 10 128 l0 122 100
105 c102 108 118 140 81 160 -12 6 -115 10 -264 10 -224 0 -245 -2 -260 -18z
m503 -28 c0 -3 -42 -51 -93 -105 -50 -55 -95 -110 -99 -122 -3 -12 -6 -64 -7
-115 l-1 -92 -40 20 -40 20 0 90 0 90 -77 83 c-43 45 -88 94 -102 110 l-25 27
242 0 c133 0 242 -3 242 -6z"/>
</g>
</svg>
