<?xml version="1.0" standalone="no"?>
<!DOCTYPE svg PUBLIC "-//W3C//DTD SVG 20010904//EN"
 "http://www.w3.org/TR/2001/REC-SVG-20010904/DTD/svg10.dtd">
<svg version="1.0" xmlns="http://www.w3.org/2000/svg"
 width="85.000000pt" height="66.000000pt" viewBox="0 0 85.000000 66.000000"
 preserveAspectRatio="xMidYMid meet" fill="#D6DCE1">
<g transform="translate(0.000000,66.000000) scale(0.100000,-0.100000)"
 >
<path d="M187 574 c-4 -4 -7 -104 -7 -222 l0 -214 -41 37 c-30 27 -44 34 -52
26 -13 -13 87 -121 111 -121 8 0 38 23 68 52 43 41 51 54 42 65 -9 11 -18 7
-49 -23 l-39 -38 -2 219 c-3 206 -8 242 -31 219z M360 550 c0 -20 4 -20 203
-18 172 3 202 5 202 18 0 13 -30 15 -202 18 -199 2 -203 2 -203 -18z M360 330
c0 -20 4 -20 153 -18 127 3 152 5 152 18 0 13 -25 15 -152 18 -149 2 -153 2
-153 -18z M362 108 c3 -9 32 -13 106 -13 140 0 139 19 -1 23 -85 2 -108 0
-105 -10z"/>
</g>
</svg>
