<?xml version="1.0" standalone="no"?>
<!DOCTYPE svg PUBLIC "-//W3C//DTD SVG 20010904//EN"
 "http://www.w3.org/TR/2001/REC-SVG-20010904/DTD/svg10.dtd">
<svg version="1.0" xmlns="http://www.w3.org/2000/svg"
 width="75.000000pt" height="75.000000pt" viewBox="0 0 75.000000 75.000000"
 preserveAspectRatio="xMidYMid meet" fill="#D6DCE1">
<g transform="translate(0.000000,75.000000) scale(0.100000,-0.100000)"
 >
<path d="M96 654 c-12 -12 -16 -37 -16 -110 0 -126 7 -134 128 -134 128 0 132
4 132 134 0 66 -4 106 -12 114 -19 19 -212 16 -232 -4z m204 -109 l0 -95 -90
0 -90 0 0 95 0 95 90 0 90 0 0 -95z M432 658 c-19 -19 -16 -212 4 -229 26 -21
178 -25 209 -5 24 16 25 20 25 119 0 67 -4 107 -12 115 -16 16 -210 16 -226 0z
m206 -116 l3 -93 -93 3 -93 3 0 85 c0 47 1 89 3 93 2 4 43 6 90 5 l87 -3 3
-93z M96 318 c-12 -16 -16 -47 -16 -110 0 -121 8 -128 133 -128 123 0 127 4
127 132 0 125 -3 128 -133 128 -88 0 -97 -2 -111 -22z m204 -108 l0 -90 -90 0
-90 0 0 90 0 90 90 0 90 0 0 -90z M437 322 c-13 -15 -17 -39 -17 -114 0 -123
4 -128 124 -128 127 0 126 -1 126 130 0 131 1 130 -128 130 -73 0 -92 -3 -105
-18z m198 -112 l0 -85 -89 0 c-103 0 -99 -4 -89 108 l6 68 86 -3 86 -3 0 -85z"/>
</g>
</svg>
