<?xml version="1.0" standalone="no"?>
<!DOCTYPE svg PUBLIC "-//W3C//DTD SVG 20010904//EN"
 "http://www.w3.org/TR/2001/REC-SVG-20010904/DTD/svg10.dtd">
<svg version="1.0" xmlns="http://www.w3.org/2000/svg"
 width="72.000000pt" height="64.000000pt" viewBox="0 0 72.000000 64.000000"
 preserveAspectRatio="xMidYMid meet" fill="#D6DCE1">
<g transform="translate(0.000000,64.000000) scale(0.100000,-0.100000)"
 >
<path d="M95 544 c-19 -20 -16 -43 8 -58 34 -22 73 27 47 59 -16 19 -35 19
-55 -1z M227 533 c-20 -19 11 -23 203 -23 180 0 210 2 210 15 0 13 -29 15
-203 15 -112 0 -207 -3 -210 -7z M88 335 c-14 -30 3 -55 38 -55 33 0 47 31 28
58 -20 29 -52 28 -66 -3z M225 330 c-16 -26 14 -30 211 -30 190 0 205 1 202
18 -3 15 -22 17 -205 20 -129 1 -204 -1 -208 -8z M96 144 c-20 -19 -20 -38 -2
-54 23 -19 61 -8 64 18 7 44 -32 67 -62 36z M230 126 c-5 -7 -7 -16 -3 -19 3
-4 98 -7 210 -7 189 0 204 1 201 18 -3 15 -21 17 -200 18 -146 2 -200 -1 -208
-10z"/>
</g>
</svg>
