<?xml version="1.0" standalone="no"?>
<!DOCTYPE svg PUBLIC "-//W3C//DTD SVG 20010904//EN"
 "http://www.w3.org/TR/2001/REC-SVG-20010904/DTD/svg10.dtd">
<svg version="1.0" xmlns="http://www.w3.org/2000/svg"
 width="79.000000pt" height="79.000000pt" viewBox="0 0 79.000000 79.000000"
 preserveAspectRatio="xMidYMid meet" fill="#D6DCE1">
<g transform="translate(0.000000,79.000000) scale(0.100000,-0.100000)"
 >
<path d="M380 396 c0 -276 2 -316 15 -316 13 0 15 39 13 312 -2 238 -6 312
-15 316 -10 3 -13 -64 -13 -312z M97 612 c-15 -16 -17 -46 -17 -213 0 -252 -8
-239 146 -239 93 0 114 3 114 15 0 11 -21 15 -107 17 l-108 3 0 200 0 200 108
3 c86 2 107 6 107 17 0 25 -221 21 -243 -3z M450 615 c0 -12 22 -15 113 -17
l112 -3 0 -200 0 -200 -112 -3 c-91 -2 -113 -5 -113 -17 0 -20 229 -22 248 -3
17 17 17 429 0 446 -19 19 -248 17 -248 -3z"/>
</g>
</svg>
