<?xml version="1.0" standalone="no"?>
<!DOCTYPE svg PUBLIC "-//W3C//DTD SVG 20010904//EN"
 "http://www.w3.org/TR/2001/REC-SVG-20010904/DTD/svg10.dtd">
<svg version="1.0" xmlns="http://www.w3.org/2000/svg"
 width="70.000000pt" height="69.000000pt" viewBox="0 0 70.000000 69.000000"
 preserveAspectRatio="xMidYMid meet" fill="#D6DCE1">
<g transform="translate(0.000000,69.000000) scale(0.100000,-0.100000)"
 >
<path d="M92 598 c-7 -7 -12 -43 -12 -96 0 -74 2 -83 18 -80 14 3 17 14 15 74
l-2 72 80 7 c55 4 79 10 76 18 -5 17 -158 22 -175 5z M432 593 c3 -15 16 -19
76 -21 l72 -3 0 -75 c0 -66 2 -75 18 -72 14 3 17 16 20 82 4 103 0 106 -105
106 -75 0 -84 -2 -81 -17z M84 257 c-3 -8 -4 -49 -2 -93 l3 -79 93 -3 c77 -2
92 0 92 13 0 12 -14 15 -74 15 -85 0 -86 1 -86 103 0 53 -13 76 -26 44z M587
264 c-4 -4 -7 -40 -7 -81 l0 -73 -76 0 c-56 0 -75 -3 -72 -12 7 -20 161 -23
177 -4 8 9 11 42 9 92 -3 71 -13 96 -31 78z"/>
</g>
</svg>
