<?xml version="1.0" standalone="no"?>
<!DOCTYPE svg PUBLIC "-//W3C//DTD SVG 20010904//EN"
 "http://www.w3.org/TR/2001/REC-SVG-20010904/DTD/svg10.dtd">
<svg version="1.0" xmlns="http://www.w3.org/2000/svg"
 width="78.000000pt" height="72.000000pt" viewBox="0 0 78.000000 72.000000"
 preserveAspectRatio="xMidYMid meet" fill="#D6DCE1">
<g transform="translate(0.000000,72.000000) scale(0.100000,-0.100000)"
 >
<path d="M97 622 c-15 -16 -17 -47 -17 -223 0 -112 4 -209 8 -215 20 -30 55
-34 309 -34 218 0 262 2 281 16 22 15 22 19 22 233 0 155 -3 220 -12 229 -9 9
-88 12 -293 12 -260 0 -283 -1 -298 -18z m561 -20 c9 -7 12 -55 10 -208 l-3
-199 -270 0 -270 0 -3 195 c-1 107 0 200 2 207 6 15 511 19 534 5z M321 497
c-14 -14 -15 -193 -1 -202 12 -7 161 84 167 101 6 18 -153 114 -166 101z M270
110 c-34 -21 7 -31 126 -28 98 2 119 6 119 18 0 12 -21 15 -115 18 -63 1 -122
-2 -130 -8z"/>
</g>
</svg>
