<?xml version="1.0" standalone="no"?>
<!DOCTYPE svg PUBLIC "-//W3C//DTD SVG 20010904//EN"
 "http://www.w3.org/TR/2001/REC-SVG-20010904/DTD/svg10.dtd">
<svg version="1.0" xmlns="http://www.w3.org/2000/svg"
 width="76.000000pt" height="74.000000pt" viewBox="0 0 76.000000 74.000000"
 preserveAspectRatio="xMidYMid meet" fill="#D6DCE1">
<g transform="translate(0.000000,74.000000) scale(0.100000,-0.100000)"
 >
<path d="M244 644 c-130 -47 -199 -221 -137 -340 66 -124 220 -172 344 -105
l54 28 77 -75 c61 -60 80 -74 90 -64 10 10 -4 29 -65 90 l-77 77 25 49 c27 53
33 123 15 187 -13 47 -72 115 -123 141 -54 27 -148 33 -203 12z m184 -43 c151
-77 156 -288 9 -372 -51 -29 -153 -32 -202 -7 -69 37 -115 113 -115 190 1 77
56 164 125 194 45 20 139 17 183 -5z M316 494 c-3 -9 -6 -27 -6 -40 0 -21 -4
-24 -41 -24 -33 0 -40 -3 -37 -17 2 -13 15 -19 45 -21 41 -3 42 -4 45 -45 4
-55 22 -54 26 1 3 40 5 42 35 42 18 0 38 4 46 9 23 15 2 31 -40 31 -39 0 -39
0 -39 40 0 41 -21 57 -34 24z"/>
</g>
</svg>
