<?xml version="1.0" standalone="no"?>
<!DOCTYPE svg PUBLIC "-//W3C//DTD SVG 20010904//EN"
 "http://www.w3.org/TR/2001/REC-SVG-20010904/DTD/svg10.dtd">
<svg version="1.0" xmlns="http://www.w3.org/2000/svg"
 width="100.000000pt" height="42.000000pt" viewBox="0 0 100.000000 42.000000"
 preserveAspectRatio="xMidYMid meet" fill="#D6DCE1">
<g transform="translate(0.000000,42.000000) scale(0.100000,-0.100000)"
 >
<path d="M113 318 c-18 -11 -33 -26 -33 -34 0 -18 5 -18 35 2 l25 16 0 -111
c0 -92 3 -111 15 -111 13 0 15 21 15 130 0 142 -1 143 -57 108z M274 317 c-23
-20 -28 -34 -32 -85 -8 -105 18 -152 83 -152 65 0 103 73 86 164 -16 88 -80
122 -137 73z m105 -52 c29 -85 -11 -178 -69 -160 -30 10 -43 43 -43 108 1 71
21 100 67 95 26 -3 33 -9 45 -43z M503 325 c-52 -37 -57 -180 -7 -223 58 -50
129 -12 141 76 16 118 -59 200 -134 147z m91 -37 c19 -27 21 -116 4 -152 -21
-48 -77 -46 -98 4 -15 36 -9 132 9 154 20 24 67 20 85 -6z M702 328 c-30 -30
-2 -108 40 -108 22 0 48 33 48 62 0 45 -58 76 -88 46z m56 -47 c3 -29 1 -32
-20 -29 -26 3 -35 32 -17 54 18 22 34 12 37 -25z M793 220 c-81 -117 -93 -140
-74 -140 11 0 171 235 171 250 0 25 -20 2 -97 -110z M838 189 c-21 -12 -25
-78 -6 -97 30 -30 88 1 88 46 0 24 -33 62 -52 62 -7 0 -21 -5 -30 -11z m47
-54 c0 -23 -4 -30 -20 -30 -21 0 -31 25 -21 51 11 28 41 12 41 -21z"/>
</g>
</svg>
