<?xml version="1.0" standalone="no"?>
<!DOCTYPE svg PUBLIC "-//W3C//DTD SVG 20010904//EN"
 "http://www.w3.org/TR/2001/REC-SVG-20010904/DTD/svg10.dtd">
<svg version="1.0" xmlns="http://www.w3.org/2000/svg"
 width="70.000000pt" height="69.000000pt" viewBox="0 0 70.000000 69.000000"
 preserveAspectRatio="xMidYMid meet" fill="#D6DCE1">
<g transform="translate(0.000000,69.000000) scale(0.100000,-0.100000)"
 >
<path d="M92 598 c-12 -12 -17 -114 -6 -142 7 -19 33 -21 35 -3 1 6 1 36 -1
65 l-2 52 59 0 c64 0 75 4 66 26 -7 18 -133 20 -151 2z M467 603 c-22 -22 -4
-33 54 -33 l62 0 -6 -54 c-6 -56 8 -86 33 -71 14 9 13 138 -2 153 -13 13 -130
17 -141 5z M340 459 c0 -6 -22 -32 -50 -59 -27 -27 -50 -52 -49 -57 0 -4 20
-24 44 -43 23 -19 45 -43 48 -52 6 -22 33 -24 40 -4 6 16 -13 76 -24 76 -4 0
-9 -7 -11 -16 -3 -14 -6 -13 -22 5 l-19 21 86 0 c95 0 111 12 61 45 -15 9 -23
12 -20 6 5 -7 -7 -11 -38 -11 -24 0 -51 -3 -60 -6 -10 -4 -16 -1 -16 9 0 15
52 41 77 40 8 0 5 10 -8 28 -21 29 -39 38 -39 18z M86 234 c-3 -9 -6 -42 -6
-74 0 -72 10 -79 98 -72 51 4 62 7 60 21 -3 13 -15 15 -62 13 l-58 -3 2 43 c4
69 1 88 -14 88 -8 0 -17 -7 -20 -16z M577 236 c-4 -9 -4 -37 0 -65 l6 -49 -59
2 c-49 1 -59 -2 -62 -17 -3 -16 4 -18 75 -15 l78 3 0 75 c-1 60 -4 76 -17 78
-8 2 -18 -4 -21 -12z"/>
</g>
</svg>
