<?xml version="1.0" standalone="no"?>
<!DOCTYPE svg PUBLIC "-//W3C//DTD SVG 20010904//EN"
 "http://www.w3.org/TR/2001/REC-SVG-20010904/DTD/svg10.dtd">
<svg version="1.0" xmlns="http://www.w3.org/2000/svg"
 width="78.000000pt" height="70.000000pt" viewBox="0 0 78.000000 70.000000"
 preserveAspectRatio="xMidYMid meet" fill="#D6DCE1">
<g transform="translate(0.000000,70.000000) scale(0.100000,-0.100000)"
 >
<path d="M97 608 c-26 -19 -21 -161 6 -166 15 -3 17 5 17 67 l0 70 63 3 c47 2
62 7 62 18 0 20 -122 27 -148 8z M537 613 c-4 -3 -7 -12 -7 -20 0 -9 18 -13
65 -13 l65 0 0 -70 c0 -54 3 -70 14 -70 8 0 17 8 21 19 9 30 -3 144 -17 152
-16 10 -132 12 -141 2z M238 444 c-16 -8 -28 -22 -28 -30 0 -15 2 -15 25 0 13
9 26 16 27 16 2 0 3 -44 3 -97 0 -68 4 -98 13 -101 9 -3 12 24 12 112 0 125
-1 128 -52 100z M488 444 c-16 -8 -28 -22 -28 -30 0 -15 2 -15 25 0 13 9 27
16 30 16 3 0 5 -45 5 -100 0 -60 4 -100 10 -100 6 0 10 45 10 115 0 124 -2
127 -52 99z M375 410 c-7 -12 2 -30 16 -30 5 0 9 9 9 20 0 21 -15 27 -25 10z
M374 299 c-10 -17 13 -36 27 -22 12 12 4 33 -11 33 -5 0 -12 -5 -16 -11z M87
254 c-14 -14 -8 -151 7 -163 22 -18 151 -10 151 9 0 11 -15 16 -62 18 l-62 3
-3 66 c-3 61 -14 84 -31 67z M667 253 c-4 -3 -7 -35 -7 -69 l0 -63 -62 -3
c-48 -2 -63 -7 -63 -18 0 -12 15 -16 66 -18 90 -4 101 7 95 97 -3 36 -5 69 -6
74 0 9 -14 9 -23 0z"/>
</g>
</svg>
