<?xml version="1.0" standalone="no"?>
<!DOCTYPE svg PUBLIC "-//W3C//DTD SVG 20010904//EN"
 "http://www.w3.org/TR/2001/REC-SVG-20010904/DTD/svg10.dtd">
<svg version="1.0" xmlns="http://www.w3.org/2000/svg"
 width="72.000000pt" height="72.000000pt" viewBox="0 0 72.000000 72.000000"
 preserveAspectRatio="xMidYMid meet" fill="#D6DCE1">
<g transform="translate(0.000000,72.000000) scale(0.100000,-0.100000)"
 >
<path d="M280 631 c-110 -34 -199 -147 -200 -254 0 -117 55 -211 155 -262 50
-26 69 -30 129 -29 83 1 130 19 187 71 65 59 104 154 67 161 -11 2 -18 -3 -18
-13 0 -25 -35 -87 -66 -119 -111 -112 -321 -78 -394 64 -45 88 -30 197 38 272
92 102 253 109 350 15 l33 -32 -48 -5 c-34 -4 -48 -9 -48 -20 0 -12 17 -16 78
-18 l78 -3 -3 78 c-3 84 -20 105 -28 35 l-5 -44 -30 32 c-62 67 -185 98 -275
71z"/>
</g>
</svg>
