<?xml version="1.0" standalone="no"?>
<!DOCTYPE svg PUBLIC "-//W3C//DTD SVG 20010904//EN"
 "http://www.w3.org/TR/2001/REC-SVG-20010904/DTD/svg10.dtd">
<svg version="1.0" xmlns="http://www.w3.org/2000/svg"
 width="98.000000pt" height="73.000000pt" viewBox="0 0 98.000000 73.000000"
 preserveAspectRatio="xMidYMid meet" fill="#D6DCE1">
<g transform="translate(0.000000,73.000000) scale(0.100000,-0.100000)"
 >
<path d="M470 600 c0 -38 4 -50 15 -50 11 0 15 12 15 50 0 38 -4 50 -15 50
-11 0 -15 -12 -15 -50z M205 470 c-66 -49 -121 -96 -123 -104 -4 -18 242 -199
265 -194 16 3 18 20 18 193 0 183 -1 190 -20 192 -11 1 -71 -36 -140 -87z
m121 -247 c-2 -2 -49 28 -105 68 -55 40 -100 73 -98 74 1 1 47 35 102 74 l100
73 3 -142 c1 -79 1 -145 -2 -147z M617 553 c-4 -3 -7 -91 -7 -195 0 -174 1
-188 18 -188 10 0 67 36 127 80 140 102 147 108 139 121 -10 16 -247 189 -259
189 -7 0 -15 -3 -18 -7z m233 -188 c0 -2 -42 -34 -92 -71 -51 -37 -99 -71
-105 -77 -10 -7 -13 23 -13 147 l0 156 105 -76 c58 -41 105 -77 105 -79z M474
496 c-9 -25 1 -109 14 -114 9 -3 12 14 12 62 0 61 -13 87 -26 52z M476 343
c-3 -3 -6 -28 -6 -55 0 -36 4 -48 15 -48 11 0 15 12 15 49 0 47 -9 68 -24 54z
M475 188 c-9 -24 -1 -103 10 -103 14 0 19 95 6 108 -7 7 -12 5 -16 -5z"/>
</g>
</svg>
