<?xml version="1.0" standalone="no"?>
<!DOCTYPE svg PUBLIC "-//W3C//DTD SVG 20010904//EN"
 "http://www.w3.org/TR/2001/REC-SVG-20010904/DTD/svg10.dtd">
<svg version="1.0" xmlns="http://www.w3.org/2000/svg"
 width="73.000000pt" height="81.000000pt" viewBox="0 0 73.000000 81.000000"
 preserveAspectRatio="xMidYMid meet" fill="#D6DCE1">
<g transform="translate(0.000000,81.000000) scale(0.100000,-0.100000)"
 >
<path d="M283 648 c-93 -111 -102 -126 -83 -138 8 -5 85 -10 171 -10 197 0
204 4 133 86 -27 31 -65 76 -84 100 -19 24 -42 44 -51 44 -9 0 -48 -37 -86
-82z m152 -106 c-36 -2 -94 -2 -130 0 l-64 3 62 74 62 73 68 -73 67 -74 -65
-3z M85 410 c-3 -5 0 -13 8 -16 23 -8 82 0 82 11 0 14 -82 19 -90 5z M212 408
c7 -20 78 -23 78 -4 0 12 -11 16 -41 16 -28 0 -39 -4 -37 -12z M330 405 c0
-13 8 -16 38 -13 20 2 37 8 37 13 0 6 -17 11 -37 13 -30 3 -38 0 -38 -13z
M450 405 c0 -13 8 -16 38 -13 20 2 37 8 37 13 0 6 -17 11 -37 13 -30 3 -38 0
-38 -13z M567 414 c-13 -14 6 -24 44 -24 28 0 39 4 39 15 0 15 -69 22 -83 9z
M200 295 c-14 -17 -14 -16 84 -133 38 -45 76 -82 85 -81 9 0 54 45 99 100 110
130 111 129 -98 129 -126 0 -160 -3 -170 -15z m238 -99 c-35 -41 -66 -75 -70
-75 -4 -1 -34 33 -68 74 l-61 75 131 0 131 0 -63 -74z"/>
</g>
</svg>
