<?xml version="1.0" standalone="no"?>
<!DOCTYPE svg PUBLIC "-//W3C//DTD SVG 20010904//EN"
 "http://www.w3.org/TR/2001/REC-SVG-20010904/DTD/svg10.dtd">
<svg version="1.0" xmlns="http://www.w3.org/2000/svg"
 width="76.000000pt" height="101.000000pt" viewBox="0 0 76.000000 101.000000"
 preserveAspectRatio="xMidYMid meet" fill="#D6DCE1">
<g transform="translate(0.000000,101.000000) scale(0.100000,-0.100000)"
 >
<path d="M300 921 c-121 -37 -206 -140 -217 -260 -13 -144 80 -269 228 -307
133 -34 266 25 334 147 40 71 43 189 7 256 -57 108 -159 174 -266 172 -34 0
-72 -4 -86 -8z m193 -53 c87 -38 146 -130 147 -231 0 -104 -46 -179 -141 -226
-224 -112 -460 110 -355 334 61 133 205 184 349 123z M356 764 c-8 -21 1 -34
24 -34 19 0 30 17 23 38 -7 17 -40 15 -47 -4z M350 680 c-12 -7 -12 -12 -2
-22 14 -14 17 -138 2 -138 -5 0 -7 -7 -4 -15 8 -19 74 -21 74 -2 0 7 -4 17
-10 23 -5 5 -10 43 -12 84 -3 77 -13 93 -48 70z"/>
</g>
</svg>
