<?xml version="1.0" standalone="no"?>
<!DOCTYPE svg PUBLIC "-//W3C//DTD SVG 20010904//EN"
 "http://www.w3.org/TR/2001/REC-SVG-20010904/DTD/svg10.dtd">
<svg version="1.0" xmlns="http://www.w3.org/2000/svg"
 width="76.000000pt" height="75.000000pt" viewBox="0 0 76.000000 75.000000"
 preserveAspectRatio="xMidYMid meet" fill="#D6DCE1">
<g transform="translate(0.000000,75.000000) scale(0.100000,-0.100000)"
 >
<path d="M273 654 c-54 -20 -126 -84 -160 -141 -20 -34 -27 -63 -31 -119 -4
-68 -2 -79 27 -139 74 -149 246 -213 391 -144 230 110 234 414 8 530 -56 29
-175 35 -235 13z m224 -50 c151 -72 189 -268 77 -393 -61 -68 -127 -95 -215
-89 -106 8 -178 58 -220 153 -42 96 -23 203 49 278 85 88 193 106 309 51z
M316 499 c-17 -13 -26 -29 -24 -42 4 -30 26 -32 37 -4 11 28 39 41 67 30 45
-16 45 -53 -1 -94 -36 -34 -48 -79 -20 -79 8 0 15 4 15 9 0 6 18 31 40 56 46
54 51 85 15 120 -31 32 -91 34 -129 4z M366 273 c-3 -4 -6 -15 -6 -25 0 -24
33 -21 38 3 3 17 -21 33 -32 22z"/>
</g>
</svg>
