<?xml version="1.0" standalone="no"?>
<!DOCTYPE svg PUBLIC "-//W3C//DTD SVG 20010904//EN"
 "http://www.w3.org/TR/2001/REC-SVG-20010904/DTD/svg10.dtd">
<svg version="1.0" xmlns="http://www.w3.org/2000/svg"
 width="75.000000pt" height="75.000000pt" viewBox="0 0 75.000000 75.000000"
 preserveAspectRatio="xMidYMid meet" fill="#D6DCE1">
<g transform="translate(0.000000,75.000000) scale(0.100000,-0.100000)"
 >
<path d="M298 659 c-11 -6 -18 -22 -18 -38 0 -38 -33 -53 -78 -34 -30 13 -34
12 -56 -10 -13 -14 -34 -43 -46 -67 l-22 -42 30 -32 c36 -37 34 -77 -7 -112
l-25 -22 23 -51 c36 -75 59 -94 100 -80 42 15 81 -3 81 -37 0 -34 36 -54 97
-54 58 0 93 23 93 59 0 33 36 51 77 39 42 -12 63 4 99 73 l23 46 -30 29 c-38
36 -38 72 1 109 l29 28 -26 48 c-39 73 -56 85 -99 71 -43 -13 -74 1 -74 34 0
37 -31 54 -96 54 -32 0 -67 -5 -76 -11z m134 -54 c4 -17 21 -41 37 -53 25 -18
34 -20 60 -11 41 14 53 9 76 -35 l19 -35 -25 -28 c-35 -39 -33 -98 6 -128 l27
-22 -23 -42 c-24 -41 -24 -42 -70 -36 -41 6 -49 3 -77 -23 -18 -17 -32 -39
-32 -51 0 -19 -6 -21 -55 -21 -52 0 -56 1 -61 28 -9 41 -50 67 -107 67 -46 0
-50 2 -70 38 l-22 38 27 23 c39 35 41 96 5 133 l-26 28 25 43 25 42 35 -15
c30 -12 37 -12 63 3 17 9 36 33 45 55 15 38 16 38 62 35 44 -3 48 -6 56 -33z
M299 441 c-78 -79 20 -208 119 -157 93 48 57 186 -48 186 -33 0 -48 -6 -71
-29z m120 -27 c38 -48 15 -104 -43 -104 -62 0 -93 74 -46 112 32 26 65 22 89
-8z"/>
</g>
</svg>
