<?xml version="1.0" standalone="no"?>
<!DOCTYPE svg PUBLIC "-//W3C//DTD SVG 20010904//EN"
 "http://www.w3.org/TR/2001/REC-SVG-20010904/DTD/svg10.dtd">
<svg version="1.0" xmlns="http://www.w3.org/2000/svg"
 width="74.000000pt" height="72.000000pt" viewBox="0 0 74.000000 72.000000"
 preserveAspectRatio="xMidYMid meet" fill="#D6DCE1">
<g transform="translate(0.000000,72.000000) scale(0.100000,-0.100000)"
 >
<path d="M347 618 c-8 -13 -27 -50 -41 -83 l-27 -61 -87 -13 c-48 -8 -93 -16
-100 -18 -25 -10 -10 -40 51 -101 l63 -63 -15 -89 c-21 -123 -16 -127 94 -72
l85 42 85 -42 c109 -55 114 -51 96 73 l-13 91 61 62 c34 34 61 66 61 73 0 21
-28 33 -109 46 l-83 12 -41 80 c-46 87 -59 97 -80 63z m63 -107 l33 -70 89
-12 89 -13 -62 -62 -61 -61 12 -77 c7 -42 10 -79 7 -82 -3 -3 -37 11 -76 30
l-71 36 -71 -36 c-39 -19 -73 -33 -75 -31 -2 2 1 39 7 81 l12 78 -58 58 c-31
32 -53 60 -48 63 4 3 42 11 84 18 l77 13 33 68 c18 37 36 68 39 68 3 0 21 -31
40 -69z"/>
</g>
</svg>
