<?xml version="1.0" standalone="no"?>
<!DOCTYPE svg PUBLIC "-//W3C//DTD SVG 20010904//EN"
 "http://www.w3.org/TR/2001/REC-SVG-20010904/DTD/svg10.dtd">
<svg version="1.0" xmlns="http://www.w3.org/2000/svg"
 width="80.000000pt" height="31.000000pt" viewBox="0 0 80.000000 31.000000"
 preserveAspectRatio="xMidYMid meet" fill="#D6DCE1">
<g transform="translate(0.000000,31.000000) scale(0.100000,-0.100000)"
 >
<path d="M119 217 c-29 -22 -40 -53 -29 -83 22 -56 80 -72 117 -31 35 37 37
61 7 96 -28 33 -66 40 -95 18z m72 -43 c17 -21 0 -49 -31 -49 -31 0 -48 28
-31 49 8 9 21 16 31 16 10 0 23 -7 31 -16z M356 209 c-50 -40 -19 -129 46
-129 29 0 68 45 68 79 0 32 -38 71 -70 71 -10 0 -29 -9 -44 -21z M602 223 c-7
-3 -19 -18 -27 -33 -39 -75 57 -147 115 -86 55 60 -11 150 -88 119z m68 -54
c23 -41 -38 -68 -63 -27 -8 12 -7 21 2 32 19 22 48 20 61 -5z"/>
</g>
</svg>
