<svg xmlns="http://www.w3.org/2000/svg" viewBox="0 0 256 256" fill="none" stroke="#E8EDF4" stroke-width="10" stroke-linecap="round" stroke-linejoin="round">
<path d="M52 146 C52 102 86 78 126 78 C166 78 198 104 198 142 C198 176 174 196 136 196 H110 C78 196 52 176 52 146 Z"/>
<circle cx="92" cy="72" r="22"/>
<circle cx="154" cy="72" r="22"/>
<circle cx="154" cy="126" r="4"/>
<path d="M200 152 C224 148 232 158 230 174 C228 194 212 202 192 200"/>
<path d="M134 150 C126 158 118 158 110 150"/>
<path d="M100 146 L76 140"/>
<path d="M100 156 L72 156"/>
<path d="M146 146 L170 140"/>
<path d="M146 156 L174 156"/>
</svg>
