<svg xmlns="http://www.w3.org/2000/svg" viewBox="0 0 256 256" fill="none" stroke="#E8EDF4" stroke-width="10" stroke-linecap="round" stroke-linejoin="round">
<path d="M70 178 V124 C70 92 96 70 128 70 C160 70 186 92 186 124 V178"/>
<path d="M106 70 L92 24 C88 12 100 8 110 18 C122 30 126 48 124 68"/>
<path d="M150 70 L164 24 C168 12 156 8 146 18 C134 30 130 48 132 68"/>
<circle cx="108" cy="118" r="4"/>
<circle cx="148" cy="118" r="4"/>
<path d="M120 138 C126 144 130 144 136 138"/>
<path d="M92 184 V206"/>
<path d="M164 184 V206"/>
</svg>
