<svg xmlns="http://www.w3.org/2000/svg" viewBox="0 0 256 256" fill="none" stroke="#E8EDF4" stroke-width="10" stroke-linecap="round" stroke-linejoin="round">
<path d="M40 130 C58 80 92 54 128 54 C164 54 198 80 216 130 Z"/>
<path d="M128 54 V176"/>
<path d="M128 176 C128 198 142 212 160 212 C174 212 182 202 182 190"/>
<path d="M84 130 C84 144 72 154 58 154 C46 154 40 144 40 130"/>
<path d="M128 130 C128 144 116 154 102 154 C90 154 84 144 84 130"/>
<path d="M172 130 C172 144 160 154 146 154 C134 154 128 144 128 130"/>
<path d="M216 130 C216 144 204 154 190 154 C178 154 172 144 172 130"/>
</svg>
