<?xml version="1.0" standalone="no"?>
<!DOCTYPE svg PUBLIC "-//W3C//DTD SVG 20010904//EN"
 "http://www.w3.org/TR/2001/REC-SVG-20010904/DTD/svg10.dtd">
<svg version="1.0" xmlns="http://www.w3.org/2000/svg"
 width="152.000000pt" height="114.000000pt" viewBox="0 0 152.000000 114.000000"
 preserveAspectRatio="xMidYMid meet" fill="#D6DCE1">
<g transform="translate(0.000000,114.000000) scale(0.100000,-0.100000)"
 >
<path d="M81 1004 c0 -11 3 -14 6 -6 3 7 2 16 -1 19 -3 4 -6 -2 -5 -13z M82
940 c0 -14 2 -19 5 -12 2 6 2 18 0 25 -3 6 -5 1 -5 -13z M886 924 c-11 -28 -6
-54 9 -54 8 0 15 9 15 20 0 16 7 20 35 20 24 0 35 5 35 15 0 22 -86 21 -94 -1z
M1020 925 c0 -11 12 -15 45 -15 33 0 45 4 45 15 0 11 -12 15 -45 15 -33 0 -45
-4 -45 -15z M1230 925 c0 -12 16 -15 85 -15 l85 0 0 -65 c0 -49 3 -65 14 -65
16 0 32 105 21 139 -6 19 -14 21 -106 21 -81 0 -99 -3 -99 -15z M82 880 c0
-14 2 -19 5 -12 2 6 2 18 0 25 -3 6 -5 1 -5 -13z M1187 863 c-23 -22 -4 -33
55 -33 l62 0 -73 -74 c-49 -49 -69 -76 -61 -81 8 -5 37 17 79 59 36 36 70 66
73 66 4 0 8 -26 10 -57 5 -89 23 -69 26 28 3 83 2 87 -20 93 -31 8 -143 8
-151 -1z M884 835 c-3 -8 -3 -19 1 -25 11 -18 25 -11 25 15 0 27 -17 34 -26
10z M82 820 c0 -14 2 -19 5 -12 2 6 2 18 0 25 -3 6 -5 1 -5 -13z M81 764 c0
-11 3 -14 6 -6 3 7 2 16 -1 19 -3 4 -6 -2 -5 -13z M884 766 c-8 -21 -1 -49 14
-54 8 -2 12 8 12 32 0 36 -16 49 -26 22z M82 700 c0 -14 2 -19 5 -12 2 6 2 18
0 25 -3 6 -5 1 -5 -13z M82 640 c0 -14 2 -19 5 -12 2 6 2 18 0 25 -3 6 -5 1
-5 -13z M1050 575 l-65 -66 -5 33 c-8 53 -25 38 -28 -24 l-3 -58 46 0 c25 0
45 5 45 10 0 6 -10 10 -22 10 -18 0 -8 13 50 66 68 62 88 94 59 94 -7 0 -42
-29 -77 -65z M893 623 c-9 -3 -13 -35 -13 -113 0 -131 -3 -128 128 -122 70 3
92 7 92 18 0 11 -20 14 -90 14 l-90 0 0 99 c0 99 -4 112 -27 104z M1400 570
c0 -29 4 -40 15 -40 11 0 15 11 15 40 0 29 -4 40 -15 40 -11 0 -15 -11 -15
-40z M82 580 c0 -14 2 -19 5 -12 2 6 2 18 0 25 -3 6 -5 1 -5 -13z M81 524 c0
-11 3 -14 6 -6 3 7 2 16 -1 19 -3 4 -6 -2 -5 -13z M1407 483 c-4 -3 -7 -19 -7
-35 0 -24 -4 -28 -30 -28 -20 0 -30 -5 -30 -16 0 -12 9 -14 43 -12 41 3 42 4
45 42 3 38 -8 63 -21 49z M82 460 c0 -14 2 -19 5 -12 2 6 2 18 0 25 -3 6 -5 1
-5 -13z M82 400 c0 -14 2 -19 5 -12 2 6 2 18 0 25 -3 6 -5 1 -5 -13z M1220
405 c0 -11 11 -15 40 -15 29 0 40 4 40 15 0 11 -11 15 -40 15 -29 0 -40 -4
-40 -15z M82 330 c0 -14 2 -19 5 -12 2 6 2 18 0 25 -3 6 -5 1 -5 -13z M82 270
c0 -14 2 -19 5 -12 2 6 2 18 0 25 -3 6 -5 1 -5 -13z M82 210 c0 -14 2 -19 5
-12 2 6 2 18 0 25 -3 6 -5 1 -5 -13z M82 150 c0 -14 2 -19 5 -12 2 6 2 18 0
25 -3 6 -5 1 -5 -13z"/>
</g>
</svg>
