<?xml version="1.0" standalone="no"?>
<!DOCTYPE svg PUBLIC "-//W3C//DTD SVG 20010904//EN"
 "http://www.w3.org/TR/2001/REC-SVG-20010904/DTD/svg10.dtd">
<svg version="1.0" xmlns="http://www.w3.org/2000/svg"
 width="105.000000pt" height="61.000000pt" viewBox="0 0 105.000000 61.000000"
 preserveAspectRatio="xMidYMid meet" fill="#D6DCE1">
<g transform="translate(0.000000,61.000000) scale(0.100000,-0.100000)"
 >
<path d="M725 521 c-9 -16 3 -31 25 -31 10 0 21 -8 24 -17 6 -15 8 -15 24 0
13 13 14 21 6 35 -12 19 -69 29 -79 13z M544 509 c-12 -20 11 -28 69 -22 38 4
57 10 57 19 0 17 -115 20 -126 3z M382 503 c-26 -5 -25 -26 3 -31 35 -7 105 9
105 24 0 14 -52 18 -108 7z M242 488 c-15 -15 -15 -45 0 -54 6 -4 16 0 23 9 7
10 20 17 29 17 9 0 16 8 16 20 0 23 -47 29 -68 8z M777 443 c-16 -16 -7 -53
13 -53 20 0 25 15 14 44 -7 17 -16 20 -27 9z M240 380 c0 -20 5 -30 15 -30 10
0 15 10 15 30 0 20 -5 30 -15 30 -10 0 -15 -10 -15 -30z M795 350 c-49 -4
-205 -15 -345 -25 -328 -21 -365 -26 -365 -45 0 -18 -4 -19 310 4 138 10 322
23 410 30 139 10 160 13 163 29 4 19 -14 20 -173 7z M782 243 c4 -36 33 -39
33 -3 0 16 -6 26 -18 28 -15 3 -18 -2 -15 -25z M252 209 c2 -19 8 -33 13 -31
15 3 12 55 -3 60 -10 3 -13 -5 -10 -29z M783 171 c-3 -14 -13 -21 -29 -21 -15
0 -24 -6 -24 -16 0 -12 9 -14 43 -12 39 3 42 5 42 32 0 35 -24 47 -32 17z
M257 153 c-12 -11 -8 -50 6 -61 6 -5 27 -7 45 -5 41 7 43 33 2 33 -23 0 -30 4
-30 20 0 20 -11 26 -23 13z M610 140 c-30 -3 -55 -9 -55 -15 0 -14 105 -19
118 -6 19 19 -5 27 -63 21z M384 119 c-11 -19 9 -26 64 -21 36 3 52 8 52 18 0
17 -105 20 -116 3z"/>
</g>
</svg>
