<?xml version="1.0" standalone="no"?>
<!DOCTYPE svg PUBLIC "-//W3C//DTD SVG 20010904//EN"
 "http://www.w3.org/TR/2001/REC-SVG-20010904/DTD/svg10.dtd">
<svg version="1.0" xmlns="http://www.w3.org/2000/svg"
 width="77.000000pt" height="77.000000pt" viewBox="0 0 77.000000 77.000000"
 preserveAspectRatio="xMidYMid meet" fill="#D6DCE1">
<g transform="translate(0.000000,77.000000) scale(0.100000,-0.100000)"
 >
<path d="M92 678 c-12 -12 -17 -94 -6 -122 3 -9 17 -16 29 -16 17 0 25 -7 27
-22 4 -29 22 -30 26 -1 2 15 11 23 30 25 21 2 28 9 30 31 2 18 9 27 22 27 10
0 20 7 24 15 4 11 -1 15 -19 15 -18 0 -24 6 -27 28 -3 26 -6 27 -63 30 -38 2
-65 -2 -73 -10z m102 -43 c-4 -8 -15 -15 -27 -15 -24 0 -17 -10 10 -14 10 -2
19 -10 21 -19 3 -14 -5 -17 -37 -17 l-41 0 0 40 c0 40 0 40 40 40 31 0 38 -3
34 -15z M552 678 c-7 -7 -12 -20 -12 -30 0 -11 -7 -18 -20 -18 -11 0 -20 -7
-20 -15 0 -8 8 -15 19 -15 13 0 20 -9 25 -30 4 -24 11 -30 30 -30 18 0 26 -6
28 -22 4 -31 28 -35 28 -4 0 20 6 25 28 28 26 3 27 6 30 61 2 35 -2 64 -9 73
-14 17 -110 19 -127 2z m100 -68 l4 -40 -38 0 c-38 0 -38 0 -38 40 0 39 1 40
34 40 32 0 34 -2 38 -40z M327 633 c-23 -22 -4 -33 57 -33 64 0 92 14 65 31
-16 10 -113 12 -122 2z M130 434 c-6 -14 -10 -35 -10 -47 0 -28 29 -72 40 -60
7 7 15 88 11 121 -2 22 -31 13 -41 -14z M602 448 c-16 -16 -15 -99 3 -121 13
-18 14 -18 25 2 13 26 9 123 -5 128 -6 2 -16 -2 -23 -9z M140 260 c0 -22 -5
-30 -18 -30 -30 0 -42 -21 -42 -75 0 -72 6 -77 81 -73 62 3 64 4 67 31 3 21 9
27 28 27 13 0 24 5 24 10 0 6 -11 10 -25 10 -19 0 -25 5 -25 23 0 28 -17 47
-42 47 -13 0 -18 8 -18 30 0 20 -5 30 -15 30 -10 0 -15 -10 -15 -30z m55 -108
c0 -36 -2 -37 -38 -40 l-37 -3 0 40 c0 41 0 41 38 41 36 0 37 -1 37 -38z M162
165 c-11 -12 -10 -15 3 -15 8 0 15 7 15 15 0 18 -2 18 -18 0z M600 260 c0 -22
-5 -30 -18 -30 -25 0 -42 -19 -42 -47 0 -17 -6 -23 -21 -23 -12 0 -19 -5 -16
-12 2 -7 11 -12 20 -12 9 1 17 -10 21 -27 5 -28 7 -29 70 -29 73 0 76 4 76 79
0 50 -13 71 -42 71 -13 0 -18 8 -18 30 0 20 -5 30 -15 30 -10 0 -15 -10 -15
-30z m50 -110 c0 -39 -1 -40 -35 -40 -34 0 -35 1 -35 40 0 39 1 40 35 40 34 0
35 -1 35 -40z M320 150 c0 -19 5 -21 68 -18 52 2 67 6 67 18 0 12 -15 16 -67
18 -63 3 -68 1 -68 -18z"/>
</g>
</svg>
