<?xml version="1.0" standalone="no"?>
<!DOCTYPE svg PUBLIC "-//W3C//DTD SVG 20010904//EN"
 "http://www.w3.org/TR/2001/REC-SVG-20010904/DTD/svg10.dtd">
<svg version="1.0" xmlns="http://www.w3.org/2000/svg"
 width="79.000000pt" height="73.000000pt" viewBox="0 0 79.000000 73.000000"
 preserveAspectRatio="xMidYMid meet" fill="#D6DCE1">
<g transform="translate(0.000000,73.000000) scale(0.100000,-0.100000)"
 >
<path d="M84 637 c-9 -24 0 -182 11 -182 6 0 12 29 15 65 3 36 8 64 13 63 15
-6 27 -3 27 7 0 6 -9 10 -20 10 -13 0 -20 7 -20 19 0 24 -18 37 -26 18z M619
617 c-5 -12 -35 -35 -65 -51 -50 -27 -106 -82 -149 -148 -9 -16 -25 -28 -35
-28 -25 0 -43 -26 -38 -55 12 -59 -149 -216 -205 -201 -20 5 -22 10 -19 46 3
31 1 40 -11 40 -13 0 -16 -13 -15 -70 l0 -70 29 0 c16 0 29 4 29 8 0 4 19 17
43 29 58 28 101 66 148 130 22 29 46 53 53 53 22 0 46 34 40 57 -10 38 78 145
154 189 27 15 36 16 52 6 27 -17 44 -15 63 6 34 38 15 82 -35 82 -20 0 -32 -7
-39 -23z M200 590 c0 -5 20 -10 45 -10 25 0 45 5 45 10 0 6 -20 10 -45 10 -25
0 -45 -4 -45 -10z M330 590 c0 -5 25 -10 55 -10 30 0 55 5 55 10 0 6 -25 10
-55 10 -30 0 -55 -4 -55 -10z M490 590 c0 -5 16 -10 35 -10 19 0 35 5 35 10 0
6 -16 10 -35 10 -19 0 -35 -4 -35 -10z M642 478 c2 -13 8 -23 13 -23 6 0 11
10 13 23 2 15 -2 22 -13 22 -11 0 -15 -7 -13 -22z M86 393 c-3 -3 -6 -39 -6
-80 0 -58 3 -73 15 -73 12 0 15 15 15 74 0 69 -8 95 -24 79z M642 323 c2 -38
8 -68 13 -68 6 0 11 30 13 68 2 56 0 67 -13 67 -13 0 -15 -11 -13 -67z M642
203 c2 -10 8 -18 13 -18 5 0 11 8 13 18 2 10 -3 17 -13 17 -10 0 -15 -7 -13
-17z M640 125 c0 -8 -9 -15 -20 -15 -11 0 -20 -7 -20 -15 0 -12 13 -15 55 -15
54 0 73 14 38 27 -10 4 -22 12 -26 20 -11 18 -27 17 -27 -2z M353 113 c-13 -2
-23 -11 -23 -19 0 -10 14 -14 55 -14 42 0 55 3 55 15 0 8 -9 15 -19 15 -11 0
-25 2 -33 4 -7 2 -23 1 -35 -1z M217 104 c-13 -13 5 -24 39 -24 24 0 34 5 34
15 0 15 -59 22 -73 9z M470 95 c0 -13 9 -16 43 -13 23 2 42 8 42 13 0 6 -19
11 -42 13 -34 3 -43 0 -43 -13z"/>
</g>
</svg>
