<?xml version="1.0" standalone="no"?>
<!DOCTYPE svg PUBLIC "-//W3C//DTD SVG 20010904//EN"
 "http://www.w3.org/TR/2001/REC-SVG-20010904/DTD/svg10.dtd">
<svg version="1.0" xmlns="http://www.w3.org/2000/svg"
 width="88.000000pt" height="73.000000pt" viewBox="0 0 88.000000 73.000000"
 preserveAspectRatio="xMidYMid meet" fill="#D6DCE1">
<g transform="translate(0.000000,73.000000) scale(0.100000,-0.100000)"
 >
<path d="M320 380 l0 -270 -45 0 -45 0 0 170 c0 144 -2 170 -15 170 -13 0 -15
-26 -15 -170 l0 -170 -42 0 -43 0 0 77 c0 63 -3 78 -15 78 -12 0 -16 -18 -18
-93 l-3 -92 361 0 c313 0 360 2 360 15 0 11 -12 15 -45 15 l-44 0 -3 148 c-3
123 -5 147 -18 147 -13 0 -15 -24 -18 -145 l-3 -145 -39 -1 -40 -1 0 234 c0
218 -1 234 -17 231 -17 -3 -18 -22 -18 -233 l0 -230 -42 -3 -43 -3 0 180 c0
117 -4 182 -11 186 -6 4 -12 5 -14 3 -2 -1 -6 -84 -9 -183 l-6 -180 -40 -3
-40 -3 0 270 c0 234 -2 271 -15 271 -13 0 -15 -37 -15 -270z"/>
</g>
</svg>
