<?xml version="1.0" standalone="no"?>
<!DOCTYPE svg PUBLIC "-//W3C//DTD SVG 20010904//EN"
 "http://www.w3.org/TR/2001/REC-SVG-20010904/DTD/svg10.dtd">
<svg version="1.0" xmlns="http://www.w3.org/2000/svg"
 width="85.000000pt" height="84.000000pt" viewBox="0 0 85.000000 84.000000"
 preserveAspectRatio="xMidYMid meet" fill="#D6DCE1">
<g transform="translate(0.000000,84.000000) scale(0.100000,-0.100000)"
 >
<path d="M416 753 c-3 -3 -6 -26 -6 -50 0 -32 4 -43 15 -43 11 0 15 12 15 44
0 43 -10 63 -24 49z M176 653 c-3 -4 8 -22 26 -40 24 -25 34 -30 45 -21 11 9
9 16 -13 40 -28 28 -44 34 -58 21z M615 630 c-22 -23 -26 -33 -17 -42 9 -9 20
-4 47 22 33 32 37 50 11 50 -7 0 -25 -14 -41 -30z M333 595 c-130 -65 -152
-237 -42 -329 88 -75 189 -73 273 4 106 97 82 260 -47 325 -65 32 -119 32
-184 0z m115 -161 c2 -151 3 -152 25 -147 29 7 74 50 98 93 l20 35 -5 -39 c-7
-51 -28 -82 -76 -106 -137 -70 -289 44 -250 189 14 54 54 98 105 116 80 29 80
30 83 -141z M91 431 c-24 -15 -2 -31 43 -31 47 0 57 5 49 26 -6 16 -69 19 -92
5z M677 434 c-21 -21 -5 -34 44 -34 43 0 50 3 47 18 -3 18 -76 31 -91 16z
M207 222 c-26 -27 -35 -52 -19 -52 14 0 73 66 66 73 -12 12 -19 8 -47 -21z
M595 240 c-8 -13 58 -71 69 -60 5 5 -2 21 -15 39 -25 31 -43 38 -54 21z M410
130 c0 -38 4 -50 15 -50 11 0 15 12 15 50 0 38 -4 50 -15 50 -11 0 -15 -12
-15 -50z"/>
</g>
</svg>
