<?xml version="1.0" standalone="no"?>
<!DOCTYPE svg PUBLIC "-//W3C//DTD SVG 20010904//EN"
 "http://www.w3.org/TR/2001/REC-SVG-20010904/DTD/svg10.dtd">
<svg version="1.0" xmlns="http://www.w3.org/2000/svg"
 width="71.000000pt" height="70.000000pt" viewBox="0 0 71.000000 70.000000"
 preserveAspectRatio="xMidYMid meet" fill="#D6DCE1">
<g transform="translate(0.000000,70.000000) scale(0.100000,-0.100000)"
 >
<path d="M263 604 c-23 -9 -62 -33 -86 -54 -160 -142 -99 -395 110 -456 257
-75 451 246 265 440 -75 78 -187 106 -289 70z m102 -128 c4 -63 4 -169 0 -235
-7 -114 -9 -121 -29 -121 -85 0 -181 77 -206 163 -26 93 10 207 82 258 28 20
101 46 134 48 8 1 14 -38 19 -113z"/>
</g>
</svg>
