<?xml version="1.0" standalone="no"?>
<!DOCTYPE svg PUBLIC "-//W3C//DTD SVG 20010904//EN"
 "http://www.w3.org/TR/2001/REC-SVG-20010904/DTD/svg10.dtd">
<svg version="1.0" xmlns="http://www.w3.org/2000/svg"
 width="82.000000pt" height="80.000000pt" viewBox="0 0 82.000000 80.000000"
 preserveAspectRatio="xMidYMid meet" fill="#D6DCE1">
<g transform="translate(0.000000,80.000000) scale(0.100000,-0.100000)"
 >
<path d="M390 680 c0 -29 4 -40 15 -40 11 0 15 11 15 40 0 29 -4 40 -15 40
-11 0 -15 -11 -15 -40z M170 620 c0 -5 12 -21 26 -35 35 -35 55 -18 23 19 -22
26 -49 35 -49 16z M592 607 c-25 -27 -28 -37 -9 -37 14 0 57 41 57 53 0 15
-28 6 -48 -16z M337 586 c-149 -55 -172 -258 -39 -351 59 -41 158 -47 216 -13
67 39 97 87 103 160 6 78 -22 138 -85 182 -50 35 -134 45 -195 22z m149 -35
c48 -22 80 -59 95 -112 29 -96 -57 -209 -159 -209 l-27 0 3 170 c3 193 2 190
88 151z M80 405 c0 -11 12 -15 45 -15 33 0 45 4 45 15 0 11 -12 15 -45 15 -33
0 -45 -4 -45 -15z M640 405 c0 -13 9 -16 48 -13 26 2 47 8 47 13 0 6 -21 11
-47 13 -39 3 -48 0 -48 -13z M190 215 c-19 -20 -21 -28 -12 -37 10 -10 18 -6
36 17 37 47 17 63 -24 20z M576 232 c-3 -5 8 -21 23 -36 36 -34 51 -18 18 18
-26 28 -33 31 -41 18z M390 125 c0 -33 4 -45 15 -45 11 0 15 12 15 45 0 33 -4
45 -15 45 -11 0 -15 -12 -15 -45z"/>
</g>
</svg>
