<?xml version="1.0" standalone="no"?>
<!DOCTYPE svg PUBLIC "-//W3C//DTD SVG 20010904//EN"
 "http://www.w3.org/TR/2001/REC-SVG-20010904/DTD/svg10.dtd">
<svg version="1.0" xmlns="http://www.w3.org/2000/svg"
 width="72.000000pt" height="70.000000pt" viewBox="0 0 72.000000 70.000000"
 preserveAspectRatio="xMidYMid meet" fill="#D6DCE1">
<g transform="translate(0.000000,70.000000) scale(0.100000,-0.100000)"
 >
<path d="M261 600 c-70 -33 -118 -77 -147 -135 -82 -169 30 -358 226 -381 145
-16 300 118 300 261 0 91 -60 191 -145 241 -63 36 -172 43 -234 14z m222 -48
c134 -75 158 -265 47 -366 -61 -55 -104 -70 -197 -67 -50 1 -58 18 -10 23 17
2 32 8 32 13 0 14 -94 18 -110 5 -15 -13 -59 10 -69 35 -7 20 16 25 105 25 55
0 78 3 74 11 -5 7 -44 10 -109 8 -87 -3 -101 -1 -104 14 -3 14 10 17 105 19
145 4 135 23 -12 23 -108 0 -110 0 -113 24 l-4 23 119 -3 c100 -3 118 -2 118
11 0 13 -19 15 -117 14 -121 0 -123 1 -112 41 5 18 13 20 116 20 80 0 112 4
115 13 4 9 -15 12 -70 12 -86 0 -137 8 -137 22 0 14 66 78 80 78 8 0 10 -9 6
-25 -6 -25 -6 -25 60 -25 56 0 65 2 60 16 -3 9 -6 20 -6 25 0 4 -17 7 -37 6
-28 -1 -38 2 -38 13 0 40 132 35 208 -8z"/>
</g>
</svg>
