<?xml version="1.0" standalone="no"?>
<!DOCTYPE svg PUBLIC "-//W3C//DTD SVG 20010904//EN"
 "http://www.w3.org/TR/2001/REC-SVG-20010904/DTD/svg10.dtd">
<svg version="1.0" xmlns="http://www.w3.org/2000/svg"
 width="73.000000pt" height="73.000000pt" viewBox="0 0 73.000000 73.000000"
 preserveAspectRatio="xMidYMid meet" fill="#D6DCE1">
<g transform="translate(0.000000,73.000000) scale(0.100000,-0.100000)"
 >
<path d="M525 638 c-11 -6 -41 -31 -68 -56 -44 -43 -48 -45 -63 -30 -16 15
-19 15 -45 -5 -33 -24 -35 -33 -13 -58 15 -16 14 -19 -12 -41 -16 -13 -67 -59
-113 -103 -82 -79 -116 -130 -105 -159 3 -8 -2 -28 -10 -44 -15 -28 -14 -32 1
-47 10 -11 23 -14 37 -10 12 4 41 10 66 12 42 4 52 12 161 123 108 109 118
117 133 102 15 -15 18 -14 43 11 24 24 26 30 15 48 -12 19 -9 26 37 74 74 78
80 137 18 175 -36 22 -53 24 -82 8z m30 -168 c-58 -59 -58 -60 -40 -80 14 -16
16 -23 7 -32 -8 -8 -15 -8 -20 -3 -4 6 -39 42 -76 82 -39 41 -65 76 -61 83 5
8 13 6 26 -6 18 -16 21 -15 80 41 l61 58 41 -42 40 -42 -58 -59z m-143 -57
c26 -26 48 -50 48 -54 0 -4 -52 -55 -116 -115 -102 -95 -121 -109 -153 -110
-20 0 -44 -5 -55 -9 -16 -7 -17 -6 -7 13 6 11 11 35 11 53 0 27 15 48 99 133
54 56 101 109 104 119 9 25 16 22 69 -30z"/>
</g>
</svg>
