<?xml version="1.0" standalone="no"?>
<!DOCTYPE svg PUBLIC "-//W3C//DTD SVG 20010904//EN"
 "http://www.w3.org/TR/2001/REC-SVG-20010904/DTD/svg10.dtd">
<svg version="1.0" xmlns="http://www.w3.org/2000/svg"
 width="58.000000pt" height="75.000000pt" viewBox="0 0 58.000000 75.000000"
 preserveAspectRatio="xMidYMid meet" fill="#D6DCE1">
<g transform="translate(0.000000,75.000000) scale(0.100000,-0.100000)"
 >
<path d="M226 588 c-145 -220 -169 -304 -113 -400 48 -83 156 -126 242 -98 48
16 112 74 131 118 23 57 18 129 -15 194 -44 86 -164 268 -178 268 -6 0 -36
-37 -67 -82z m120 -40 c77 -120 114 -192 120 -240 16 -118 -99 -220 -215 -188
-112 30 -162 146 -110 260 25 55 141 240 151 240 4 0 28 -33 54 -72z M373 213
c-37 -39 -39 -43 -19 -43 22 0 66 40 66 61 0 26 -9 22 -47 -18z"/>
</g>
</svg>
