<?xml version="1.0" standalone="no"?>
<!DOCTYPE svg PUBLIC "-//W3C//DTD SVG 20010904//EN"
 "http://www.w3.org/TR/2001/REC-SVG-20010904/DTD/svg10.dtd">
<svg version="1.0" xmlns="http://www.w3.org/2000/svg"
 width="50.000000pt" height="80.000000pt" viewBox="0 0 50.000000 80.000000"
 preserveAspectRatio="xMidYMid meet" fill="#D6DCE1">
<g transform="translate(0.000000,80.000000) scale(0.100000,-0.100000)"
 >
<path d="M195 708 c-42 -23 -45 -36 -45 -201 l0 -159 -30 -34 c-55 -63 -49
-147 16 -204 29 -25 43 -30 87 -30 89 0 150 57 150 141 0 37 -36 109 -54 109
-5 0 -9 71 -9 164 0 90 -3 172 -6 181 -7 17 -54 45 -76 45 -7 0 -22 -6 -33
-12z m73 -40 c8 -8 12 -62 12 -177 l0 -165 28 -29 c22 -23 27 -37 27 -78 0
-67 -42 -109 -108 -109 -104 0 -150 115 -76 190 l29 28 0 160 c0 88 3 167 6
176 7 19 64 22 82 4z M210 404 c0 -105 -1 -109 -27 -129 -54 -44 -23 -125 48
-125 66 0 94 78 44 124 -22 21 -24 31 -27 127 -3 90 -5 104 -20 107 -16 3 -18
-7 -18 -104z M378 583 c-37 -6 -36 -23 2 -23 20 0 30 5 30 15 0 8 -1 14 -2 14
-2 -1 -15 -4 -30 -6z M350 490 c0 -5 16 -10 35 -10 19 0 35 5 35 10 0 6 -16
10 -35 10 -19 0 -35 -4 -35 -10z M350 395 c0 -10 11 -15 35 -15 24 0 35 5 35
15 0 10 -11 15 -35 15 -24 0 -35 -5 -35 -15z"/>
</g>
</svg>
