<?xml version="1.0" standalone="no"?>
<!DOCTYPE svg PUBLIC "-//W3C//DTD SVG 20010904//EN"
 "http://www.w3.org/TR/2001/REC-SVG-20010904/DTD/svg10.dtd">
<svg version="1.0" xmlns="http://www.w3.org/2000/svg"
 width="73.000000pt" height="72.000000pt" viewBox="0 0 73.000000 72.000000"
 preserveAspectRatio="xMidYMid meet" fill="#D6DCE1">
<g transform="translate(0.000000,72.000000) scale(0.100000,-0.100000)"
 >
<path d="M515 628 c-11 -6 -41 -31 -67 -56 -45 -43 -48 -45 -66 -29 -17 16
-20 15 -47 -13 l-29 -30 23 -24 c13 -14 20 -30 16 -36 -5 -8 -10 -9 -14 -2 -3
6 -57 -39 -120 -100 -110 -108 -113 -112 -108 -148 2 -20 -1 -47 -8 -60 -7
-13 -11 -30 -8 -37 6 -16 49 -17 58 -2 4 6 19 7 36 4 41 -9 76 15 191 132 91
93 97 98 117 84 19 -12 24 -11 46 9 29 27 31 42 9 60 -13 12 -9 20 36 65 78
79 84 147 15 179 -39 19 -53 19 -80 4z m83 -40 c25 -25 13 -63 -34 -108 -58
-57 -69 -77 -54 -96 7 -7 9 -21 6 -31 -6 -13 -22 -1 -86 62 -60 60 -77 82 -69
92 8 9 16 10 31 2 17 -9 28 -3 76 40 59 52 104 65 130 39z m-188 -193 l45 -46
-115 -111 c-95 -92 -122 -113 -155 -119 -22 -4 -51 -11 -65 -15 -25 -8 -25 -8
-7 19 9 14 17 41 17 58 0 27 16 49 112 146 62 62 115 113 118 113 3 0 26 -20
50 -45z"/>
</g>
</svg>
