<?xml version="1.0" standalone="no"?>
<!DOCTYPE svg PUBLIC "-//W3C//DTD SVG 20010904//EN"
 "http://www.w3.org/TR/2001/REC-SVG-20010904/DTD/svg10.dtd">
<svg version="1.0" xmlns="http://www.w3.org/2000/svg"
 width="70.000000pt" height="70.000000pt" viewBox="0 0 70.000000 70.000000"
 preserveAspectRatio="xMidYMid meet" fill="#D6DCE1">
<g transform="translate(0.000000,70.000000) scale(0.100000,-0.100000)"
 >
<path d="M309 610 c-138 -24 -240 -152 -226 -285 10 -94 61 -164 161 -218 131
-72 310 3 360 151 65 190 -98 386 -295 352z m131 -47 c157 -64 189 -285 58
-397 -152 -130 -383 -20 -381 182 2 178 159 282 323 215z M254 511 c-77 -47
-112 -142 -58 -155 42 -11 81 3 114 40 25 29 30 43 30 84 0 48 -1 50 -27 50
-16 0 -42 -9 -59 -19z"/>
</g>
</svg>
