<?xml version="1.0" standalone="no"?>
<!DOCTYPE svg PUBLIC "-//W3C//DTD SVG 20010904//EN"
 "http://www.w3.org/TR/2001/REC-SVG-20010904/DTD/svg10.dtd">
<svg version="1.0" xmlns="http://www.w3.org/2000/svg"
 width="79.000000pt" height="64.000000pt" viewBox="0 0 79.000000 64.000000"
 preserveAspectRatio="xMidYMid meet" fill="#D6DCE1">
<g transform="translate(0.000000,64.000000) scale(0.100000,-0.100000)"
 >
<path d="M385 469 c-32 -61 -44 -94 -37 -101 7 -7 15 -2 25 13 43 72 58 92 53
73 -5 -16 1 -24 26 -37 27 -13 29 -16 13 -18 -11 -1 -4 -4 15 -8 33 -6 39 -13
107 -141 l72 -135 -99 -3 c-80 -2 -100 -6 -100 -17 0 -12 22 -15 126 -15 96 0
125 3 122 13 -9 35 -252 467 -263 467 -7 0 -34 -41 -60 -91z m90 -14 c16 -27
21 -44 13 -37 -9 7 -21 26 -28 42 -7 16 -16 27 -21 24 -5 -3 -6 2 -3 11 4 9 7
15 8 13 2 -2 15 -25 31 -53z M157 233 c-42 -75 -73 -141 -71 -145 9 -14 327
-10 321 5 -16 37 -156 272 -165 275 -5 1 -44 -59 -85 -135z m140 -121 c-32 -2
-82 -2 -112 0 l-54 3 55 103 56 104 57 -104 56 -103 -58 -3z"/>
</g>
</svg>
