<?xml version="1.0" standalone="no"?>
<!DOCTYPE svg PUBLIC "-//W3C//DTD SVG 20010904//EN"
 "http://www.w3.org/TR/2001/REC-SVG-20010904/DTD/svg10.dtd">
<svg version="1.0" xmlns="http://www.w3.org/2000/svg"
 width="75.000000pt" height="71.000000pt" viewBox="0 0 75.000000 71.000000"
 preserveAspectRatio="xMidYMid meet" fill="#D6DCE1">
<g transform="translate(0.000000,71.000000) scale(0.100000,-0.100000)"
 >
<path d="M305 616 c-42 -18 -93 -79 -100 -119 -16 -85 23 -181 84 -207 25 -10
31 -18 31 -44 0 -18 8 -48 19 -68 l18 -37 -32 -15 c-154 -73 -281 109 -160
230 31 31 24 44 -13 24 -32 -18 -72 -92 -72 -134 0 -52 38 -114 86 -142 56
-33 142 -31 191 4 17 12 33 19 37 15 3 -3 6 0 6 8 0 8 9 32 20 54 11 22 20 51
21 65 0 18 12 34 42 55 80 58 95 173 35 258 -41 57 -144 83 -213 53z m135 -34
c49 -24 80 -75 80 -129 0 -41 -1 -43 -20 -33 -23 12 -93 -4 -112 -27 -9 -11
-14 -11 -30 3 -10 10 -41 19 -73 22 l-55 4 0 38 c0 69 73 140 145 140 16 0 46
-8 65 -18z m-99 -209 c10 -10 -11 -63 -24 -63 -33 0 -89 67 -67 80 14 8 78 -4
91 -17z m169 16 c0 -22 -22 -49 -51 -65 -17 -8 -32 -14 -33 -12 -1 2 -7 16
-14 31 -11 25 -10 28 11 36 54 21 87 25 87 10z m-120 -69 c9 -18 8 -20 -15
-20 -23 0 -24 2 -13 20 7 11 14 20 15 20 1 0 7 -9 13 -20z m15 -82 c-4 -18
-12 -42 -17 -52 -10 -18 -11 -18 -24 5 -7 13 -13 36 -14 52 0 24 4 27 31 27
29 0 30 -1 24 -32z M319 548 c-37 -32 -42 -51 -6 -24 20 16 37 30 37 32 0 8
-17 3 -31 -8z M570 382 c0 -5 9 -17 20 -27 10 -9 27 -37 36 -62 21 -55 9 -105
-36 -148 -29 -28 -37 -30 -106 -29 -41 0 -74 -3 -74 -6 0 -14 53 -30 99 -30
135 0 210 172 119 275 -28 33 -58 46 -58 27z M146 272 c-10 -30 16 -95 44
-109 30 -15 51 -1 46 31 -3 11 -5 27 -5 34 -1 6 -7 12 -14 12 -7 0 -17 10 -22
22 -13 29 -41 35 -49 10z M562 221 c-32 -30 -43 -71 -19 -71 20 0 54 41 62 73
9 35 -3 34 -43 -2z"/>
</g>
</svg>
