<?xml version="1.0" standalone="no"?>
<!DOCTYPE svg PUBLIC "-//W3C//DTD SVG 20010904//EN"
 "http://www.w3.org/TR/2001/REC-SVG-20010904/DTD/svg10.dtd">
<svg version="1.0" xmlns="http://www.w3.org/2000/svg"
 width="72.000000pt" height="72.000000pt" viewBox="0 0 72.000000 72.000000"
 preserveAspectRatio="xMidYMid meet" fill="#D6DCE1">
<g transform="translate(0.000000,72.000000) scale(0.100000,-0.100000)"
 >
<path d="M245 619 c-175 -87 -220 -310 -89 -445 116 -119 290 -120 403 -3 85
89 106 200 57 304 -28 61 -109 137 -164 153 -62 19 -160 14 -207 -9z m105 -41
c0 -30 -5 -35 -51 -55 l-51 -22 -25 25 c-30 31 -22 45 42 68 67 25 85 21 85
-16z m118 7 c58 -27 63 -37 28 -60 -23 -15 -29 -15 -75 2 -47 16 -51 20 -51
50 0 41 22 43 98 8z m-257 -136 c-12 -19 -21 -42 -21 -51 0 -14 -9 -18 -41
-18 -40 0 -41 1 -34 28 3 15 17 51 31 81 l24 53 31 -30 30 -29 -20 -34z m363
39 c13 -24 27 -58 31 -75 6 -32 6 -33 -27 -33 -32 0 -36 4 -57 55 l-23 55 24
20 c12 11 24 19 25 20 1 0 13 -19 27 -42z m-146 3 c47 -24 74 -70 76 -130 4
-154 -220 -195 -278 -50 -51 127 80 243 202 180z m-238 -160 c0 -9 9 -31 21
-50 l21 -34 -26 -25 c-32 -32 -47 -21 -76 54 -28 76 -27 80 20 76 29 -3 40 -9
40 -21z m405 -50 c-9 -27 -24 -58 -34 -70 l-18 -21 -24 26 c-21 23 -22 27 -10
57 7 18 15 42 18 54 4 17 14 23 42 25 44 4 48 -6 26 -71z m-245 -128 c0 -25
-4 -33 -19 -33 -24 0 -80 20 -109 38 l-23 15 26 27 26 28 50 -21 c45 -19 49
-24 49 -54z m147 55 c32 -30 30 -36 -29 -63 -67 -31 -98 -32 -98 -4 0 31 18
59 38 59 10 0 27 7 38 15 25 19 24 19 51 -7z"/>
</g>
</svg>
