<?xml version="1.0" standalone="no"?>
<!DOCTYPE svg PUBLIC "-//W3C//DTD SVG 20010904//EN"
 "http://www.w3.org/TR/2001/REC-SVG-20010904/DTD/svg10.dtd">
<svg version="1.0" xmlns="http://www.w3.org/2000/svg"
 width="71.000000pt" height="70.000000pt" viewBox="0 0 71.000000 70.000000"
 preserveAspectRatio="xMidYMid meet" fill="#D6DCE1">
<g transform="translate(0.000000,70.000000) scale(0.100000,-0.100000)"
 >
<path d="M97 602 c-15 -16 -17 -49 -17 -254 0 -215 2 -236 18 -251 27 -25 492
-25 516 -1 24 23 24 485 0 508 -13 14 -51 16 -258 16 -223 0 -244 -2 -259 -18z
m471 -32 c22 -15 22 -18 22 -225 0 -151 -3 -214 -12 -223 -17 -17 -429 -17
-446 0 -9 9 -12 73 -12 225 l0 212 28 15 c38 21 386 17 420 -4z M286 536 c-82
-31 -126 -97 -126 -192 0 -113 74 -185 194 -188 119 -2 201 78 200 195 -1 108
-68 181 -179 193 -32 4 -64 1 -89 -8z m125 -27 c71 -24 109 -82 109 -167 0
-91 -67 -154 -164 -156 -94 -1 -156 55 -164 147 -10 126 101 215 219 176z"/>
</g>
</svg>
