<?xml version="1.0" standalone="no"?>
<!DOCTYPE svg PUBLIC "-//W3C//DTD SVG 20010904//EN"
 "http://www.w3.org/TR/2001/REC-SVG-20010904/DTD/svg10.dtd">
<svg version="1.0" xmlns="http://www.w3.org/2000/svg"
 width="88.000000pt" height="100.000000pt" viewBox="0 0 88.000000 100.000000"
 preserveAspectRatio="xMidYMid meet" fill="#D6DCE1">
<g transform="translate(0.000000,100.000000) scale(0.100000,-0.100000)"
 >
<path d="M342 895 c-54 -45 -77 -116 -77 -235 0 -95 3 -110 29 -163 38 -78 71
-98 155 -95 64 3 92 20 51 31 l-20 5 21 36 c63 107 62 279 -2 383 l-21 33 21
0 c12 0 21 6 21 15 0 12 -15 15 -74 15 -65 0 -78 -3 -104 -25z m105 -27 c44
-49 57 -89 60 -193 4 -115 -19 -191 -70 -229 -26 -19 -30 -19 -54 -6 -39 22
-61 58 -79 130 -46 180 57 392 143 298z M573 888 c37 -49 54 -88 73 -163 15
-59 15 -74 4 -119 -19 -76 -46 -134 -76 -161 -36 -33 -23 -45 46 -45 52 0 64
4 93 30 58 51 82 119 82 235 0 89 -3 106 -28 157 -40 82 -64 98 -149 98 l-69
0 24 -32z m107 -8 c30 -16 67 -89 80 -157 24 -125 -38 -283 -111 -283 -34 0
-34 1 -13 42 44 86 54 211 24 309 -11 37 -25 71 -30 74 -33 21 14 34 50 15z"/>
</g>
</svg>
