<?xml version="1.0" standalone="no"?>
<!DOCTYPE svg PUBLIC "-//W3C//DTD SVG 20010904//EN"
 "http://www.w3.org/TR/2001/REC-SVG-20010904/DTD/svg10.dtd">
<svg version="1.0" xmlns="http://www.w3.org/2000/svg"
 width="72.000000pt" height="70.000000pt" viewBox="0 0 72.000000 70.000000"
 preserveAspectRatio="xMidYMid meet" fill="#D6DCE1">
<g transform="translate(0.000000,70.000000) scale(0.100000,-0.100000)"
 >
<path d="M87 613 c-3 -5 1 -32 10 -59 23 -69 24 -317 1 -396 -20 -73 -13 -80
60 -60 80 23 335 23 414 0 32 -9 60 -12 63 -8 3 5 -2 39 -11 77 -23 95 -23
267 1 366 10 42 16 80 13 83 -3 3 -39 -2 -79 -10 -160 -33 -224 -31 -440 11
-15 3 -29 1 -32 -4z m116 -50 c10 -6 22 -37 32 -81 l7 -32 -48 17 c-44 17 -49
22 -60 67 l-12 48 36 -7 c20 -4 41 -9 45 -12z m393 0 c-2 -10 -7 -32 -11 -49
-5 -26 -12 -32 -50 -42 -49 -13 -64 -38 -17 -29 15 3 34 8 42 11 13 5 15 -8
12 -93 l-3 -100 -30 11 c-31 11 -64 4 -55 -11 3 -4 26 -14 50 -21 42 -12 45
-15 55 -59 5 -25 8 -47 7 -49 -2 -1 -22 0 -45 4 -40 6 -41 7 -61 71 -25 81
-26 201 -3 289 17 62 18 64 58 73 57 13 57 13 51 -6z m-135 -60 c-16 -51 -16
-52 -63 -58 -26 -4 -65 -4 -86 0 -35 6 -40 11 -51 47 -7 22 -14 45 -17 52 -3
8 29 11 114 11 l118 0 -15 -52z m-222 -69 c20 -6 9 -194 -14 -251 -14 -34 -23
-42 -52 -48 -44 -8 -46 -6 -36 45 7 38 12 44 53 59 25 9 43 21 40 26 -5 11
-12 11 -50 1 l-25 -7 0 94 0 95 35 -5 c19 -3 41 -7 49 -9z m201 -76 l0 -57
-82 -3 -83 -3 3 60 3 60 80 0 79 0 0 -57z m19 -148 l17 -55 -116 0 -116 0 13
35 c6 19 12 43 13 52 0 12 12 19 38 23 20 4 41 8 46 9 5 1 27 -1 49 -4 38 -5
40 -7 56 -60z M350 360 c0 -5 7 -10 15 -10 8 0 15 5 15 10 0 6 -7 10 -15 10
-8 0 -15 -4 -15 -10z M355 217 c-4 -10 -5 -21 -1 -24 10 -10 18 4 13 24 -4 17
-4 17 -12 0z"/>
</g>
</svg>
