<?xml version="1.0" standalone="no"?>
<!DOCTYPE svg PUBLIC "-//W3C//DTD SVG 20010904//EN"
 "http://www.w3.org/TR/2001/REC-SVG-20010904/DTD/svg10.dtd">
<svg version="1.0" xmlns="http://www.w3.org/2000/svg"
 width="58.000000pt" height="75.000000pt" viewBox="0 0 58.000000 75.000000"
 preserveAspectRatio="xMidYMid meet" fill="#D6DCE1">
<g transform="translate(0.000000,75.000000) scale(0.100000,-0.100000)"
 >
<path d="M226 593 c-86 -121 -146 -245 -146 -300 0 -96 70 -183 165 -204 109
-24 217 40 244 146 15 62 14 82 -12 146 -25 61 -173 289 -188 289 -4 0 -33
-35 -63 -77z m134 -74 c123 -191 134 -276 48 -356 -113 -106 -293 -25 -292
132 0 58 27 115 112 243 63 96 58 96 132 -19z M160 278 c0 -56 92 -140 121
-111 9 9 3 15 -23 26 -37 16 -68 55 -68 87 0 11 -7 20 -15 20 -9 0 -15 -9 -15
-22z"/>
</g>
</svg>
