<?xml version="1.0" standalone="no"?>
<!DOCTYPE svg PUBLIC "-//W3C//DTD SVG 20010904//EN"
 "http://www.w3.org/TR/2001/REC-SVG-20010904/DTD/svg10.dtd">
<svg version="1.0" xmlns="http://www.w3.org/2000/svg"
 width="75.000000pt" height="68.000000pt" viewBox="0 0 75.000000 68.000000"
 preserveAspectRatio="xMidYMid meet" fill="#D6DCE1">
<g transform="translate(0.000000,68.000000) scale(0.100000,-0.100000)"
 >
<path d="M101 574 c-20 -25 -21 -40 -21 -225 0 -208 6 -240 44 -255 11 -5 74
-8 139 -6 92 3 117 6 117 17 0 12 -26 15 -127 17 l-128 3 -3 209 c-2 145 1
213 9 222 9 11 50 14 186 14 155 0 174 2 163 15 -10 12 -44 15 -185 15 l-174
0 -20 -26z M515 573 c2 -16 7 -82 10 -149 l5 -121 -31 -59 c-18 -32 -45 -75
-60 -94 -49 -58 -41 -69 44 -66 39 2 91 4 114 5 73 2 73 4 73 255 0 262 2 256
-98 256 -61 0 -61 0 -57 -27z m125 -328 l0 -75 -80 0 c-83 0 -90 3 -65 30 8 9
25 36 38 61 20 38 29 45 63 50 21 3 40 7 42 8 1 0 2 -33 2 -74z"/>
</g>
</svg>
