<?xml version="1.0" standalone="no"?>
<!DOCTYPE svg PUBLIC "-//W3C//DTD SVG 20010904//EN"
 "http://www.w3.org/TR/2001/REC-SVG-20010904/DTD/svg10.dtd">
<svg version="1.0" xmlns="http://www.w3.org/2000/svg"
 width="76.000000pt" height="73.000000pt" viewBox="0 0 76.000000 73.000000"
 preserveAspectRatio="xMidYMid meet" fill="#D6DCE1">
<g transform="translate(0.000000,73.000000) scale(0.100000,-0.100000)"
 >
<path d="M323 630 c-58 -35 -66 -81 -33 -188 20 -64 25 -126 14 -156 -5 -13
-22 -16 -85 -16 -104 0 -127 -18 -134 -103 -6 -94 -30 -87 295 -87 l287 0 6
51 c7 59 -10 111 -41 128 -12 6 -55 11 -96 11 -73 0 -76 1 -82 26 -8 33 2 104
26 182 18 57 18 67 6 97 -16 39 -68 75 -106 75 -14 0 -39 -9 -57 -20z m116
-44 c26 -28 25 -47 -4 -151 -11 -37 -15 -82 -13 -117 l4 -58 -37 0 c-37 0 -61
-14 -37 -22 7 -3 67 -3 133 0 139 5 148 1 158 -80 l7 -48 -271 0 c-243 0 -271
2 -265 16 3 9 6 30 6 47 0 55 10 62 111 67 l92 5 14 42 c13 39 13 50 -8 125
-33 126 -35 152 -10 177 30 30 90 28 120 -3z"/>
</g>
</svg>
