<?xml version="1.0" standalone="no"?>
<!DOCTYPE svg PUBLIC "-//W3C//DTD SVG 20010904//EN"
 "http://www.w3.org/TR/2001/REC-SVG-20010904/DTD/svg10.dtd">
<svg version="1.0" xmlns="http://www.w3.org/2000/svg"
 width="76.000000pt" height="77.000000pt" viewBox="0 0 76.000000 77.000000"
 preserveAspectRatio="xMidYMid meet" fill="#D6DCE1">
<g transform="translate(0.000000,77.000000) scale(0.100000,-0.100000)"
 >
<path d="M490 683 c-32 -5 -376 -354 -396 -402 -22 -48 -10 -81 49 -138 109
-105 137 -91 413 204 122 130 124 133 124 179 0 45 -3 51 -56 101 -31 29 -62
53 -70 53 -7 0 -18 2 -26 4 -7 2 -24 1 -38 -1z m108 -72 c34 -30 45 -46 49
-79 5 -38 2 -44 -44 -93 l-50 -52 -84 81 -84 81 50 50 c64 66 99 68 163 12z
m-86 -235 c8 -15 1 -27 -43 -72 -29 -30 -58 -54 -63 -54 -5 0 -20 10 -33 22
-32 30 -40 16 -13 -22 l23 -32 -49 -49 c-42 -43 -53 -49 -89 -49 -35 0 -47 6
-83 43 -35 36 -42 49 -42 82 0 34 7 47 52 92 l51 52 19 -25 c11 -13 26 -24 34
-24 19 0 18 6 -8 41 l-22 29 59 60 59 60 69 -67 c38 -38 73 -76 79 -87z M510
575 c0 -8 7 -15 15 -15 8 0 15 7 15 15 0 8 -7 15 -15 15 -8 0 -15 -7 -15 -15z
M457 533 c-12 -11 -8 -23 8 -23 8 0 15 7 15 15 0 16 -12 20 -23 8z M560 525
c0 -8 7 -15 15 -15 8 0 15 7 15 15 0 8 -7 15 -15 15 -8 0 -15 -7 -15 -15z
M514 476 c-4 -9 -4 -20 0 -23 3 -4 12 -1 18 5 9 9 9 15 0 24 -9 9 -13 7 -18
-6z M380 444 c0 -8 5 -12 10 -9 6 4 8 11 5 16 -9 14 -15 11 -15 -7z M317 393
c-12 -11 -8 -23 8 -23 8 0 15 7 15 15 0 16 -12 20 -23 8z M440 380 c0 -5 7
-10 15 -10 8 0 15 5 15 10 0 6 -7 10 -15 10 -8 0 -15 -4 -15 -10z M378 318 c9
-9 15 -9 24 0 9 9 7 12 -12 12 -19 0 -21 -3 -12 -12z M230 300 c0 -13 5 -20
13 -17 6 2 12 10 12 17 0 7 -6 15 -12 18 -8 2 -13 -5 -13 -18z M177 253 c-12
-11 -8 -23 8 -23 8 0 15 7 15 15 0 16 -12 20 -23 8z M285 251 c-7 -12 12 -24
25 -16 11 7 4 25 -10 25 -5 0 -11 -4 -15 -9z M230 186 c0 -9 7 -16 16 -16 9 0
14 5 12 12 -6 18 -28 21 -28 4z"/>
</g>
</svg>
