<?xml version="1.0" standalone="no"?>
<!DOCTYPE svg PUBLIC "-//W3C//DTD SVG 20010904//EN"
 "http://www.w3.org/TR/2001/REC-SVG-20010904/DTD/svg10.dtd">
<svg version="1.0" xmlns="http://www.w3.org/2000/svg"
 width="70.000000pt" height="71.000000pt" viewBox="0 0 70.000000 71.000000"
 preserveAspectRatio="xMidYMid meet" fill="#D6DCE1">
<g transform="translate(0.000000,71.000000) scale(0.100000,-0.100000)"
 >
<path d="M263 620 c-27 -11 -30 -30 -5 -30 33 0 62 12 62 26 0 16 -24 17 -57
4z M360 616 c0 -8 15 -17 35 -20 45 -9 65 2 40 21 -25 17 -75 17 -75 -1z M465
591 c-8 -15 58 -62 70 -50 7 7 1 18 -18 35 -30 26 -42 29 -52 15z M172 567
c-25 -27 -28 -37 -9 -37 16 0 47 32 47 48 0 19 -14 14 -38 -11z M116 499 c-18
-26 -21 -49 -7 -49 5 0 16 12 26 26 22 34 4 56 -19 23z M540 513 c0 -5 9 -21
20 -38 11 -16 20 -40 20 -52 0 -32 10 -53 26 -53 19 0 18 26 -6 90 -11 30 -20
56 -20 57 0 2 -9 3 -20 3 -11 0 -20 -3 -20 -7z M387 492 c-33 -36 -17 -91 33
-117 27 -14 33 -14 61 1 28 14 30 19 25 47 -8 39 -53 87 -81 87 -12 0 -29 -8
-38 -18z M87 423 c-13 -13 -7 -53 8 -53 10 0 15 10 15 30 0 29 -9 38 -23 23z
M83 255 c2 -67 7 -90 23 -112 38 -51 112 -71 151 -41 6 5 24 8 39 6 33 -4 44
19 12 27 -18 5 -23 14 -25 41 -3 62 -71 124 -136 124 -26 0 -36 5 -40 20 -3
11 -10 20 -15 20 -7 0 -10 -31 -9 -85z m131 -15 c31 -27 54 -75 42 -87 -14
-14 -90 47 -112 90 -14 26 -14 27 10 27 14 0 41 -14 60 -30z m-21 -91 c37 -26
38 -29 16 -29 -33 0 -87 48 -95 85 l-7 30 23 -29 c13 -15 41 -41 63 -57z M580
306 c0 -34 18 -42 29 -14 10 27 6 38 -15 38 -8 0 -14 -10 -14 -24z M556 241
c-24 -27 -11 -48 15 -25 19 17 26 44 11 44 -5 0 -17 -9 -26 -19z M482 170
c-29 -24 -21 -45 11 -29 26 14 38 30 31 41 -8 12 -17 9 -42 -12z M388 133
c-10 -2 -18 -11 -18 -20 0 -11 7 -13 33 -8 38 9 41 11 32 24 -6 11 -17 12 -47
4z"/>
</g>
</svg>
