<?xml version="1.0" standalone="no"?>
<!DOCTYPE svg PUBLIC "-//W3C//DTD SVG 20010904//EN"
 "http://www.w3.org/TR/2001/REC-SVG-20010904/DTD/svg10.dtd">
<svg version="1.0" xmlns="http://www.w3.org/2000/svg"
 width="157.000000pt" height="106.000000pt" viewBox="0 0 157.000000 106.000000"
 preserveAspectRatio="xMidYMid meet" fill="#D6DCE1">
<g transform="translate(0.000000,106.000000) scale(0.100000,-0.100000)"
 >
<path d="M81 964 c0 -11 3 -14 6 -6 3 7 2 16 -1 19 -3 4 -6 -2 -5 -13z M81
904 c0 -11 3 -14 6 -6 3 7 2 16 -1 19 -3 4 -6 -2 -5 -13z M81 844 c0 -11 3
-14 6 -6 3 7 2 16 -1 19 -3 4 -6 -2 -5 -13z M1039 841 c-68 -27 -134 -77 -180
-138 -40 -51 -41 -54 -28 -84 19 -47 107 -132 169 -165 50 -26 64 -29 155 -29
95 0 103 2 163 34 62 34 133 102 161 154 12 23 12 31 0 54 -25 48 -115 130
-175 159 -76 38 -194 44 -265 15z m248 -43 c26 -12 76 -50 111 -85 l63 -63
-18 -31 c-27 -46 -108 -118 -161 -142 -69 -32 -200 -31 -261 2 -52 27 -129 97
-154 139 l-17 30 49 54 c49 54 128 104 185 119 50 13 150 2 203 -23z M1073
715 c-33 -33 -35 -39 -30 -82 13 -120 171 -144 217 -34 31 75 -24 151 -107
151 -38 0 -50 -5 -80 -35z m141 -16 c59 -46 18 -144 -60 -142 -40 1 -62 16
-75 52 -12 29 5 87 29 101 28 16 78 11 106 -11z M82 780 c0 -14 2 -19 5 -12 2
6 2 18 0 25 -3 6 -5 1 -5 -13z M81 714 c0 -11 3 -14 6 -6 3 7 2 16 -1 19 -3 4
-6 -2 -5 -13z M82 650 c0 -14 2 -19 5 -12 2 6 2 18 0 25 -3 6 -5 1 -5 -13z
M81 594 c0 -11 3 -14 6 -6 3 7 2 16 -1 19 -3 4 -6 -2 -5 -13z M82 540 c0 -14
2 -19 5 -12 2 6 2 18 0 25 -3 6 -5 1 -5 -13z M82 470 c0 -14 2 -19 5 -12 2 6
2 18 0 25 -3 6 -5 1 -5 -13z M81 404 c0 -11 3 -14 6 -6 3 7 2 16 -1 19 -3 4
-6 -2 -5 -13z M82 340 c0 -14 2 -19 5 -12 2 6 2 18 0 25 -3 6 -5 1 -5 -13z
M81 274 c0 -11 3 -14 6 -6 3 7 2 16 -1 19 -3 4 -6 -2 -5 -13z M81 204 c0 -11
3 -14 6 -6 3 7 2 16 -1 19 -3 4 -6 -2 -5 -13z M81 144 c0 -11 3 -14 6 -6 3 7
2 16 -1 19 -3 4 -6 -2 -5 -13z"/>
</g>
</svg>
