<?xml version="1.0" standalone="no"?>
<!DOCTYPE svg PUBLIC "-//W3C//DTD SVG 20010904//EN"
 "http://www.w3.org/TR/2001/REC-SVG-20010904/DTD/svg10.dtd">
<svg version="1.0" xmlns="http://www.w3.org/2000/svg"
 width="76.000000pt" height="70.000000pt" viewBox="0 0 76.000000 70.000000"
 preserveAspectRatio="xMidYMid meet" fill="#D6DCE1">
<g transform="translate(0.000000,70.000000) scale(0.100000,-0.100000)"
 >
<path d="M96 604 c-14 -13 -16 -49 -16 -234 0 -215 0 -219 22 -234 12 -9 30
-16 39 -16 9 0 19 -7 23 -15 3 -8 13 -15 23 -14 11 0 13 3 6 6 -42 17 8 23
180 23 255 0 237 -17 237 229 0 168 1 182 18 179 15 -3 17 -22 20 -197 3 -207
0 -218 -46 -223 -37 -4 -34 -22 5 -26 22 -2 38 3 52 17 20 20 21 32 21 222 0
214 -5 239 -45 239 -14 0 -25 6 -25 13 0 8 -8 21 -18 30 -27 25 -472 25 -496
1z m471 -26 c5 -7 9 -22 8 -33 -1 -11 -3 -47 -4 -80 -2 -41 -5 -54 -10 -40 -8
19 -10 18 -37 -14 -69 -81 -118 -131 -129 -131 -7 0 -27 -17 -44 -37 -17 -21
-37 -46 -46 -55 -14 -17 -13 -18 13 -20 15 -1 -20 -4 -78 -8 -58 -3 -111 -1
-117 4 -14 9 -19 406 -6 419 13 13 440 8 450 -5z"/>
</g>
</svg>
