<?xml version="1.0" standalone="no"?>
<!DOCTYPE svg PUBLIC "-//W3C//DTD SVG 20010904//EN"
 "http://www.w3.org/TR/2001/REC-SVG-20010904/DTD/svg10.dtd">
<svg version="1.0" xmlns="http://www.w3.org/2000/svg"
 width="86.000000pt" height="81.000000pt" viewBox="0 0 86.000000 81.000000"
 preserveAspectRatio="xMidYMid meet" fill="#D6DCE1">
<g transform="translate(0.000000,81.000000) scale(0.100000,-0.100000)"
 >
<path d="M390 716 c-26 -33 12 -60 50 -36 12 7 12 13 4 27 -15 24 -38 27 -54
9z M590 662 c0 -13 23 -32 39 -32 11 0 10 4 -4 20 -19 21 -35 26 -35 12z M215
640 c-3 -5 -2 -10 4 -10 5 0 13 5 16 10 3 6 2 10 -4 10 -5 0 -13 -4 -16 -10z
M360 611 c-125 -40 -190 -151 -155 -267 35 -120 186 -186 300 -133 157 74 159
299 4 376 -51 26 -113 36 -149 24z m73 -53 c8 -18 36 -59 62 -90 37 -46 53
-58 76 -58 27 0 28 -2 22 -32 -13 -69 -51 -115 -115 -143 -114 -47 -236 26
-246 149 -9 110 60 188 180 205 4 1 14 -14 21 -31z m146 -89 c9 -27 8 -29 -14
-29 -36 0 -58 52 -30 72 13 10 32 -8 44 -43z M141 574 c-11 -14 -17 -32 -14
-41 5 -13 10 -11 30 11 23 28 31 56 14 56 -5 0 -19 -12 -30 -26z M670 595 c0
-15 34 -55 46 -55 18 0 18 10 -2 38 -13 19 -44 31 -44 17z M732 479 c2 -7 10
-15 17 -17 8 -3 12 1 9 9 -2 7 -10 15 -17 17 -8 3 -12 -1 -9 -9z M732 428
c-28 -28 3 -83 33 -58 23 19 13 70 -15 70 -3 0 -11 -5 -18 -12z M85 419 c-11
-16 4 -59 20 -59 10 0 15 11 15 35 0 35 -20 49 -35 24z M701 271 c-20 -28 -21
-51 -3 -51 4 0 16 14 26 31 26 44 6 61 -23 20z M132 264 c3 -27 31 -54 43 -42
9 8 -23 68 -36 68 -6 0 -9 -12 -7 -26z M210 176 c0 -20 19 -31 32 -18 7 7 3
14 -11 21 -17 10 -21 9 -21 -3z M608 176 c-18 -14 -24 -36 -10 -36 19 0 47 29
37 39 -7 6 -16 5 -27 -3z M383 124 c-8 -20 21 -49 41 -41 23 9 32 37 15 48
-22 14 -49 11 -56 -7z"/>
</g>
</svg>
