<?xml version="1.0" standalone="no"?>
<!DOCTYPE svg PUBLIC "-//W3C//DTD SVG 20010904//EN"
 "http://www.w3.org/TR/2001/REC-SVG-20010904/DTD/svg10.dtd">
<svg version="1.0" xmlns="http://www.w3.org/2000/svg"
 width="73.000000pt" height="55.000000pt" viewBox="0 0 73.000000 55.000000"
 preserveAspectRatio="xMidYMid meet" fill="#D6DCE1">
<g transform="translate(0.000000,55.000000) scale(0.100000,-0.100000)"
 >
<path d="M80 460 c0 -6 100 -10 279 -10 176 0 282 4 286 10 4 7 -92 10 -279
10 -184 0 -286 -4 -286 -10z M317 353 c-183 -3 -238 -6 -234 -16 5 -16 543
-22 553 -6 15 25 -6 26 -319 22z M308 233 c-205 -3 -265 -11 -210 -27 9 -3
135 -4 279 -3 243 2 263 3 263 20 0 14 -8 17 -52 15 -29 -2 -155 -4 -280 -5z
M87 103 c-20 -20 17 -23 273 -23 242 0 280 2 280 15 0 13 -37 15 -273 15 -151
0 -277 -3 -280 -7z"/>
</g>
</svg>
