<?xml version="1.0" standalone="no"?>
<!DOCTYPE svg PUBLIC "-//W3C//DTD SVG 20010904//EN"
 "http://www.w3.org/TR/2001/REC-SVG-20010904/DTD/svg10.dtd">
<svg version="1.0" xmlns="http://www.w3.org/2000/svg"
 width="62.000000pt" height="66.000000pt" viewBox="0 0 62.000000 66.000000"
 preserveAspectRatio="xMidYMid meet" fill="#D6DCE1">
<g transform="translate(0.000000,66.000000) scale(0.100000,-0.100000)"
 >
<path d="M94 566 c-21 -16 -16 -111 6 -111 10 0 16 13 18 43 l3 42 85 0 84 0
0 -147 c0 -82 3 -178 6 -215 l7 -67 -38 -3 c-21 -2 -40 -9 -43 -15 -3 -10 19
-13 87 -13 74 0 91 3 91 15 0 10 -11 15 -35 15 l-35 0 0 215 0 215 90 0 90 0
0 -45 c0 -33 4 -45 15 -45 19 0 22 105 3 117 -21 13 -415 12 -434 -1z"/>
</g>
</svg>
