<?xml version="1.0" standalone="no"?>
<!DOCTYPE svg PUBLIC "-//W3C//DTD SVG 20010904//EN"
 "http://www.w3.org/TR/2001/REC-SVG-20010904/DTD/svg10.dtd">
<svg version="1.0" xmlns="http://www.w3.org/2000/svg"
 width="77.000000pt" height="77.000000pt" viewBox="0 0 77.000000 77.000000"
 preserveAspectRatio="xMidYMid meet" fill="#D6DCE1">
<g transform="translate(0.000000,77.000000) scale(0.100000,-0.100000)"
 >
<path d="M133 667 c-51 -35 -53 -50 -50 -315 2 -228 3 -245 21 -258 27 -19
473 -21 499 -2 13 10 17 33 19 97 3 72 6 85 21 87 44 6 47 18 47 200 0 161 -2
176 -20 194 -19 19 -33 20 -262 19 -231 -1 -245 -2 -275 -22z m464 -17 l53 0
0 -170 c0 -144 -2 -170 -15 -170 -12 0 -15 19 -15 113 0 155 15 146 -241 149
l-204 3 0 35 c0 34 1 35 50 42 28 3 110 4 184 2 74 -2 158 -4 188 -4z m-457
-50 c0 -16 -4 -30 -10 -30 -11 0 -14 43 -3 53 11 12 13 8 13 -23z m434 -66
c14 -5 16 -29 16 -165 0 -182 1 -181 -81 -102 l-45 44 -45 -30 -44 -30 -50 49
c-28 28 -55 50 -60 50 -17 -1 -105 -88 -105 -104 0 -27 16 -26 39 4 12 17 33
37 46 46 25 16 26 15 75 -30 27 -25 52 -46 55 -46 4 0 21 11 39 25 43 32 45
32 91 -15 23 -24 48 -40 62 -40 20 0 23 -5 23 -35 l0 -35 -235 0 -235 0 0 203
c0 112 3 207 7 210 8 9 426 9 447 1z M160 416 c0 -89 10 -126 24 -90 8 20 8
148 0 168 -15 39 -24 9 -24 -78z M220 435 c0 -16 9 -19 34 -9 20 8 11 24 -15
24 -10 0 -19 -7 -19 -15z"/>
</g>
</svg>
