<?xml version="1.0" standalone="no"?>
<!DOCTYPE svg PUBLIC "-//W3C//DTD SVG 20010904//EN"
 "http://www.w3.org/TR/2001/REC-SVG-20010904/DTD/svg10.dtd">
<svg version="1.0" xmlns="http://www.w3.org/2000/svg"
 width="81.000000pt" height="78.000000pt" viewBox="0 0 81.000000 78.000000"
 preserveAspectRatio="xMidYMid meet" fill="#D6DCE1">
<g transform="translate(0.000000,78.000000) scale(0.100000,-0.100000)"
 >
<path d="M604 669 c-86 -68 -266 -251 -280 -284 -11 -27 -20 -35 -40 -35 -58
0 -109 -46 -130 -118 -12 -40 -23 -58 -45 -71 -34 -19 -33 -30 8 -54 110 -64
273 11 276 127 1 31 6 37 46 56 26 12 60 39 76 59 17 21 65 81 107 133 89 108
112 152 96 183 -24 45 -61 46 -114 4z m86 -25 c0 -8 -5 -25 -11 -37 -9 -17
-161 -205 -211 -262 -5 -5 -24 7 -48 30 -42 41 -49 55 -26 55 8 0 68 52 135
115 115 110 161 138 161 99z m-295 -294 c28 -29 28 -30 9 -44 -17 -13 -21 -13
-41 7 -16 15 -21 29 -17 45 8 29 15 28 49 -8z m-62 -58 c41 -42 37 -85 -12
-133 -35 -36 -43 -39 -92 -39 -30 0 -64 3 -76 6 l-23 6 25 30 c14 16 25 36 25
44 0 27 38 90 62 101 38 19 63 15 91 -15z"/>
</g>
</svg>
