<?xml version="1.0" standalone="no"?>
<!DOCTYPE svg PUBLIC "-//W3C//DTD SVG 20010904//EN"
 "http://www.w3.org/TR/2001/REC-SVG-20010904/DTD/svg10.dtd">
<svg version="1.0" xmlns="http://www.w3.org/2000/svg"
 width="86.000000pt" height="86.000000pt" viewBox="0 0 86.000000 86.000000"
 preserveAspectRatio="xMidYMid meet" fill="#D6DCE1">
<g transform="translate(0.000000,86.000000) scale(0.100000,-0.100000)"
 >
<path d="M324 762 c-99 -35 -188 -123 -221 -217 -109 -312 252 -591 523 -404
224 154 202 480 -42 600 -83 41 -182 49 -260 21z m219 -38 c64 -22 140 -92
174 -162 57 -115 31 -263 -61 -355 -61 -62 -118 -82 -226 -82 -79 0 -102 4
-137 23 -107 56 -163 142 -171 258 -9 148 69 271 205 320 52 18 160 17 216 -2z
M410 595 c-10 -12 -10 -18 0 -30 17 -20 37 -19 48 3 19 37 -21 60 -48 27z
M390 476 c0 -9 7 -16 15 -16 12 0 15 -16 15 -85 0 -79 -1 -85 -21 -85 -12 0
-19 -5 -17 -12 7 -20 108 -23 108 -4 0 9 -7 16 -15 16 -11 0 -15 20 -17 98
l-3 97 -32 3 c-25 2 -33 -1 -33 -12z"/>
</g>
</svg>
