<?xml version="1.0" standalone="no"?>
<!DOCTYPE svg PUBLIC "-//W3C//DTD SVG 20010904//EN"
 "http://www.w3.org/TR/2001/REC-SVG-20010904/DTD/svg10.dtd">
<svg version="1.0" xmlns="http://www.w3.org/2000/svg"
 width="85.000000pt" height="81.000000pt" viewBox="0 0 85.000000 81.000000"
 preserveAspectRatio="xMidYMid meet" fill="#D6DCE1">
<g transform="translate(0.000000,81.000000) scale(0.100000,-0.100000)"
 >
<path d="M110 710 c-11 -11 -22 -30 -25 -42 -8 -35 0 -531 8 -549 17 -35 53
-39 337 -39 l279 0 28 24 28 24 1 268 c2 280 -2 313 -41 328 -9 3 -147 6 -306
6 -274 0 -290 -1 -309 -20z m601 -20 c18 -10 19 -24 19 -275 0 -145 -3 -270
-6 -279 -9 -24 -589 -24 -598 0 -3 9 -6 134 -6 279 0 241 2 265 18 274 23 14
547 14 573 1z M200 405 l0 -85 55 0 c30 0 55 5 55 10 0 6 -18 10 -40 10 -36 0
-40 3 -40 25 0 22 4 25 35 25 24 0 35 5 35 15 0 10 -11 15 -35 15 -28 0 -35 4
-35 19 0 16 8 20 37 23 62 5 53 28 -11 28 l-56 0 0 -85z M330 485 c0 -3 11
-22 24 -43 l23 -37 -23 -35 c-27 -42 -29 -50 -10 -50 8 0 23 13 33 30 l17 30
19 -30 c10 -17 25 -30 33 -30 19 0 18 5 -10 47 l-25 36 25 38 c28 44 29 49 11
49 -7 0 -21 -14 -31 -31 l-19 -32 -18 24 c-10 13 -19 27 -19 32 0 8 -30 10
-30 2z M487 483 c-4 -3 -7 -42 -7 -85 0 -63 3 -78 15 -78 12 0 15 16 15 85 0
78 -5 96 -23 78z M540 405 c0 -69 3 -85 15 -85 10 0 15 11 15 35 0 33 2 35 35
35 24 0 35 5 35 15 0 10 -11 15 -35 15 -28 0 -35 4 -35 19 0 16 8 20 37 23 62
5 53 28 -11 28 l-56 0 0 -85z"/>
</g>
</svg>
