<?xml version="1.0" standalone="no"?>
<!DOCTYPE svg PUBLIC "-//W3C//DTD SVG 20010904//EN"
 "http://www.w3.org/TR/2001/REC-SVG-20010904/DTD/svg10.dtd">
<svg version="1.0" xmlns="http://www.w3.org/2000/svg"
 width="81.000000pt" height="79.000000pt" viewBox="0 0 81.000000 79.000000"
 preserveAspectRatio="xMidYMid meet" fill="#D6DCE1">
<g transform="translate(0.000000,79.000000) scale(0.100000,-0.100000)"
 >
<path d="M383 698 c-6 -7 -25 -47 -43 -88 -18 -41 -35 -78 -39 -83 -4 -4 -52
-15 -106 -25 -138 -24 -140 -31 -44 -129 42 -43 75 -82 73 -88 -2 -5 -10 -48
-18 -95 -13 -74 -13 -87 0 -100 12 -12 26 -8 107 35 l93 49 97 -50 c124 -63
127 -61 104 78 l-16 103 70 71 c93 94 91 104 -21 122 -47 7 -94 15 -105 17
-14 3 -34 33 -65 97 -44 91 -66 112 -87 86z m76 -137 l40 -78 95 -13 c53 -7
96 -16 96 -20 0 -4 -31 -36 -69 -71 l-69 -64 18 -97 c9 -54 16 -98 14 -98 -2
0 -43 21 -91 47 l-86 47 -90 -48 -89 -48 6 28 c3 16 11 60 17 97 l11 69 -46
47 c-25 26 -46 49 -46 53 0 3 41 9 90 13 86 7 113 16 90 30 -5 3 -10 14 -10
24 0 18 67 161 76 161 2 0 22 -35 43 -79z"/>
</g>
</svg>
