<?xml version="1.0" standalone="no"?>
<!DOCTYPE svg PUBLIC "-//W3C//DTD SVG 20010904//EN"
 "http://www.w3.org/TR/2001/REC-SVG-20010904/DTD/svg10.dtd">
<svg version="1.0" xmlns="http://www.w3.org/2000/svg"
 width="84.000000pt" height="75.000000pt" viewBox="0 0 84.000000 75.000000"
 preserveAspectRatio="xMidYMid meet" fill="#D6DCE1">
<g transform="translate(0.000000,75.000000) scale(0.100000,-0.100000)"
 >
<path d="M192 649 c-83 -42 -124 -141 -97 -237 15 -52 27 -67 142 -180 144
-141 164 -157 195 -148 37 10 285 255 304 301 21 50 22 131 1 170 -20 40 -75
91 -110 104 -61 23 -142 6 -187 -39 -19 -19 -23 -20 -33 -7 -44 57 -141 72
-215 36z m130 -19 c23 -7 49 -25 68 -48 l30 -37 31 37 c70 86 204 66 250 -36
45 -99 19 -156 -137 -305 -65 -62 -127 -117 -137 -122 -15 -8 -39 11 -144 113
-163 160 -189 215 -144 313 21 47 38 63 88 81 47 16 49 16 95 4z"/>
</g>
</svg>
