<?xml version="1.0" standalone="no"?>
<!DOCTYPE svg PUBLIC "-//W3C//DTD SVG 20010904//EN"
 "http://www.w3.org/TR/2001/REC-SVG-20010904/DTD/svg10.dtd">
<svg version="1.0" xmlns="http://www.w3.org/2000/svg"
 width="70.000000pt" height="86.000000pt" viewBox="0 0 70.000000 86.000000"
 preserveAspectRatio="xMidYMid meet" fill="#D6DCE1">
<g transform="translate(0.000000,86.000000) scale(0.100000,-0.100000)"
 >
<path d="M290 765 c-78 -36 -110 -87 -110 -178 l0 -65 -35 -6 c-60 -12 -65
-29 -65 -219 0 -165 0 -168 25 -192 l24 -25 226 0 c289 0 265 -20 265 216 0
96 -4 183 -10 193 -5 10 -25 22 -45 25 l-35 7 0 60 c0 75 -26 130 -78 164 -49
32 -116 40 -162 20z m161 -62 c32 -31 48 -81 49 -145 l0 -38 -145 0 -145 0 0
53 c1 113 57 171 158 164 43 -3 59 -10 83 -34z m131 -280 c3 -32 4 -110 2
-173 -2 -63 -4 -118 -4 -123 0 -4 -102 -6 -227 -5 l-228 3 -3 165 c-1 90 0
170 2 177 4 10 56 13 229 13 l224 0 5 -57z M317 372 c-20 -22 -22 -43 -4 -61
6 -7 12 -31 12 -54 0 -38 2 -42 28 -45 26 -3 27 -2 27 42 0 25 5 48 10 51 14
9 13 58 -2 73 -18 18 -53 15 -71 -6z"/>
</g>
</svg>
