<?xml version="1.0" standalone="no"?>
<!DOCTYPE svg PUBLIC "-//W3C//DTD SVG 20010904//EN"
 "http://www.w3.org/TR/2001/REC-SVG-20010904/DTD/svg10.dtd">
<svg version="1.0" xmlns="http://www.w3.org/2000/svg"
 width="80.000000pt" height="81.000000pt" viewBox="0 0 80.000000 81.000000"
 preserveAspectRatio="xMidYMid meet" fill="#D6DCE1">
<g transform="translate(0.000000,81.000000) scale(0.100000,-0.100000)"
 >
<path d="M460 706 c-16 -19 -21 -32 -17 -53 5 -24 -3 -37 -60 -94 l-65 -67
-63 6 c-54 4 -68 1 -94 -17 -17 -12 -31 -30 -31 -39 0 -9 30 -46 66 -83 l65
-66 -49 -49 c-96 -96 -135 -145 -126 -154 6 -6 45 25 104 85 l95 95 71 -71
c61 -61 76 -71 97 -65 36 9 60 75 52 139 l-7 49 63 64 c54 55 69 64 99 64 41
0 60 14 60 45 0 21 -206 235 -227 235 -5 0 -20 -11 -33 -24z m132 -113 c54
-54 98 -101 98 -105 0 -5 -17 -8 -38 -8 -33 0 -46 -9 -113 -73 l-75 -72 0 -77
c1 -42 -2 -80 -7 -84 -4 -4 -71 56 -149 134 l-141 141 27 12 c21 10 39 10 79
2 l52 -11 81 80 c79 78 82 82 77 119 -3 22 -2 39 3 39 5 0 53 -44 106 -97z"/>
</g>
</svg>
