<?xml version="1.0" standalone="no"?>
<!DOCTYPE svg PUBLIC "-//W3C//DTD SVG 20010904//EN"
 "http://www.w3.org/TR/2001/REC-SVG-20010904/DTD/svg10.dtd">
<svg version="1.0" xmlns="http://www.w3.org/2000/svg"
 width="93.000000pt" height="68.000000pt" viewBox="0 0 93.000000 68.000000"
 preserveAspectRatio="xMidYMid meet" fill="#D6DCE1">
<g transform="translate(0.000000,68.000000) scale(0.100000,-0.100000)"
 >
<path d="M355 583 c-82 -30 -137 -68 -208 -143 -83 -88 -85 -104 -20 -185 193
-238 496 -231 678 17 31 41 42 64 37 80 -11 42 -139 164 -213 203 -89 47 -192
57 -274 28z m263 -58 c68 -37 125 -86 163 -141 l30 -45 -21 -34 c-31 -50 -122
-130 -183 -159 -162 -80 -366 -9 -482 167 -17 27 -17 27 23 80 49 63 124 122
189 148 75 30 211 23 281 -16z M400 457 c-40 -20 -70 -74 -70 -125 0 -124 188
-172 245 -62 22 43 19 112 -6 144 -41 52 -114 71 -169 43z m99 -28 c99 -35 69
-189 -38 -189 -82 0 -130 91 -81 153 35 44 67 54 119 36z"/>
</g>
</svg>
