<?xml version="1.0" standalone="no"?>
<!DOCTYPE svg PUBLIC "-//W3C//DTD SVG 20010904//EN"
 "http://www.w3.org/TR/2001/REC-SVG-20010904/DTD/svg10.dtd">
<svg version="1.0" xmlns="http://www.w3.org/2000/svg"
 width="92.000000pt" height="82.000000pt" viewBox="0 0 92.000000 82.000000"
 preserveAspectRatio="xMidYMid meet" fill="#D6DCE1">
<g transform="translate(0.000000,82.000000) scale(0.100000,-0.100000)"
 >
<path d="M445 727 c-12 -29 0 -640 12 -644 15 -5 19 102 15 415 -3 217 -10
274 -27 229z M107 650 l-27 -21 0 -218 c0 -278 -12 -261 183 -261 109 0 137 3
137 14 0 17 -108 29 -193 20 -49 -5 -65 -3 -75 9 -9 11 -12 69 -10 223 l3 209
138 3 c125 2 138 4 135 20 -3 15 -20 17 -134 20 -120 2 -133 1 -157 -18z M520
650 c0 -18 8 -20 138 -22 l137 -3 3 -209 c2 -141 -1 -213 -9 -222 -8 -10 -28
-12 -73 -7 -88 8 -196 -5 -196 -23 0 -11 25 -14 134 -14 188 0 174 -20 178
258 l3 224 -24 19 c-20 17 -40 19 -157 19 -127 0 -134 -1 -134 -20z"/>
</g>
</svg>
