<?xml version="1.0" standalone="no"?>
<!DOCTYPE svg PUBLIC "-//W3C//DTD SVG 20010904//EN"
 "http://www.w3.org/TR/2001/REC-SVG-20010904/DTD/svg10.dtd">
<svg version="1.0" xmlns="http://www.w3.org/2000/svg"
 width="84.000000pt" height="68.000000pt" viewBox="0 0 84.000000 68.000000"
 preserveAspectRatio="xMidYMid meet" fill="#D6DCE1">
<g transform="translate(0.000000,68.000000) scale(0.100000,-0.100000)"
 >
<path d="M106 579 l-26 -20 0 -219 c0 -278 -13 -260 182 -260 l138 0 0 260 0
260 -134 0 c-120 0 -136 -2 -160 -21z m262 -241 l-3 -223 -108 -3 c-158 -4
-147 -20 -147 221 0 145 3 206 12 215 8 8 52 12 130 12 l118 0 -2 -222z M437
594 c-8 -8 -9 -477 -1 -498 5 -14 26 -16 143 -16 192 0 181 -16 181 259 0 274
9 261 -183 261 -73 0 -136 -3 -140 -6z m281 -253 c2 -165 -1 -217 -10 -223 -7
-5 -64 -7 -125 -6 l-113 3 0 223 0 223 123 -3 122 -3 3 -214z"/>
</g>
</svg>
