<?xml version="1.0" standalone="no"?>
<!DOCTYPE svg PUBLIC "-//W3C//DTD SVG 20010904//EN"
 "http://www.w3.org/TR/2001/REC-SVG-20010904/DTD/svg10.dtd">
<svg version="1.0" xmlns="http://www.w3.org/2000/svg"
 width="83.000000pt" height="82.000000pt" viewBox="0 0 83.000000 82.000000"
 preserveAspectRatio="xMidYMid meet" fill="#D6DCE1">
<g transform="translate(0.000000,82.000000) scale(0.100000,-0.100000)"
 >
<path d="M313 722 c-147 -52 -227 -164 -227 -317 0 -72 3 -86 34 -143 67 -125
174 -187 310 -180 281 16 416 338 229 543 -93 101 -228 139 -346 97z m224 -46
c286 -133 194 -560 -121 -560 -258 -1 -390 292 -222 491 74 87 234 120 343 69z
M332 477 c-34 -34 -62 -67 -62 -72 0 -14 113 -125 127 -125 24 0 13 24 -29 67
l-42 43 121 0 c76 0 124 4 128 11 11 16 7 17 -123 25 l-123 7 42 43 c29 29 40
47 33 54 -6 6 -31 -11 -72 -53z"/>
</g>
</svg>
