<?xml version="1.0" standalone="no"?>
<!DOCTYPE svg PUBLIC "-//W3C//DTD SVG 20010904//EN"
 "http://www.w3.org/TR/2001/REC-SVG-20010904/DTD/svg10.dtd">
<svg version="1.0" xmlns="http://www.w3.org/2000/svg"
 width="82.000000pt" height="82.000000pt" viewBox="0 0 82.000000 82.000000"
 preserveAspectRatio="xMidYMid meet" fill="#D6DCE1">
<g transform="translate(0.000000,82.000000) scale(0.100000,-0.100000)"
 >
<path d="M323 726 c-100 -33 -161 -85 -211 -180 -23 -44 -27 -63 -27 -136 0
-101 20 -154 85 -224 67 -73 136 -101 245 -101 79 0 97 4 143 28 115 61 175
154 180 284 5 98 -20 163 -88 237 -81 87 -221 127 -327 92z m224 -54 c57 -30
111 -85 137 -141 32 -71 29 -189 -6 -257 -110 -210 -421 -211 -529 -1 -79 152
-3 353 155 411 60 23 188 16 243 -12z M414 529 c-3 -6 15 -33 42 -60 l48 -49
-127 0 c-106 0 -127 -2 -127 -15 0 -13 20 -15 124 -15 l124 0 -44 -47 c-28
-31 -40 -51 -33 -58 6 -6 33 14 77 58 l67 67 -65 65 c-67 68 -74 72 -86 54z"/>
</g>
</svg>
