<?xml version="1.0" standalone="no"?>
<!DOCTYPE svg PUBLIC "-//W3C//DTD SVG 20010904//EN"
 "http://www.w3.org/TR/2001/REC-SVG-20010904/DTD/svg10.dtd">
<svg version="1.0" xmlns="http://www.w3.org/2000/svg"
 width="79.000000pt" height="70.000000pt" viewBox="0 0 79.000000 70.000000"
 preserveAspectRatio="xMidYMid meet" fill="#D6DCE1">
<g transform="translate(0.000000,70.000000) scale(0.100000,-0.100000)"
 >
<path d="M682 353 c2 -202 6 -267 16 -271 9 -3 12 55 12 267 0 236 -2 271 -15
271 -13 0 -15 -34 -13 -267z M84 569 c-4 -6 38 -55 97 -115 l104 -104 -105
-105 c-83 -83 -102 -107 -92 -117 10 -10 36 12 130 105 l117 117 -115 115
c-63 63 -118 115 -122 115 -4 0 -10 -5 -14 -11z M300 568 c0 -7 46 -59 102
-115 l103 -103 -105 -105 c-85 -85 -102 -107 -91 -117 10 -11 33 9 121 102 60
63 109 120 110 125 0 14 -213 225 -228 225 -6 0 -12 -6 -12 -12z"/>
</g>
</svg>
