<?xml version="1.0" standalone="no"?>
<!DOCTYPE svg PUBLIC "-//W3C//DTD SVG 20010904//EN"
 "http://www.w3.org/TR/2001/REC-SVG-20010904/DTD/svg10.dtd">
<svg version="1.0" xmlns="http://www.w3.org/2000/svg"
 width="86.000000pt" height="70.000000pt" viewBox="0 0 86.000000 70.000000"
 preserveAspectRatio="xMidYMid meet" fill="#D6DCE1">
<g transform="translate(0.000000,70.000000) scale(0.100000,-0.100000)"
 >
<path d="M105 595 c-25 -24 -25 -24 -25 -234 0 -223 5 -251 47 -270 16 -7 122
-11 312 -11 277 0 289 1 315 21 l26 20 0 228 c0 225 0 228 -23 249 -23 22 -29
22 -326 22 l-302 0 -24 -25z m615 -18 l25 -13 3 -210 c2 -171 0 -213 -12 -223
-9 -8 -98 -11 -312 -9 l-299 3 0 225 0 225 30 6 c60 13 538 10 565 -4z M357
453 c-11 -10 -8 -201 3 -208 13 -8 175 88 175 105 0 7 -36 35 -80 61 -86 51
-88 53 -98 42z"/>
</g>
</svg>
