<?xml version="1.0" standalone="no"?>
<!DOCTYPE svg PUBLIC "-//W3C//DTD SVG 20010904//EN"
 "http://www.w3.org/TR/2001/REC-SVG-20010904/DTD/svg10.dtd">
<svg version="1.0" xmlns="http://www.w3.org/2000/svg"
 width="87.000000pt" height="70.000000pt" viewBox="0 0 87.000000 70.000000"
 preserveAspectRatio="xMidYMid meet" fill="#D6DCE1">
<g transform="translate(0.000000,70.000000) scale(0.100000,-0.100000)"
 >
<path d="M105 595 l-25 -24 0 -221 0 -221 25 -24 24 -25 295 0 c312 0 335 3
355 47 15 32 15 399 0 442 -6 17 -19 36 -29 41 -11 6 -143 10 -320 10 l-301 0
-24 -25z m637 -27 c4 -7 8 -106 8 -219 0 -163 -3 -209 -14 -218 -9 -8 -100
-11 -312 -9 l-299 3 0 225 0 225 60 7 c105 11 548 0 557 -14z M350 350 c0 -91
3 -110 15 -110 12 0 15 19 15 110 0 91 -3 110 -15 110 -12 0 -15 -19 -15 -110z
M485 448 c-3 -8 -4 -57 -3 -109 2 -76 6 -94 18 -94 20 0 22 206 3 212 -7 3
-15 -2 -18 -9z"/>
</g>
</svg>
