<?xml version="1.0" standalone="no"?>
<!DOCTYPE svg PUBLIC "-//W3C//DTD SVG 20010904//EN"
 "http://www.w3.org/TR/2001/REC-SVG-20010904/DTD/svg10.dtd">
<svg version="1.0" xmlns="http://www.w3.org/2000/svg"
 width="86.000000pt" height="70.000000pt" viewBox="0 0 86.000000 70.000000"
 preserveAspectRatio="xMidYMid meet" fill="#D6DCE1">
<g transform="translate(0.000000,70.000000) scale(0.100000,-0.100000)"
 >
<path d="M102 597 c-21 -22 -22 -31 -22 -246 l0 -222 25 -24 24 -25 301 0 301
0 24 25 25 24 0 219 c0 207 -1 221 -21 246 l-20 26 -308 0 -308 0 -21 -23z
m629 -28 c18 -18 19 -32 17 -222 -1 -111 -6 -208 -11 -214 -7 -10 -81 -13
-308 -13 -274 0 -299 1 -308 18 -5 9 -7 106 -5 222 4 179 6 207 21 218 13 9
85 12 296 12 262 -1 279 -2 298 -21z M327 454 c-14 -14 -8 -191 7 -203 9 -8
47 -11 107 -9 l94 3 0 105 0 105 -101 3 c-55 1 -103 0 -107 -4z"/>
</g>
</svg>
