<?xml version="1.0" standalone="no"?>
<!DOCTYPE svg PUBLIC "-//W3C//DTD SVG 20010904//EN"
 "http://www.w3.org/TR/2001/REC-SVG-20010904/DTD/svg10.dtd">
<svg version="1.0" xmlns="http://www.w3.org/2000/svg"
 width="78.000000pt" height="73.000000pt" viewBox="0 0 78.000000 73.000000"
 preserveAspectRatio="xMidYMid meet" fill="#D6DCE1">
<g transform="translate(0.000000,73.000000) scale(0.100000,-0.100000)"
 >
<path d="M494 639 c-3 -6 6 -23 20 -38 14 -15 26 -29 26 -32 0 -2 -83 -4 -184
-4 -207 0 -222 -5 -259 -76 -25 -49 -21 -262 6 -267 15 -3 17 8 17 123 0 127
0 127 29 156 l29 29 189 0 188 0 -34 -29 c-22 -19 -32 -35 -28 -45 8 -22 25
-12 76 46 l45 49 -49 49 c-52 52 -60 57 -71 39z M660 386 c0 -192 -5 -196
-262 -196 l-172 0 32 33 c25 26 29 36 20 45 -10 10 -23 2 -60 -35 -26 -26 -48
-52 -48 -58 0 -15 83 -95 98 -95 20 0 14 22 -15 52 l-27 28 187 0 c204 0 226
5 256 54 34 56 37 286 5 286 -11 0 -14 -24 -14 -114z"/>
</g>
</svg>
