<?xml version="1.0" standalone="no"?>
<!DOCTYPE svg PUBLIC "-//W3C//DTD SVG 20010904//EN"
 "http://www.w3.org/TR/2001/REC-SVG-20010904/DTD/svg10.dtd">
<svg version="1.0" xmlns="http://www.w3.org/2000/svg"
 width="90.000000pt" height="77.000000pt" viewBox="0 0 90.000000 77.000000"
 preserveAspectRatio="xMidYMid meet" fill="#D6DCE1">
<g transform="translate(0.000000,77.000000) scale(0.100000,-0.100000)"
 >
<path d="M700 678 c0 -7 12 -25 27 -40 l27 -28 -70 0 c-83 0 -141 -24 -176
-71 -14 -19 -62 -94 -108 -167 -97 -156 -107 -164 -233 -170 -65 -3 -87 -8
-87 -18 0 -24 164 -19 216 7 45 21 55 34 178 231 88 141 97 148 199 148 l81 0
-27 -28 c-15 -15 -27 -33 -27 -40 0 -25 29 -10 75 39 l47 51 -48 49 c-47 48
-74 61 -74 37z M80 585 c0 -12 16 -15 80 -15 111 0 140 -14 190 -92 40 -60 59
-76 67 -52 7 20 -81 137 -117 156 -46 24 -220 27 -220 3z M455 340 c-8 -14 36
-90 75 -129 37 -36 84 -51 164 -51 l60 0 -27 -28 c-29 -30 -35 -52 -15 -52 15
0 98 80 98 95 0 20 -97 108 -105 95 -4 -7 4 -23 19 -39 14 -15 26 -29 26 -32
0 -2 -38 -2 -85 2 -96 6 -110 15 -160 98 -31 52 -39 59 -50 41z"/>
</g>
</svg>
