<?xml version="1.0" standalone="no"?>
<!DOCTYPE svg PUBLIC "-//W3C//DTD SVG 20010904//EN"
 "http://www.w3.org/TR/2001/REC-SVG-20010904/DTD/svg10.dtd">
<svg version="1.0" xmlns="http://www.w3.org/2000/svg"
 width="83.000000pt" height="83.000000pt" viewBox="0 0 83.000000 83.000000"
 preserveAspectRatio="xMidYMid meet" fill="#D6DCE1">
<g transform="translate(0.000000,83.000000) scale(0.100000,-0.100000)"
 >
<path d="M347 740 c-206 -52 -318 -270 -233 -457 119 -262 483 -261 602 1 73
160 3 347 -160 426 -67 33 -149 45 -209 30z m169 -47 c67 -23 154 -110 177
-177 39 -114 14 -221 -72 -307 -122 -122 -290 -122 -413 1 -120 120 -120 290
0 410 87 86 194 112 308 73z M397 613 c-9 -8 -9 -101 -1 -169 6 -49 8 -52 74
-97 61 -42 80 -48 80 -26 0 4 -27 27 -60 51 l-59 43 -1 103 c0 78 -3 102 -13
102 -8 0 -17 -3 -20 -7z"/>
</g>
</svg>
