<?xml version="1.0" standalone="no"?>
<!DOCTYPE svg PUBLIC "-//W3C//DTD SVG 20010904//EN"
 "http://www.w3.org/TR/2001/REC-SVG-20010904/DTD/svg10.dtd">
<svg version="1.0" xmlns="http://www.w3.org/2000/svg"
 width="80.000000pt" height="80.000000pt" viewBox="0 0 80.000000 80.000000"
 preserveAspectRatio="xMidYMid meet" fill="#D6DCE1">
<g transform="translate(0.000000,80.000000) scale(0.100000,-0.100000)"
 >
<path d="M270 711 c-117 -38 -184 -128 -185 -246 0 -79 19 -128 70 -180 77
-77 206 -95 299 -42 l50 28 98 -98 c79 -79 100 -95 110 -84 11 10 -6 31 -86
108 -93 89 -98 97 -86 117 38 59 45 84 45 151 -1 104 -50 181 -147 231 -36 19
-131 27 -168 15z m153 -45 c109 -46 161 -190 108 -300 -78 -160 -314 -161
-391 -1 -55 113 -4 250 110 299 44 19 131 20 173 2z M320 526 l0 -45 -42 -3
c-59 -4 -63 -28 -4 -28 l45 0 3 -47 c4 -66 28 -70 28 -5 0 33 4 50 13 49 51
-2 77 4 77 18 0 11 -12 15 -45 15 l-45 0 0 45 c0 33 -4 45 -15 45 -11 0 -15
-12 -15 -44z"/>
</g>
</svg>
