<?xml version="1.0" standalone="no"?>
<!DOCTYPE svg PUBLIC "-//W3C//DTD SVG 20010904//EN"
 "http://www.w3.org/TR/2001/REC-SVG-20010904/DTD/svg10.dtd">
<svg version="1.0" xmlns="http://www.w3.org/2000/svg"
 width="80.000000pt" height="80.000000pt" viewBox="0 0 80.000000 80.000000"
 preserveAspectRatio="xMidYMid meet" fill="#D6DCE1">
<g transform="translate(0.000000,80.000000) scale(0.100000,-0.100000)"
 >
<path d="M270 711 c-103 -32 -176 -120 -187 -226 -7 -62 8 -114 49 -171 70
-98 218 -130 322 -71 l50 28 98 -98 c70 -70 101 -94 109 -86 7 7 -17 37 -88
106 -94 92 -97 97 -84 119 39 62 46 85 46 153 -1 52 -6 81 -22 110 -58 109
-186 168 -293 136z m171 -54 c66 -35 102 -93 107 -171 2 -35 -1 -80 -8 -100
-57 -175 -319 -188 -400 -21 -54 111 -4 253 105 301 50 22 145 18 196 -9z
M237 473 c-19 -18 2 -23 98 -23 87 0 105 3 105 15 0 12 -18 15 -98 15 -54 0
-102 -3 -105 -7z"/>
</g>
</svg>
