<?xml version="1.0" standalone="no"?>
<!DOCTYPE svg PUBLIC "-//W3C//DTD SVG 20010904//EN"
 "http://www.w3.org/TR/2001/REC-SVG-20010904/DTD/svg10.dtd">
<svg version="1.0" xmlns="http://www.w3.org/2000/svg"
 width="75.000000pt" height="36.000000pt" viewBox="0 0 75.000000 36.000000"
 preserveAspectRatio="xMidYMid meet" fill="#D6DCE1">
<g transform="translate(0.000000,36.000000) scale(0.100000,-0.100000)"
 >
<path d="M87 274 c-9 -9 -9 -156 -1 -178 5 -13 23 -16 89 -16 46 0 86 4 89 9
8 12 -21 34 -33 26 -6 -3 -27 -3 -47 1 l-36 7 57 57 c74 75 66 104 -9 33 -83
-79 -81 -79 -78 -20 3 51 -15 97 -31 81z M647 274 c-4 -4 -7 -37 -7 -73 l0
-65 -65 64 c-52 52 -67 62 -77 52 -11 -11 -1 -25 50 -73 34 -34 62 -63 62 -65
0 -3 -16 -2 -35 2 -45 8 -85 -2 -85 -22 0 -12 15 -14 88 -12 l87 3 3 89 c3 83
-4 116 -21 100z"/>
</g>
</svg>
