<?xml version="1.0" standalone="no"?>
<!DOCTYPE svg PUBLIC "-//W3C//DTD SVG 20010904//EN"
 "http://www.w3.org/TR/2001/REC-SVG-20010904/DTD/svg10.dtd">
<svg version="1.0" xmlns="http://www.w3.org/2000/svg"
 width="77.000000pt" height="77.000000pt" viewBox="0 0 77.000000 77.000000"
 preserveAspectRatio="xMidYMid meet" fill="#D6DCE1">
<g transform="translate(0.000000,77.000000) scale(0.100000,-0.100000)"
 >
<path d="M106 669 l-26 -20 0 -268 c0 -247 1 -269 18 -284 16 -15 51 -17 290
-17 269 0 271 0 286 22 14 19 16 63 16 281 l0 258 -25 24 -24 25 -254 0 c-242
0 -256 -1 -281 -21z m543 -38 c12 -22 9 -490 -3 -509 -10 -17 -507 -17 -524 0
-17 17 -17 499 0 516 9 9 81 12 265 12 237 0 253 -1 262 -19z M253 473 c-13
-8 -23 -22 -23 -29 0 -17 16 -18 27 -1 5 7 10 -27 13 -78 4 -71 8 -90 20 -90
12 0 15 18 15 105 0 114 -7 126 -52 93z M458 472 c-16 -9 -28 -22 -28 -29 0
-16 5 -16 31 -3 18 10 19 7 19 -80 0 -73 3 -90 15 -90 12 0 15 19 15 110 0
119 -2 123 -52 92z M364 439 c-10 -17 13 -36 27 -22 12 12 4 33 -11 33 -5 0
-12 -5 -16 -11z M362 323 c4 -21 33 -25 33 -3 0 8 -8 16 -18 18 -14 3 -18 -1
-15 -15z"/>
</g>
</svg>
