<?xml version="1.0" standalone="no"?>
<!DOCTYPE svg PUBLIC "-//W3C//DTD SVG 20010904//EN"
 "http://www.w3.org/TR/2001/REC-SVG-20010904/DTD/svg10.dtd">
<svg version="1.0" xmlns="http://www.w3.org/2000/svg"
 width="99.000000pt" height="70.000000pt" viewBox="0 0 99.000000 70.000000"
 preserveAspectRatio="xMidYMid meet" fill="#D6DCE1">
<g transform="translate(0.000000,70.000000) scale(0.100000,-0.100000)"
 >
<path d="M105 595 l-25 -24 0 -221 0 -221 25 -24 24 -25 366 0 366 0 24 25 25
24 0 221 0 221 -25 24 -24 25 -366 0 -366 0 -24 -25z m754 -19 c8 -9 11 -79 9
-232 l-3 -219 -370 0 -370 0 -3 220 c-2 198 -1 221 15 232 26 20 706 18 722
-1z M307 424 c-31 -17 -37 -38 -7 -29 19 6 20 2 20 -59 0 -70 19 -94 22 -28 6
141 7 138 -35 116z M405 415 c-58 -57 -9 -179 58 -144 43 23 49 57 16 90 -15
15 -28 19 -46 14 -20 -5 -24 -2 -21 12 3 19 58 32 58 14 0 -6 5 -11 10 -11 21
0 9 31 -16 40 -33 13 -31 14 -59 -15z m60 -95 c0 -30 -41 -42 -51 -16 -10 26
4 48 28 44 17 -2 23 -10 23 -28z M601 414 c-25 -32 -25 -33 -5 -63 13 -18 24
-22 49 -19 27 3 31 1 27 -15 -6 -25 -30 -33 -54 -18 -25 15 -35 7 -18 -14 19
-23 66 -19 84 7 25 35 21 113 -6 132 -32 23 -54 20 -77 -10z m64 -34 c0 -18
-6 -26 -23 -28 -24 -4 -38 18 -28 44 10 26 51 14 51 -16z M527 394 c-8 -8 1
-24 14 -24 5 0 9 7 9 15 0 15 -12 20 -23 9z M525 311 c-7 -12 12 -24 25 -16
11 7 4 25 -10 25 -5 0 -11 -4 -15 -9z"/>
</g>
</svg>
