<?xml version="1.0" standalone="no"?>
<!DOCTYPE svg PUBLIC "-//W3C//DTD SVG 20010904//EN"
 "http://www.w3.org/TR/2001/REC-SVG-20010904/DTD/svg10.dtd">
<svg version="1.0" xmlns="http://www.w3.org/2000/svg"
 width="75.000000pt" height="67.000000pt" viewBox="0 0 75.000000 67.000000"
 preserveAspectRatio="xMidYMid meet" fill="#D6DCE1">
<g transform="translate(0.000000,67.000000) scale(0.100000,-0.100000)"
 >
<path d="M80 536 c0 -33 5 -58 13 -65 21 -17 27 -3 27 61 0 51 -2 58 -20 58
-18 0 -20 -7 -20 -54z M642 528 c2 -35 8 -63 13 -63 6 0 11 28 13 63 2 51 0
62 -13 62 -13 0 -15 -11 -13 -62z M87 274 c-4 -4 -7 -42 -7 -85 0 -104 7 -111
114 -107 103 4 106 22 4 26 l-77 3 -3 81 c-3 75 -13 100 -31 82z M645 268 c-2
-7 -6 -44 -7 -83 l-3 -70 -77 -3 c-60 -2 -78 -6 -78 -17 0 -19 159 -22 178 -3
15 15 16 174 2 183 -6 3 -12 0 -15 -7z"/>
</g>
</svg>
