<?xml version="1.0" standalone="no"?>
<!DOCTYPE svg PUBLIC "-//W3C//DTD SVG 20010904//EN"
 "http://www.w3.org/TR/2001/REC-SVG-20010904/DTD/svg10.dtd">
<svg version="1.0" xmlns="http://www.w3.org/2000/svg"
 width="78.000000pt" height="37.000000pt" viewBox="0 0 78.000000 37.000000"
 preserveAspectRatio="xMidYMid meet" fill="#D6DCE1">
<g transform="translate(0.000000,37.000000) scale(0.100000,-0.100000)"
 >
<path d="M95 279 c-4 -6 -10 -48 -12 -93 -7 -104 -3 -108 108 -104 70 3 84 6
87 20 3 16 -6 18 -77 18 l-81 0 0 79 c0 75 -10 106 -25 80z M670 208 l0 -72
-70 69 c-49 49 -73 66 -80 59 -8 -8 9 -31 57 -77 l68 -67 -67 0 c-54 0 -68 -3
-68 -15 0 -12 17 -15 95 -15 l95 0 0 95 c0 78 -3 95 -15 95 -12 0 -15 -15 -15
-72z"/>
</g>
</svg>
