<?xml version="1.0" standalone="no"?>
<!DOCTYPE svg PUBLIC "-//W3C//DTD SVG 20010904//EN"
 "http://www.w3.org/TR/2001/REC-SVG-20010904/DTD/svg10.dtd">
<svg version="1.0" xmlns="http://www.w3.org/2000/svg"
 width="82.000000pt" height="78.000000pt" viewBox="0 0 82.000000 78.000000"
 preserveAspectRatio="xMidYMid meet" fill="#D6DCE1">
<g transform="translate(0.000000,78.000000) scale(0.100000,-0.100000)"
 >
<path d="M337 686 c-82 -30 -156 -102 -188 -183 l-11 -28 -14 32 c-16 38 -32
50 -40 30 -5 -14 25 -85 48 -114 12 -15 138 44 138 64 0 18 -14 16 -61 -7
l-40 -21 16 38 c60 144 228 208 368 139 122 -59 178 -195 138 -335 -17 -58
-109 -152 -167 -169 -106 -31 -229 -1 -289 70 -20 23 -29 28 -38 19 -8 -8 -2
-20 23 -46 141 -145 384 -107 485 76 40 73 43 197 7 271 -30 60 -90 120 -150
150 -58 28 -169 35 -225 14z"/>
</g>
</svg>
