<?xml version="1.0" standalone="no"?>
<!DOCTYPE svg PUBLIC "-//W3C//DTD SVG 20010904//EN"
 "http://www.w3.org/TR/2001/REC-SVG-20010904/DTD/svg10.dtd">
<svg version="1.0" xmlns="http://www.w3.org/2000/svg"
 width="84.000000pt" height="78.000000pt" viewBox="0 0 84.000000 78.000000"
 preserveAspectRatio="xMidYMid meet" fill="#D6DCE1">
<g transform="translate(0.000000,78.000000) scale(0.100000,-0.100000)"
 >
<path d="M299 686 c-185 -66 -267 -265 -179 -436 26 -51 97 -116 154 -140 64
-29 176 -30 239 -2 51 22 127 88 127 108 0 23 -25 16 -56 -17 -73 -78 -208
-102 -310 -55 -101 47 -161 154 -152 270 23 277 391 345 518 96 26 -52 26 -53
-15 -29 -33 20 -65 20 -65 1 0 -4 29 -22 64 -39 71 -35 66 -37 110 40 25 44
27 67 6 67 -5 0 -18 -16 -27 -35 l-18 -34 -29 55 c-69 131 -233 198 -367 150z"/>
</g>
</svg>
