<?xml version="1.0" standalone="no"?>
<!DOCTYPE svg PUBLIC "-//W3C//DTD SVG 20010904//EN"
 "http://www.w3.org/TR/2001/REC-SVG-20010904/DTD/svg10.dtd">
<svg version="1.0" xmlns="http://www.w3.org/2000/svg"
 width="109.000000pt" height="79.000000pt" viewBox="0 0 109.000000 79.000000"
 preserveAspectRatio="xMidYMid meet" fill="#D6DCE1">
<g transform="translate(0.000000,79.000000) scale(0.100000,-0.100000)"
 >
<path d="M532 658 c4 -74 28 -77 28 -4 0 44 -3 56 -16 56 -12 0 -14 -10 -12
-52z M308 558 c-182 -117 -229 -151 -225 -161 4 -14 229 -170 271 -188 25 -11
30 -10 42 6 24 33 14 369 -12 379 -7 3 -41 -13 -76 -36z m60 -239 l-3 -81
-118 78 c-73 48 -114 81 -109 86 5 5 59 42 118 82 l109 73 3 -78 c2 -44 2
-115 0 -160z M696 584 c-13 -13 -16 -43 -16 -180 0 -160 7 -204 32 -204 13 0
253 153 280 179 10 9 14 21 10 27 -6 8 -228 158 -279 187 -6 4 -19 0 -27 -9z
m172 -249 c-51 -34 -105 -70 -120 -79 l-28 -18 0 160 0 160 121 -80 120 -81
-93 -62z M537 543 c-4 -3 -7 -33 -7 -65 0 -45 3 -58 15 -58 12 0 15 14 15 65
0 60 -6 75 -23 58z M530 310 c0 -78 24 -85 34 -10 7 55 3 70 -20 70 -11 0 -14
-14 -14 -60z M532 138 c4 -74 28 -77 28 -4 0 44 -3 56 -16 56 -12 0 -14 -10
-12 -52z"/>
</g>
</svg>
