<?xml version="1.0" standalone="no"?>
<!DOCTYPE svg PUBLIC "-//W3C//DTD SVG 20010904//EN"
 "http://www.w3.org/TR/2001/REC-SVG-20010904/DTD/svg10.dtd">
<svg version="1.0" xmlns="http://www.w3.org/2000/svg"
 width="96.000000pt" height="76.000000pt" viewBox="0 0 96.000000 76.000000"
 preserveAspectRatio="xMidYMid meet" fill="#D6DCE1">
<g transform="translate(0.000000,76.000000) scale(0.100000,-0.100000)"
 >
<path d="M480 640 c0 -43 14 -54 24 -17 10 37 7 57 -9 57 -11 0 -15 -11 -15
-40z M92 548 c-8 -8 -12 -57 -12 -155 0 -189 -9 -186 193 -71 72 41 107 67
105 77 -3 14 -241 159 -263 160 -6 1 -16 -4 -23 -11z m130 -84 c54 -31 100
-59 103 -63 4 -8 -189 -121 -206 -121 -5 0 -9 54 -9 120 0 66 3 120 7 120 4 0
51 -25 105 -56z M708 487 c-81 -45 -128 -78 -128 -88 0 -17 235 -159 262 -159
32 0 38 23 38 160 0 133 -6 160 -34 160 -6 0 -68 -33 -138 -73z m132 -91 l0
-125 -105 62 c-82 48 -102 64 -92 73 11 11 187 114 194 114 2 0 3 -56 3 -124z
M474 537 c-11 -30 0 -112 16 -112 20 0 22 116 3 122 -7 3 -16 -2 -19 -10z
M475 314 c-7 -56 2 -83 24 -70 17 11 14 126 -3 126 -9 0 -16 -18 -21 -56z
M480 140 c0 -45 3 -61 13 -57 7 2 12 23 12 57 0 34 -5 55 -12 58 -10 3 -13
-13 -13 -58z"/>
</g>
</svg>
