<?xml version="1.0" standalone="no"?>
<!DOCTYPE svg PUBLIC "-//W3C//DTD SVG 20010904//EN"
 "http://www.w3.org/TR/2001/REC-SVG-20010904/DTD/svg10.dtd">
<svg version="1.0" xmlns="http://www.w3.org/2000/svg"
 width="92.000000pt" height="80.000000pt" viewBox="0 0 92.000000 80.000000"
 preserveAspectRatio="xMidYMid meet" fill="#D6DCE1">
<g transform="translate(0.000000,80.000000) scale(0.100000,-0.100000)"
 >
<path d="M123 710 c-39 -16 -43 -40 -43 -263 0 -283 -17 -262 206 -262 152 0
169 2 172 17 3 16 -12 18 -165 20 l-168 3 -3 70 -3 70 66 39 66 38 59 -51 c32
-28 67 -51 77 -51 10 0 50 34 91 77 l72 78 20 -24 c12 -13 26 -21 35 -17 23 9
18 21 -21 51 l-36 28 -83 -83 -82 -82 -58 51 c-32 28 -65 51 -74 51 -9 0 -42
-16 -74 -35 l-58 -35 3 138 3 137 285 0 285 0 5 -109 c6 -126 24 -154 33 -52
6 58 3 103 -8 162 -8 39 -42 44 -318 43 -144 0 -272 -4 -284 -9z M626 379 c-6
-30 -8 -31 -41 -26 -29 5 -38 1 -55 -20 -24 -31 -25 -46 -5 -63 20 -17 19 -37
-4 -57 -19 -16 -19 -17 6 -54 21 -32 28 -37 44 -28 25 13 59 -5 59 -32 0 -30
83 -24 89 6 4 26 19 35 51 29 19 -3 30 2 44 22 18 25 18 27 0 59 -18 34 -18
35 3 57 l22 23 -21 33 c-18 29 -24 32 -54 26 -32 -6 -35 -4 -45 25 -10 27 -15
31 -49 31 -34 0 -38 -3 -44 -31z m64 -19 c0 -25 49 -52 72 -39 26 14 45 -16
24 -39 -20 -23 -21 -66 -1 -82 20 -17 0 -43 -27 -34 -23 7 -68 -20 -68 -41 0
-22 -28 -18 -35 5 -9 27 -56 51 -77 39 -26 -15 -32 9 -12 46 17 32 17 34 0 60
-20 31 -5 65 20 44 16 -13 60 13 69 42 8 25 35 25 35 -1z M642 293 c-7 -3 -18
-16 -23 -30 -21 -56 54 -100 94 -55 43 47 -10 110 -71 85z m53 -48 c0 -21 -31
-33 -46 -18 -5 5 -7 17 -3 27 9 24 49 17 49 -9z"/>
</g>
</svg>
