<?xml version="1.0" standalone="no"?>
<!DOCTYPE svg PUBLIC "-//W3C//DTD SVG 20010904//EN"
 "http://www.w3.org/TR/2001/REC-SVG-20010904/DTD/svg10.dtd">
<svg version="1.0" xmlns="http://www.w3.org/2000/svg"
 width="75.000000pt" height="79.000000pt" viewBox="0 0 75.000000 79.000000"
 preserveAspectRatio="xMidYMid meet" fill="#D6DCE1">
<g transform="translate(0.000000,79.000000) scale(0.100000,-0.100000)"
 >
<path d="M300 645 c-54 -55 -61 -65 -45 -71 14 -6 27 3 54 34 20 23 39 42 43
42 4 0 9 -71 10 -157 4 -215 22 -210 26 6 l3 165 48 -48 c30 -30 54 -45 61
-41 13 8 -105 135 -125 135 -6 0 -39 -29 -75 -65z M97 482 c-25 -28 -25 -363
0 -383 13 -11 71 -14 280 -14 250 0 265 1 279 19 11 15 14 59 14 191 0 205 0
205 -99 205 -54 0 -62 -2 -59 -17 2 -14 16 -19 63 -23 l60 -5 3 -154 c2 -104
-1 -158 -9 -167 -9 -11 -60 -14 -260 -14 l-249 0 -5 23 c-3 12 -4 87 -3 167
l3 145 60 5 c47 4 61 9 63 23 5 26 -118 25 -141 -1z"/>
</g>
</svg>
