<?xml version="1.0" standalone="no"?>
<!DOCTYPE svg PUBLIC "-//W3C//DTD SVG 20010904//EN"
 "http://www.w3.org/TR/2001/REC-SVG-20010904/DTD/svg10.dtd">
<svg version="1.0" xmlns="http://www.w3.org/2000/svg"
 width="77.000000pt" height="82.000000pt" viewBox="0 0 77.000000 82.000000"
 preserveAspectRatio="xMidYMid meet" fill="#D6DCE1">
<g transform="translate(0.000000,82.000000) scale(0.100000,-0.100000)"
 >
<path d="M278 729 c-12 -6 -18 -22 -18 -44 0 -34 16 -48 25 -22 6 15 205 11
205 -4 0 -5 7 -9 15 -9 20 0 19 39 -1 68 -14 20 -23 22 -112 22 -53 0 -105 -5
-114 -11z M80 615 c0 -13 41 -15 305 -15 264 0 305 2 305 15 0 13 -41 15 -305
15 -264 0 -305 -2 -305 -15z M140 573 c0 -5 7 -91 15 -193 8 -102 15 -200 15
-218 0 -21 9 -42 25 -57 24 -25 27 -25 190 -25 163 0 166 0 190 25 14 13 25
32 25 42 0 10 7 99 15 198 18 226 18 235 1 235 -17 0 -22 -32 -37 -253 -7
-109 -17 -184 -25 -195 -11 -15 -32 -17 -168 -17 -90 0 -159 4 -165 10 -10 10
-25 144 -37 343 -6 100 -9 112 -25 112 -11 0 -19 -3 -19 -7z M307 493 c-12
-11 -8 -281 4 -289 26 -16 31 16 24 155 -7 132 -11 151 -28 134z M440 453 c0
-26 -3 -92 -7 -146 -6 -95 -6 -97 16 -97 21 0 22 2 19 142 -2 102 -6 143 -15
146 -9 2 -13 -10 -13 -45z"/>
</g>
</svg>
