<svg xmlns="http://www.w3.org/2000/svg" viewBox="0 0 256 256" fill="none" stroke="#E8EDF4" stroke-width="10" stroke-linecap="round" stroke-linejoin="round">
<path d="M132 226 C84 226 56 192 70 150 C80 120 104 104 102 66 C134 84 146 112 143 142 C160 128 169 108 166 82 C198 110 214 145 206 178 C198 208 170 226 132 226 Z"/><path d="M128 206 C106 200 96 182 104 162 C110 146 126 138 124 118 C146 134 156 152 152 172 C164 164 170 154 171 142 C188 164 190 190 176 202 C164 214 146 210 128 206 Z"/>
</svg>
