<?xml version="1.0" standalone="no"?>
<!DOCTYPE svg PUBLIC "-//W3C//DTD SVG 20010904//EN"
 "http://www.w3.org/TR/2001/REC-SVG-20010904/DTD/svg10.dtd">
<svg version="1.0" xmlns="http://www.w3.org/2000/svg"
 width="85.000000pt" height="83.000000pt" viewBox="0 0 85.000000 83.000000"
 preserveAspectRatio="xMidYMid meet" fill="#D6DCE1">
<g transform="translate(0.000000,83.000000) scale(0.100000,-0.100000)"
 >
<path d="M403 738 c-6 -7 -29 -53 -51 -103 l-41 -89 -107 -17 c-98 -16 -123
-27 -124 -53 0 -4 34 -41 76 -80 l77 -72 -17 -112 c-10 -61 -15 -116 -11 -122
11 -17 33 -11 127 36 l92 46 98 -48 c80 -39 102 -46 116 -37 19 12 19 16 -3
143 l-15 84 75 76 c108 109 103 121 -50 140 l-101 12 -49 101 c-49 100 -70
122 -92 95z m107 -219 c0 -4 15 -11 33 -14 42 -7 169 -25 182 -25 5 0 -25 -35
-68 -78 l-78 -78 11 -69 c5 -39 13 -80 16 -92 8 -30 4 -29 -62 8 -84 48 -108
47 -215 -6 l-91 -46 6 28 c3 15 11 64 17 108 l12 79 -78 71 -77 72 110 18 110
17 43 98 44 98 43 -90 c23 -50 42 -95 42 -99z"/>
</g>
</svg>
