<?xml version="1.0" standalone="no"?>
<!DOCTYPE svg PUBLIC "-//W3C//DTD SVG 20010904//EN"
 "http://www.w3.org/TR/2001/REC-SVG-20010904/DTD/svg10.dtd">
<svg version="1.0" xmlns="http://www.w3.org/2000/svg"
 width="87.000000pt" height="80.000000pt" viewBox="0 0 87.000000 80.000000"
 preserveAspectRatio="xMidYMid meet" fill="#D6DCE1">
<g transform="translate(0.000000,80.000000) scale(0.100000,-0.100000)"
 >
<path d="M205 702 c-49 -23 -99 -78 -115 -128 -17 -51 -7 -136 23 -187 30 -51
274 -291 304 -299 37 -10 78 21 207 152 138 140 166 185 166 265 0 113 -93
215 -196 215 -41 0 -100 -23 -130 -51 l-22 -20 -45 32 c-59 41 -132 49 -192
21z m151 -38 c19 -9 44 -30 55 -46 l22 -30 36 35 c48 46 71 57 124 57 49 0 96
-26 130 -72 32 -42 35 -135 8 -191 -24 -48 -270 -297 -294 -297 -25 0 -274
247 -296 293 -34 71 -23 165 27 221 40 45 127 59 188 30z"/>
</g>
</svg>
