<?xml version="1.0" standalone="no"?>
<!DOCTYPE svg PUBLIC "-//W3C//DTD SVG 20010904//EN"
 "http://www.w3.org/TR/2001/REC-SVG-20010904/DTD/svg10.dtd">
<svg version="1.0" xmlns="http://www.w3.org/2000/svg"
 width="70.000000pt" height="87.000000pt" viewBox="0 0 70.000000 87.000000"
 preserveAspectRatio="xMidYMid meet" fill="#D6DCE1">
<g transform="translate(0.000000,87.000000) scale(0.100000,-0.100000)"
 >
<path d="M102 767 c-22 -23 -22 -29 -22 -339 0 -292 1 -316 18 -331 38 -34 62
-22 157 77 l91 94 97 -94 c101 -99 128 -111 160 -76 15 16 17 54 17 334 l0
315 -23 21 c-22 21 -31 22 -248 22 -223 0 -226 0 -247 -23z m467 -16 c12 -8
14 -61 13 -317 -1 -197 -5 -311 -12 -318 -7 -7 -40 20 -108 87 -53 53 -104 97
-112 97 -8 0 -58 -44 -112 -97 -83 -83 -99 -95 -112 -83 -14 11 -16 53 -16
314 0 222 3 305 12 314 14 14 425 17 447 3z"/>
</g>
</svg>
