<?xml version="1.0" standalone="no"?>
<!DOCTYPE svg PUBLIC "-//W3C//DTD SVG 20010904//EN"
 "http://www.w3.org/TR/2001/REC-SVG-20010904/DTD/svg10.dtd">
<svg version="1.0" xmlns="http://www.w3.org/2000/svg"
 width="76.000000pt" height="87.000000pt" viewBox="0 0 76.000000 87.000000"
 preserveAspectRatio="xMidYMid meet" fill="#D6DCE1">
<g transform="translate(0.000000,87.000000) scale(0.100000,-0.100000)"
 >
<path d="M82 438 c2 -270 6 -352 16 -356 9 -3 12 27 12 126 l0 131 57 11 c74
16 155 8 218 -22 62 -28 210 -33 260 -8 l30 15 0 195 0 195 -30 -3 c-112 -13
-201 -6 -255 18 -59 26 -179 34 -247 17 -29 -8 -33 -6 -33 12 0 12 -6 21 -15
21 -13 0 -15 -43 -13 -352z m304 266 c71 -28 171 -37 227 -21 l27 7 0 -169 0
-169 -32 -8 c-68 -15 -153 -7 -219 22 -69 29 -156 36 -237 21 l-42 -9 2 168 3
168 25 7 c63 17 177 9 246 -17z"/>
</g>
</svg>
