<?xml version="1.0" standalone="no"?>
<!DOCTYPE svg PUBLIC "-//W3C//DTD SVG 20010904//EN"
 "http://www.w3.org/TR/2001/REC-SVG-20010904/DTD/svg10.dtd">
<svg version="1.0" xmlns="http://www.w3.org/2000/svg"
 width="87.000000pt" height="87.000000pt" viewBox="0 0 87.000000 87.000000"
 preserveAspectRatio="xMidYMid meet" fill="#D6DCE1">
<g transform="translate(0.000000,87.000000) scale(0.100000,-0.100000)"
 >
<path d="M430 766 c-19 -13 -105 -97 -190 -186 -203 -214 -201 -195 -30 -365
130 -128 159 -146 208 -126 15 7 104 88 197 181 l170 170 3 146 4 146 -28 29
-28 29 -136 0 c-126 0 -138 -2 -170 -24z m286 -12 c34 -9 44 -47 44 -171 l0
-117 -172 -173 c-147 -148 -177 -173 -202 -173 -26 0 -50 19 -148 117 -90 90
-118 124 -118 144 0 35 307 354 353 368 36 10 210 14 243 5z M592 680 c-30
-12 -47 -57 -33 -87 10 -21 47 -43 72 -43 17 0 59 48 59 68 0 44 -55 79 -98
62z m53 -60 c0 -16 -6 -26 -19 -28 -25 -5 -39 12 -31 38 10 31 50 24 50 -10z"/>
</g>
</svg>
