<?xml version="1.0" standalone="no"?>
<!DOCTYPE svg PUBLIC "-//W3C//DTD SVG 20010904//EN"
 "http://www.w3.org/TR/2001/REC-SVG-20010904/DTD/svg10.dtd">
<svg version="1.0" xmlns="http://www.w3.org/2000/svg"
 width="87.000000pt" height="87.000000pt" viewBox="0 0 87.000000 87.000000"
 preserveAspectRatio="xMidYMid meet" fill="#D6DCE1">
<g transform="translate(0.000000,87.000000) scale(0.100000,-0.100000)"
 >
<path d="M448 776 c-36 -19 -348 -335 -359 -365 -18 -44 7 -83 129 -203 122
-121 152 -139 201 -119 15 7 105 90 199 185 l172 172 0 148 c0 146 0 147 -26
171 -26 24 -33 25 -158 25 -93 0 -139 -4 -158 -14z m292 -36 c18 -18 20 -33
20 -147 l0 -127 -172 -173 c-148 -149 -177 -173 -203 -173 -44 0 -268 224
-263 263 4 37 328 364 365 370 16 2 74 5 131 6 90 1 104 -1 122 -19z M587 669
c-36 -28 -36 -70 -1 -98 15 -12 32 -21 39 -21 23 0 65 41 65 65 0 55 -62 87
-103 54z m62 -37 c12 -22 -3 -42 -30 -42 -23 0 -32 15 -24 40 8 25 41 26 54 2z
M392 527 c2 -8 33 -42 70 -76 93 -86 111 -69 22 20 -64 65 -100 86 -92 56z
M334 469 c-7 -13 114 -139 133 -139 27 0 11 28 -50 88 -66 65 -72 69 -83 51z
M270 407 c0 -16 121 -137 138 -137 26 0 10 28 -51 88 -61 60 -87 75 -87 49z"/>
</g>
</svg>
