<?xml version="1.0" standalone="no"?>
<!DOCTYPE svg PUBLIC "-//W3C//DTD SVG 20010904//EN"
 "http://www.w3.org/TR/2001/REC-SVG-20010904/DTD/svg10.dtd">
<svg version="1.0" xmlns="http://www.w3.org/2000/svg"
 width="82.000000pt" height="83.000000pt" viewBox="0 0 82.000000 83.000000"
 preserveAspectRatio="xMidYMid meet" fill="#D6DCE1">
<g transform="translate(0.000000,83.000000) scale(0.100000,-0.100000)"
 >
<path d="M442 743 c-25 -10 -44 -63 -34 -93 9 -26 5 -32 -61 -98 l-72 -70 -53
8 c-56 10 -76 6 -104 -18 -30 -25 -21 -45 57 -122 l75 -75 -85 -85 c-47 -47
-85 -91 -85 -98 0 -27 29 -8 110 73 l85 85 75 -75 c41 -41 82 -75 92 -75 39 0
64 94 43 159 -6 20 4 34 61 92 60 60 73 69 96 64 56 -13 110 41 94 92 -3 11
-57 70 -120 131 -111 110 -131 122 -174 105z m157 -137 c82 -82 102 -108 99
-127 -2 -16 -11 -25 -27 -27 -19 -3 -45 17 -127 99 -97 97 -119 131 -97 152
21 22 55 0 152 -97z m-74 -86 l69 -69 -77 -80 c-75 -79 -76 -80 -66 -116 10
-36 4 -115 -10 -115 -3 0 -74 67 -156 150 -169 169 -174 182 -63 163 l63 -11
75 74 c41 41 79 74 85 74 6 0 42 -31 80 -70z"/>
</g>
</svg>
