<?xml version="1.0" standalone="no"?>
<!DOCTYPE svg PUBLIC "-//W3C//DTD SVG 20010904//EN"
 "http://www.w3.org/TR/2001/REC-SVG-20010904/DTD/svg10.dtd">
<svg version="1.0" xmlns="http://www.w3.org/2000/svg"
 width="79.000000pt" height="83.000000pt" viewBox="0 0 79.000000 83.000000"
 preserveAspectRatio="xMidYMid meet" fill="#D6DCE1">
<g transform="translate(0.000000,83.000000) scale(0.100000,-0.100000)"
 >
<path d="M483 737 c-26 -15 -361 -344 -374 -368 -4 -9 -13 -37 -18 -62 -25
-108 76 -227 193 -227 64 0 102 25 239 159 128 126 155 161 124 161 -7 0 -68
-57 -137 -126 -132 -133 -163 -154 -231 -154 -110 0 -181 97 -149 203 16 56
347 383 397 393 78 15 143 -34 143 -109 0 -39 -6 -46 -152 -195 -84 -84 -165
-160 -180 -168 -33 -17 -74 -9 -88 16 -23 42 -11 62 107 182 79 80 114 121
107 128 -15 15 -254 -220 -255 -251 -3 -49 3 -65 32 -92 39 -36 84 -36 135 2
21 16 103 93 181 172 115 117 143 151 148 181 12 64 -20 125 -82 157 -29 15
-112 14 -140 -2z"/>
</g>
</svg>
