<?xml version="1.0" standalone="no"?>
<!DOCTYPE svg PUBLIC "-//W3C//DTD SVG 20010904//EN"
 "http://www.w3.org/TR/2001/REC-SVG-20010904/DTD/svg10.dtd">
<svg version="1.0" xmlns="http://www.w3.org/2000/svg"
 width="81.000000pt" height="82.000000pt" viewBox="0 0 81.000000 82.000000"
 preserveAspectRatio="xMidYMid meet" fill="#D6DCE1">
<g transform="translate(0.000000,82.000000) scale(0.100000,-0.100000)"
 >
<path d="M572 729 c-37 -11 -176 -143 -191 -180 -11 -30 -3 -81 13 -76 6 2 14
21 17 41 8 51 127 173 177 182 72 14 127 -52 98 -118 -21 -49 -137 -159 -177
-167 -36 -7 -50 -28 -25 -37 42 -16 105 28 198 139 55 66 62 107 28 162 -16
26 -87 70 -103 64 -1 0 -17 -5 -35 -10z M393 430 c-57 -53 -103 -105 -103
-114 0 -15 4 -17 30 -20 11 -1 210 193 210 205 0 5 -8 12 -17 18 -15 7 -38
-10 -120 -89z M260 434 c-41 -28 -150 -137 -166 -166 -48 -91 34 -202 135
-183 27 5 57 27 119 89 73 71 84 87 89 125 5 38 4 43 -13 39 -13 -2 -20 -13
-22 -34 -2 -24 -22 -50 -81 -108 -68 -65 -84 -76 -114 -76 -69 0 -114 68 -84
127 25 48 152 163 180 163 32 0 55 25 31 34 -26 10 -48 7 -74 -10z"/>
</g>
</svg>
