<?xml version="1.0" standalone="no"?>
<!DOCTYPE svg PUBLIC "-//W3C//DTD SVG 20010904//EN"
 "http://www.w3.org/TR/2001/REC-SVG-20010904/DTD/svg10.dtd">
<svg version="1.0" xmlns="http://www.w3.org/2000/svg"
 width="78.000000pt" height="81.000000pt" viewBox="0 0 78.000000 81.000000"
 preserveAspectRatio="xMidYMid meet" fill="#D6DCE1">
<g transform="translate(0.000000,81.000000) scale(0.100000,-0.100000)"
 >
<path d="M535 716 c-58 -26 -185 -176 -148 -176 4 0 41 34 84 75 65 64 82 75
111 75 39 0 73 -29 83 -72 8 -32 -2 -53 -55 -106 -39 -38 -45 -63 -17 -62 7 1
32 23 56 51 73 84 62 179 -24 215 -42 17 -51 17 -90 0z M276 511 c-8 -12 82
-93 95 -85 7 4 -6 24 -32 50 -44 45 -54 50 -63 35z M385 420 c-96 -95 -112
-119 -90 -127 16 -5 219 203 211 216 -12 19 -19 14 -121 -89z M159 333 c-26
-27 -53 -59 -63 -73 -35 -53 -6 -145 54 -170 57 -24 97 -7 176 71 73 72 90
104 79 140 -8 25 -25 15 -25 -15 0 -26 -148 -176 -173 -176 -60 0 -102 57 -86
114 5 17 34 56 65 87 45 45 52 57 39 63 -9 3 -18 6 -19 6 -1 0 -22 -21 -47
-47z M420 365 c0 -27 55 -79 75 -71 16 6 14 11 -20 46 -42 43 -55 49 -55 25z"/>
</g>
</svg>
