<?xml version="1.0" standalone="no"?>
<!DOCTYPE svg PUBLIC "-//W3C//DTD SVG 20010904//EN"
 "http://www.w3.org/TR/2001/REC-SVG-20010904/DTD/svg10.dtd">
<svg version="1.0" xmlns="http://www.w3.org/2000/svg"
 width="90.000000pt" height="65.000000pt" viewBox="0 0 90.000000 65.000000"
 preserveAspectRatio="xMidYMid meet" fill="#D6DCE1">
<g transform="translate(0.000000,65.000000) scale(0.100000,-0.100000)"
 >
<path d="M367 560 c-93 -24 -230 -126 -272 -203 l-18 -35 36 -50 c121 -164
313 -228 478 -158 57 24 155 103 195 157 44 60 42 67 -41 157 -102 110 -253
163 -378 132z m212 -53 c41 -15 75 -39 128 -91 40 -40 73 -77 73 -83 0 -25
-86 -117 -143 -153 -154 -98 -315 -74 -455 67 -34 35 -62 70 -62 79 0 27 108
130 170 163 103 55 179 60 289 18z M413 448 c-35 -9 -80 -56 -90 -96 -10 -40
17 -103 56 -129 86 -58 201 4 201 109 0 75 -88 137 -167 116z m98 -57 c70 -70
8 -175 -88 -149 -55 14 -80 89 -47 136 34 49 93 54 135 13z"/>
</g>
</svg>
