<?xml version="1.0" standalone="no"?>
<!DOCTYPE svg PUBLIC "-//W3C//DTD SVG 20010904//EN"
 "http://www.w3.org/TR/2001/REC-SVG-20010904/DTD/svg10.dtd">
<svg version="1.0" xmlns="http://www.w3.org/2000/svg"
 width="90.000000pt" height="74.000000pt" viewBox="0 0 90.000000 74.000000"
 preserveAspectRatio="xMidYMid meet" fill="#D6DCE1">
<g transform="translate(0.000000,74.000000) scale(0.100000,-0.100000)"
 >
<path d="M667 612 l-48 -49 -42 21 c-33 16 -61 21 -127 21 -119 0 -209 -43
-304 -146 -36 -39 -66 -79 -66 -88 0 -24 83 -123 129 -155 72 -50 65 -18 -14
59 -41 41 -75 81 -75 90 0 27 116 139 173 168 76 39 141 49 216 33 34 -7 67
-18 72 -23 13 -13 -32 -65 -222 -258 -161 -164 -183 -191 -167 -201 8 -5 71
53 179 164 137 140 168 168 171 150 2 -12 9 -23 17 -26 11 -4 12 3 7 32 -7 36
-4 40 84 136 80 86 100 120 72 120 -4 0 -29 -22 -55 -48z M660 514 c0 -4 27
-35 60 -71 33 -35 60 -68 60 -74 0 -23 -124 -138 -182 -169 -68 -36 -157 -49
-220 -32 -29 8 -40 7 -49 -4 -18 -21 33 -37 122 -37 63 -1 86 4 140 30 70 32
159 108 203 172 l28 40 -36 50 c-42 57 -91 101 -112 101 -8 0 -14 -3 -14 -6z
M374 471 c-43 -26 -66 -87 -53 -136 15 -52 34 -39 34 23 0 66 25 94 92 102 61
6 62 24 3 28 -31 2 -55 -4 -76 -17z"/>
</g>
</svg>
