<?xml version="1.0" standalone="no"?>
<!DOCTYPE svg PUBLIC "-//W3C//DTD SVG 20010904//EN"
 "http://www.w3.org/TR/2001/REC-SVG-20010904/DTD/svg10.dtd">
<svg version="1.0" xmlns="http://www.w3.org/2000/svg"
 width="68.000000pt" height="85.000000pt" viewBox="0 0 68.000000 85.000000"
 preserveAspectRatio="xMidYMid meet" fill="#D6DCE1">
<g transform="translate(0.000000,85.000000) scale(0.100000,-0.100000)"
 >
<path d="M277 755 c-82 -29 -126 -100 -127 -202 0 -46 -4 -63 -13 -63 -8 0
-23 -10 -35 -23 -21 -22 -22 -33 -22 -185 0 -219 -21 -202 255 -202 281 0 265
-11 265 194 0 163 -7 193 -50 209 -29 11 -30 14 -30 74 0 99 -34 156 -115 194
-47 22 -76 23 -128 4z m104 -35 c19 -5 48 -24 65 -41 26 -27 29 -38 33 -110
l3 -79 -146 0 -146 0 0 49 c0 77 11 111 46 146 42 43 82 52 145 35z m163 -276
c13 -13 16 -42 16 -164 0 -137 -2 -150 -19 -160 -32 -17 -383 -13 -407 4 -17
13 -19 27 -18 160 1 100 6 151 14 161 19 23 391 22 414 -1z M312 364 c-23 -16
-29 -53 -13 -69 5 -6 11 -28 13 -50 3 -35 6 -40 27 -40 21 0 25 6 29 35 2 19
8 42 13 51 15 29 10 57 -13 73 -12 9 -25 16 -28 16 -3 0 -16 -7 -28 -16z"/>
</g>
</svg>
