<?xml version="1.0" standalone="no"?>
<!DOCTYPE svg PUBLIC "-//W3C//DTD SVG 20010904//EN"
 "http://www.w3.org/TR/2001/REC-SVG-20010904/DTD/svg10.dtd">
<svg version="1.0" xmlns="http://www.w3.org/2000/svg"
 width="68.000000pt" height="85.000000pt" viewBox="0 0 68.000000 85.000000"
 preserveAspectRatio="xMidYMid meet" fill="#D6DCE1">
<g transform="translate(0.000000,85.000000) scale(0.100000,-0.100000)"
 >
<path d="M356 755 c-51 -18 -104 -70 -116 -115 -5 -19 -10 -61 -10 -92 l0 -58
-50 0 c-41 0 -56 -5 -75 -25 -24 -24 -25 -28 -25 -180 0 -218 -16 -205 260
-205 276 0 260 -13 260 205 0 152 -1 156 -25 180 -23 24 -29 25 -165 25 l-140
0 0 65 c0 39 6 78 15 95 36 69 114 95 188 62 57 -25 78 -57 86 -130 4 -41 10
-57 21 -57 22 0 25 69 5 121 -20 52 -71 99 -122 113 -48 14 -59 13 -107 -4z
m192 -307 c8 -8 12 -59 12 -165 0 -140 -2 -153 -19 -163 -29 -15 -394 -13
-409 2 -17 17 -17 309 0 326 17 17 399 17 416 0z M312 364 c-25 -17 -29 -56
-7 -74 9 -7 15 -29 15 -52 0 -35 2 -39 23 -36 17 2 24 12 29 43 4 22 10 54 14
71 5 26 2 35 -17 48 -29 20 -29 20 -57 0z"/>
</g>
</svg>
