<?xml version="1.0" standalone="no"?>
<!DOCTYPE svg PUBLIC "-//W3C//DTD SVG 20010904//EN"
 "http://www.w3.org/TR/2001/REC-SVG-20010904/DTD/svg10.dtd">
<svg version="1.0" xmlns="http://www.w3.org/2000/svg"
 width="83.000000pt" height="82.000000pt" viewBox="0 0 83.000000 82.000000"
 preserveAspectRatio="xMidYMid meet" fill="#D6DCE1">
<g transform="translate(0.000000,82.000000) scale(0.100000,-0.100000)"
 >
<path d="M293 719 c-70 -27 -145 -100 -180 -174 -58 -125 -28 -282 73 -375 75
-69 116 -85 224 -85 79 0 103 4 141 23 147 72 226 234 184 379 -29 103 -92
177 -190 224 -75 36 -171 39 -252 8z m246 -42 c177 -83 223 -320 92 -470 -108
-123 -322 -122 -434 3 -57 64 -81 133 -75 218 15 212 227 338 417 249z M284
529 c-3 -6 18 -35 47 -65 l53 -54 -54 -55 c-41 -41 -51 -58 -43 -66 13 -13 79
33 107 73 14 20 16 19 74 -31 32 -28 62 -51 65 -51 19 0 2 30 -43 77 l-49 51
54 58 c51 53 60 74 32 74 -6 0 -35 -23 -63 -51 l-53 -52 -50 52 c-51 52 -65
59 -77 40z"/>
</g>
</svg>
