<?xml version="1.0" standalone="no"?>
<!DOCTYPE svg PUBLIC "-//W3C//DTD SVG 20010904//EN"
 "http://www.w3.org/TR/2001/REC-SVG-20010904/DTD/svg10.dtd">
<svg version="1.0" xmlns="http://www.w3.org/2000/svg"
 width="83.000000pt" height="82.000000pt" viewBox="0 0 83.000000 82.000000"
 preserveAspectRatio="xMidYMid meet" fill="#D6DCE1">
<g transform="translate(0.000000,82.000000) scale(0.100000,-0.100000)"
 >
<path d="M294 720 c-151 -60 -240 -232 -200 -388 71 -280 432 -345 595 -108
112 163 53 391 -125 481 -78 40 -192 46 -270 15z m253 -46 c95 -46 153 -136
161 -250 17 -263 -297 -409 -495 -230 -142 128 -115 374 52 472 84 49 189 52
282 8z M407 563 c-4 -3 -7 -35 -7 -69 l0 -63 -67 -3 c-53 -2 -68 -6 -68 -18 0
-12 15 -16 68 -18 l67 -3 0 -64 c0 -60 11 -88 25 -65 4 6 7 37 8 70 l2 59 65
3 c50 2 65 7 65 18 0 11 -16 16 -66 20 -59 4 -66 7 -63 25 5 28 -7 115 -16
115 -3 0 -10 -3 -13 -7z"/>
</g>
</svg>
