<?xml version="1.0" standalone="no"?>
<!DOCTYPE svg PUBLIC "-//W3C//DTD SVG 20010904//EN"
 "http://www.w3.org/TR/2001/REC-SVG-20010904/DTD/svg10.dtd">
<svg version="1.0" xmlns="http://www.w3.org/2000/svg"
 width="82.000000pt" height="82.000000pt" viewBox="0 0 82.000000 82.000000"
 preserveAspectRatio="xMidYMid meet" fill="#D6DCE1">
<g transform="translate(0.000000,82.000000) scale(0.100000,-0.100000)"
 >
<path d="M286 715 c-70 -29 -137 -90 -174 -160 -24 -44 -27 -61 -27 -145 0
-84 3 -101 27 -145 32 -60 97 -124 158 -156 66 -35 214 -35 280 0 157 81 229
258 170 415 -31 82 -114 166 -193 195 -79 29 -165 28 -241 -4z m246 -37 c182
-77 229 -336 87 -477 -200 -201 -552 -18 -499 259 37 193 230 295 412 218z
M392 568 c-16 -16 -15 -33 4 -48 22 -19 54 12 38 37 -14 22 -27 26 -42 11z
M373 464 c-18 -8 -16 -34 2 -34 12 0 15 -15 15 -74 0 -66 -2 -74 -21 -79 -41
-11 -14 -32 44 -35 47 -2 57 0 57 13 0 9 -9 19 -20 22 -17 5 -20 15 -22 97 -3
83 -5 91 -23 93 -11 1 -26 -1 -32 -3z"/>
</g>
</svg>
