<?xml version="1.0" standalone="no"?>
<!DOCTYPE svg PUBLIC "-//W3C//DTD SVG 20010904//EN"
 "http://www.w3.org/TR/2001/REC-SVG-20010904/DTD/svg10.dtd">
<svg version="1.0" xmlns="http://www.w3.org/2000/svg"
 width="83.000000pt" height="82.000000pt" viewBox="0 0 83.000000 82.000000"
 preserveAspectRatio="xMidYMid meet" fill="#D6DCE1">
<g transform="translate(0.000000,82.000000) scale(0.100000,-0.100000)"
 >
<path d="M284 712 c-217 -105 -266 -370 -101 -536 70 -70 125 -91 237 -91 111
0 165 22 237 97 65 67 88 126 88 228 0 101 -20 154 -86 225 -65 70 -126 98
-229 102 -78 4 -90 2 -146 -25z m263 -38 c181 -87 221 -338 77 -476 -90 -86
-228 -108 -337 -54 -243 119 -207 478 55 551 68 19 138 12 205 -21z M403 568
c-5 -8 -7 -54 -4 -113 5 -80 9 -100 21 -100 12 0 16 18 20 85 6 90 1 131 -17
137 -5 2 -14 -2 -20 -9z M394 286 c-10 -26 4 -48 28 -44 17 2 23 10 23 28 0
30 -41 42 -51 16z"/>
</g>
</svg>
