<?xml version="1.0" standalone="no"?>
<!DOCTYPE svg PUBLIC "-//W3C//DTD SVG 20010904//EN"
 "http://www.w3.org/TR/2001/REC-SVG-20010904/DTD/svg10.dtd">
<svg version="1.0" xmlns="http://www.w3.org/2000/svg"
 width="83.000000pt" height="82.000000pt" viewBox="0 0 83.000000 82.000000"
 preserveAspectRatio="xMidYMid meet" fill="#D6DCE1">
<g transform="translate(0.000000,82.000000) scale(0.100000,-0.100000)"
 >
<path d="M293 719 c-70 -27 -146 -97 -180 -167 -37 -76 -40 -201 -6 -274 29
-63 96 -134 158 -166 72 -38 215 -39 290 -3 254 126 249 478 -10 602 -75 36
-171 39 -252 8z m246 -41 c147 -70 210 -253 138 -400 -91 -185 -344 -220 -481
-67 -123 137 -94 355 61 450 84 52 194 58 282 17z M366 575 c-37 -20 -55 -44
-56 -72 0 -31 28 -30 40 1 18 47 76 60 111 25 32 -32 22 -68 -28 -102 -37 -24
-43 -33 -43 -63 0 -28 4 -35 18 -32 9 2 18 13 20 26 2 13 16 29 33 38 36 18
63 74 54 114 -14 62 -92 96 -149 65z M383 274 c-3 -8 1 -22 9 -30 19 -19 55 4
45 30 -8 21 -46 21 -54 0z"/>
</g>
</svg>
