<?xml version="1.0" standalone="no"?>
<!DOCTYPE svg PUBLIC "-//W3C//DTD SVG 20010904//EN"
 "http://www.w3.org/TR/2001/REC-SVG-20010904/DTD/svg10.dtd">
<svg version="1.0" xmlns="http://www.w3.org/2000/svg"
 width="82.000000pt" height="79.000000pt" viewBox="0 0 82.000000 79.000000"
 preserveAspectRatio="xMidYMid meet" fill="#D6DCE1">
<g transform="translate(0.000000,79.000000) scale(0.100000,-0.100000)"
 >
<path d="M401 684 c-12 -15 -21 -39 -21 -54 0 -18 -14 -45 -39 -74 -59 -72
-73 -79 -156 -77 -103 3 -104 2 -97 -197 2 -86 9 -163 15 -170 7 -9 39 -12
111 -11 57 1 113 -3 129 -10 16 -6 84 -11 156 -11 114 0 129 2 149 20 12 12
23 28 23 38 2 32 4 37 23 64 10 16 16 34 13 43 -4 8 0 27 8 41 8 15 11 40 8
54 -3 15 0 31 6 34 19 12 12 53 -15 85 -25 30 -28 31 -111 31 -77 0 -84 2 -78
18 4 9 9 44 12 77 5 55 3 64 -22 93 -35 42 -84 44 -114 6z m81 -21 c21 -19 24
-72 7 -139 -17 -64 -7 -71 103 -73 50 -1 95 -4 100 -7 14 -9 9 -46 -9 -66 -13
-14 -14 -21 -5 -30 18 -18 14 -44 -9 -60 -20 -12 -20 -16 -8 -37 13 -20 12
-24 -8 -40 -15 -13 -21 -28 -20 -52 l2 -34 -134 -3 c-102 -2 -145 1 -183 14
l-48 16 0 147 c0 147 0 148 25 161 31 16 102 100 115 135 5 14 10 37 10 50 0
35 32 45 62 18z m-252 -373 l0 -150 -55 0 -55 0 0 150 0 150 55 0 55 0 0 -150z"/>
</g>
</svg>
