<?xml version="1.0" standalone="no"?>
<!DOCTYPE svg PUBLIC "-//W3C//DTD SVG 20010904//EN"
 "http://www.w3.org/TR/2001/REC-SVG-20010904/DTD/svg10.dtd">
<svg version="1.0" xmlns="http://www.w3.org/2000/svg"
 width="81.000000pt" height="80.000000pt" viewBox="0 0 81.000000 80.000000"
 preserveAspectRatio="xMidYMid meet" fill="#D6DCE1">
<g transform="translate(0.000000,80.000000) scale(0.100000,-0.100000)"
 >
<path d="M163 696 c-15 -13 -28 -35 -28 -49 -1 -14 -8 -33 -15 -43 -8 -9 -16
-33 -17 -53 -1 -20 -7 -69 -14 -110 -17 -115 7 -141 133 -141 l71 0 -9 -42
c-18 -96 2 -152 60 -172 37 -14 79 19 87 67 6 40 25 71 76 128 l35 39 82 0
c50 0 87 5 94 12 8 8 12 62 12 175 0 161 0 163 -24 178 -20 13 -36 14 -92 7
-55 -7 -77 -6 -126 10 -44 13 -91 18 -178 18 -111 0 -121 -2 -147 -24z m334
-33 l53 -17 0 -142 0 -142 -44 -36 c-54 -43 -106 -120 -106 -155 0 -14 -4 -32
-9 -39 -13 -21 -54 -10 -70 20 -14 24 -13 34 1 94 9 37 14 73 11 81 -4 9 -30
13 -98 13 -72 0 -97 4 -109 16 -20 20 -20 33 1 56 13 14 14 21 5 30 -19 19
-14 45 10 62 17 12 20 18 10 28 -18 18 -14 46 8 58 15 8 19 17 14 35 -13 52
-5 55 137 55 96 0 147 -5 186 -17z m193 -158 l0 -155 -55 0 -55 0 0 155 0 155
55 0 55 0 0 -155z"/>
</g>
</svg>
