<?xml version="1.0" standalone="no"?>
<!DOCTYPE svg PUBLIC "-//W3C//DTD SVG 20010904//EN"
 "http://www.w3.org/TR/2001/REC-SVG-20010904/DTD/svg10.dtd">
<svg version="1.0" xmlns="http://www.w3.org/2000/svg"
 width="78.000000pt" height="80.000000pt" viewBox="0 0 78.000000 80.000000"
 preserveAspectRatio="xMidYMid meet" fill="#D6DCE1">
<g transform="translate(0.000000,80.000000) scale(0.100000,-0.100000)"
 >
<path d="M370 531 l0 -188 -56 53 c-50 48 -74 59 -74 35 0 -5 33 -44 74 -87
l75 -79 80 79 c64 63 78 83 69 93 -9 11 -22 3 -70 -44 l-58 -57 0 192 c0 185
-1 192 -20 192 -19 0 -20 -7 -20 -189z M90 345 c-8 -10 -11 -48 -8 -121 5
-153 -14 -144 310 -144 l259 0 24 25 c24 23 25 31 25 135 0 67 -4 110 -10 110
-5 0 -13 1 -17 3 -5 1 -10 -50 -13 -113 l-5 -115 -259 -3 c-201 -2 -261 1
-268 10 -4 7 -8 59 -8 115 0 102 -7 125 -30 98z"/>
</g>
</svg>
