<?xml version="1.0" standalone="no"?>
<!DOCTYPE svg PUBLIC "-//W3C//DTD SVG 20010904//EN"
 "http://www.w3.org/TR/2001/REC-SVG-20010904/DTD/svg10.dtd">
<svg version="1.0" xmlns="http://www.w3.org/2000/svg"
 width="78.000000pt" height="80.000000pt" viewBox="0 0 78.000000 80.000000"
 preserveAspectRatio="xMidYMid meet" fill="#D6DCE1">
<g transform="translate(0.000000,80.000000) scale(0.100000,-0.100000)"
 >
<path d="M310 645 c-61 -61 -72 -77 -60 -85 11 -7 28 3 67 42 l53 52 2 -190
c3 -160 5 -189 18 -189 13 0 15 29 18 189 l2 190 54 -53 c50 -49 76 -59 76
-27 0 14 -132 146 -146 146 -5 0 -43 -34 -84 -75z M91 346 c-9 -11 -12 -47 -9
-122 5 -153 -13 -144 303 -144 139 0 261 3 270 6 31 12 45 59 45 157 0 67 -4
98 -13 106 -23 18 -27 2 -27 -103 0 -56 -4 -107 -8 -114 -7 -9 -67 -12 -268
-10 l-259 3 -3 110 c-3 113 -10 137 -31 111z"/>
</g>
</svg>
