<?xml version="1.0" standalone="no"?>
<!DOCTYPE svg PUBLIC "-//W3C//DTD SVG 20010904//EN"
 "http://www.w3.org/TR/2001/REC-SVG-20010904/DTD/svg10.dtd">
<svg version="1.0" xmlns="http://www.w3.org/2000/svg"
 width="75.000000pt" height="86.000000pt" viewBox="0 0 75.000000 86.000000"
 preserveAspectRatio="xMidYMid meet" fill="#D6DCE1">
<g transform="translate(0.000000,86.000000) scale(0.100000,-0.100000)"
 >
<path d="M494 761 c-33 -20 -58 -74 -52 -111 2 -16 -17 -34 -97 -85 -93 -60
-101 -63 -122 -49 -59 38 -143 -7 -143 -78 0 -52 14 -77 56 -94 30 -12 39 -12
70 1 42 17 44 16 163 -64 72 -48 75 -52 77 -93 6 -111 158 -147 209 -48 31 60
14 116 -46 149 -44 25 -82 22 -121 -9 -24 -18 -24 -18 -122 45 l-99 64 0 42 0
41 97 63 98 63 35 -24 c41 -28 61 -29 108 -10 39 17 65 60 65 110 0 82 -104
133 -176 87z m119 -39 c24 -21 23 -86 -3 -112 -28 -28 -75 -26 -105 5 -41 40
-32 99 19 121 34 14 61 10 89 -14z m-401 -249 c39 -35 11 -103 -43 -103 -30 0
-59 31 -59 64 0 48 64 73 102 39z m388 -213 c28 -15 43 -67 27 -99 -37 -77
-147 -51 -147 35 0 56 67 92 120 64z"/>
</g>
</svg>
