<?xml version="1.0" standalone="no"?>
<!DOCTYPE svg PUBLIC "-//W3C//DTD SVG 20010904//EN"
 "http://www.w3.org/TR/2001/REC-SVG-20010904/DTD/svg10.dtd">
<svg version="1.0" xmlns="http://www.w3.org/2000/svg"
 width="79.000000pt" height="78.000000pt" viewBox="0 0 79.000000 78.000000"
 preserveAspectRatio="xMidYMid meet" fill="#D6DCE1">
<g transform="translate(0.000000,78.000000) scale(0.100000,-0.100000)"
 >
<path d="M477 693 c-19 -19 20 -33 92 -33 l76 0 -160 -160 c-129 -129 -156
-160 -141 -166 14 -5 52 28 172 147 l154 154 0 -83 c0 -75 2 -82 20 -82 19 0
20 7 20 103 0 67 -4 107 -12 115 -13 13 -209 18 -221 5z M111 584 l-31 -26 0
-214 c0 -215 0 -215 25 -239 l24 -25 216 0 217 0 29 30 30 29 -3 118 c-3 103
-5 118 -20 121 -16 3 -18 -8 -18 -116 0 -99 -3 -122 -17 -133 -13 -11 -59 -13
-222 -11 -180 2 -208 4 -218 19 -21 27 -18 397 3 417 12 13 40 16 140 16 117
0 124 1 124 20 0 19 -7 20 -124 20 -119 0 -126 -1 -155 -26z"/>
</g>
</svg>
