<?xml version="1.0" standalone="no"?>
<!DOCTYPE svg PUBLIC "-//W3C//DTD SVG 20010904//EN"
 "http://www.w3.org/TR/2001/REC-SVG-20010904/DTD/svg10.dtd">
<svg version="1.0" xmlns="http://www.w3.org/2000/svg"
 width="77.000000pt" height="78.000000pt" viewBox="0 0 77.000000 78.000000"
 preserveAspectRatio="xMidYMid meet" fill="#D6DCE1">
<g transform="translate(0.000000,78.000000) scale(0.100000,-0.100000)"
 >
<path d="M110 687 c-24 -12 -25 -16 -28 -126 -2 -75 1 -118 9 -127 8 -10 39
-14 119 -14 139 0 140 1 140 136 0 54 -4 105 -9 113 -18 28 -185 42 -231 18z
m200 -125 c0 -54 -2 -101 -4 -103 -2 -2 -47 -3 -100 -1 l-96 3 0 93 c0 51 3
96 7 99 3 4 48 7 100 7 l93 0 0 -98z M435 678 c-24 -19 -25 -24 -25 -122 0
-135 1 -136 143 -136 134 0 137 3 137 136 0 130 -8 138 -134 141 -82 1 -99 -2
-121 -19z m213 -120 l3 -98 -101 0 -100 0 0 93 c0 52 3 97 7 101 4 4 48 5 98
4 l90 -3 3 -97z M96 344 c-25 -24 -23 -225 2 -247 28 -26 212 -24 235 1 26 28
25 222 -1 245 -26 24 -213 25 -236 1z m214 -124 l0 -101 -97 3 -98 3 -3 98 -3
97 101 0 100 0 0 -100z M430 340 c-17 -17 -20 -33 -20 -120 0 -135 5 -140 138
-140 132 0 135 3 135 146 0 134 0 134 -135 134 -85 0 -101 -3 -118 -20z m220
-120 l0 -100 -100 0 -100 0 0 100 0 100 100 0 100 0 0 -100z"/>
</g>
</svg>
