<?xml version="1.0" standalone="no"?>
<!DOCTYPE svg PUBLIC "-//W3C//DTD SVG 20010904//EN"
 "http://www.w3.org/TR/2001/REC-SVG-20010904/DTD/svg10.dtd">
<svg version="1.0" xmlns="http://www.w3.org/2000/svg"
 width="86.000000pt" height="64.000000pt" viewBox="0 0 86.000000 64.000000"
 preserveAspectRatio="xMidYMid meet" fill="#D6DCE1">
<g transform="translate(0.000000,64.000000) scale(0.100000,-0.100000)"
 >
<path d="M96 551 c18 -19 59 -22 79 -7 19 14 16 15 -34 16 -34 0 -51 -4 -45
-9z M96 411 c-24 -26 -17 -70 15 -93 24 -19 28 -19 56 -4 39 20 48 53 24 86
-23 32 -71 38 -95 11z m69 -41 c0 -18 -6 -26 -21 -28 -26 -4 -40 24 -23 45 18
21 44 11 44 -17z M282 373 c3 -17 23 -18 248 -18 225 0 245 1 248 18 3 16 -14
17 -248 17 -234 0 -251 -1 -248 -17z M106 189 c-49 -39 -22 -115 40 -107 35 4
66 45 58 76 -4 12 -19 29 -35 37 -35 19 -31 19 -63 -6z m62 -47 c4 -28 -24
-41 -44 -20 -20 20 -7 50 20 46 13 -2 22 -12 24 -26z M282 143 c3 -17 23 -18
248 -18 225 0 245 1 248 18 3 16 -14 17 -248 17 -234 0 -251 -1 -248 -17z"/>
</g>
</svg>
