<?xml version="1.0" standalone="no"?>
<!DOCTYPE svg PUBLIC "-//W3C//DTD SVG 20010904//EN"
 "http://www.w3.org/TR/2001/REC-SVG-20010904/DTD/svg10.dtd">
<svg version="1.0" xmlns="http://www.w3.org/2000/svg"
 width="71.000000pt" height="40.000000pt" viewBox="0 0 71.000000 40.000000"
 preserveAspectRatio="xMidYMid meet" fill="#D6DCE1">
<g transform="translate(0.000000,40.000000) scale(0.100000,-0.100000)"
 >
<path d="M87 313 c-4 -3 -7 -12 -7 -20 0 -10 53 -13 276 -13 257 0 275 1 272
18 -3 16 -25 17 -269 20 -146 1 -268 -1 -272 -5z M82 98 c4 -10 70 -14 276
-16 238 -2 272 0 272 13 0 13 -36 15 -276 15 -216 0 -275 -3 -272 -12z"/>
</g>
</svg>
