<?xml version="1.0" standalone="no"?>
<!DOCTYPE svg PUBLIC "-//W3C//DTD SVG 20010904//EN"
 "http://www.w3.org/TR/2001/REC-SVG-20010904/DTD/svg10.dtd">
<svg version="1.0" xmlns="http://www.w3.org/2000/svg"
 width="81.000000pt" height="78.000000pt" viewBox="0 0 81.000000 78.000000"
 preserveAspectRatio="xMidYMid meet" fill="#D6DCE1">
<g transform="translate(0.000000,78.000000) scale(0.100000,-0.100000)"
 >
<path d="M135 640 c-49 -49 -56 -60 -41 -66 12 -5 29 5 57 32 l40 39 -1 -248
c-1 -136 -5 -247 -10 -247 -4 0 -21 16 -37 37 -21 26 -35 34 -47 30 -22 -9
-15 -20 55 -84 l55 -52 64 64 c53 53 61 65 46 71 -12 5 -29 -5 -57 -32 l-39
-38 0 249 0 249 39 -38 c28 -27 45 -37 57 -32 15 6 8 17 -41 66 -33 33 -64 60
-70 60 -6 0 -37 -27 -70 -60z M421 631 c-35 -23 5 -31 149 -31 98 0 151 4 156
11 13 22 -23 29 -156 29 -74 0 -141 -4 -149 -9z M415 399 c-15 -24 17 -29 161
-27 125 3 149 5 149 18 0 13 -25 15 -152 18 -103 2 -154 -1 -158 -9z M415 179
c-15 -24 17 -29 161 -27 125 3 149 5 149 18 0 13 -25 15 -152 18 -103 2 -154
-1 -158 -9z"/>
</g>
</svg>
