<?xml version="1.0" standalone="no"?>
<!DOCTYPE svg PUBLIC "-//W3C//DTD SVG 20010904//EN"
 "http://www.w3.org/TR/2001/REC-SVG-20010904/DTD/svg10.dtd">
<svg version="1.0" xmlns="http://www.w3.org/2000/svg"
 width="77.000000pt" height="82.000000pt" viewBox="0 0 77.000000 82.000000"
 preserveAspectRatio="xMidYMid meet" fill="#D6DCE1">
<g transform="translate(0.000000,82.000000) scale(0.100000,-0.100000)"
 >
<path d="M140 730 c-51 -9 -60 -17 -60 -55 0 -30 15 -51 105 -152 l105 -117 0
-114 c0 -62 4 -122 10 -132 13 -24 111 -80 139 -80 29 0 43 39 41 115 -1 33
-1 94 -1 136 l1 76 105 118 c108 122 122 150 93 187 -11 14 -48 17 -258 20
-135 2 -261 1 -280 -2z m510 -45 c14 -17 6 -28 -134 -185 l-76 -85 0 -153 0
-154 -52 30 -53 29 -5 126 -5 126 -101 113 c-115 130 -116 131 -108 152 9 23
515 24 534 1z"/>
</g>
</svg>
