<?xml version="1.0" standalone="no"?>
<!DOCTYPE svg PUBLIC "-//W3C//DTD SVG 20010904//EN"
 "http://www.w3.org/TR/2001/REC-SVG-20010904/DTD/svg10.dtd">
<svg version="1.0" xmlns="http://www.w3.org/2000/svg"
 width="78.000000pt" height="82.000000pt" viewBox="0 0 78.000000 82.000000"
 preserveAspectRatio="xMidYMid meet" fill="#D6DCE1">
<g transform="translate(0.000000,82.000000) scale(0.100000,-0.100000)"
 >
<path d="M106 719 c-48 -38 -38 -64 84 -197 l109 -120 3 -129 3 -128 66 -34
c104 -54 101 -61 104 234 l0 61 108 118 c79 88 107 126 107 145 -1 66 -21 71
-308 71 -237 0 -251 -1 -276 -21z m544 -23 c0 -2 3 -11 6 -19 3 -9 -35 -59
-105 -138 l-111 -122 0 -149 c0 -81 -2 -148 -5 -148 -3 0 -28 11 -55 25 l-50
25 0 123 0 123 -105 118 c-73 81 -105 125 -105 142 l0 24 265 0 c146 0 265 -2
265 -4z M537 254 c-4 -4 7 -23 24 -42 l31 -34 -33 -34 c-26 -26 -30 -37 -21
-46 9 -9 19 -5 45 20 l33 32 32 -32 c25 -26 34 -30 44 -20 10 10 6 19 -20 44
l-32 32 32 33 c25 26 29 36 20 45 -10 10 -19 6 -44 -19 l-31 -32 -28 30 c-27
29 -40 35 -52 23z"/>
</g>
</svg>
