<?xml version="1.0" standalone="no"?>
<!DOCTYPE svg PUBLIC "-//W3C//DTD SVG 20010904//EN"
 "http://www.w3.org/TR/2001/REC-SVG-20010904/DTD/svg10.dtd">
<svg version="1.0" xmlns="http://www.w3.org/2000/svg"
 width="83.000000pt" height="82.000000pt" viewBox="0 0 83.000000 82.000000"
 preserveAspectRatio="xMidYMid meet" fill="#D6DCE1">
<g transform="translate(0.000000,82.000000) scale(0.100000,-0.100000)"
 >
<path d="M293 720 c-66 -27 -143 -99 -179 -170 -23 -46 -28 -68 -28 -135 -1
-139 69 -247 200 -307 75 -35 190 -32 266 5 245 120 258 445 23 586 -52 32
-66 35 -144 38 -68 3 -97 -1 -138 -17z m243 -41 c182 -77 229 -336 87 -474
-61 -60 -116 -80 -213 -80 -123 1 -199 44 -255 147 -27 47 -30 62 -30 138 0
91 15 133 71 199 77 92 221 121 340 70z M455 529 c-55 -28 -105 -56 -111 -63
-5 -6 -32 -57 -59 -114 -34 -73 -45 -106 -37 -114 7 -7 42 5 117 43 l107 54
58 117 c76 152 75 153 -75 77z m35 -85 l-30 -68 -35 34 c-19 19 -35 38 -35 43
0 8 122 68 128 62 2 -2 -11 -33 -28 -71z m-67 -87 c-2 -4 -31 -21 -64 -37
l-59 -31 13 33 c8 18 22 49 32 68 l17 36 33 -31 c18 -16 30 -33 28 -38z"/>
</g>
</svg>
