<?xml version="1.0" standalone="no"?>
<!DOCTYPE svg PUBLIC "-//W3C//DTD SVG 20010904//EN"
 "http://www.w3.org/TR/2001/REC-SVG-20010904/DTD/svg10.dtd">
<svg version="1.0" xmlns="http://www.w3.org/2000/svg"
 width="84.000000pt" height="85.000000pt" viewBox="0 0 84.000000 85.000000"
 preserveAspectRatio="xMidYMid meet" fill="#D6DCE1">
<g transform="translate(0.000000,85.000000) scale(0.100000,-0.100000)"
 >
<path d="M400 741 c0 -25 -5 -30 -45 -41 -98 -28 -178 -109 -204 -207 -10 -35
-16 -42 -39 -45 -38 -4 -35 -32 4 -36 29 -3 32 -7 37 -44 12 -89 105 -185 203
-209 38 -10 43 -15 46 -43 4 -42 32 -42 36 0 3 28 8 33 46 43 98 24 191 120
203 209 5 37 8 41 37 44 46 5 49 38 3 38 -33 0 -35 2 -40 40 -12 91 -89 174
-193 207 -49 15 -54 20 -54 45 0 21 -5 28 -20 28 -15 0 -20 -7 -20 -29z m0
-106 c0 -28 4 -35 20 -35 16 0 20 7 20 36 0 36 1 36 33 30 81 -16 165 -101
182 -183 6 -32 6 -33 -30 -33 -49 0 -47 -33 3 -38 35 -4 37 -10 18 -63 -20
-57 -64 -106 -119 -134 -71 -35 -85 -33 -89 13 -4 51 -32 51 -36 0 -4 -46 -18
-48 -89 -13 -69 35 -107 85 -127 168 -6 25 -4 27 27 27 38 0 48 6 40 26 -3 8
-19 14 -39 14 -19 0 -34 1 -34 3 0 2 7 26 15 53 22 75 122 162 188 164 13 0
17 -8 17 -35z M395 500 c-77 -30 -57 -143 25 -143 41 0 73 32 73 73 0 50 -53
88 -98 70z m55 -44 c6 -8 10 -25 8 -38 -6 -42 -78 -32 -78 11 0 37 46 55 70
27z"/>
</g>
</svg>
