<?xml version="1.0" standalone="no"?>
<!DOCTYPE svg PUBLIC "-//W3C//DTD SVG 20010904//EN"
 "http://www.w3.org/TR/2001/REC-SVG-20010904/DTD/svg10.dtd">
<svg version="1.0" xmlns="http://www.w3.org/2000/svg"
 width="83.000000pt" height="98.000000pt" viewBox="0 0 83.000000 98.000000"
 preserveAspectRatio="xMidYMid meet" fill="#D6DCE1">
<g transform="translate(0.000000,98.000000) scale(0.100000,-0.100000)"
 >
<path d="M124 885 c-17 -7 -34 -20 -38 -30 -3 -9 -6 -178 -6 -376 0 -346 1
-360 20 -379 19 -19 33 -20 314 -20 l295 0 20 26 c20 26 21 38 21 298 l-1 271
-105 109 -106 109 -191 3 c-140 2 -201 -1 -223 -11z m389 -52 c3 -15 3 -51 0
-80 -4 -39 -1 -59 11 -78 15 -23 22 -25 101 -25 l85 0 0 -258 c0 -187 -3 -261
-12 -270 -9 -9 -87 -12 -290 -12 -264 0 -278 1 -288 19 -15 29 -14 703 2 719
8 8 67 12 199 12 l187 0 5 -27z m122 -151 c-84 -4 -85 -4 -85 80 l1 73 71 -75
71 -75 -58 -3z M240 520 c-11 -11 -20 -28 -20 -38 0 -28 29 -62 54 -62 52 0
76 75 34 104 -30 21 -44 20 -68 -4z m58 -44 c-4 -25 -36 -34 -44 -12 -8 21 13
46 32 39 8 -3 14 -15 12 -27z M596 443 c-3 -3 -6 -27 -7 -52 l0 -46 -17 24
c-50 72 -47 72 -98 14 -51 -59 -64 -65 -64 -28 0 27 -18 33 -38 13 -19 -19
-14 -37 14 -44 23 -6 24 -8 10 -22 -14 -15 -19 -13 -49 16 -18 18 -38 32 -45
32 -12 0 -124 -112 -130 -131 -9 -25 28 -3 75 43 l53 52 40 -39 41 -40 65 73
c36 39 69 72 74 72 5 0 30 -32 55 -71 33 -49 51 -67 58 -60 7 7 7 18 -1 36 -7
14 -12 55 -12 90 0 59 -8 83 -24 68z"/>
</g>
</svg>
