<?xml version="1.0" standalone="no"?>
<!DOCTYPE svg PUBLIC "-//W3C//DTD SVG 20010904//EN"
 "http://www.w3.org/TR/2001/REC-SVG-20010904/DTD/svg10.dtd">
<svg version="1.0" xmlns="http://www.w3.org/2000/svg"
 width="81.000000pt" height="119.000000pt" viewBox="0 0 81.000000 119.000000"
 preserveAspectRatio="xMidYMid meet" fill="#D6DCE1">
<g transform="translate(0.000000,119.000000) scale(0.100000,-0.100000)"
 >
<path d="M304 1100 c-141 -4 -195 -9 -207 -19 -15 -12 -17 -52 -17 -386 0
-348 1 -373 18 -388 16 -15 52 -17 305 -17 l286 0 20 26 c20 26 21 39 21 298
l0 271 -100 106 c-55 59 -107 108 -117 110 -10 2 -104 2 -209 -1z m196 -125
c0 -113 2 -115 114 -115 l76 0 0 -264 c0 -231 -2 -265 -16 -270 -32 -12 -539
-7 -552 6 -17 17 -17 709 0 726 8 8 66 12 195 12 l183 0 0 -95z m119 -83 c-89
-4 -89 -4 -89 80 l0 72 75 -74 76 -75 -62 -3z M210 735 c0 -34 1 -35 40 -35
39 0 40 -1 40 -35 0 -34 -1 -35 -40 -35 l-40 0 0 -40 0 -40 40 0 c38 0 40 -2
40 -30 0 -25 -4 -30 -24 -30 -44 0 -56 -10 -56 -46 0 -33 1 -34 40 -34 39 0
40 1 40 35 0 33 2 35 35 35 33 0 35 -2 35 -35 0 -34 1 -35 41 -35 l40 0 -3 38
c-3 35 -5 37 -39 40 -33 3 -36 6 -35 32 1 28 4 30 39 30 36 0 37 -1 37 -35 0
-33 2 -35 35 -35 33 0 35 -2 35 -35 0 -34 1 -35 40 -35 l40 0 0 40 c0 40 0 40
-37 40 -36 0 -38 2 -40 35 -3 35 -3 35 38 35 39 0 40 1 37 33 -3 29 -6 32 -40
35 -35 3 -38 6 -38 33 0 27 2 29 40 29 l40 0 0 40 0 40 -40 0 c-39 0 -40 -1
-40 -35 0 -33 -2 -35 -35 -35 -33 0 -35 2 -35 35 0 34 -1 35 -40 35 -39 0 -40
-1 -40 -35 0 -33 -2 -35 -35 -35 -33 0 -35 2 -35 35 0 34 -1 35 -40 35 -39 0
-40 -1 -40 -35z m225 -75 c0 -28 -2 -30 -37 -30 -35 0 -38 2 -38 30 0 28 3 30
38 30 35 0 37 -2 37 -30z m-75 -70 c0 -28 -3 -30 -35 -30 -32 0 -35 2 -35 30
0 28 3 30 35 30 32 0 35 -2 35 -30z m150 0 c0 -28 -3 -30 -35 -30 -32 0 -35 2
-35 30 0 28 3 30 35 30 32 0 35 -2 35 -30z"/>
</g>
</svg>
