<?xml version="1.0" standalone="no"?>
<!DOCTYPE svg PUBLIC "-//W3C//DTD SVG 20010904//EN"
 "http://www.w3.org/TR/2001/REC-SVG-20010904/DTD/svg10.dtd">
<svg version="1.0" xmlns="http://www.w3.org/2000/svg"
 width="81.000000pt" height="97.000000pt" viewBox="0 0 81.000000 97.000000"
 preserveAspectRatio="xMidYMid meet" fill="#D6DCE1">
<g transform="translate(0.000000,97.000000) scale(0.100000,-0.100000)"
 >
<path d="M100 870 c-19 -19 -20 -33 -20 -385 0 -352 1 -366 20 -385 19 -19 33
-20 305 -20 272 0 286 1 305 20 19 19 20 33 20 300 l0 280 -97 105 -98 104
-207 1 c-195 0 -209 -1 -228 -20z m400 -97 c0 -116 6 -123 117 -123 l83 0 0
-258 c0 -187 -3 -261 -12 -270 -17 -17 -549 -17 -566 0 -17 17 -17 709 0 726
8 8 66 12 195 12 l183 0 0 -87z m120 -23 l62 -70 -71 0 -71 0 0 76 c0 41 4 73
9 70 5 -3 37 -37 71 -76z M267 370 c-32 -25 -42 -69 -27 -115 27 -81 140 -69
140 15 0 28 -3 30 -35 30 -24 0 -35 -5 -35 -15 0 -8 9 -15 20 -15 18 0 19 -3
10 -20 -13 -24 -43 -26 -61 -4 -19 23 -15 85 7 101 24 17 31 16 51 -7 22 -25
33 -25 33 -1 0 22 -35 51 -61 51 -9 0 -28 -9 -42 -20z M415 378 c-7 -25 -13
-138 -8 -158 3 -11 12 -20 19 -20 11 0 14 21 14 95 0 59 -4 95 -10 95 -6 0
-12 -6 -15 -12z M470 296 c0 -79 3 -96 15 -96 11 0 15 11 15 40 0 39 1 40 35
40 24 0 35 5 35 15 0 10 -11 15 -35 15 -28 0 -35 4 -35 19 0 16 8 20 38 23 25
2 37 8 37 18 0 11 -14 16 -52 18 l-53 3 0 -95z"/>
</g>
</svg>
