<?xml version="1.0" standalone="no"?>
<!DOCTYPE svg PUBLIC "-//W3C//DTD SVG 20010904//EN"
 "http://www.w3.org/TR/2001/REC-SVG-20010904/DTD/svg10.dtd">
<svg version="1.0" xmlns="http://www.w3.org/2000/svg"
 width="81.000000pt" height="98.000000pt" viewBox="0 0 81.000000 98.000000"
 preserveAspectRatio="xMidYMid meet" fill="#D6DCE1">
<g transform="translate(0.000000,98.000000) scale(0.100000,-0.100000)"
 >
<path d="M170 892 c-29 -2 -53 -11 -67 -24 l-23 -21 0 -364 c0 -350 1 -364 20
-383 19 -19 33 -20 305 -20 272 0 286 1 305 20 19 19 20 33 20 302 l0 281
-102 103 -103 102 -155 4 c-85 1 -175 2 -200 0z m330 -119 c0 -116 6 -123 117
-123 l83 0 0 -258 c0 -187 -3 -261 -12 -270 -9 -9 -86 -12 -285 -12 -249 0
-273 1 -281 18 -10 19 -7 705 3 722 4 6 74 10 191 10 l184 0 0 -87z m114 -18
l67 -75 -70 0 -71 0 0 75 c0 41 1 75 3 75 2 0 34 -34 71 -75z M194 516 c-3 -7
-4 -33 -2 -57 l3 -44 53 -3 52 -3 0 60 0 61 -50 0 c-34 0 -52 -5 -56 -14z m76
-46 c0 -25 -4 -30 -25 -30 -21 0 -25 5 -25 30 0 25 4 30 25 30 21 0 25 -5 25
-30z M354 506 c-3 -13 -4 -38 -2 -57 3 -33 4 -34 56 -37 l52 -3 0 60 0 61 -50
0 c-44 0 -50 -3 -56 -24z m78 -36 c4 -27 2 -30 -24 -30 -17 0 -28 5 -28 14 0
52 45 65 52 16z M514 517 c-3 -8 -4 -34 -2 -58 l3 -44 50 0 50 0 0 55 0 55
-48 3 c-34 2 -49 -1 -53 -11z m76 -47 c0 -25 -4 -30 -25 -30 -21 0 -25 5 -25
30 0 25 4 30 25 30 21 0 25 -5 25 -30z M195 317 c-4 -13 -5 -39 -3 -58 3 -34
4 -34 56 -37 l53 -3 -3 58 -3 58 -47 3 c-43 3 -48 1 -53 -21z m77 -37 c4 -27
2 -30 -24 -30 -24 0 -28 4 -28 30 0 25 4 30 24 30 19 0 25 -6 28 -30z M354
326 c-3 -7 -4 -33 -2 -57 l3 -44 53 -3 52 -3 0 60 0 61 -50 0 c-34 0 -52 -5
-56 -14z M514 327 c-3 -8 -4 -34 -2 -58 l3 -44 50 0 50 0 0 55 0 55 -48 3
c-34 2 -49 -1 -53 -11z m76 -47 c0 -25 -4 -30 -25 -30 -21 0 -25 5 -25 30 0
25 4 30 25 30 21 0 25 -5 25 -30z"/>
</g>
</svg>
