<?xml version="1.0" standalone="no"?>
<!DOCTYPE svg PUBLIC "-//W3C//DTD SVG 20010904//EN"
 "http://www.w3.org/TR/2001/REC-SVG-20010904/DTD/svg10.dtd">
<svg version="1.0" xmlns="http://www.w3.org/2000/svg"
 width="82.000000pt" height="98.000000pt" viewBox="0 0 82.000000 98.000000"
 preserveAspectRatio="xMidYMid meet" fill="#D6DCE1">
<g transform="translate(0.000000,98.000000) scale(0.100000,-0.100000)"
 >
<path d="M134 890 c-53 -21 -54 -27 -54 -406 0 -340 1 -352 21 -378 l20 -26
289 0 289 0 20 26 c20 26 21 38 21 298 l0 271 -106 113 -106 112 -186 -1
c-103 0 -197 -4 -208 -9z m376 -123 c0 -59 4 -97 12 -105 7 -7 44 -12 95 -12
l83 0 0 -258 c0 -187 -3 -261 -12 -270 -17 -17 -539 -17 -556 0 -17 17 -17
709 0 726 8 8 66 12 195 12 l183 0 0 -93z m118 -85 c-88 -4 -88 -4 -88 83 l0
76 74 -78 74 -78 -60 -3z M185 380 c-9 -15 3 -30 26 -30 17 0 19 -7 19 -75 0
-68 2 -75 20 -75 18 0 20 7 20 78 0 75 1 79 23 78 13 -1 22 5 22 14 0 18 -119
28 -130 10z M400 296 c0 -79 3 -96 15 -96 11 0 15 11 15 40 0 39 1 40 36 40
45 0 42 24 -4 28 -26 3 -32 8 -32 27 0 22 4 24 38 22 27 -1 37 2 37 13 0 11
-14 16 -52 18 l-53 3 0 -95z M530 295 c0 -78 3 -95 15 -95 11 0 15 11 15 40 0
39 1 40 35 40 24 0 35 5 35 15 0 10 -11 15 -35 15 -28 0 -35 4 -35 20 0 16 7
20 34 20 20 0 36 6 39 14 8 21 -2 26 -55 26 l-48 0 0 -95z M340 290 c0 -73 3
-90 15 -90 12 0 15 17 15 90 0 73 -3 90 -15 90 -12 0 -15 -17 -15 -90z"/>
</g>
</svg>
