<?xml version="1.0" standalone="no"?>
<!DOCTYPE svg PUBLIC "-//W3C//DTD SVG 20010904//EN"
 "http://www.w3.org/TR/2001/REC-SVG-20010904/DTD/svg10.dtd">
<svg version="1.0" xmlns="http://www.w3.org/2000/svg"
 width="82.000000pt" height="119.000000pt" viewBox="0 0 82.000000 119.000000"
 preserveAspectRatio="xMidYMid meet" fill="#D6DCE1">
<g transform="translate(0.000000,119.000000) scale(0.100000,-0.100000)"
 >
<path d="M134 1100 c-53 -21 -54 -27 -54 -406 0 -340 1 -352 21 -378 l20 -26
284 0 c254 0 285 2 304 17 20 17 22 28 23 148 1 72 1 200 0 285 l-3 155 -101
105 -101 105 -186 2 c-102 0 -196 -3 -207 -7z m366 -117 c0 -116 6 -123 117
-123 l83 0 0 -258 c0 -187 -3 -261 -12 -270 -14 -14 -534 -17 -556 -3 -11 6
-13 80 -12 366 0 197 3 362 6 366 3 5 88 9 190 9 l184 0 0 -87z m126 -91 c-85
-4 -86 -4 -86 80 l1 73 72 -75 72 -75 -59 -3z M173 558 c12 -89 29 -149 40
-145 7 2 17 28 23 58 11 56 16 52 29 -24 4 -23 11 -37 18 -34 14 4 54 174 43
184 -13 14 -29 -17 -34 -69 l-6 -53 -11 60 c-7 41 -15 60 -25 60 -10 0 -18
-19 -25 -60 l-11 -60 -8 49 c-10 61 -15 76 -28 76 -7 0 -8 -16 -5 -42z M340
506 l0 -96 45 0 c33 0 45 4 45 15 0 10 -10 15 -30 15 -25 0 -30 4 -30 25 0 20
5 25 25 25 16 0 25 6 25 15 0 9 -10 15 -26 15 -21 0 -25 4 -22 23 2 16 10 22
28 22 45 1 30 30 -17 33 l-43 3 0 -95z M444 587 c-3 -8 -4 -49 -2 -93 3 -78 3
-79 30 -82 41 -5 68 14 68 47 0 15 -3 31 -7 35 -4 4 -6 24 -4 46 2 30 -2 41
-18 49 -27 15 -61 14 -67 -2z m55 -26 c17 -11 7 -41 -14 -41 -9 0 -15 9 -15
25 0 27 6 30 29 16z m9 -93 c-5 -34 -38 -37 -38 -4 0 20 5 26 21 26 15 0 20
-5 17 -22z M554 587 c-10 -27 1 -170 14 -175 8 -2 12 7 12 27 0 21 5 31 15 31
23 0 55 37 55 65 0 48 -81 91 -96 52z m66 -53 c0 -13 -2 -24 -4 -24 -2 0 -11
-3 -20 -6 -12 -5 -16 1 -16 23 0 16 3 32 6 36 12 12 34 -6 34 -29z M358 83 c7
-3 16 -2 19 1 4 3 -2 6 -13 5 -11 0 -14 -3 -6 -6z"/>
</g>
</svg>
