<?xml version="1.0" standalone="no"?>
<!DOCTYPE svg PUBLIC "-//W3C//DTD SVG 20010904//EN"
 "http://www.w3.org/TR/2001/REC-SVG-20010904/DTD/svg10.dtd">
<svg version="1.0" xmlns="http://www.w3.org/2000/svg"
 width="82.000000pt" height="98.000000pt" viewBox="0 0 82.000000 98.000000"
 preserveAspectRatio="xMidYMid meet" fill="#D6DCE1">
<g transform="translate(0.000000,98.000000) scale(0.100000,-0.100000)"
 >
<path d="M138 891 c-7 -2 -23 -13 -35 -24 l-23 -20 0 -362 0 -362 23 -21 c23
-22 29 -22 309 -22 277 0 285 1 304 21 18 19 19 42 22 295 l3 275 -82 87 c-45
48 -92 98 -105 111 -22 23 -25 24 -213 25 -105 1 -196 -1 -203 -3z m372 -124
c0 -59 4 -97 12 -105 7 -7 44 -12 95 -12 l83 0 0 -258 c0 -187 -3 -261 -12
-270 -17 -17 -539 -17 -556 0 -18 18 -17 724 1 731 6 3 94 6 195 6 l182 1 0
-93z m151 -59 l20 -28 -70 0 -71 0 0 77 0 77 51 -49 c28 -28 60 -62 70 -77z
M528 505 c-17 -37 3 -75 40 -75 35 0 52 16 52 50 0 34 -17 50 -52 50 -21 0
-32 -7 -40 -25z m66 -20 c3 -9 -1 -18 -10 -22 -19 -7 -39 11 -30 26 10 16 33
13 40 -4z M251 318 c-39 -45 -71 -85 -71 -90 0 -24 35 0 90 62 l62 70 69 -63
c39 -34 74 -63 79 -65 11 -4 150 106 150 119 0 22 -22 14 -78 -31 -33 -28 -64
-50 -67 -50 -4 0 -39 29 -77 65 -39 36 -74 65 -78 65 -5 0 -40 -37 -79 -82z"/>
</g>
</svg>
