<?xml version="1.0" standalone="no"?>
<!DOCTYPE svg PUBLIC "-//W3C//DTD SVG 20010904//EN"
 "http://www.w3.org/TR/2001/REC-SVG-20010904/DTD/svg10.dtd">
<svg version="1.0" xmlns="http://www.w3.org/2000/svg"
 width="83.000000pt" height="97.000000pt" viewBox="0 0 83.000000 97.000000"
 preserveAspectRatio="xMidYMid meet" fill="#D6DCE1">
<g transform="translate(0.000000,97.000000) scale(0.100000,-0.100000)"
 >
<path d="M105 865 l-25 -24 0 -354 c0 -334 1 -356 19 -378 l19 -24 297 0 297
0 19 24 c18 22 19 42 19 293 l0 270 -102 109 -103 109 -208 0 c-208 0 -208 0
-232 -25z m413 -99 c2 -50 8 -96 14 -103 7 -9 38 -13 97 -13 l86 0 -1 -255 c0
-151 -5 -260 -11 -266 -6 -6 -119 -8 -294 -7 l-284 3 -3 354 c-2 256 1 357 9
368 10 11 49 13 198 11 l186 -3 3 -89z m112 -11 l74 -75 -77 0 -77 0 0 75 c0
41 1 75 3 75 1 0 36 -34 77 -75z M180 300 c0 -73 3 -90 15 -90 10 0 15 10 15
30 0 20 5 30 15 30 8 0 21 -13 30 -30 17 -32 53 -44 40 -12 -15 34 -17 60 -6
66 16 10 13 62 -5 80 -9 10 -33 16 -60 16 l-44 0 0 -90z m81 44 c11 -14 10
-18 -6 -30 -26 -19 -39 -13 -43 19 -3 21 1 27 16 27 11 0 26 -7 33 -16z M339
300 c-24 -82 -24 -90 -9 -90 10 0 20 9 23 20 4 14 14 20 35 20 21 0 31 -6 35
-20 3 -11 13 -20 22 -20 18 0 18 -4 -18 113 -17 54 -25 67 -41 67 -18 0 -25
-14 -47 -90z m61 -7 c0 -7 -7 -13 -16 -13 -11 0 -14 5 -10 16 3 9 6 21 6 27 0
16 20 -14 20 -30z M454 373 c3 -10 12 -51 21 -90 13 -58 20 -73 35 -73 13 0
21 14 32 57 l14 57 13 -57 c21 -87 43 -79 70 28 25 100 25 95 6 95 -13 0 -35
-55 -35 -87 0 -33 -20 -8 -26 33 -11 78 -47 70 -60 -13 -8 -54 -20 -47 -29 17
-6 41 -11 50 -27 50 -14 0 -18 -5 -14 -17z"/>
</g>
</svg>
