<?xml version="1.0" standalone="no"?>
<!DOCTYPE svg PUBLIC "-//W3C//DTD SVG 20010904//EN"
 "http://www.w3.org/TR/2001/REC-SVG-20010904/DTD/svg10.dtd">
<svg version="1.0" xmlns="http://www.w3.org/2000/svg"
 width="82.000000pt" height="97.000000pt" viewBox="0 0 82.000000 97.000000"
 preserveAspectRatio="xMidYMid meet" fill="#D6DCE1">
<g transform="translate(0.000000,97.000000) scale(0.100000,-0.100000)"
 >
<path d="M102 867 c-22 -23 -22 -28 -22 -381 l0 -357 25 -24 24 -25 270 0
c177 0 278 4 294 11 44 20 47 44 47 322 l-1 262 -104 108 -104 107 -204 0
c-200 0 -204 0 -225 -23z m406 -101 c2 -50 8 -96 14 -103 7 -9 38 -13 94 -13
l84 0 0 -254 c0 -203 -3 -256 -14 -265 -9 -8 -94 -11 -287 -9 l-274 3 -3 355
c-2 327 -1 356 15 368 13 9 63 12 193 10 l175 -3 3 -89z m118 -84 c-85 -4 -86
-4 -86 80 l0 73 73 -75 72 -75 -59 -3z M180 300 l0 -90 48 0 c57 0 77 16 87
71 8 41 -13 92 -40 103 -9 3 -34 6 -56 6 l-39 0 0 -90z m88 48 c16 -16 16 -80
0 -96 -33 -33 -58 0 -58 79 0 24 4 29 23 29 13 0 28 -5 35 -12z M340 300 c0
-73 3 -90 15 -90 12 0 15 13 15 58 l0 57 33 -55 c52 -87 67 -80 67 29 0 74 -3
91 -15 91 -12 0 -15 -13 -15 -57 l-1 -58 -35 58 c-52 83 -64 77 -64 -33z M529
380 c-25 -15 -42 -65 -35 -103 8 -43 38 -70 77 -70 36 0 55 17 64 61 6 31 6
32 -30 32 -25 0 -35 -4 -32 -12 2 -7 10 -12 17 -10 6 1 10 -5 8 -15 -4 -22
-47 -30 -59 -11 -13 20 -11 82 3 96 17 17 47 15 54 -3 8 -19 34 -20 34 -1 0
37 -62 59 -101 36z"/>
</g>
</svg>
