<?xml version="1.0" standalone="no"?>
<!DOCTYPE svg PUBLIC "-//W3C//DTD SVG 20010904//EN"
 "http://www.w3.org/TR/2001/REC-SVG-20010904/DTD/svg10.dtd">
<svg version="1.0" xmlns="http://www.w3.org/2000/svg"
 width="92.000000pt" height="81.000000pt" viewBox="0 0 92.000000 81.000000"
 preserveAspectRatio="xMidYMid meet" fill="#D6DCE1">
<g transform="translate(0.000000,81.000000) scale(0.100000,-0.100000)"
 >
<path d="M339 711 c-13 -10 -28 -34 -34 -52 -15 -42 -40 -50 -49 -14 -6 24
-11 26 -49 23 -35 -2 -43 -7 -45 -25 -2 -14 -10 -23 -21 -23 -10 0 -27 -10
-39 -23 -21 -22 -22 -31 -22 -246 l0 -222 25 -24 24 -25 331 0 331 0 24 25 25
24 0 221 0 221 -25 24 c-21 22 -33 25 -97 25 l-74 0 -14 42 c-20 58 -44 68
-166 68 -85 0 -106 -3 -125 -19z m260 -72 c16 -52 31 -59 138 -59 40 0 54 -4
61 -17 10 -22 8 -414 -2 -431 -5 -9 -94 -12 -336 -12 l-329 0 -12 22 c-9 16
-10 77 -6 223 6 173 9 201 24 212 9 7 25 11 35 7 15 -4 18 0 18 25 0 21 5 31
15 31 11 0 15 -11 15 -41 0 -36 -2 -40 -20 -34 -14 5 -20 2 -20 -9 0 -25 60
-21 67 4 3 11 17 23 32 26 46 10 48 12 55 45 11 57 18 60 140 57 l111 -3 14
-46z M380 513 c-94 -49 -118 -179 -47 -260 56 -64 134 -80 207 -43 66 34 85
71 86 173 l2 88 -41 27 c-52 35 -154 42 -207 15z m145 -30 c37 -18 75 -79 75
-121 0 -74 -58 -132 -132 -132 -86 0 -138 49 -138 130 0 105 100 168 195 123z
M690 514 c-11 -12 -10 -18 3 -32 16 -15 18 -15 34 0 13 14 14 20 3 32 -7 9
-16 16 -20 16 -4 0 -13 -7 -20 -16z"/>
</g>
</svg>
