<?xml version="1.0" standalone="no"?>
<!DOCTYPE svg PUBLIC "-//W3C//DTD SVG 20010904//EN"
 "http://www.w3.org/TR/2001/REC-SVG-20010904/DTD/svg10.dtd">
<svg version="1.0" xmlns="http://www.w3.org/2000/svg"
 width="93.000000pt" height="81.000000pt" viewBox="0 0 93.000000 81.000000"
 preserveAspectRatio="xMidYMid meet" fill="#D6DCE1">
<g transform="translate(0.000000,81.000000) scale(0.100000,-0.100000)"
 >
<path d="M343 715 c-13 -9 -28 -34 -34 -55 -9 -29 -18 -40 -32 -40 -11 0 -17
3 -14 6 3 4 2 15 -4 26 -15 28 -80 21 -94 -9 -5 -13 -16 -23 -23 -23 -7 0 -24
-11 -37 -25 -25 -24 -25 -24 -25 -235 0 -214 4 -240 39 -267 22 -17 649 -18
684 -2 42 19 47 47 47 260 0 264 -2 269 -129 269 l-68 0 -17 44 c-10 27 -26
47 -42 55 -39 17 -225 14 -251 -4z m244 -37 c6 -7 16 -30 22 -50 13 -41 13
-41 103 -38 102 3 98 12 98 -234 0 -169 -3 -216 -14 -225 -9 -8 -108 -11 -342
-9 l-329 3 0 225 0 225 38 3 c34 3 37 6 37 33 0 19 5 29 15 29 25 0 20 -56 -6
-63 -24 -6 -21 -30 4 -35 11 -2 21 6 27 22 8 22 16 26 49 26 36 0 40 3 46 33
15 67 15 67 134 67 75 0 112 -4 118 -12z M430 531 c-80 -16 -130 -82 -130
-173 0 -152 176 -223 288 -115 40 39 55 92 46 163 -5 45 -12 59 -40 84 -19 16
-44 32 -57 34 -56 12 -74 13 -107 7z m111 -54 c47 -31 61 -62 56 -125 -11
-159 -235 -171 -262 -13 -19 114 111 202 206 138z M694 516 c-9 -24 4 -48 23
-44 12 2 18 12 18 28 0 29 -32 41 -41 16z"/>
</g>
</svg>
