<?xml version="1.0" standalone="no"?>
<!DOCTYPE svg PUBLIC "-//W3C//DTD SVG 20010904//EN"
 "http://www.w3.org/TR/2001/REC-SVG-20010904/DTD/svg10.dtd">
<svg version="1.0" xmlns="http://www.w3.org/2000/svg"
 width="93.000000pt" height="108.000000pt" viewBox="0 0 93.000000 108.000000"
 preserveAspectRatio="xMidYMid meet" fill="#D6DCE1">
<g transform="translate(0.000000,108.000000) scale(0.100000,-0.100000)"
 >
<path d="M353 988 c-12 -6 -30 -30 -39 -54 -19 -49 -34 -55 -49 -21 -7 16 -20
23 -47 25 -32 3 -40 -1 -50 -22 -6 -14 -17 -26 -25 -26 -8 0 -25 -11 -38 -25
-25 -24 -25 -24 -25 -234 0 -223 5 -251 47 -270 16 -7 131 -11 344 -11 l321 0
29 29 29 29 0 206 c0 129 -4 214 -11 229 -16 35 -44 46 -123 49 -69 3 -69 3
-81 37 -20 60 -44 71 -159 70 -55 0 -111 -5 -123 -11z m234 -40 c6 -7 16 -29
22 -49 14 -43 28 -49 122 -49 52 0 68 -4 73 -16 12 -31 7 -419 -6 -432 -9 -9
-98 -12 -339 -12 -289 0 -328 2 -333 16 -3 9 -6 110 -6 225 l0 209 25 10 c14
5 32 7 40 4 11 -5 15 1 15 25 0 21 5 31 15 31 10 0 15 -10 15 -29 0 -16 -6
-31 -15 -35 -22 -8 -18 -36 4 -36 13 0 21 8 23 23 2 18 10 23 44 25 39 3 42 5
54 45 7 23 17 45 24 49 20 13 213 9 223 -4z M419 801 c-110 -35 -157 -175 -90
-268 85 -117 263 -84 300 55 13 49 0 146 -24 172 -28 31 -139 55 -186 41z
m118 -51 c76 -46 85 -157 18 -218 -35 -32 -40 -34 -96 -30 -67 5 -101 29 -120
85 -39 118 94 227 198 163z M691 787 c-8 -10 -7 -19 4 -33 13 -18 15 -18 31
-2 18 18 13 48 -9 48 -8 0 -20 -6 -26 -13z M473 83 c9 -2 25 -2 35 0 9 3 1 5
-18 5 -19 0 -27 -2 -17 -5z M603 83 c9 -2 23 -2 30 0 6 3 -1 5 -18 5 -16 0
-22 -2 -12 -5z"/>
</g>
</svg>
