<?xml version="1.0" standalone="no"?>
<!DOCTYPE svg PUBLIC "-//W3C//DTD SVG 20010904//EN"
 "http://www.w3.org/TR/2001/REC-SVG-20010904/DTD/svg10.dtd">
<svg version="1.0" xmlns="http://www.w3.org/2000/svg"
 width="93.000000pt" height="108.000000pt" viewBox="0 0 93.000000 108.000000"
 preserveAspectRatio="xMidYMid meet" fill="#D6DCE1">
<g transform="translate(0.000000,108.000000) scale(0.100000,-0.100000)"
 >
<path d="M347 980 c-14 -11 -31 -36 -37 -55 -14 -41 -35 -46 -44 -9 -6 23 -11
25 -49 22 -34 -2 -43 -7 -45 -24 -2 -13 -14 -23 -35 -30 -52 -15 -57 -37 -57
-261 0 -215 5 -243 47 -262 16 -7 132 -11 349 -11 l325 0 24 25 25 24 0 221 0
221 -25 24 c-21 22 -33 25 -99 25 l-74 0 -12 35 c-21 62 -48 75 -165 75 -87 0
-106 -3 -128 -20z m247 -42 c8 -13 18 -35 21 -50 8 -31 26 -36 130 -41 l60 -2
0 -225 0 -225 -329 -3 c-234 -2 -333 1 -342 9 -11 9 -14 55 -14 214 0 112 3
210 6 219 3 8 21 18 40 22 27 5 34 11 34 30 0 15 6 24 15 24 20 0 20 -47 -1
-67 -10 -10 -12 -19 -5 -26 15 -15 41 -1 41 22 0 16 8 20 42 23 39 3 43 6 51
38 15 58 20 60 133 60 96 0 105 -2 118 -22z M435 801 c-47 -12 -72 -28 -102
-68 -39 -51 -40 -142 -3 -196 71 -105 229 -98 288 14 20 37 22 54 18 113 -6
86 -33 120 -103 131 -25 4 -51 8 -57 10 -6 1 -24 0 -41 -4z m95 -46 c68 -35
93 -128 53 -196 -37 -62 -113 -79 -185 -42 -52 26 -76 122 -45 183 30 60 116
87 177 55z M694 786 c-8 -21 13 -46 32 -39 20 8 13 47 -9 51 -9 2 -20 -4 -23
-12z"/>
</g>
</svg>
