<?xml version="1.0" standalone="no"?>
<!DOCTYPE svg PUBLIC "-//W3C//DTD SVG 20010904//EN"
 "http://www.w3.org/TR/2001/REC-SVG-20010904/DTD/svg10.dtd">
<svg version="1.0" xmlns="http://www.w3.org/2000/svg"
 width="93.000000pt" height="81.000000pt" viewBox="0 0 93.000000 81.000000"
 preserveAspectRatio="xMidYMid meet" fill="#D6DCE1">
<g transform="translate(0.000000,81.000000) scale(0.100000,-0.100000)"
 >
<path d="M339 711 c-13 -10 -28 -34 -34 -52 -14 -41 -42 -51 -47 -17 -2 19
-10 23 -45 26 -38 3 -43 1 -49 -22 -3 -14 -12 -26 -19 -26 -7 0 -24 -9 -39
-21 l-26 -20 0 -229 0 -229 26 -20 c26 -20 38 -21 356 -21 l330 0 29 29 29 29
0 210 0 210 -26 31 c-24 29 -29 31 -99 31 l-74 0 -20 44 c-10 24 -28 49 -39
55 -12 6 -68 11 -125 11 -88 0 -109 -3 -128 -19z m262 -71 c18 -50 39 -58 145
-59 38 -1 54 -5 58 -17 12 -31 7 -419 -6 -432 -9 -9 -98 -12 -340 -12 -313 0
-328 1 -338 19 -15 30 -13 416 2 429 7 5 28 13 46 17 26 5 32 11 32 32 0 15 5
23 13 20 13 -4 14 -27 2 -69 -6 -24 -4 -28 15 -28 16 0 21 5 18 23 -3 19 2 22
40 25 29 2 42 8 42 18 0 8 7 30 15 50 l14 35 113 -3 112 -3 17 -45z M373 509
c-63 -40 -95 -127 -73 -194 36 -108 150 -156 245 -102 66 37 86 78 84 166 -2
73 -3 77 -36 107 -54 50 -162 61 -220 23z m156 -27 c59 -29 89 -119 60 -175
-48 -94 -154 -110 -225 -36 -25 26 -29 38 -29 89 0 51 4 63 30 90 50 53 103
64 164 32z M697 523 c-11 -10 -8 -41 4 -49 16 -9 43 21 36 40 -7 16 -28 21
-40 9z"/>
</g>
</svg>
