<?xml version="1.0" standalone="no"?>
<!DOCTYPE svg PUBLIC "-//W3C//DTD SVG 20010904//EN"
 "http://www.w3.org/TR/2001/REC-SVG-20010904/DTD/svg10.dtd">
<svg version="1.0" xmlns="http://www.w3.org/2000/svg"
 width="94.000000pt" height="81.000000pt" viewBox="0 0 94.000000 81.000000"
 preserveAspectRatio="xMidYMid meet" fill="#D6DCE1">
<g transform="translate(0.000000,81.000000) scale(0.100000,-0.100000)"
 >
<path d="M348 720 c-9 -6 -24 -30 -34 -55 -19 -50 -50 -62 -56 -22 -2 18 -10
23 -45 25 -38 3 -43 1 -49 -22 -4 -15 -13 -26 -23 -26 -10 0 -27 -10 -39 -23
-21 -22 -22 -31 -22 -244 0 -202 2 -223 19 -244 l19 -24 329 -3 c180 -2 338 0
350 3 12 3 32 15 43 27 19 20 20 35 20 240 l0 219 -25 24 c-21 22 -33 25 -99
25 l-74 0 -11 32 c-25 70 -42 78 -170 78 -64 0 -124 -5 -133 -10z m250 -42 c6
-7 14 -29 19 -48 l9 -35 84 -3 c46 -2 90 -8 97 -14 18 -15 19 -428 1 -446 -9
-9 -99 -12 -345 -12 -324 0 -333 0 -343 20 -7 14 -10 90 -8 221 3 185 5 202
22 215 11 8 30 14 43 14 18 0 23 6 23 25 0 16 6 25 15 25 9 0 15 -9 15 -25 0
-15 -5 -24 -12 -23 -8 2 -14 -9 -16 -24 -2 -18 1 -28 10 -28 23 0 41 18 35 34
-5 13 1 16 38 16 43 0 43 0 60 50 l17 50 113 0 c78 0 116 -4 123 -12z M416
530 c-100 -30 -150 -175 -91 -263 84 -123 275 -92 314 51 15 51 -5 145 -36
174 -40 37 -129 55 -187 38z m120 -46 c71 -34 96 -129 51 -195 -28 -42 -60
-59 -115 -59 -84 0 -134 48 -135 130 -2 106 101 170 199 124z M712 531 c-19
-11 -11 -45 11 -49 9 -2 20 4 23 13 9 21 -16 47 -34 36z"/>
</g>
</svg>
