<?xml version="1.0" standalone="no"?>
<!DOCTYPE svg PUBLIC "-//W3C//DTD SVG 20010904//EN"
 "http://www.w3.org/TR/2001/REC-SVG-20010904/DTD/svg10.dtd">
<svg version="1.0" xmlns="http://www.w3.org/2000/svg"
 width="94.000000pt" height="81.000000pt" viewBox="0 0 94.000000 81.000000"
 preserveAspectRatio="xMidYMid meet" fill="#D6DCE1">
<g transform="translate(0.000000,81.000000) scale(0.100000,-0.100000)"
 >
<path d="M347 719 c-10 -6 -27 -31 -37 -55 -22 -51 -32 -54 -48 -18 -10 21
-18 25 -50 22 -27 -2 -40 -9 -47 -25 -5 -13 -17 -23 -26 -23 -8 0 -25 -10 -37
-23 -21 -22 -22 -31 -22 -246 l0 -222 25 -24 24 -25 336 0 337 0 29 29 29 29
0 215 c0 266 3 260 -121 267 -81 5 -83 5 -92 35 -22 68 -38 75 -166 75 -64 0
-124 -5 -134 -11z m250 -41 c6 -7 16 -30 22 -50 l13 -38 74 0 c121 0 114 14
114 -233 0 -152 -3 -216 -12 -225 -9 -9 -99 -12 -345 -12 -318 0 -333 1 -343
19 -6 12 -10 100 -10 217 0 218 4 234 62 234 23 0 28 4 28 25 0 16 6 25 15 25
10 0 15 -10 15 -30 0 -19 -5 -30 -14 -30 -20 0 -31 -19 -18 -32 15 -15 52 1
52 23 0 15 7 19 39 19 33 0 40 4 45 25 20 78 14 75 140 75 79 0 117 -4 123
-12z M426 529 c-86 -20 -133 -92 -124 -188 18 -188 289 -205 338 -21 13 49 -5
153 -31 176 -16 14 -111 45 -134 43 -5 -1 -27 -5 -49 -10z m125 -52 c42 -28
65 -87 55 -140 -18 -97 -120 -138 -216 -87 -31 17 -63 94 -56 135 18 96 136
146 217 92z M704 515 c-4 -9 -2 -21 4 -27 15 -15 44 -1 40 19 -4 23 -36 29
-44 8z"/>
</g>
</svg>
