<?xml version="1.0" standalone="no"?>
<!DOCTYPE svg PUBLIC "-//W3C//DTD SVG 20010904//EN"
 "http://www.w3.org/TR/2001/REC-SVG-20010904/DTD/svg10.dtd">
<svg version="1.0" xmlns="http://www.w3.org/2000/svg"
 width="94.000000pt" height="81.000000pt" viewBox="0 0 94.000000 81.000000"
 preserveAspectRatio="xMidYMid meet" fill="#D6DCE1">
<g transform="translate(0.000000,81.000000) scale(0.100000,-0.100000)"
 >
<path d="M342 707 c-12 -13 -27 -37 -33 -55 -13 -38 -34 -42 -43 -6 -6 23 -11
25 -49 22 -32 -2 -44 -8 -52 -25 -5 -13 -17 -23 -27 -23 -9 0 -26 -12 -37 -26
-20 -25 -21 -39 -21 -240 0 -117 3 -220 6 -229 16 -41 48 -45 384 -45 336 0
368 4 384 45 3 9 6 112 6 229 0 201 -1 215 -21 240 -19 24 -26 26 -99 26 l-79
0 -12 41 c-19 62 -36 69 -169 69 -109 0 -118 -2 -138 -23z m277 -69 l15 -48
82 0 c54 0 85 -4 92 -13 7 -8 12 -93 14 -225 3 -180 1 -214 -12 -222 -9 -6
-150 -9 -350 -7 l-335 2 -3 219 c-3 236 -1 246 49 246 24 0 29 4 29 25 0 16 6
25 15 25 24 0 20 -56 -5 -63 -26 -7 -26 -24 0 -32 25 -8 51 11 44 30 -4 10 6
15 37 17 40 3 44 6 52 38 15 59 19 61 145 58 l116 -3 15 -47z M417 526 c-50
-18 -76 -42 -98 -91 -65 -142 72 -289 218 -234 40 15 91 67 104 106 12 38 3
150 -14 174 -35 47 -141 70 -210 45z m118 -40 c52 -22 77 -69 72 -135 -3 -47
-9 -59 -40 -88 -32 -28 -44 -33 -88 -33 -89 0 -139 50 -139 139 0 31 7 49 32
77 49 55 97 67 163 40z M703 514 c-3 -8 -1 -20 5 -26 16 -16 42 -2 42 22 0 24
-38 28 -47 4z"/>
</g>
</svg>
