<?xml version="1.0" standalone="no"?>
<!DOCTYPE svg PUBLIC "-//W3C//DTD SVG 20010904//EN"
 "http://www.w3.org/TR/2001/REC-SVG-20010904/DTD/svg10.dtd">
<svg version="1.0" xmlns="http://www.w3.org/2000/svg"
 width="94.000000pt" height="81.000000pt" viewBox="0 0 94.000000 81.000000"
 preserveAspectRatio="xMidYMid meet" fill="#D6DCE1">
<g transform="translate(0.000000,81.000000) scale(0.100000,-0.100000)"
 >
<path d="M348 720 c-9 -6 -24 -30 -34 -55 -19 -50 -39 -58 -48 -19 -6 23 -11
25 -49 22 -32 -2 -44 -8 -52 -25 -5 -13 -18 -23 -27 -23 -10 0 -27 -9 -38 -20
-19 -19 -20 -33 -20 -244 0 -205 2 -226 19 -247 l19 -24 341 -3 342 -3 29 30
30 29 0 207 c0 273 0 272 -139 277 -62 3 -65 4 -74 33 -22 68 -38 75 -166 75
-64 0 -124 -5 -133 -10z m263 -80 l17 -45 83 -3 c46 -2 89 -8 96 -14 18 -15
19 -428 1 -446 -9 -9 -99 -12 -345 -12 -318 0 -333 1 -343 19 -15 29 -13 390
3 421 18 36 54 39 67 5 12 -33 50 -31 65 3 7 16 18 22 42 22 29 0 33 4 48 50
l17 51 116 -3 116 -3 17 -45z m-381 -30 c0 -22 -5 -30 -18 -30 -15 0 -18 6
-14 30 2 17 10 30 18 30 9 0 14 -11 14 -30z M423 531 c-51 -13 -78 -36 -102
-85 -42 -91 -14 -188 67 -234 128 -72 294 52 253 189 -6 20 -11 46 -11 58 0
48 -126 92 -207 72z m112 -45 c63 -27 91 -108 62 -179 -41 -96 -196 -105 -243
-14 -64 121 53 246 181 193z M711 526 c-16 -19 -7 -46 14 -46 22 0 30 29 13
46 -13 13 -16 13 -27 0z"/>
</g>
</svg>
