<?xml version="1.0" standalone="no"?>
<!DOCTYPE svg PUBLIC "-//W3C//DTD SVG 20010904//EN"
 "http://www.w3.org/TR/2001/REC-SVG-20010904/DTD/svg10.dtd">
<svg version="1.0" xmlns="http://www.w3.org/2000/svg"
 width="82.000000pt" height="98.000000pt" viewBox="0 0 82.000000 98.000000"
 preserveAspectRatio="xMidYMid meet" fill="#D6DCE1">
<g transform="translate(0.000000,98.000000) scale(0.100000,-0.100000)"
 >
<path d="M140 889 c-61 -13 -60 -8 -60 -400 0 -337 1 -358 19 -380 l19 -24
287 1 c279 2 288 3 309 23 20 21 21 31 23 275 1 139 -1 265 -5 279 -4 14 -51
70 -104 125 l-98 99 -177 5 c-98 2 -194 1 -213 -3z m360 -112 c0 -119 8 -127
116 -127 l84 0 0 -253 c0 -183 -3 -256 -12 -265 -18 -18 -551 -17 -566 1 -14
17 -15 683 -1 709 9 16 27 18 194 18 l185 0 0 -83z m124 -95 c-83 -4 -84 -4
-84 80 l1 73 70 -75 70 -75 -57 -3z M200 300 c0 -73 3 -90 15 -90 10 0 15 10
15 30 0 26 4 30 28 30 35 0 62 27 62 62 0 36 -29 58 -78 58 l-42 0 0 -90z m84
45 c9 -25 -4 -45 -30 -45 -20 0 -24 5 -24 30 0 25 4 30 24 30 13 0 26 -7 30
-15z M356 374 c-32 -31 -20 -63 30 -84 26 -12 44 -25 42 -33 -7 -19 -38 -20
-59 -2 -18 17 -19 17 -25 1 -9 -24 17 -47 54 -48 40 -1 62 17 62 52 0 31 -12
43 -54 57 -17 5 -32 15 -34 21 -6 18 28 27 49 14 37 -23 53 -8 23 22 -8 9 -28
16 -44 16 -16 0 -36 -7 -44 -16z M490 300 l0 -90 45 0 c60 0 85 27 85 90 0 61
-28 90 -88 90 l-42 0 0 -90z m74 54 c20 -8 31 -66 17 -93 -7 -13 -22 -21 -36
-21 -24 0 -25 3 -25 60 0 62 6 69 44 54z"/>
</g>
</svg>
