<?xml version="1.0" standalone="no"?>
<!DOCTYPE svg PUBLIC "-//W3C//DTD SVG 20010904//EN"
 "http://www.w3.org/TR/2001/REC-SVG-20010904/DTD/svg10.dtd">
<svg version="1.0" xmlns="http://www.w3.org/2000/svg"
 width="81.000000pt" height="98.000000pt" viewBox="0 0 81.000000 98.000000"
 preserveAspectRatio="xMidYMid meet" fill="#D6DCE1">
<g transform="translate(0.000000,98.000000) scale(0.100000,-0.100000)"
 >
<path d="M124 885 c-17 -7 -34 -20 -38 -30 -3 -9 -6 -176 -6 -370 0 -333 1
-354 19 -376 l19 -24 285 0 c266 0 286 1 306 19 20 19 21 27 21 299 l0 280
-103 104 -102 104 -185 4 c-139 3 -193 0 -216 -10z m376 -112 c0 -116 6 -123
117 -123 l83 0 0 -253 c0 -183 -3 -256 -12 -265 -17 -17 -549 -17 -566 0 -17
17 -17 699 0 716 8 8 66 12 195 12 l183 0 0 -87z m142 -45 l40 -48 -71 0 -71
0 0 77 0 77 31 -30 c17 -16 49 -50 71 -76z M419 453 c-12 -32 -69 -227 -69
-237 0 -3 6 -6 14 -6 11 0 77 183 88 244 5 31 -21 30 -33 -1z M243 393 c-29
-20 -53 -42 -53 -49 0 -11 100 -94 114 -94 2 0 6 6 9 14 3 8 -12 26 -39 46
l-45 32 46 34 c25 20 43 39 40 45 -9 14 -16 11 -72 -28z M496 421 c-6 -8 22
-36 62 -63 l24 -16 -46 -31 c-45 -32 -54 -45 -37 -55 12 -8 116 67 116 84 0
13 -91 90 -107 90 -4 0 -9 -4 -12 -9z"/>
</g>
</svg>
