<?xml version="1.0" standalone="no"?>
<!DOCTYPE svg PUBLIC "-//W3C//DTD SVG 20010904//EN"
 "http://www.w3.org/TR/2001/REC-SVG-20010904/DTD/svg10.dtd">
<svg version="1.0" xmlns="http://www.w3.org/2000/svg"
 width="82.000000pt" height="98.000000pt" viewBox="0 0 82.000000 98.000000"
 preserveAspectRatio="xMidYMid meet" fill="#D6DCE1">
<g transform="translate(0.000000,98.000000) scale(0.100000,-0.100000)"
 >
<path d="M189 892 c-110 -5 -104 19 -104 -404 l0 -360 28 -24 29 -25 279 5
c250 3 282 6 300 22 18 16 19 32 19 297 l0 280 -102 103 -103 103 -140 3 c-77
2 -170 2 -206 0z m321 -118 c0 -122 2 -124 110 -124 l90 0 0 -253 c0 -183 -3
-256 -12 -265 -17 -17 -549 -17 -566 0 -17 17 -17 699 0 716 8 8 66 12 195 12
l183 0 0 -86z m119 -92 c-34 -2 -68 -1 -75 2 -15 6 -18 53 -8 106 l7 32 69
-69 69 -68 -62 -3z M382 598 c-15 -15 -16 -75 -2 -115 9 -24 6 -39 -14 -85
-21 -47 -32 -59 -71 -78 -55 -27 -84 -64 -68 -89 26 -41 81 -17 119 54 15 29
27 36 70 46 47 11 55 10 87 -10 54 -33 107 -26 107 15 0 30 -27 44 -84 44 -40
0 -48 4 -72 35 -26 35 -27 38 -15 91 11 48 10 58 -3 79 -18 27 -36 31 -54 13z
m25 -70 c-2 -13 -4 -5 -4 17 -1 22 1 32 4 23 2 -10 2 -28 0 -40z m30 -160
c-13 -8 -47 -11 -47 -4 0 3 5 17 10 31 l10 27 19 -24 c14 -16 16 -25 8 -30z
m138 -28 c8 -13 -25 -13 -45 0 -12 8 -9 10 12 10 15 0 30 -4 33 -10z m-277
-70 c-13 -20 -37 -34 -45 -26 -5 5 38 46 49 46 4 0 3 -9 -4 -20z"/>
</g>
</svg>
