<?xml version="1.0" standalone="no"?>
<!DOCTYPE svg PUBLIC "-//W3C//DTD SVG 20010904//EN"
 "http://www.w3.org/TR/2001/REC-SVG-20010904/DTD/svg10.dtd">
<svg version="1.0" xmlns="http://www.w3.org/2000/svg"
 width="82.000000pt" height="96.000000pt" viewBox="0 0 82.000000 96.000000"
 preserveAspectRatio="xMidYMid meet" fill="#D6DCE1">
<g transform="translate(0.000000,96.000000) scale(0.100000,-0.100000)"
 >
<path d="M109 861 l-24 -19 0 -362 0 -362 24 -19 c22 -18 42 -19 305 -19 239
0 285 2 304 16 22 15 22 17 22 295 l0 281 -97 104 -98 103 -206 1 c-189 0
-209 -2 -230 -19z m279 -24 c-3 -14 2 -17 32 -17 11 0 20 7 20 15 0 10 11 15
35 15 l35 0 0 -83 c0 -119 8 -127 116 -127 l84 0 0 -254 c0 -199 -3 -256 -13
-265 -19 -15 -545 -15 -564 0 -18 16 -19 699 -1 717 18 18 260 17 256 -1z
m262 -117 l38 -45 -67 0 -66 0 -3 75 -3 75 31 -30 c18 -17 49 -50 70 -75z
M390 770 c0 -15 7 -20 25 -20 18 0 25 5 25 20 0 15 -7 20 -25 20 -18 0 -25 -5
-25 -20z M387 728 c-2 -7 0 -21 5 -30 11 -22 43 -25 35 -4 -3 8 -1 16 5 18 17
6 0 28 -22 28 -10 0 -20 -6 -23 -12z M390 599 c0 -78 0 -79 25 -79 30 0 33 20
5 27 -11 3 -20 9 -20 14 0 5 7 6 15 3 11 -5 15 1 15 19 0 16 -7 27 -17 30 -17
4 -17 5 0 6 25 2 23 47 -3 54 -19 5 -20 0 -20 -74z M390 452 c0 -46 -4 -60
-20 -70 -17 -10 -20 -23 -20 -85 0 -78 4 -88 37 -106 16 -8 28 -8 46 0 22 10
25 18 30 93 4 66 1 85 -12 100 -11 13 -15 33 -13 72 3 52 2 54 -22 54 -25 0
-26 -3 -26 -58z m40 -110 c0 -31 -34 -26 -38 5 -3 17 2 21 17 20 15 -1 21 -8
21 -25z m0 -85 c0 -27 -4 -33 -20 -32 -28 2 -33 10 -26 40 10 40 46 34 46 -8z"/>
</g>
</svg>
