<?xml version="1.0" standalone="no"?>
<!DOCTYPE svg PUBLIC "-//W3C//DTD SVG 20010904//EN"
 "http://www.w3.org/TR/2001/REC-SVG-20010904/DTD/svg10.dtd">
<svg version="1.0" xmlns="http://www.w3.org/2000/svg"
 width="82.000000pt" height="96.000000pt" viewBox="0 0 82.000000 96.000000"
 preserveAspectRatio="xMidYMid meet" fill="#D6DCE1">
<g transform="translate(0.000000,96.000000) scale(0.100000,-0.100000)"
 >
<path d="M100 860 c-19 -19 -20 -33 -20 -380 0 -347 1 -361 20 -380 19 -19 33
-20 308 -20 281 0 289 1 308 21 18 20 19 40 19 295 l0 273 -100 104 -100 104
-207 2 c-196 1 -209 0 -228 -19z m401 -52 c1 -24 1 -60 0 -81 -2 -22 4 -48 13
-62 15 -23 22 -25 101 -25 l85 0 0 -253 c0 -183 -3 -256 -12 -265 -9 -9 -86
-12 -285 -12 -259 0 -273 1 -283 19 -14 27 -14 675 0 702 10 18 23 19 195 19
l185 0 1 -42z m129 -78 l48 -55 -69 -3 -69 -3 0 77 0 77 21 -19 c12 -10 43
-44 69 -74z M280 365 c0 -10 11 -15 35 -15 19 0 35 -2 35 -5 0 -3 -13 -35 -30
-72 -35 -78 -35 -73 -12 -73 12 0 26 23 50 83 18 45 32 85 32 90 0 4 -25 7
-55 7 -42 0 -55 -3 -55 -15z M410 365 c0 -11 11 -15 40 -15 l40 0 -40 -64
c-22 -35 -40 -68 -40 -75 0 -7 22 -11 60 -11 47 0 60 3 60 15 0 11 -11 15 -40
15 l-39 0 39 63 c53 83 52 87 -20 87 -47 0 -60 -3 -60 -15z"/>
</g>
</svg>
