<?xml version="1.0" standalone="no"?>
<!DOCTYPE svg PUBLIC "-//W3C//DTD SVG 20010904//EN"
 "http://www.w3.org/TR/2001/REC-SVG-20010904/DTD/svg10.dtd">
<svg version="1.0" xmlns="http://www.w3.org/2000/svg"
 width="82.000000pt" height="96.000000pt" viewBox="0 0 82.000000 96.000000"
 preserveAspectRatio="xMidYMid meet" fill="#D6DCE1">
<g transform="translate(0.000000,96.000000) scale(0.100000,-0.100000)"
 >
<path d="M101 854 c-20 -26 -21 -38 -21 -379 l0 -352 23 -21 c23 -22 29 -22
310 -22 274 0 288 1 307 20 19 19 20 33 20 293 l0 272 -101 108 -101 107 -208
0 -209 0 -20 -26z m409 -97 c0 -59 4 -97 12 -105 7 -7 44 -12 98 -12 l85 0 -3
-257 c-2 -188 -6 -259 -15 -265 -14 -9 -528 -11 -551 -2 -14 5 -16 47 -16 364
0 277 3 359 13 363 6 3 94 6 195 6 l182 1 0 -93z m119 -85 c-89 -4 -89 -4 -89
80 l0 72 75 -74 76 -75 -62 -3z M340 540 l-115 -5 0 -70 0 -70 180 -1 c108 -1
185 2 193 8 7 6 12 33 12 63 0 30 -5 57 -12 63 -17 13 -119 18 -258 12z m240
-70 c0 -36 -3 -40 -24 -40 -19 0 -25 6 -28 27 -4 39 -28 42 -28 4 l0 -31 -125
0 -125 0 0 40 0 40 165 0 165 0 0 -40z M222 338 c-16 -16 -16 -110 0 -126 17
-17 359 -17 376 0 12 12 16 95 6 122 -5 14 -31 16 -188 16 -128 0 -186 -4
-194 -12z m350 -68 c-4 -43 -30 -56 -39 -20 -3 11 -11 20 -18 20 -7 0 -15 -9
-18 -20 -5 -19 -14 -20 -126 -20 l-121 0 0 40 0 40 163 0 163 0 -4 -40z"/>
</g>
</svg>
