<?xml version="1.0" standalone="no"?>
<!DOCTYPE svg PUBLIC "-//W3C//DTD SVG 20010904//EN"
 "http://www.w3.org/TR/2001/REC-SVG-20010904/DTD/svg10.dtd">
<svg version="1.0" xmlns="http://www.w3.org/2000/svg"
 width="82.000000pt" height="96.000000pt" viewBox="0 0 82.000000 96.000000"
 preserveAspectRatio="xMidYMid meet" fill="#D6DCE1">
<g transform="translate(0.000000,96.000000) scale(0.100000,-0.100000)"
 >
<path d="M100 860 c-19 -19 -20 -33 -20 -380 0 -347 1 -361 20 -380 19 -19 33
-20 309 -20 l290 0 20 26 c20 25 21 39 21 291 l0 264 -102 109 -103 109 -207
0 c-195 1 -209 0 -228 -19z m408 -105 c2 -49 8 -95 14 -102 7 -9 39 -13 94
-13 l84 0 0 -253 c0 -183 -3 -256 -12 -265 -9 -9 -86 -12 -285 -12 -249 0
-273 1 -282 18 -11 21 -9 692 2 710 7 9 53 12 195 10 l187 -3 3 -90z m142 -45
l28 -35 -67 1 -66 0 -3 75 -3 74 41 -40 c23 -22 54 -56 70 -75z M227 534 c-19
-19 21 -24 189 -24 157 0 184 2 184 15 0 13 -27 15 -183 15 -101 0 -187 -3
-190 -6z M228 439 c-6 -4 -7 -12 -4 -18 5 -7 67 -11 192 -11 157 0 184 2 184
15 0 8 -6 15 -12 16 -80 4 -352 2 -360 -2z M231 341 c-37 -24 6 -31 185 -31
148 0 184 3 184 14 0 22 -336 38 -369 17z M227 243 c-19 -18 1 -23 93 -23 82
0 100 3 100 15 0 12 -17 15 -93 15 -52 0 -97 -3 -100 -7z"/>
</g>
</svg>
