<?xml version="1.0" standalone="no"?>
<!DOCTYPE svg PUBLIC "-//W3C//DTD SVG 20010904//EN"
 "http://www.w3.org/TR/2001/REC-SVG-20010904/DTD/svg10.dtd">
<svg version="1.0" xmlns="http://www.w3.org/2000/svg"
 width="81.000000pt" height="96.000000pt" viewBox="0 0 81.000000 96.000000"
 preserveAspectRatio="xMidYMid meet" fill="#D6DCE1">
<g transform="translate(0.000000,96.000000) scale(0.100000,-0.100000)"
 >
<path d="M100 860 c-19 -19 -20 -33 -20 -380 0 -347 1 -361 20 -380 19 -19 33
-20 303 -20 240 0 286 2 305 16 22 15 22 17 22 294 l0 280 -97 104 -98 104
-207 1 c-195 1 -209 0 -228 -19z m400 -93 c0 -119 8 -127 116 -127 l84 0 0
-253 c0 -183 -3 -256 -12 -265 -17 -17 -549 -17 -566 0 -17 17 -17 699 0 716
8 8 66 12 195 12 l183 0 0 -83z m120 -27 l62 -70 -71 0 -71 0 0 76 c0 41 4 73
9 70 5 -3 37 -37 71 -76z M421 438 c-12 -33 -71 -224 -71 -232 0 -3 7 -6 15
-6 14 0 85 203 85 243 0 25 -19 21 -29 -5z M242 383 c-28 -21 -52 -43 -52 -50
0 -20 98 -86 118 -78 15 6 13 10 -12 28 -74 56 -72 49 -21 85 25 18 43 37 40
42 -10 16 -17 13 -73 -27z M500 406 c0 -8 18 -28 41 -44 l40 -30 -46 -32 c-42
-29 -51 -50 -22 -50 20 1 107 69 107 84 0 13 -96 86 -113 86 -4 0 -7 -6 -7
-14z"/>
</g>
</svg>
