<?xml version="1.0" standalone="no"?>
<!DOCTYPE svg PUBLIC "-//W3C//DTD SVG 20010904//EN"
 "http://www.w3.org/TR/2001/REC-SVG-20010904/DTD/svg10.dtd">
<svg version="1.0" xmlns="http://www.w3.org/2000/svg"
 width="81.000000pt" height="96.000000pt" viewBox="0 0 81.000000 96.000000"
 preserveAspectRatio="xMidYMid meet" fill="#D6DCE1">
<g transform="translate(0.000000,96.000000) scale(0.100000,-0.100000)"
 >
<path d="M100 860 c-19 -19 -20 -33 -20 -380 0 -347 1 -361 20 -380 19 -19 33
-20 303 -20 240 0 286 2 305 16 22 15 22 17 22 296 l0 281 -102 103 -102 104
-203 0 c-190 0 -204 -1 -223 -20z m400 -97 c0 -116 6 -123 117 -123 l83 0 0
-253 c0 -183 -3 -256 -12 -265 -17 -17 -549 -17 -566 0 -17 17 -17 699 0 716
8 8 66 12 195 12 l183 0 0 -87z m118 -21 l60 -68 -69 -3 -69 -2 0 76 c0 42 4
74 9 71 5 -3 36 -36 69 -74z M272 494 c-18 -12 -22 -25 -22 -65 0 -35 -4 -51
-15 -55 -19 -8 -19 -31 -1 -41 9 -5 16 -28 18 -63 3 -49 6 -56 31 -64 39 -14
62 9 24 23 -24 9 -27 16 -28 63 -3 131 1 162 27 181 41 31 9 51 -34 21z M480
496 c0 -8 9 -18 20 -21 16 -5 20 -15 20 -55 0 -27 5 -52 10 -55 7 -4 7 -12 0
-25 -5 -10 -10 -37 -10 -60 0 -33 -4 -43 -20 -47 -28 -7 -25 -33 3 -33 36 0
57 30 57 82 0 32 5 48 15 52 8 3 15 12 15 21 0 8 -7 15 -15 15 -11 0 -15 12
-15 48 0 27 -7 57 -16 70 -17 25 -64 31 -64 8z"/>
</g>
</svg>
