<?xml version="1.0" standalone="no"?>
<!DOCTYPE svg PUBLIC "-//W3C//DTD SVG 20010904//EN"
 "http://www.w3.org/TR/2001/REC-SVG-20010904/DTD/svg10.dtd">
<svg version="1.0" xmlns="http://www.w3.org/2000/svg"
 width="82.000000pt" height="96.000000pt" viewBox="0 0 82.000000 96.000000"
 preserveAspectRatio="xMidYMid meet" fill="#D6DCE1">
<g transform="translate(0.000000,96.000000) scale(0.100000,-0.100000)"
 >
<path d="M104 859 c-18 -20 -19 -41 -19 -381 l0 -360 24 -19 c22 -18 42 -19
307 -19 271 0 285 1 304 20 19 19 20 33 20 297 l0 278 -102 102 -103 103 -206
0 c-197 0 -207 -1 -225 -21z m406 -98 c0 -117 4 -121 116 -121 l84 0 0 -253
c0 -183 -3 -256 -12 -265 -17 -17 -549 -17 -566 0 -17 17 -17 699 0 716 8 8
66 12 195 12 l183 0 0 -89z m109 -13 l70 -73 -61 -3 c-89 -4 -89 -4 -87 78 1
38 4 70 5 70 2 0 35 -33 73 -72z M190 375 c0 -3 9 -23 20 -45 l20 -38 -26 -46
c-25 -45 -25 -46 -5 -46 13 0 26 10 33 25 6 14 14 25 18 25 4 0 12 -11 18 -25
7 -15 20 -25 32 -25 20 0 20 1 -4 48 l-24 47 24 43 c23 41 23 42 4 42 -12 0
-25 -10 -32 -25 -6 -14 -14 -25 -18 -25 -4 0 -12 11 -18 25 -10 21 -42 36 -42
20z M340 290 c0 -73 3 -90 15 -90 11 0 15 13 16 53 l1 52 17 -50 c22 -62 40
-63 62 -5 l17 45 4 -44 c1 -25 8 -46 14 -48 14 -5 24 43 24 118 0 55 -2 59
-23 59 -20 0 -27 -9 -43 -60 -21 -67 -25 -66 -49 8 -12 39 -21 52 -36 52 -17
0 -19 -8 -19 -90z M530 290 c0 -73 3 -90 15 -90 10 0 15 10 15 30 0 26 4 30
28 30 35 0 62 27 62 62 0 36 -29 58 -78 58 l-42 0 0 -90z m86 45 c8 -20 -13
-45 -38 -45 -17 0 -20 23 -9 58 3 9 43 -1 47 -13z"/>
</g>
</svg>
