<?xml version="1.0" standalone="no"?>
<!DOCTYPE svg PUBLIC "-//W3C//DTD SVG 20010904//EN"
 "http://www.w3.org/TR/2001/REC-SVG-20010904/DTD/svg10.dtd">
<svg version="1.0" xmlns="http://www.w3.org/2000/svg"
 width="82.000000pt" height="96.000000pt" viewBox="0 0 82.000000 96.000000"
 preserveAspectRatio="xMidYMid meet" fill="#D6DCE1">
<g transform="translate(0.000000,96.000000) scale(0.100000,-0.100000)"
 >
<path d="M109 851 l-29 -29 0 -347 0 -346 25 -24 24 -25 286 0 c272 0 286 1
305 20 19 19 20 33 20 293 l-1 272 -104 108 -104 107 -196 0 -197 0 -29 -29z
m401 -92 c0 -117 2 -119 110 -119 l90 0 0 -247 c0 -137 -4 -253 -8 -260 -8
-13 -551 -21 -571 -9 -16 10 -15 688 1 704 8 8 66 12 195 12 l183 0 0 -81z
m115 -19 l69 -70 -72 0 -72 0 0 70 c0 39 1 70 3 70 1 0 34 -31 72 -70z M195
382 c-3 -3 -5 -45 -5 -94 l0 -88 55 0 c42 0 55 3 55 15 0 11 -11 15 -40 15
-36 0 -40 3 -40 25 0 22 4 25 35 25 24 0 35 5 35 15 0 10 -10 15 -33 15 -26 0
-33 4 -33 20 0 17 7 20 39 20 31 0 38 3 35 18 -3 13 -14 17 -50 18 -26 1 -50
-1 -53 -4z M320 381 c0 -6 10 -26 22 -47 l22 -37 -22 -41 c-26 -48 -27 -56 -7
-56 8 0 21 14 30 30 9 17 18 30 20 30 2 0 11 -13 20 -30 9 -16 22 -30 30 -30
20 0 19 5 -7 51 l-22 39 22 45 c21 44 21 45 2 45 -11 0 -20 -4 -20 -8 0 -5 -6
-17 -14 -27 -13 -18 -14 -17 -30 13 -15 29 -46 45 -46 23z M477 383 c-4 -3 -7
-46 -7 -95 0 -80 2 -89 18 -86 14 3 17 15 18 77 2 97 -7 127 -29 104z M534
377 c-3 -8 -4 -49 -2 -93 2 -62 6 -79 18 -79 10 0 16 12 18 38 3 34 6 37 33
37 19 0 29 5 29 15 0 10 -10 15 -30 15 -23 0 -30 5 -30 19 0 15 8 21 33 23 20
2 32 8 32 18 0 20 -93 27 -101 7z"/>
</g>
</svg>
