<?xml version="1.0" standalone="no"?>
<!DOCTYPE svg PUBLIC "-//W3C//DTD SVG 20010904//EN"
 "http://www.w3.org/TR/2001/REC-SVG-20010904/DTD/svg10.dtd">
<svg version="1.0" xmlns="http://www.w3.org/2000/svg"
 width="82.000000pt" height="95.000000pt" viewBox="0 0 82.000000 95.000000"
 preserveAspectRatio="xMidYMid meet" fill="#D6DCE1">
<g transform="translate(0.000000,95.000000) scale(0.100000,-0.100000)"
 >
<path d="M107 853 c-13 -15 -16 -61 -17 -313 -3 -425 -3 -417 20 -440 19 -19
33 -20 303 -20 271 0 284 1 305 20 22 20 22 26 22 293 l0 272 -101 103 -100
102 -208 0 c-185 0 -210 -2 -224 -17z m403 -101 c0 -55 4 -92 12 -100 8 -8 45
-12 100 -12 l88 0 0 -254 c0 -193 -3 -257 -12 -263 -19 -12 -537 -14 -559 -2
-18 9 -19 28 -19 352 0 254 3 346 12 355 8 8 66 12 195 12 l183 0 0 -88z m114
-12 l68 -70 -71 0 -71 0 0 70 c0 39 1 70 3 70 2 0 34 -31 71 -70z M190 296 c0
-80 3 -96 15 -96 13 0 15 15 13 92 -2 62 -7 93 -15 96 -10 3 -13 -20 -13 -92z
M250 296 c0 -79 3 -96 15 -96 10 0 15 10 15 30 0 22 5 30 18 30 34 0 62 29 62
64 0 41 -12 52 -67 61 l-43 7 0 -96z m80 30 c0 -22 -16 -36 -41 -36 -5 0 -9
14 -9 30 0 25 4 30 25 30 20 0 25 -5 25 -24z M553 380 c-72 -29 -50 -180 27
-180 34 0 79 48 58 61 -8 6 -19 1 -30 -13 -14 -19 -19 -21 -42 -10 -21 9 -26
18 -26 50 0 21 5 43 12 50 17 17 55 15 62 -3 6 -16 36 -21 36 -6 0 15 -34 49
-55 54 -11 3 -30 2 -42 -3z M372 368 c3 -7 14 -14 26 -16 20 -3 22 -9 22 -78
0 -59 3 -74 15 -74 12 0 15 15 15 75 0 73 1 75 25 75 16 0 25 6 25 15 0 12
-14 15 -66 15 -48 0 -65 -3 -62 -12z"/>
</g>
</svg>
