<?xml version="1.0" standalone="no"?>
<!DOCTYPE svg PUBLIC "-//W3C//DTD SVG 20010904//EN"
 "http://www.w3.org/TR/2001/REC-SVG-20010904/DTD/svg10.dtd">
<svg version="1.0" xmlns="http://www.w3.org/2000/svg"
 width="86.000000pt" height="91.000000pt" viewBox="0 0 86.000000 91.000000"
 preserveAspectRatio="xMidYMid meet" fill="#D6DCE1">
<g transform="translate(0.000000,91.000000) scale(0.100000,-0.100000)"
 >
<path d="M100 810 c-19 -19 -20 -33 -20 -355 0 -331 0 -334 22 -355 21 -19 34
-20 325 -20 l304 0 24 25 25 24 0 326 0 326 -25 24 -24 25 -306 0 c-292 0
-306 -1 -325 -20z m80 -70 c0 -49 -1 -50 -30 -50 -29 0 -30 2 -30 43 0 50 4
57 37 57 21 0 23 -4 23 -50z m470 -285 l0 -335 -220 0 -220 0 1 335 0 335 219
0 220 0 0 -335z m88 283 c3 -47 3 -48 -27 -48 -30 0 -31 1 -31 51 0 49 1 50
28 47 25 -3 27 -7 30 -50z m-558 -133 c0 -54 0 -55 -30 -55 -30 0 -30 1 -30
55 0 54 0 55 30 55 30 0 30 -1 30 -55z m560 0 c0 -54 0 -55 -30 -55 -30 0 -30
1 -30 55 0 54 0 55 30 55 30 0 30 -1 30 -55z m-560 -151 c0 -53 0 -54 -30 -54
-30 0 -30 0 -30 58 l0 59 30 -5 c29 -4 30 -6 30 -58z m560 4 c0 -58 0 -58 -30
-58 -30 0 -30 0 -30 60 l0 59 30 -2 c30 -2 30 -3 30 -59z m-560 -153 c0 -54 0
-55 -30 -55 -30 0 -30 1 -30 55 0 54 0 55 30 55 30 0 30 -1 30 -55z m560 0 c0
-54 0 -55 -30 -55 -30 0 -30 1 -30 55 0 54 0 55 30 55 30 0 30 -1 30 -55z m-2
-139 c-3 -36 -6 -41 -30 -44 -27 -3 -28 -2 -28 46 0 48 0 49 31 44 28 -4 30
-6 27 -46z m-558 -2 c0 -44 -1 -45 -27 -42 -25 3 -28 7 -31 46 -3 41 -2 42 27
42 30 0 31 -1 31 -46z M357 578 c-24 -13 -26 -245 -2 -254 21 -8 200 109 200
130 0 26 -177 136 -198 124z m127 -102 l28 -24 -60 -41 c-34 -22 -63 -41 -66
-41 -4 0 -6 39 -6 86 l0 85 38 -21 c20 -12 50 -32 66 -44z"/>
</g>
</svg>
