<?xml version="1.0" standalone="no"?>
<!DOCTYPE svg PUBLIC "-//W3C//DTD SVG 20010904//EN"
 "http://www.w3.org/TR/2001/REC-SVG-20010904/DTD/svg10.dtd">
<svg version="1.0" xmlns="http://www.w3.org/2000/svg"
 width="83.000000pt" height="95.000000pt" viewBox="0 0 83.000000 95.000000"
 preserveAspectRatio="xMidYMid meet" fill="#D6DCE1">
<g transform="translate(0.000000,95.000000) scale(0.100000,-0.100000)"
 >
<path d="M104 849 c-18 -20 -19 -41 -19 -376 l0 -355 24 -19 c22 -18 42 -19
307 -19 271 0 285 1 304 20 18 18 20 34 21 198 0 97 0 220 -1 272 l-1 95 -102
103 -102 102 -206 0 c-197 0 -207 -1 -225 -21z m406 -92 c0 -112 4 -116 113
-124 l87 -6 0 -248 c0 -159 -4 -250 -10 -254 -21 -13 -534 -19 -558 -6 l-22
12 0 342 c0 254 3 346 12 355 8 8 66 12 195 12 l183 0 0 -83z m115 -17 l69
-70 -72 0 -72 0 0 70 c0 39 1 70 3 70 1 0 34 -31 72 -70z M446 530 c-127 -27
-117 -16 -114 -120 l3 -90 -27 0 c-30 0 -68 -31 -68 -55 0 -23 37 -55 63 -55
50 0 65 32 62 133 -2 88 -1 90 75 101 25 4 55 9 68 13 21 5 22 2 22 -50 0 -52
-1 -54 -25 -54 -30 0 -65 -29 -65 -53 0 -44 72 -66 104 -31 14 15 16 38 14
146 -2 75 -7 129 -13 131 -5 1 -50 -6 -99 -16z"/>
</g>
</svg>
