<?xml version="1.0" standalone="no"?>
<!DOCTYPE svg PUBLIC "-//W3C//DTD SVG 20010904//EN"
 "http://www.w3.org/TR/2001/REC-SVG-20010904/DTD/svg10.dtd">
<svg version="1.0" xmlns="http://www.w3.org/2000/svg"
 width="81.000000pt" height="95.000000pt" viewBox="0 0 81.000000 95.000000"
 preserveAspectRatio="xMidYMid meet" fill="#D6DCE1">
<g transform="translate(0.000000,95.000000) scale(0.100000,-0.100000)"
 >
<path d="M100 850 c-19 -19 -20 -33 -20 -375 0 -342 1 -356 20 -375 19 -19 33
-20 305 -20 272 0 286 1 305 20 19 19 20 33 20 292 l0 273 -102 102 -103 103
-202 0 c-190 0 -204 -1 -223 -20z m402 -101 c5 -115 12 -122 118 -117 l75 3 3
-247 c2 -215 0 -248 -14 -262 -14 -14 -50 -16 -277 -15 -146 0 -269 5 -279 10
-17 9 -18 33 -18 352 0 254 3 346 12 355 8 8 66 12 194 12 l182 0 4 -91z m113
-9 l69 -70 -72 0 -72 0 0 70 c0 39 1 70 3 70 1 0 34 -31 72 -70z M348 585
c-31 -17 -48 -44 -48 -74 0 -29 28 -26 40 3 17 45 74 60 103 28 31 -34 22 -77
-23 -112 -34 -27 -40 -37 -40 -71 0 -46 24 -54 35 -11 3 15 24 44 46 65 34 33
39 44 39 82 0 82 -81 130 -152 90z M374 265 c-9 -23 3 -45 25 -45 20 0 37 32
26 50 -9 15 -45 12 -51 -5z"/>
</g>
</svg>
