<?xml version="1.0" standalone="no"?>
<!DOCTYPE svg PUBLIC "-//W3C//DTD SVG 20010904//EN"
 "http://www.w3.org/TR/2001/REC-SVG-20010904/DTD/svg10.dtd">
<svg version="1.0" xmlns="http://www.w3.org/2000/svg"
 width="99.000000pt" height="85.000000pt" viewBox="0 0 99.000000 85.000000"
 preserveAspectRatio="xMidYMid meet" fill="#D6DCE1">
<g transform="translate(0.000000,85.000000) scale(0.100000,-0.100000)"
 >
<path d="M105 745 l-25 -24 0 -290 c0 -159 3 -297 6 -306 12 -30 60 -45 141
-45 91 0 123 7 123 26 0 10 -26 14 -112 16 l-113 3 0 200 0 200 368 3 c312 2
368 0 373 -12 8 -21 -37 -369 -50 -385 -8 -10 -41 -13 -151 -10 -230 5 -295 1
-295 -16 0 -18 -14 -17 230 -21 202 -3 244 3 255 36 3 11 17 103 30 207 24
187 24 188 5 215 -11 15 -20 43 -20 63 0 25 -8 44 -25 60 -24 25 -26 25 -216
25 l-192 0 -34 40 -35 40 -119 0 c-114 0 -121 -1 -144 -25z m291 -55 l36 -40
196 -2 197 -3 3 -37 3 -38 -355 -2 -356 -3 0 76 c0 42 3 79 7 82 3 4 57 7 120
7 l113 0 36 -40z"/>
</g>
</svg>
