<?xml version="1.0" standalone="no"?>
<!DOCTYPE svg PUBLIC "-//W3C//DTD SVG 20010904//EN"
 "http://www.w3.org/TR/2001/REC-SVG-20010904/DTD/svg10.dtd">
<svg version="1.0" xmlns="http://www.w3.org/2000/svg"
 width="99.000000pt" height="85.000000pt" viewBox="0 0 99.000000 85.000000"
 preserveAspectRatio="xMidYMid meet" fill="#D6DCE1">
<g transform="translate(0.000000,85.000000) scale(0.100000,-0.100000)"
 >
<path d="M105 745 l-25 -24 0 -294 c0 -366 -10 -342 147 -342 89 0 108 3 108
15 0 12 -19 16 -100 18 -79 2 -103 6 -112 19 -18 23 -18 364 -1 381 14 14 743
18 751 5 7 -12 -41 -385 -50 -394 -5 -5 -112 -10 -238 -11 -197 -3 -230 -5
-230 -18 0 -13 34 -15 232 -18 301 -3 273 -25 303 239 18 153 20 200 11 217
-6 12 -16 22 -21 22 -6 0 -10 20 -10 44 0 36 -5 48 -26 65 -25 20 -38 21 -214
19 l-186 -2 -38 42 -38 42 -120 0 c-113 0 -120 -1 -143 -25z m286 -52 l33 -38
205 -5 206 -5 3 -37 3 -38 -360 -2 -361 -3 0 76 c0 42 3 79 7 82 3 4 57 7 119
7 l112 0 33 -37z M390 465 c-15 -18 -19 -270 -4 -285 7 -7 74 -9 180 -8 l169
3 3 140 c2 123 0 141 -15 152 -26 20 -316 18 -333 -2z m326 -40 c4 -9 3 -63
-1 -120 l-7 -105 -149 0 -149 0 0 120 0 120 150 0 c126 0 152 -3 156 -15z
M466 394 c-21 -20 -20 -27 4 -49 19 -17 21 -17 39 -1 20 18 18 44 -3 58 -16
11 -23 10 -40 -8z m34 -24 c0 -5 -4 -10 -10 -10 -5 0 -10 5 -10 10 0 6 5 10
10 10 6 0 10 -4 10 -10z M586 311 c-36 -37 -41 -39 -56 -26 -9 8 -23 15 -30
15 -18 0 -70 -50 -70 -67 0 -19 11 -16 42 14 26 25 29 25 46 10 26 -24 33 -22
70 20 32 37 33 37 47 18 38 -53 44 -59 50 -53 10 10 -2 39 -33 76 l-27 33 -39
-40z"/>
</g>
</svg>
