<?xml version="1.0" standalone="no"?>
<!DOCTYPE svg PUBLIC "-//W3C//DTD SVG 20010904//EN"
 "http://www.w3.org/TR/2001/REC-SVG-20010904/DTD/svg10.dtd">
<svg version="1.0" xmlns="http://www.w3.org/2000/svg"
 width="91.000000pt" height="90.000000pt" viewBox="0 0 91.000000 90.000000"
 preserveAspectRatio="xMidYMid meet" fill="#D6DCE1">
<g transform="translate(0.000000,90.000000) scale(0.100000,-0.100000)"
 >
<path d="M382 808 c-5 -7 -13 -27 -16 -44 -10 -46 -48 -61 -86 -34 -41 29 -53
25 -99 -26 -46 -52 -47 -56 -25 -74 45 -38 36 -100 -15 -100 -44 0 -61 -23
-61 -83 0 -64 5 -72 54 -83 54 -13 62 -40 28 -88 l-26 -37 47 -46 46 -47 40
22 c53 30 87 18 97 -33 8 -46 16 -50 99 -46 74 3 85 9 85 53 0 39 51 55 90 28
38 -27 39 -26 90 25 l45 46 -22 38 c-30 52 -22 75 30 87 l42 9 0 70 0 70 -42
14 c-52 18 -59 42 -29 90 l23 36 -40 47 c-45 54 -53 56 -98 29 -29 -18 -35
-18 -61 -5 -17 9 -28 23 -28 35 0 48 -16 59 -89 59 -43 0 -72 -5 -79 -12z
m134 -58 c6 -35 12 -43 48 -59 40 -18 42 -18 79 2 l38 21 27 -27 27 -28 -22
-38 c-21 -37 -22 -42 -8 -76 16 -36 19 -39 68 -49 24 -6 27 -11 27 -50 0 -44
0 -44 -40 -51 -34 -6 -43 -12 -56 -43 -11 -27 -13 -41 -5 -52 33 -46 35 -59
11 -85 -28 -30 -34 -31 -71 -4 -28 20 -31 20 -73 4 -39 -15 -44 -21 -50 -56
l-6 -39 -49 0 c-51 0 -61 9 -61 53 0 17 -11 26 -47 39 -44 16 -48 16 -83 -2
l-37 -19 -26 26 -25 26 23 37 c23 36 23 39 7 74 -14 30 -23 38 -54 43 -37 5
-38 7 -38 48 0 41 1 43 38 52 29 7 41 17 55 46 17 37 17 38 -5 77 l-23 39 27
27 26 27 36 -21 c35 -21 37 -21 74 -4 44 20 52 29 52 63 0 35 6 39 62 39 l48
0 6 -40z M401 573 c-137 -72 -81 -273 72 -260 100 9 159 120 107 204 -39 65
-117 89 -179 56z m130 -52 c62 -62 20 -171 -66 -171 -69 0 -104 33 -105 98 0
61 41 102 100 102 33 0 48 -6 71 -29z"/>
</g>
</svg>
