<?xml version="1.0" standalone="no"?>
<!DOCTYPE svg PUBLIC "-//W3C//DTD SVG 20010904//EN"
 "http://www.w3.org/TR/2001/REC-SVG-20010904/DTD/svg10.dtd">
<svg version="1.0" xmlns="http://www.w3.org/2000/svg"
 width="90.000000pt" height="82.000000pt" viewBox="0 0 90.000000 82.000000"
 preserveAspectRatio="xMidYMid meet" fill="#D6DCE1">
<g transform="translate(0.000000,82.000000) scale(0.100000,-0.100000)"
 >
<path d="M97 722 c-15 -16 -17 -49 -17 -260 0 -302 -11 -282 160 -282 66 0
120 -2 120 -5 0 -26 -27 -54 -54 -57 -20 -2 -31 -9 -31 -18 0 -13 26 -15 170
-15 139 0 170 3 170 14 0 8 -11 16 -25 18 -26 4 -50 28 -50 50 0 10 27 13 115
13 110 0 117 1 140 25 l25 24 0 229 c0 217 -1 231 -21 256 l-20 26 -333 0
c-310 0 -334 -1 -349 -18z m681 -204 l2 -188 -335 0 -335 0 0 178 c0 126 4
182 12 190 9 9 92 12 333 10 l320 -3 3 -187z m0 -261 l-3 -32 -330 0 -330 0
-3 32 -3 33 273 2 c150 2 301 1 336 0 l63 -4 -3 -31z m-266 -107 l5 -30 -73 0
-72 0 11 30 c11 28 14 30 68 30 55 0 57 -1 61 -30z"/>
</g>
</svg>
