<?xml version="1.0" standalone="no"?>
<!DOCTYPE svg PUBLIC "-//W3C//DTD SVG 20010904//EN"
 "http://www.w3.org/TR/2001/REC-SVG-20010904/DTD/svg10.dtd">
<svg version="1.0" xmlns="http://www.w3.org/2000/svg"
 width="88.000000pt" height="85.000000pt" viewBox="0 0 88.000000 85.000000"
 preserveAspectRatio="xMidYMid meet" fill="#D6DCE1">
<g transform="translate(0.000000,85.000000) scale(0.100000,-0.100000)"
 >
<path d="M671 754 c-19 -8 -98 -78 -176 -157 -118 -118 -143 -148 -149 -179
-7 -37 -8 -38 -48 -38 -75 0 -122 -44 -148 -139 -6 -25 -24 -55 -41 -70 -37
-34 -31 -54 22 -75 91 -37 219 -13 268 50 22 27 43 93 39 116 -2 7 15 22 37
33 22 12 54 34 71 51 40 39 209 245 234 286 29 47 26 92 -6 117 -31 25 -56 26
-103 5z m94 -44 c4 -13 -2 -35 -17 -60 -29 -49 -217 -280 -228 -280 -4 0 -31
21 -60 47 l-51 46 93 95 c131 132 182 172 223 172 25 0 35 -5 40 -20z m-317
-330 l40 -35 -39 -22 c-21 -12 -39 -18 -39 -13 0 4 -10 18 -23 30 -20 20 -22
26 -13 55 12 37 14 37 74 -15z m-75 -72 c77 -90 -23 -209 -163 -195 -87 10
-95 15 -66 42 14 12 31 45 39 73 22 72 35 92 70 108 45 20 87 10 120 -28z
M233 165 c-26 -23 -26 -24 -7 -25 11 0 28 8 37 18 35 39 12 44 -30 7z"/>
</g>
</svg>
