<?xml version="1.0" standalone="no"?>
<!DOCTYPE svg PUBLIC "-//W3C//DTD SVG 20010904//EN"
 "http://www.w3.org/TR/2001/REC-SVG-20010904/DTD/svg10.dtd">
<svg version="1.0" xmlns="http://www.w3.org/2000/svg"
 width="83.000000pt" height="82.000000pt" viewBox="0 0 83.000000 82.000000"
 preserveAspectRatio="xMidYMid meet" fill="#D6DCE1">
<g transform="translate(0.000000,82.000000) scale(0.100000,-0.100000)"
 >
<path d="M100 720 c-19 -19 -20 -33 -20 -310 0 -277 1 -291 20 -310 19 -19 33
-20 313 -20 l294 0 21 23 c22 23 22 29 22 310 0 274 -1 288 -20 307 -19 19
-33 20 -315 20 -282 0 -296 -1 -315 -20z m608 -22 c8 -8 12 -50 12 -125 l0
-113 -305 0 -305 0 0 113 c0 75 4 117 12 125 17 17 569 17 586 0z m-378 -423
l0 -156 -107 3 -108 3 -3 140 c-1 76 0 145 2 152 4 10 34 13 111 13 l105 0 0
-155z m388 3 l-3 -153 -172 -3 -173 -2 0 155 0 155 175 0 176 0 -3 -152z"/>
</g>
</svg>
