<?xml version="1.0" standalone="no"?>
<!DOCTYPE svg PUBLIC "-//W3C//DTD SVG 20010904//EN"
 "http://www.w3.org/TR/2001/REC-SVG-20010904/DTD/svg10.dtd">
<svg version="1.0" xmlns="http://www.w3.org/2000/svg"
 width="100.000000pt" height="90.000000pt" viewBox="0 0 100.000000 90.000000"
 preserveAspectRatio="xMidYMid meet" fill="#D6DCE1">
<g transform="translate(0.000000,90.000000) scale(0.100000,-0.100000)"
 >
<path d="M105 795 c-25 -24 -25 -25 -25 -218 0 -181 1 -196 21 -221 l20 -26
150 0 149 0 0 -103 c0 -145 -12 -138 237 -139 109 -1 208 2 219 6 39 12 45 50
42 248 -4 243 9 228 -190 228 l-148 0 0 103 c0 153 10 147 -246 147 -204 0
-205 0 -229 -25z m432 -19 c4 -3 7 -34 8 -69 1 -34 2 -86 3 -114 l2 -53 160 0
c157 0 160 0 165 -22 3 -13 4 -106 3 -208 l-3 -185 -199 -3 c-128 -1 -203 1
-210 8 -6 6 -9 29 -7 52 1 22 0 72 -4 109 l-7 69 -148 0 c-82 0 -155 3 -164 6
-14 5 -16 33 -16 203 0 142 3 200 12 209 13 13 392 11 405 -2z M311 678 c-5
-13 -28 -68 -50 -122 -23 -55 -41 -103 -41 -108 0 -22 28 -4 43 27 16 34 19
35 70 35 51 0 54 -1 70 -35 14 -30 47 -49 47 -28 0 24 -107 253 -117 253 -8 0
-18 -10 -22 -22z m47 -90 l21 -48 -44 0 -44 0 13 33 c7 17 16 41 20 51 8 23 8
23 34 -36z M657 463 c-4 -3 -7 -15 -7 -25 0 -15 -8 -18 -50 -18 -38 0 -50 -4
-50 -15 0 -12 16 -15 81 -15 79 0 80 0 73 -22 -3 -13 -13 -31 -22 -41 -15 -17
-17 -16 -40 8 -17 19 -27 24 -35 16 -8 -8 -3 -19 16 -39 l27 -28 -50 -32 c-28
-18 -48 -37 -45 -43 10 -15 20 -11 73 26 l50 34 46 -34 c24 -19 50 -35 55 -35
22 0 10 20 -26 46 -21 16 -42 31 -46 34 -14 12 44 110 64 110 11 0 19 7 19 15
0 12 -13 15 -56 15 -30 0 -53 4 -50 9 13 21 -11 50 -27 34z"/>
</g>
</svg>
