<?xml version="1.0" standalone="no"?>
<!DOCTYPE svg PUBLIC "-//W3C//DTD SVG 20010904//EN"
 "http://www.w3.org/TR/2001/REC-SVG-20010904/DTD/svg10.dtd">
<svg version="1.0" xmlns="http://www.w3.org/2000/svg"
 width="86.000000pt" height="86.000000pt" viewBox="0 0 86.000000 86.000000"
 preserveAspectRatio="xMidYMid meet" fill="#D6DCE1">
<g transform="translate(0.000000,86.000000) scale(0.100000,-0.100000)"
 >
<path d="M345 767 c-133 -45 -217 -129 -250 -252 -64 -236 150 -470 390 -426
230 43 358 290 254 493 -72 142 -259 229 -394 185z m73 -93 l-3 -67 -43 -1
c-23 -1 -42 3 -42 7 0 24 66 127 81 127 6 0 9 -28 7 -66z m75 18 c43 -66 43
-79 0 -84 -21 -3 -39 -5 -39 -4 -1 1 -4 31 -8 68 -8 78 5 83 47 20z m-170 -9
c-15 -27 -28 -50 -30 -52 -2 -3 -20 3 -40 13 l-36 17 36 25 c34 23 73 42 89
43 4 1 -5 -20 -19 -46z m270 11 c20 -13 37 -28 37 -33 0 -9 -58 -36 -64 -30
-1 2 -14 26 -29 52 -26 48 -26 48 -4 42 12 -4 39 -18 60 -31z m-315 -99 c1 -1
-3 -34 -9 -73 l-12 -70 -68 -4 c-69 -3 -69 -3 -69 24 0 33 14 70 46 125 l25
43 42 -21 c23 -12 43 -23 45 -24z m447 -63 c28 -84 26 -87 -58 -84 l-74 3 -9
72 -9 72 40 21 40 21 27 -30 c15 -17 34 -51 43 -75z m-312 39 c4 -4 7 -35 5
-67 l-3 -59 -59 -3 -59 -3 6 59 c10 91 13 95 61 88 23 -4 45 -11 49 -15z m143
-77 l7 -54 -57 0 -56 0 0 69 0 70 43 3 c49 3 53 -3 63 -88z m-285 -158 l15
-74 -48 -20 c-35 -15 -50 -17 -56 -8 -22 26 -52 97 -58 135 l-7 41 70 0 69 0
15 -74z m147 9 c-2 -62 -4 -65 -28 -65 -14 0 -35 -3 -46 -6 -25 -7 -30 2 -39
79 l-7 57 61 0 62 0 -3 -65z m138 11 c-9 -82 -11 -85 -59 -79 -23 3 -43 6 -43
7 -1 0 -4 29 -6 64 l-4 62 59 0 60 0 -7 -54z m180 13 c-6 -40 -32 -97 -60
-132 -13 -17 -16 -17 -59 4 -44 21 -44 22 -36 58 5 20 9 53 9 74 l0 37 76 0
77 0 -7 -41z m-316 -184 c0 -36 -4 -65 -8 -65 -21 0 -88 111 -75 124 4 3 24 6
45 6 l38 0 0 -65z m109 50 c5 -6 -46 -90 -64 -105 -23 -19 -27 -8 -19 60 l7
62 36 -7 c20 -4 38 -8 40 -10z m-207 -55 c16 -28 26 -50 23 -50 -14 0 -79 32
-101 49 l-25 20 28 15 c41 22 45 20 75 -34z m283 35 l37 -16 -26 -20 c-21 -17
-87 -49 -100 -49 -3 0 47 100 50 100 1 0 18 -7 39 -15z"/>
</g>
</svg>
