<?xml version="1.0" standalone="no"?>
<!DOCTYPE svg PUBLIC "-//W3C//DTD SVG 20010904//EN"
 "http://www.w3.org/TR/2001/REC-SVG-20010904/DTD/svg10.dtd">
<svg version="1.0" xmlns="http://www.w3.org/2000/svg"
 width="98.000000pt" height="75.000000pt" viewBox="0 0 98.000000 75.000000"
 preserveAspectRatio="xMidYMid meet" fill="#D6DCE1">
<g transform="translate(0.000000,75.000000) scale(0.100000,-0.100000)"
 >
<path d="M477 663 c-4 -3 -7 -26 -7 -50 l0 -43 -175 0 c-233 0 -215 20 -215
-239 0 -181 2 -201 19 -222 l19 -24 353 -3 c241 -2 361 1 380 8 45 19 51 49
48 240 -3 179 -11 221 -44 234 -9 3 -91 6 -181 6 l-164 0 0 50 c0 47 -13 64
-33 43z m372 -137 c8 -9 11 -73 9 -207 l-3 -194 -359 -3 c-256 -2 -363 1 -372
9 -19 15 -20 379 -2 397 19 19 711 17 727 -2z M180 445 c0 -21 5 -25 30 -25
25 0 30 4 30 25 0 21 -5 25 -30 25 -25 0 -30 -4 -30 -25z M296 454 c-11 -28
-7 -34 24 -34 25 0 30 4 30 25 0 20 -5 25 -24 25 -13 0 -27 -7 -30 -16z M400
445 c0 -21 5 -25 30 -25 25 0 30 4 30 25 0 21 -5 25 -30 25 -25 0 -30 -4 -30
-25z M517 463 c-4 -3 -7 -15 -7 -25 0 -13 8 -18 30 -18 25 0 30 4 30 25 0 20
-5 25 -23 25 -13 0 -27 -3 -30 -7z M620 445 c0 -20 5 -25 24 -25 14 0 27 4 30
9 11 18 -6 41 -30 41 -19 0 -24 -5 -24 -25z M730 446 c0 -22 4 -26 31 -26 26
0 30 3 27 23 -2 16 -11 23 -30 25 -24 3 -28 0 -28 -22z M198 353 c-11 -3 -18
-14 -18 -29 0 -20 5 -24 31 -24 27 0 30 3 27 27 -3 28 -12 33 -40 26z M302
351 c-23 -14 -10 -46 21 -49 26 -3 28 -1 25 25 -3 29 -23 39 -46 24z M410 346
c-18 -22 -5 -46 25 -46 23 0 26 4 23 27 -3 32 -29 41 -48 19z M523 353 c-7 -2
-13 -16 -13 -29 0 -20 5 -24 30 -24 27 0 30 3 30 30 0 30 -14 37 -47 23z M633
353 c-7 -2 -13 -16 -13 -29 0 -22 4 -25 27 -22 31 3 44 35 21 49 -14 10 -17
10 -35 2z M730 324 c0 -22 4 -25 28 -22 19 2 28 9 30 26 3 19 -1 22 -27 22
-27 0 -31 -4 -31 -26z M198 233 c-10 -2 -18 -13 -18 -24 0 -15 7 -19 31 -19
26 0 30 3 27 22 -3 23 -13 28 -40 21z M730 216 c0 -22 4 -26 31 -26 26 0 30 3
27 23 -2 16 -11 23 -30 25 -24 3 -28 0 -28 -22z M300 210 c0 -19 7 -20 185
-20 178 0 185 1 185 20 0 19 -7 20 -185 20 -178 0 -185 -1 -185 -20z"/>
</g>
</svg>
