<?xml version="1.0" standalone="no"?>
<!DOCTYPE svg PUBLIC "-//W3C//DTD SVG 20010904//EN"
 "http://www.w3.org/TR/2001/REC-SVG-20010904/DTD/svg10.dtd">
<svg version="1.0" xmlns="http://www.w3.org/2000/svg"
 width="78.000000pt" height="89.000000pt" viewBox="0 0 78.000000 89.000000"
 preserveAspectRatio="xMidYMid meet" fill="#D6DCE1">
<g transform="translate(0.000000,89.000000) scale(0.100000,-0.100000)"
 >
<path d="M352 794 c-12 -8 -22 -22 -22 -29 0 -8 -15 -21 -32 -28 -53 -22 -99
-68 -124 -122 -21 -43 -24 -66 -24 -161 0 -111 0 -112 -35 -164 -59 -87 -48
-100 87 -100 l98 0 0 -26 c0 -37 50 -84 90 -84 40 0 90 47 90 84 l0 26 94 0
c52 0 101 3 110 6 25 10 19 46 -16 94 -32 43 -33 48 -38 170 -4 94 -10 134
-24 162 -21 44 -76 95 -123 114 -18 8 -33 21 -33 29 0 16 -38 45 -60 45 -9 0
-26 -7 -38 -16z m63 -34 c4 -6 -7 -10 -25 -10 -18 0 -29 4 -25 10 3 6 15 10
25 10 10 0 22 -4 25 -10z m40 -51 c52 -15 119 -82 134 -134 6 -22 11 -86 11
-141 0 -99 1 -103 34 -153 l35 -51 -275 0 c-151 0 -274 4 -274 9 0 5 7 14 16
22 34 28 44 67 44 167 0 121 18 186 62 229 60 58 129 75 213 52z m-10 -529
c10 -16 -4 -49 -27 -61 -41 -22 -97 16 -82 55 7 18 98 23 109 6z"/>
</g>
</svg>
