<?xml version="1.0" standalone="no"?>
<!DOCTYPE svg PUBLIC "-//W3C//DTD SVG 20010904//EN"
 "http://www.w3.org/TR/2001/REC-SVG-20010904/DTD/svg10.dtd">
<svg version="1.0" xmlns="http://www.w3.org/2000/svg"
 width="88.000000pt" height="82.000000pt" viewBox="0 0 88.000000 82.000000"
 preserveAspectRatio="xMidYMid meet" fill="#D6DCE1">
<g transform="translate(0.000000,82.000000) scale(0.100000,-0.100000)"
 >
<path d="M373 655 l-108 -84 -71 -1 c-106 0 -114 -12 -114 -164 0 -111 1 -118
25 -141 21 -22 33 -25 95 -25 l70 0 101 -80 c55 -44 106 -80 113 -80 34 0 36
21 36 330 0 299 -3 330 -31 330 -4 0 -56 -38 -116 -85z m117 -246 c0 -255 -2
-290 -15 -285 -8 3 -57 39 -108 80 l-93 75 -75 3 -74 3 -3 119 c-2 89 1 121
10 128 7 4 45 8 83 8 l70 1 95 79 c52 43 98 79 103 80 4 0 7 -131 7 -291z
M685 610 c-3 -5 5 -25 18 -42 44 -58 59 -99 60 -157 0 -61 -28 -139 -65 -179
-15 -15 -19 -25 -11 -33 16 -16 80 62 97 122 28 92 13 179 -45 257 -31 43 -43
50 -54 32z M605 528 c-4 -10 2 -28 15 -46 30 -40 30 -108 1 -157 -16 -28 -19
-41 -11 -49 8 -8 17 -5 31 12 49 61 49 169 -1 225 -24 27 -30 29 -35 15z"/>
</g>
</svg>
