<?xml version="1.0" standalone="no"?>
<!DOCTYPE svg PUBLIC "-//W3C//DTD SVG 20010904//EN"
 "http://www.w3.org/TR/2001/REC-SVG-20010904/DTD/svg10.dtd">
<svg version="1.0" xmlns="http://www.w3.org/2000/svg"
 width="76.000000pt" height="75.000000pt" viewBox="0 0 76.000000 75.000000"
 preserveAspectRatio="xMidYMid meet" fill="#D6DCE1">
<g transform="translate(0.000000,75.000000) scale(0.100000,-0.100000)"
 >
<path d="M96 652 c-23 -26 -20 -187 4 -187 12 0 16 17 18 82 l3 82 77 3 c60 2
77 6 77 18 0 12 -17 16 -81 18 -69 2 -83 0 -98 -16z M491 657 c-18 -22 -2 -27
80 -27 l78 0 3 -82 c2 -54 7 -83 16 -86 17 -5 17 179 0 196 -17 17 -162 16
-177 -1z M87 264 c-12 -13 -8 -159 5 -172 19 -19 188 -16 188 3 0 12 -16 15
-80 15 l-79 0 -3 77 c-3 70 -13 95 -31 77z M650 190 l0 -80 -80 0 c-65 0 -80
-3 -80 -15 0 -13 15 -15 93 -13 l92 3 3 93 c2 77 0 92 -13 92 -12 0 -15 -15
-15 -80z"/>
</g>
</svg>
