<?xml version="1.0" standalone="no"?>
<!DOCTYPE svg PUBLIC "-//W3C//DTD SVG 20010904//EN"
 "http://www.w3.org/TR/2001/REC-SVG-20010904/DTD/svg10.dtd">
<svg version="1.0" xmlns="http://www.w3.org/2000/svg"
 width="84.000000pt" height="84.000000pt" viewBox="0 0 84.000000 84.000000"
 preserveAspectRatio="xMidYMid meet" fill="#D6DCE1">
<g transform="translate(0.000000,84.000000) scale(0.100000,-0.100000)"
 >
<path d="M340 744 c-209 -56 -315 -278 -222 -467 106 -215 382 -259 549 -85
65 68 87 120 91 215 4 72 1 89 -23 140 -45 100 -129 171 -232 198 -69 18 -92
18 -163 -1z m217 -52 c102 -53 161 -142 170 -254 17 -213 -203 -373 -413 -301
-69 23 -155 110 -179 182 -54 164 37 337 205 392 46 15 172 4 217 -19z M347
544 c-4 -4 -7 -61 -7 -126 0 -96 3 -120 15 -124 20 -8 204 106 204 126 0 8
-41 39 -92 70 -100 60 -110 64 -120 54z m116 -89 c26 -15 47 -30 47 -35 0 -7
-115 -80 -126 -80 -2 0 -4 39 -4 87 0 81 1 85 18 71 9 -8 38 -28 65 -43z"/>
</g>
</svg>
