<?xml version="1.0" standalone="no"?>
<!DOCTYPE svg PUBLIC "-//W3C//DTD SVG 20010904//EN"
 "http://www.w3.org/TR/2001/REC-SVG-20010904/DTD/svg10.dtd">
<svg version="1.0" xmlns="http://www.w3.org/2000/svg"
 width="91.000000pt" height="76.000000pt" viewBox="0 0 91.000000 76.000000"
 preserveAspectRatio="xMidYMid meet" fill="#D6DCE1">
<g transform="translate(0.000000,76.000000) scale(0.100000,-0.100000)"
 >
<path d="M318 663 c-8 -10 -19 -30 -26 -45 -11 -27 -15 -28 -83 -28 -65 0 -73
-2 -100 -29 l-29 -29 0 -192 c0 -193 4 -220 39 -247 12 -9 101 -12 339 -13
l323 0 24 25 c25 24 25 25 25 228 l0 204 -26 27 c-24 23 -34 26 -100 26 -67 0
-73 2 -79 23 -4 12 -17 32 -28 45 -19 20 -29 22 -142 22 -104 0 -124 -3 -137
-17z m248 -21 c6 -4 19 -21 28 -39 22 -43 30 -47 116 -53 l75 -5 3 -204 c2
-142 -1 -208 -9 -217 -14 -18 -608 -21 -640 -4 -18 10 -19 23 -19 208 0 141 3
201 12 210 7 7 41 12 80 12 60 0 72 3 93 25 14 13 25 30 25 38 0 30 24 37 125
37 55 0 105 -4 111 -8z M383 490 c-110 -56 -119 -199 -18 -276 68 -52 175 -33
229 39 30 41 30 140 -1 183 -46 64 -142 88 -210 54z m156 -46 c91 -77 38 -224
-82 -224 -82 0 -135 61 -124 143 13 95 133 143 206 81z M684 485 c-4 -9 -2
-21 4 -27 15 -15 44 -1 40 19 -4 23 -36 29 -44 8z"/>
</g>
</svg>
