<?xml version="1.0" standalone="no"?>
<!DOCTYPE svg PUBLIC "-//W3C//DTD SVG 20010904//EN"
 "http://www.w3.org/TR/2001/REC-SVG-20010904/DTD/svg10.dtd">
<svg version="1.0" xmlns="http://www.w3.org/2000/svg"
 width="73.000000pt" height="85.000000pt" viewBox="0 0 73.000000 85.000000"
 preserveAspectRatio="xMidYMid meet" fill="#D6DCE1">
<g transform="translate(0.000000,85.000000) scale(0.100000,-0.100000)"
 >
<path d="M173 706 c-71 -73 -84 -106 -60 -149 22 -38 21 -66 -3 -93 -24 -24
-25 -42 -22 -226 2 -100 5 -130 18 -142 13 -14 51 -16 264 -16 246 0 249 0
264 22 14 19 16 67 16 323 0 289 -1 302 -20 323 -20 21 -28 22 -207 22 l-187
0 -63 -64z m435 -283 l-3 -308 -240 0 -240 0 -3 157 c-2 156 -2 157 23 182 28
28 33 77 10 96 -30 25 -18 65 36 124 l51 56 184 0 184 0 -2 -307z M246 664
c-3 -9 -6 -40 -6 -70 0 -47 2 -54 20 -54 18 0 20 7 20 70 0 53 -3 70 -14 70
-8 0 -17 -7 -20 -16z M330 610 c0 -68 1 -70 25 -70 24 0 25 2 25 70 0 68 -1
70 -25 70 -24 0 -25 -2 -25 -70z M422 613 c3 -62 5 -68 26 -71 21 -3 22 0 22
67 0 69 -1 71 -25 71 -26 0 -26 -1 -23 -67z M520 610 c0 -63 2 -70 20 -70 18
0 20 7 20 70 0 63 -2 70 -20 70 -18 0 -20 -7 -20 -70z"/>
</g>
</svg>
