<?xml version="1.0" standalone="no"?>
<!DOCTYPE svg PUBLIC "-//W3C//DTD SVG 20010904//EN"
 "http://www.w3.org/TR/2001/REC-SVG-20010904/DTD/svg10.dtd">
<svg version="1.0" xmlns="http://www.w3.org/2000/svg"
 width="75.000000pt" height="84.000000pt" viewBox="0 0 75.000000 84.000000"
 preserveAspectRatio="xMidYMid meet" fill="#D6DCE1">
<g transform="translate(0.000000,84.000000) scale(0.100000,-0.100000)"
 >
<path d="M241 745 c-72 -21 -124 -51 -144 -85 -14 -24 -17 -61 -17 -244 l0
-215 30 -35 c79 -90 332 -111 478 -40 80 39 82 46 82 304 l0 222 -28 27 c-66
67 -275 101 -401 66z m268 -36 c76 -16 116 -47 116 -89 0 -30 -5 -36 -45 -57
-63 -32 -151 -46 -245 -40 -305 22 -277 194 32 196 51 1 115 -4 142 -10z
m-134 -214 c131 0 144 2 198 27 l57 27 0 -78 c0 -89 -7 -100 -80 -126 -106
-38 -286 -29 -380 19 l-45 23 -3 81 -3 81 58 -27 c54 -25 67 -27 198 -27z
m-156 -189 c106 -31 321 -15 389 30 21 14 22 13 22 -18 0 -18 3 -50 6 -70 6
-33 3 -41 -25 -67 -75 -70 -310 -84 -428 -25 l-58 29 -3 83 -3 83 23 -15 c13
-8 47 -21 77 -30z"/>
</g>
</svg>
