<?xml version="1.0" standalone="no"?>
<!DOCTYPE svg PUBLIC "-//W3C//DTD SVG 20010904//EN"
 "http://www.w3.org/TR/2001/REC-SVG-20010904/DTD/svg10.dtd">
<svg version="1.0" xmlns="http://www.w3.org/2000/svg"
 width="89.000000pt" height="77.000000pt" viewBox="0 0 89.000000 77.000000"
 preserveAspectRatio="xMidYMid meet" fill="#D6DCE1">
<g transform="translate(0.000000,77.000000) scale(0.100000,-0.100000)"
 >
<path d="M120 670 c-17 -17 -20 -33 -20 -104 0 -47 -4 -88 -10 -91 -13 -8 -12
-102 4 -249 10 -95 16 -121 31 -132 15 -11 80 -14 317 -14 271 0 300 2 316 18
13 13 21 56 35 185 17 154 17 170 3 192 -9 13 -16 39 -16 58 0 30 -28 76 -48
78 -4 0 -72 2 -151 3 l-144 3 -29 36 -30 37 -119 0 c-106 0 -121 -2 -139 -20z
m269 -50 l32 -39 157 -3 157 -3 3 -35 3 -35 -301 0 -300 0 0 71 c0 39 3 74 7
77 3 4 52 7 108 7 l102 0 32 -40z m380 -164 c6 -7 9 -20 7 -27 -3 -8 -12 -79
-21 -157 -8 -79 -17 -148 -21 -153 -6 -11 -581 -12 -588 -1 -2 4 -12 78 -21
165 -12 122 -13 162 -4 173 17 20 631 21 648 0z"/>
</g>
</svg>
