<?xml version="1.0" standalone="no"?>
<!DOCTYPE svg PUBLIC "-//W3C//DTD SVG 20010904//EN"
 "http://www.w3.org/TR/2001/REC-SVG-20010904/DTD/svg10.dtd">
<svg version="1.0" xmlns="http://www.w3.org/2000/svg"
 width="102.000000pt" height="78.000000pt" viewBox="0 0 102.000000 78.000000"
 preserveAspectRatio="xMidYMid meet" fill="#D6DCE1">
<g transform="translate(0.000000,78.000000) scale(0.100000,-0.100000)"
 >
<path d="M417 683 c-64 -22 -129 -81 -155 -141 -17 -38 -28 -51 -49 -55 -101
-22 -161 -143 -119 -240 20 -47 77 -96 129 -112 25 -7 48 -11 51 -8 13 14 5
33 -14 33 -35 0 -100 39 -120 73 -30 48 -34 87 -15 135 21 52 55 80 106 88 35
6 40 11 49 46 6 21 28 58 48 80 131 145 369 87 415 -102 5 -19 19 -30 59 -45
36 -14 60 -31 76 -55 60 -89 -10 -220 -118 -220 -25 0 -31 -4 -28 -17 8 -39
117 -6 163 49 62 73 53 169 -21 238 -23 21 -54 42 -68 46 -17 4 -29 17 -36 39
-44 134 -216 216 -353 168z M440 439 c-75 -30 -148 -159 -90 -159 11 0 20 7
20 15 0 60 69 115 143 115 42 0 53 -5 90 -40 l42 -39 -27 -1 c-17 0 -28 -5
-28 -14 0 -17 22 -26 66 -26 l34 0 0 55 c0 42 -3 55 -15 55 -8 0 -15 -8 -15
-17 0 -13 -5 -12 -27 10 -53 50 -134 69 -193 46z M645 197 c-46 -96 -153 -116
-232 -44 -29 26 -29 37 -2 30 17 -5 20 -2 17 13 -3 20 -48 34 -80 26 -24 -6
-27 -102 -3 -102 8 0 15 7 15 15 0 12 11 7 40 -16 81 -65 207 -47 265 38 27
40 33 83 13 83 -7 -1 -22 -20 -33 -43z"/>
</g>
</svg>
