<?xml version="1.0" standalone="no"?>
<!DOCTYPE svg PUBLIC "-//W3C//DTD SVG 20010904//EN"
 "http://www.w3.org/TR/2001/REC-SVG-20010904/DTD/svg10.dtd">
<svg version="1.0" xmlns="http://www.w3.org/2000/svg"
 width="88.000000pt" height="83.000000pt" viewBox="0 0 88.000000 83.000000"
 preserveAspectRatio="xMidYMid meet" fill="#D6DCE1">
<g transform="translate(0.000000,83.000000) scale(0.100000,-0.100000)"
 >
<path d="M427 744 c-4 -4 -7 -93 -7 -198 l0 -190 -60 59 c-47 46 -62 57 -72
47 -10 -10 0 -24 42 -68 30 -30 68 -65 83 -76 l29 -21 74 74 c66 65 89 99 67
99 -4 0 -33 -26 -65 -57 l-58 -57 -2 34 c-1 19 -2 107 -3 194 0 149 -6 182
-28 160z M103 405 c-22 -15 -23 -22 -23 -154 0 -121 2 -140 18 -154 17 -15 55
-17 340 -17 396 0 362 -16 362 168 0 115 -2 130 -20 150 -24 25 -85 30 -93 8
-8 -20 2 -26 40 -26 l33 0 0 -85 0 -85 -320 0 -320 0 0 84 0 85 38 3 c25 2 37
8 37 18 0 21 -64 25 -92 5z m653 -281 c-7 -18 -615 -21 -633 -3 -5 5 -8 21 -5
35 l4 24 314 0 c244 0 314 3 316 13 0 6 3 -3 5 -21 3 -19 2 -40 -1 -48z"/>
</g>
</svg>
