<?xml version="1.0" standalone="no"?>
<!DOCTYPE svg PUBLIC "-//W3C//DTD SVG 20010904//EN"
 "http://www.w3.org/TR/2001/REC-SVG-20010904/DTD/svg10.dtd">
<svg version="1.0" xmlns="http://www.w3.org/2000/svg"
 width="87.000000pt" height="83.000000pt" viewBox="0 0 87.000000 83.000000"
 preserveAspectRatio="xMidYMid meet" fill="#D6DCE1">
<g transform="translate(0.000000,83.000000) scale(0.100000,-0.100000)"
 >
<path d="M356 671 c-59 -60 -77 -84 -72 -97 6 -15 17 -7 71 46 l65 64 0 -192
c0 -164 2 -192 15 -192 13 0 15 28 15 190 0 105 2 190 4 190 3 0 30 -27 62
-60 60 -63 69 -68 77 -46 3 8 -28 47 -77 95 l-81 81 -79 -79z M100 400 c-18
-18 -20 -33 -20 -141 0 -115 8 -154 34 -171 6 -4 153 -8 327 -8 293 0 317 1
332 18 24 26 25 266 1 300 -21 31 -94 32 -94 2 0 -16 7 -20 35 -20 l36 0 -3
-82 -3 -83 -312 -3 -313 -2 0 85 0 85 40 0 c33 0 40 3 40 20 0 17 -7 20 -40
20 -27 0 -47 -7 -60 -20z m648 -250 l-3 -35 -310 0 -310 0 -3 35 -3 35 316 0
316 0 -3 -35z"/>
</g>
</svg>
