<?xml version="1.0" standalone="no"?>
<!DOCTYPE svg PUBLIC "-//W3C//DTD SVG 20010904//EN"
 "http://www.w3.org/TR/2001/REC-SVG-20010904/DTD/svg10.dtd">
<svg version="1.0" xmlns="http://www.w3.org/2000/svg"
 width="92.000000pt" height="87.000000pt" viewBox="0 0 92.000000 87.000000"
 preserveAspectRatio="xMidYMid meet" fill="#D6DCE1">
<g transform="translate(0.000000,87.000000) scale(0.100000,-0.100000)"
 >
<path d="M245 765 c-17 -16 -25 -35 -25 -60 0 -34 -1 -35 -41 -35 -32 0 -47
-6 -71 -30 l-30 -30 4 -246 c3 -244 3 -246 27 -265 22 -18 42 -19 288 -19
l264 0 24 25 c17 16 25 35 25 60 0 34 1 35 40 35 30 0 47 7 65 25 l25 24 0
246 0 246 -26 24 -27 25 -259 0 -259 0 -24 -25z m550 -270 l0 -250 -42 -6 -43
-5 0 192 0 192 -31 26 -31 26 -194 0 -194 0 0 33 c0 19 3 37 7 40 4 4 124 6
267 5 l261 -3 0 -250z m-127 -50 c2 -162 1 -177 -12 -153 -18 33 -98 128 -108
128 -4 0 -42 -36 -85 -80 l-76 -81 -38 37 c-20 20 -42 35 -48 33 -20 -8 -161
-152 -161 -165 0 -26 19 -14 92 56 40 38 75 70 78 70 2 0 20 -16 40 -35 l37
-36 79 82 80 81 55 -71 c29 -39 57 -71 61 -71 12 0 9 -108 -2 -115 -20 -12
-513 -15 -527 -3 -18 15 -19 478 -1 496 9 9 79 12 273 10 l260 -3 3 -180z
M250 553 c-52 -19 -66 -77 -28 -113 29 -26 59 -25 86 3 30 32 28 71 -4 96 -28
22 -30 23 -54 14z m44 -56 c9 -15 7 -21 -8 -32 -35 -26 -74 13 -44 43 16 16
38 12 52 -11z"/>
</g>
</svg>
