<?xml version="1.0" standalone="no"?>
<!DOCTYPE svg PUBLIC "-//W3C//DTD SVG 20010904//EN"
 "http://www.w3.org/TR/2001/REC-SVG-20010904/DTD/svg10.dtd">
<svg version="1.0" xmlns="http://www.w3.org/2000/svg"
 width="84.000000pt" height="77.000000pt" viewBox="0 0 84.000000 77.000000"
 preserveAspectRatio="xMidYMid meet" fill="#D6DCE1">
<g transform="translate(0.000000,77.000000) scale(0.100000,-0.100000)"
 >
<path d="M170 683 c-74 -7 -76 -12 -84 -197 -9 -217 1 -363 26 -388 17 -17 40
-18 306 -18 263 0 290 2 304 18 23 26 41 218 32 351 -10 163 -8 161 -186 161
l-141 0 -37 40 c-37 40 -37 40 -106 38 -38 -1 -89 -3 -114 -5z m208 -70 l30
-38 137 3 c157 4 165 1 165 -64 l0 -44 -289 0 -289 0 -4 78 c-2 42 1 83 5 90
7 8 41 12 112 12 l103 0 30 -37z m339 -334 c-4 -83 -9 -155 -13 -160 -3 -5
-128 -9 -285 -9 -232 0 -281 2 -285 14 -7 18 -22 288 -17 299 2 4 140 7 305 7
l301 0 -6 -151z M355 351 l-60 -6 -3 -40 c-2 -22 -1 -59 3 -82 l6 -43 125 0
124 0 0 85 0 85 -47 0 c-27 0 -57 2 -68 4 -11 2 -47 0 -80 -3z m165 -86 l0
-55 -95 0 -95 0 0 55 0 55 95 0 95 0 0 -55z"/>
</g>
</svg>
