<?xml version="1.0" standalone="no"?>
<!DOCTYPE svg PUBLIC "-//W3C//DTD SVG 20010904//EN"
 "http://www.w3.org/TR/2001/REC-SVG-20010904/DTD/svg10.dtd">
<svg version="1.0" xmlns="http://www.w3.org/2000/svg"
 width="84.000000pt" height="80.000000pt" viewBox="0 0 84.000000 80.000000"
 preserveAspectRatio="xMidYMid meet" fill="#D6DCE1">
<g transform="translate(0.000000,80.000000) scale(0.100000,-0.100000)"
 >
<path d="M270 685 l0 -34 -92 -3 c-75 -2 -93 -6 -93 -18 0 -13 44 -15 335 -15
291 0 335 2 335 15 0 12 -19 16 -97 18 l-98 3 0 34 0 35 -145 0 -145 0 0 -35z
m248 3 c32 -32 14 -38 -103 -38 -105 0 -115 2 -115 18 0 10 3 22 7 25 12 12
198 8 211 -5z M656 592 c-6 -10 -22 -175 -32 -337 -3 -60 -11 -118 -16 -128
-8 -15 -27 -17 -187 -17 -131 0 -181 3 -188 13 -5 6 -15 98 -22 202 -15 233
-20 265 -37 265 -17 0 -17 -21 -4 -240 19 -292 -2 -270 250 -270 177 0 191 1
210 20 11 11 20 26 20 32 0 7 7 90 15 183 17 199 19 272 6 280 -5 3 -12 1 -15
-3z M332 488 c-4 -13 -6 -80 -4 -150 3 -102 6 -128 18 -128 11 0 14 26 14 144
0 139 -10 187 -28 134z M480 355 c0 -122 2 -145 15 -145 13 0 15 23 15 145 0
122 -2 145 -15 145 -13 0 -15 -23 -15 -145z"/>
</g>
</svg>
