<?xml version="1.0" standalone="no"?>
<!DOCTYPE svg PUBLIC "-//W3C//DTD SVG 20010904//EN"
 "http://www.w3.org/TR/2001/REC-SVG-20010904/DTD/svg10.dtd">
<svg version="1.0" xmlns="http://www.w3.org/2000/svg"
 width="78.000000pt" height="88.000000pt" viewBox="0 0 78.000000 88.000000"
 preserveAspectRatio="xMidYMid meet" fill="#D6DCE1">
<g transform="translate(0.000000,88.000000) scale(0.100000,-0.100000)"
 >
<path d="M290 765 c-52 -18 -116 -40 -141 -49 -29 -10 -49 -24 -55 -38 -5 -13
-9 -84 -9 -158 1 -117 4 -143 24 -193 33 -84 115 -168 207 -213 l73 -37 76 36
c91 44 160 110 201 192 28 57 29 67 32 215 4 184 8 177 -119 214 -47 14 -109
34 -138 45 -28 12 -53 20 -54 20 -1 -1 -45 -17 -97 -34z m228 -46 c70 -23 133
-43 140 -45 9 -2 12 -37 12 -128 0 -172 -21 -238 -98 -315 -75 -74 -152 -115
-197 -107 -48 9 -152 81 -187 130 -57 78 -61 98 -62 265 l-1 154 130 43 c72
23 131 42 133 43 2 1 61 -17 130 -40z M436 459 l-76 -83 -32 30 c-18 16 -36
33 -40 39 -5 6 -12 5 -20 -3 -10 -10 -2 -23 40 -64 l52 -52 67 74 c96 105 107
120 96 131 -7 7 -36 -18 -87 -72z"/>
</g>
</svg>
