<?xml version="1.0" standalone="no"?>
<!DOCTYPE svg PUBLIC "-//W3C//DTD SVG 20010904//EN"
 "http://www.w3.org/TR/2001/REC-SVG-20010904/DTD/svg10.dtd">
<svg version="1.0" xmlns="http://www.w3.org/2000/svg"
 width="77.000000pt" height="88.000000pt" viewBox="0 0 77.000000 88.000000"
 preserveAspectRatio="xMidYMid meet" fill="#D6DCE1">
<g transform="translate(0.000000,88.000000) scale(0.100000,-0.100000)"
 >
<path d="M305 781 c-80 -36 -125 -113 -125 -213 0 -44 -2 -48 -24 -48 -13 0
-33 -8 -44 -17 -22 -19 -26 -65 -23 -300 2 -129 -13 -123 296 -123 l256 0 24
25 c25 24 25 27 25 198 0 168 -1 174 -23 195 -13 12 -35 22 -50 22 -27 0 -27
1 -27 68 0 58 -4 75 -29 114 -54 84 -167 120 -256 79z m182 -47 c52 -39 67
-70 71 -144 l4 -70 -171 0 -171 0 0 64 c0 72 22 114 80 154 45 30 144 28 187
-4z m163 -263 c15 -29 13 -334 -2 -349 -17 -17 -499 -17 -516 0 -17 17 -17
339 0 356 9 9 80 12 260 12 234 0 248 -1 258 -19z M344 365 c-15 -23 -15 -27
-1 -49 9 -13 17 -41 19 -62 3 -34 6 -39 28 -39 23 0 25 3 22 36 -2 23 2 40 12
49 23 18 20 67 -3 80 -32 17 -60 11 -77 -15z"/>
</g>
</svg>
