<?xml version="1.0" standalone="no"?>
<!DOCTYPE svg PUBLIC "-//W3C//DTD SVG 20010904//EN"
 "http://www.w3.org/TR/2001/REC-SVG-20010904/DTD/svg10.dtd">
<svg version="1.0" xmlns="http://www.w3.org/2000/svg"
 width="77.000000pt" height="87.000000pt" viewBox="0 0 77.000000 87.000000"
 preserveAspectRatio="xMidYMid meet" fill="#D6DCE1">
<g transform="translate(0.000000,87.000000) scale(0.100000,-0.100000)"
 >
<path d="M324 780 c-50 -16 -111 -89 -119 -144 -10 -61 14 -125 62 -167 38
-33 34 -49 -15 -49 -15 0 -44 -21 -81 -57 -98 -99 -122 -224 -47 -253 55 -21
252 -31 381 -20 168 14 185 23 184 95 0 51 -18 102 -53 147 -33 44 -101 92
-120 85 -7 -3 -19 0 -25 6 -6 6 -11 7 -11 3 0 -10 40 -46 51 -46 17 0 81 -65
100 -101 11 -23 19 -58 19 -88 l0 -50 -47 -8 c-65 -11 -411 -8 -448 4 -28 9
-30 12 -29 61 2 66 38 128 96 168 24 16 49 35 56 41 15 14 21 15 107 13 231
-5 249 344 19 365 -27 2 -63 0 -80 -5z m136 -45 c116 -60 96 -239 -32 -273
-66 -18 -147 14 -175 69 -19 37 -16 119 6 153 42 63 133 86 201 51z"/>
</g>
</svg>
