<?xml version="1.0" standalone="no"?>
<!DOCTYPE svg PUBLIC "-//W3C//DTD SVG 20010904//EN"
 "http://www.w3.org/TR/2001/REC-SVG-20010904/DTD/svg10.dtd">
<svg version="1.0" xmlns="http://www.w3.org/2000/svg"
 width="105.000000pt" height="81.000000pt" viewBox="0 0 105.000000 81.000000"
 preserveAspectRatio="xMidYMid meet" fill="#D6DCE1">
<g transform="translate(0.000000,81.000000) scale(0.100000,-0.100000)"
 >
<path d="M464 716 c-101 -44 -114 -184 -25 -258 l29 -25 -36 -11 c-91 -28
-166 -134 -165 -234 1 -32 6 -65 12 -72 18 -21 124 -36 247 -35 235 2 271 18
261 116 -11 101 -68 181 -159 218 l-44 19 38 34 c64 58 73 141 21 203 -48 57
-113 73 -179 45z m106 -32 c91 -36 97 -164 10 -209 -85 -44 -182 28 -166 124
6 38 48 88 80 94 11 2 24 5 28 6 4 0 26 -6 48 -15z m65 -308 c75 -42 115 -108
115 -191 l0 -54 -57 -8 c-81 -11 -332 -7 -367 6 -28 11 -29 13 -23 65 18 176
182 266 332 182z M203 604 c-39 -19 -67 -75 -58 -112 8 -31 43 -72 62 -72 22
0 15 -17 -10 -24 -65 -16 -116 -95 -117 -178 0 -60 23 -78 97 -78 40 0 53 4
53 15 0 11 -11 15 -37 15 -70 0 -83 8 -83 49 0 75 57 140 132 151 37 5 43 9
41 27 -2 14 4 24 17 28 52 16 65 108 23 155 -34 37 -77 46 -120 24z m84 -32
c38 -24 34 -100 -6 -121 -69 -37 -131 41 -85 107 15 22 66 30 91 14z M758 604
c-38 -20 -61 -68 -54 -108 6 -33 34 -70 58 -78 10 -4 11 -8 1 -20 -17 -20 -7
-28 35 -28 80 0 142 -67 142 -153 l0 -36 -60 -7 c-41 -4 -60 -11 -60 -20 0
-20 99 -19 128 2 18 13 22 25 22 73 0 71 -39 132 -100 160 l-39 17 34 27 c61
49 54 137 -15 172 -36 19 -57 18 -92 -1z m97 -44 c41 -45 9 -120 -51 -120 -54
0 -85 80 -47 122 22 24 75 23 98 -2z"/>
</g>
</svg>
