<?xml version="1.0" standalone="no"?>
<!DOCTYPE svg PUBLIC "-//W3C//DTD SVG 20010904//EN"
 "http://www.w3.org/TR/2001/REC-SVG-20010904/DTD/svg10.dtd">
<svg version="1.0" xmlns="http://www.w3.org/2000/svg"
 width="75.000000pt" height="91.000000pt" viewBox="0 0 75.000000 91.000000"
 preserveAspectRatio="xMidYMid meet" fill="#D6DCE1">
<g transform="translate(0.000000,91.000000) scale(0.100000,-0.100000)"
 >
<path d="M237 824 c-4 -4 -7 -54 -7 -110 l0 -103 -72 -3 c-83 -3 -98 -20 -54
-59 23 -20 26 -30 26 -88 0 -75 21 -130 66 -175 35 -35 99 -65 137 -66 27 0
27 0 27 -70 0 -56 3 -70 15 -70 12 0 15 14 15 70 0 70 0 70 28 70 34 0 109 34
140 63 41 38 63 95 69 176 5 59 10 79 25 89 11 8 18 23 16 35 -3 20 -10 22
-70 25 l-68 3 0 97 c0 102 -8 129 -34 119 -13 -5 -16 -24 -16 -112 l0 -105
-105 0 -104 0 -3 107 c-3 98 -11 127 -31 107z m322 -251 c46 -4 59 -8 47 -15
-13 -7 -16 -25 -16 -84 0 -55 -5 -85 -20 -113 -85 -167 -361 -141 -399 38 -6
29 -11 74 -11 102 0 36 -4 51 -16 56 -12 4 -13 8 -3 13 15 10 326 12 418 3z"/>
</g>
</svg>
