<?xml version="1.0" standalone="no"?>
<!DOCTYPE svg PUBLIC "-//W3C//DTD SVG 20010904//EN"
 "http://www.w3.org/TR/2001/REC-SVG-20010904/DTD/svg10.dtd">
<svg version="1.0" xmlns="http://www.w3.org/2000/svg"
 width="88.000000pt" height="89.000000pt" viewBox="0 0 88.000000 89.000000"
 preserveAspectRatio="xMidYMid meet" fill="#D6DCE1">
<g transform="translate(0.000000,89.000000) scale(0.100000,-0.100000)"
 >
<path d="M335 801 c-33 -14 -56 -47 -62 -90 l-6 -41 -73 0 c-67 0 -74 -2 -94
-27 -19 -24 -21 -38 -18 -96 4 -78 12 -87 75 -87 33 0 46 -5 63 -27 41 -53 2
-114 -74 -117 -59 -2 -66 -12 -66 -102 0 -57 4 -77 21 -98 19 -25 25 -26 109
-26 96 0 101 3 92 57 -6 41 33 83 77 83 41 0 75 -43 67 -86 -9 -46 10 -57 97
-55 39 1 79 4 88 6 26 8 39 51 39 125 l0 70 36 0 c83 0 124 102 68 169 -21 25
-33 31 -65 31 l-39 0 0 64 c0 97 -19 116 -116 116 l-74 0 0 30 c0 79 -73 130
-145 101z m98 -54 c13 -15 17 -31 14 -53 -8 -47 1 -53 93 -56 l85 -3 3 -80 c3
-89 12 -106 50 -99 61 12 103 -31 88 -90 -7 -28 -53 -50 -87 -41 -41 9 -48 -4
-51 -105 l-3 -95 -72 -3 -73 -3 0 37 c0 76 -75 129 -143 101 -45 -19 -67 -52
-67 -100 l0 -38 -72 3 -73 3 -3 78 -3 77 33 0 c146 0 159 201 15 217 l-48 6 3
66 3 66 90 5 90 5 3 45 c4 48 15 68 47 80 27 11 56 3 78 -23z"/>
</g>
</svg>
