<?xml version="1.0" standalone="no"?>
<!DOCTYPE svg PUBLIC "-//W3C//DTD SVG 20010904//EN"
 "http://www.w3.org/TR/2001/REC-SVG-20010904/DTD/svg10.dtd">
<svg version="1.0" xmlns="http://www.w3.org/2000/svg"
 width="92.000000pt" height="89.000000pt" viewBox="0 0 92.000000 89.000000"
 preserveAspectRatio="xMidYMid meet" fill="#D6DCE1">
<g transform="translate(0.000000,89.000000) scale(0.100000,-0.100000)"
 >
<path d="M383 798 c-6 -7 -13 -25 -17 -40 -8 -35 -52 -51 -87 -32 -40 22 -55
16 -98 -35 -47 -56 -47 -55 -22 -89 24 -35 13 -69 -26 -78 -46 -11 -53 -23
-53 -83 0 -67 5 -76 46 -85 46 -10 57 -42 31 -89 l-21 -37 44 -45 c49 -49 59
-53 95 -29 36 23 75 7 90 -37 12 -33 13 -34 76 -37 90 -4 109 2 109 37 0 41
50 59 96 35 36 -20 49 -14 103 48 l31 36 -19 34 c-25 44 -15 70 35 84 l39 11
3 62 c3 69 -5 87 -47 96 -42 9 -56 47 -30 79 25 32 25 32 -29 90 -47 51 -51
52 -92 31 -27 -14 -33 -14 -60 0 -17 9 -30 24 -30 35 0 35 -27 50 -94 50 -39
0 -67 -5 -73 -12z m137 -58 c0 -27 6 -33 46 -50 41 -18 48 -19 67 -5 31 22 50
19 82 -15 l28 -30 -18 -33 c-27 -50 -7 -104 41 -113 33 -6 34 -7 34 -55 0 -47
-1 -48 -35 -55 -30 -5 -37 -12 -47 -46 -10 -34 -9 -44 6 -70 l18 -30 -30 -31
c-31 -31 -31 -31 -66 -14 -55 26 -122 -1 -128 -51 -3 -25 -7 -27 -59 -30 l-57
-3 -6 33 c-5 27 -14 36 -47 50 -38 16 -43 16 -75 1 -34 -17 -35 -17 -65 13
l-31 31 20 32 c18 30 19 35 5 71 -13 31 -22 39 -49 45 -33 6 -34 7 -34 54 0
47 1 49 33 55 26 5 37 14 50 43 16 35 15 38 -5 71 l-21 34 31 31 c30 30 33 31
66 19 51 -19 111 1 125 39 5 15 7 30 4 33 -4 3 21 6 55 6 l62 0 0 -30z M486
578 c-43 -143 -76 -261 -76 -273 0 -8 7 -15 15 -15 9 0 20 20 29 53 8 28 26
92 40 141 14 49 23 93 20 97 -8 13 -24 11 -28 -3z M302 488 l-53 -52 55 -55
c44 -44 58 -53 68 -43 9 9 3 22 -32 58 l-45 45 43 40 c37 35 47 59 24 59 -4 0
-31 -23 -60 -52z M554 529 c-3 -6 12 -30 36 -53 l41 -43 -47 -42 c-34 -30 -44
-45 -36 -53 7 -7 26 3 66 38 31 26 56 53 56 59 0 11 -91 105 -102 105 -4 0
-10 -5 -14 -11z"/>
</g>
</svg>
