<?xml version="1.0" standalone="no"?>
<!DOCTYPE svg PUBLIC "-//W3C//DTD SVG 20010904//EN"
 "http://www.w3.org/TR/2001/REC-SVG-20010904/DTD/svg10.dtd">
<svg version="1.0" xmlns="http://www.w3.org/2000/svg"
 width="84.000000pt" height="84.000000pt" viewBox="0 0 84.000000 84.000000"
 preserveAspectRatio="xMidYMid meet" fill="#D6DCE1">
<g transform="translate(0.000000,84.000000) scale(0.100000,-0.100000)"
 >
<path d="M367 748 c-68 -9 -149 -51 -191 -98 -157 -174 -114 -432 90 -535 53
-27 68 -30 154 -30 89 0 99 2 158 34 100 54 161 142 178 254 6 44 5 49 -11 45
-14 -2 -22 -20 -31 -66 -31 -149 -141 -236 -299 -236 -93 0 -154 25 -217 91
-138 143 -95 386 86 481 109 57 268 29 356 -63 l35 -37 -42 3 c-24 2 -48 -2
-55 -9 -15 -15 -3 -18 79 -27 60 -6 63 -5 68 18 11 42 2 112 -15 112 -9 0 -16
-11 -18 -31 l-3 -30 -36 33 c-75 72 -185 106 -286 91z M458 423 l-68 -67 -38
37 c-39 39 -62 47 -62 23 0 -17 87 -96 106 -96 12 0 149 145 149 158 0 21 -29
3 -87 -55z"/>
</g>
</svg>
