<?xml version="1.0" standalone="no"?>
<!DOCTYPE svg PUBLIC "-//W3C//DTD SVG 20010904//EN"
 "http://www.w3.org/TR/2001/REC-SVG-20010904/DTD/svg10.dtd">
<svg version="1.0" xmlns="http://www.w3.org/2000/svg"
 width="97.000000pt" height="82.000000pt" viewBox="0 0 97.000000 82.000000"
 preserveAspectRatio="xMidYMid meet" fill="#D6DCE1">
<g transform="translate(0.000000,82.000000) scale(0.100000,-0.100000)"
 >
<path d="M406 726 c-62 -23 -109 -67 -141 -133 -22 -46 -35 -62 -51 -62 -27
-1 -81 -38 -107 -72 -52 -70 -20 -185 63 -226 49 -25 135 -32 128 -10 -3 6
-11 13 -19 14 -98 13 -141 40 -160 102 -23 76 43 161 124 161 21 0 26 7 37 48
16 64 87 134 155 151 122 31 253 -47 271 -161 5 -30 11 -38 28 -38 11 0 35 -9
53 -20 121 -73 65 -240 -80 -240 -27 0 -37 -4 -34 -12 2 -8 24 -13 59 -13 174
1 216 235 53 301 -25 11 -45 25 -45 32 0 44 -72 132 -135 164 -51 26 -147 33
-199 14z M476 473 c-3 -3 -6 -81 -6 -172 l0 -165 -54 53 c-37 36 -56 49 -61
41 -5 -8 19 -39 64 -83 l71 -72 65 70 c58 63 78 95 58 95 -4 0 -31 -23 -60
-52 l-53 -52 0 166 c0 152 -5 189 -24 171z"/>
</g>
</svg>
