<?xml version="1.0" standalone="no"?>
<!DOCTYPE svg PUBLIC "-//W3C//DTD SVG 20010904//EN"
 "http://www.w3.org/TR/2001/REC-SVG-20010904/DTD/svg10.dtd">
<svg version="1.0" xmlns="http://www.w3.org/2000/svg"
 width="86.000000pt" height="81.000000pt" viewBox="0 0 86.000000 81.000000"
 preserveAspectRatio="xMidYMid meet" fill="#D6DCE1">
<g transform="translate(0.000000,81.000000) scale(0.100000,-0.100000)"
 >
<path d="M346 705 c-112 -46 -181 -143 -193 -270 l-6 -68 -24 28 c-18 21 -27
25 -36 16 -9 -9 0 -23 35 -58 l47 -47 48 41 c46 38 67 73 44 73 -5 0 -23 -12
-38 -26 l-28 -26 -3 58 c-10 194 216 333 394 241 101 -51 153 -129 161 -241
17 -221 -222 -376 -416 -271 -28 16 -54 25 -57 22 -15 -15 10 -40 61 -63 97
-45 228 -31 314 33 50 37 68 59 102 128 61 125 29 281 -78 374 -91 81 -215
102 -327 56z M440 507 l0 -73 64 -47 c72 -53 72 -53 80 -32 3 10 -14 28 -54
55 l-60 41 0 64 c0 51 -3 65 -15 65 -12 0 -15 -15 -15 -73z M580 252 c-36 -22
-56 -26 -110 -26 -36 0 -78 4 -95 9 -30 8 -30 8 -11 -13 24 -28 94 -42 148
-30 56 11 122 49 126 71 5 23 -5 21 -58 -11z"/>
</g>
</svg>
