<?xml version="1.0" standalone="no"?>
<!DOCTYPE svg PUBLIC "-//W3C//DTD SVG 20010904//EN"
 "http://www.w3.org/TR/2001/REC-SVG-20010904/DTD/svg10.dtd">
<svg version="1.0" xmlns="http://www.w3.org/2000/svg"
 width="89.000000pt" height="67.000000pt" viewBox="0 0 89.000000 67.000000"
 preserveAspectRatio="xMidYMid meet" fill="#D6DCE1">
<g transform="translate(0.000000,67.000000) scale(0.100000,-0.100000)"
 >
<path d="M133 579 c11 -7 23 -7 35 0 14 9 11 10 -18 10 -29 0 -32 -1 -17 -10z
M94 436 c-21 -33 -15 -65 18 -89 37 -27 76 -15 94 30 12 28 11 34 -7 57 -28
35 -82 36 -105 2z m84 -38 c2 -19 -2 -28 -18 -33 -37 -12 -64 27 -38 53 21 21
53 10 56 -20z M296 411 c-17 -26 28 -31 265 -29 223 3 244 4 247 21 3 16 -14
17 -252 17 -140 0 -257 -4 -260 -9z M102 197 c-29 -30 -28 -62 3 -92 30 -31
55 -32 83 -2 29 31 29 81 0 101 -32 22 -61 20 -86 -7z m71 -29 c15 -23 1 -48
-27 -48 -33 0 -46 38 -20 57 21 15 34 13 47 -9z M300 150 c0 -20 4 -20 253
-18 216 3 252 5 252 18 0 13 -36 15 -252 18 -249 2 -253 2 -253 -18z"/>
</g>
</svg>
