<?xml version="1.0" standalone="no"?>
<!DOCTYPE svg PUBLIC "-//W3C//DTD SVG 20010904//EN"
 "http://www.w3.org/TR/2001/REC-SVG-20010904/DTD/svg10.dtd">
<svg version="1.0" xmlns="http://www.w3.org/2000/svg"
 width="94.000000pt" height="70.000000pt" viewBox="0 0 94.000000 70.000000"
 preserveAspectRatio="xMidYMid meet" fill="#D6DCE1">
<g transform="translate(0.000000,70.000000) scale(0.100000,-0.100000)"
 >
<path d="M326 596 c-183 -77 -282 -275 -233 -466 8 -28 18 -45 27 -45 16 0 16
6 2 77 l-9 47 36 3 c47 4 47 22 -1 26 -36 3 -36 4 -31 40 8 53 40 136 65 167
18 24 22 25 37 11 35 -32 57 -10 25 25 -14 16 -12 19 20 44 32 25 139 65 171
65 8 0 15 -13 17 -32 4 -45 32 -44 36 1 3 32 5 33 38 28 41 -7 141 -51 166
-74 18 -16 17 -17 -3 -39 -21 -22 -21 -24 -4 -30 12 -5 23 -1 31 11 13 17 15
17 33 1 25 -22 67 -120 76 -174 l7 -42 -36 0 c-25 0 -36 -4 -36 -15 0 -11 11
-15 35 -15 l36 0 -7 -37 c-4 -21 -10 -48 -15 -60 -8 -23 3 -39 20 -29 18 12
34 110 28 181 -10 136 -100 265 -224 323 -85 39 -223 43 -307 8z M550 335
c-34 -34 -63 -55 -77 -55 -23 0 -63 -35 -63 -56 0 -21 41 -64 61 -64 27 0 59
35 59 66 0 17 19 47 55 88 51 59 58 76 30 76 -6 0 -35 -25 -65 -55z m-56 -101
c8 -21 -1 -34 -25 -34 -12 0 -19 7 -19 18 0 34 33 45 44 16z"/>
</g>
</svg>
