<?xml version="1.0" standalone="no"?>
<!DOCTYPE svg PUBLIC "-//W3C//DTD SVG 20010904//EN"
 "http://www.w3.org/TR/2001/REC-SVG-20010904/DTD/svg10.dtd">
<svg version="1.0" xmlns="http://www.w3.org/2000/svg"
 width="89.000000pt" height="88.000000pt" viewBox="0 0 89.000000 88.000000"
 preserveAspectRatio="xMidYMid meet" fill="#D6DCE1">
<g transform="translate(0.000000,88.000000) scale(0.100000,-0.100000)"
 >
<path d="M331 784 c-98 -35 -175 -107 -219 -203 -21 -46 -26 -71 -26 -141 -1
-77 2 -92 32 -152 38 -78 100 -138 182 -177 80 -38 210 -38 292 1 80 37 149
105 184 181 41 88 42 205 2 289 -35 76 -107 151 -176 185 -70 34 -201 43 -271
17z m210 -34 c35 -11 78 -31 94 -44 l30 -25 -42 -42 -41 -42 -44 22 c-57 27
-131 28 -182 1 l-38 -19 -35 26 c-59 46 -60 59 -7 93 26 16 64 32 83 36 20 3
41 7 46 9 26 9 79 3 136 -15z m-292 -136 l39 -36 -24 -52 c-30 -64 -30 -113
-2 -178 l22 -51 -37 -33 c-45 -41 -50 -42 -77 -5 -49 70 -66 204 -35 290 16
47 51 101 65 101 5 0 27 -16 49 -36z m463 19 c69 -79 80 -251 23 -349 -41 -69
-48 -71 -89 -21 l-36 44 20 44 c26 57 25 122 -1 177 l-22 44 39 39 c44 45 45
45 66 22z m-209 -37 c102 -37 141 -141 90 -240 -57 -110 -237 -111 -295 -1
-50 92 -3 216 92 243 48 14 69 13 113 -2z m-152 -336 c58 -26 131 -26 187 1
l44 22 41 -42 42 -42 -30 -25 c-16 -13 -61 -34 -100 -46 -61 -19 -77 -20 -132
-11 -69 12 -173 57 -173 75 0 10 68 88 76 88 1 0 21 -9 45 -20z"/>
</g>
</svg>
