<?xml version="1.0" standalone="no"?>
<!DOCTYPE svg PUBLIC "-//W3C//DTD SVG 20010904//EN"
 "http://www.w3.org/TR/2001/REC-SVG-20010904/DTD/svg10.dtd">
<svg version="1.0" xmlns="http://www.w3.org/2000/svg"
 width="82.000000pt" height="81.000000pt" viewBox="0 0 82.000000 81.000000"
 preserveAspectRatio="xMidYMid meet" fill="#D6DCE1">
<g transform="translate(0.000000,81.000000) scale(0.100000,-0.100000)"
 >
<path d="M332 715 c-73 -20 -107 -40 -156 -88 -67 -67 -90 -126 -91 -227 0
-100 23 -159 90 -225 68 -69 124 -90 235 -90 110 0 158 18 230 87 66 63 95
135 95 233 -1 84 -16 129 -72 202 -68 89 -220 139 -331 108z m205 -53 c107
-55 163 -142 163 -252 0 -177 -116 -295 -290 -295 -169 1 -290 116 -290 276 0
139 67 237 197 285 54 20 167 13 220 -14z M384 556 c-10 -25 0 -51 20 -54 27
-6 48 25 35 49 -12 22 -47 25 -55 5z M350 440 c0 -11 7 -20 15 -20 12 0 15
-14 15 -69 0 -61 -2 -69 -21 -74 -45 -12 -13 -32 54 -35 62 -3 67 -1 67 18 0
13 -7 20 -20 20 -19 0 -20 7 -20 90 l0 90 -45 0 c-38 0 -45 -3 -45 -20z"/>
</g>
</svg>
