<?xml version="1.0" encoding="UTF-8" standalone="no"?>
<svg
   version="1.0"
   width="85.000000pt"
   height="81.000000pt"
   viewBox="0 0 85.000000 81.000000"
   preserveAspectRatio="xMidYMid meet"
   fill="#D6DCE1"
   id="svg1"
   sodipodi:docname="EXIF.svg"
   inkscape:version="1.4.4 (dcaf3e7d9e, 2026-05-05)"
   xmlns:inkscape="http://www.inkscape.org/namespaces/inkscape"
   xmlns:sodipodi="http://sodipodi.sourceforge.net/DTD/sodipodi-0.dtd"
   xmlns="http://www.w3.org/2000/svg"
   xmlns:svg="http://www.w3.org/2000/svg">
  <defs
     id="defs1" />
  <sodipodi:namedview
     id="namedview1"
     pagecolor="#ffffff"
     bordercolor="#000000"
     borderopacity="0.25"
     inkscape:showpageshadow="2"
     inkscape:pageopacity="0.0"
     inkscape:pagecheckerboard="0"
     inkscape:deskcolor="#d1d1d1"
     inkscape:document-units="pt"
     inkscape:zoom="11.148148"
     inkscape:cx="56.64618"
     inkscape:cy="54.000001"
     inkscape:window-width="2514"
     inkscape:window-height="1412"
     inkscape:window-x="0"
     inkscape:window-y="0"
     inkscape:window-maximized="1"
     inkscape:current-layer="g1" />
  <g
     transform="translate(0.000000,81.000000) scale(0.100000,-0.100000)"
     id="g1">
    <path
       d="M 110,710 C 99,699 88,680 85,668 77,633 85,137 93,119 110,84 146,80 430,80 h 279 l 28,24 28,24 1,268 c 2,280 -2,313 -41,328 -9,3 -147,6 -306,6 -274,0 -290,-1 -309,-20 z m 601,-20 c 18,-10 19,-24 19,-275 0,-145 -3,-270 -6,-279 -9,-24 -589,-24 -598,0 -3,9 -6,134 -6,279 0,241 2,265 18,274 23,14 547,14 573,1 z M 200,405 v -85 h 59.03654 C 310.56478,320 310,325 310,330 c 0,6 -5.21761,16.05482 -27.21761,16.05482 C 246.78239,346.05482 230,343 230,365 c 0,22 4,25 35,25 24,0 35,5 35,15 0,10 -11,15 -35,15 -28,0 -35,4 -35,19 0,16 8,20 37,23 62,5 53,28 -11,28 h -56 z m 130,80 c 0,-3 11,-22 24,-43 l 23,-37 -23,-35 c -27,-42 -29,-50 -10,-50 8,0 23,13 33,30 l 17,30 19,-30 c 10,-17 25,-30 33,-30 19,0 18,5 -10,47 l -25,36 25,38 c 28,44 29,49 11,49 -7,0 -21,-14 -31,-31 l -19,-32 -18,24 c -10,13 -19,27 -19,32 0,8 -30,10 -30,2 z m 157,-2 c -4,-3 -7,-42 -7,-85 0,-63 3,-78 15,-78 12,0 15,16 15,85 0,78 -5,96 -23,78 z m 53,-78 c 0,-69 3,-85 15,-85 10,0 15,11 15,35 0,33 2,35 35,35 24,0 35,5 35,15 0,10 -11,15 -35,15 -28,0 -35,4 -35,19 0,16 8,20 37,23 62,5 53,28 -11,28 h -56 z"
       id="path1"
       sodipodi:nodetypes="sccscccccsscsccsccccsssssssscsccscccscccscccscccsscssscssssssscscs" />
  </g>
</svg>
