<?xml version="1.0" standalone="no"?>
<!DOCTYPE svg PUBLIC "-//W3C//DTD SVG 20010904//EN"
 "http://www.w3.org/TR/2001/REC-SVG-20010904/DTD/svg10.dtd">
<svg version="1.0" xmlns="http://www.w3.org/2000/svg"
 width="85.000000pt" height="81.000000pt" viewBox="0 0 85.000000 81.000000"
 preserveAspectRatio="xMidYMid meet" fill="#D6DCE1">
<g transform="translate(0.000000,81.000000) scale(0.100000,-0.100000)"
 >
<path d="M105 705 l-25 -24 0 -276 0 -276 25 -24 24 -25 291 0 292 0 29 29 29
29 0 239 c-1 255 -8 319 -36 340 -14 10 -85 13 -311 13 l-294 0 -24 -25z m615
-25 c12 -18 13 -530 2 -548 -7 -9 -74 -12 -303 -10 l-294 3 -3 275 c-2 253 -1
276 15 288 28 20 570 13 583 -8z M197 483 c-4 -3 -7 -42 -7 -85 0 -63 3 -78
15 -78 12 0 15 16 15 85 0 78 -5 96 -23 78z M257 483 c-4 -3 -7 -42 -7 -85 0
-63 3 -78 15 -78 10 0 15 10 15 30 0 27 3 30 29 30 57 0 83 63 39 94 -23 16
-79 22 -91 9z m78 -53 c0 -20 -6 -26 -27 -28 -25 -3 -28 0 -28 28 0 28 3 31
28 28 21 -2 27 -8 27 -28z M380 475 c0 -9 9 -15 25 -15 24 0 25 -2 25 -70 0
-56 3 -70 15 -70 12 0 15 14 15 69 0 65 2 70 23 73 46 6 20 23 -40 26 -52 2
-63 0 -63 -13z M535 465 c-36 -35 -31 -111 9 -137 32 -22 106 2 106 33 0 15
-27 10 -34 -6 -7 -20 -40 -19 -60 1 -19 18 -21 75 -4 92 17 17 53 15 68 -3 16
-19 30 -19 30 -1 0 20 -39 46 -68 46 -12 0 -34 -11 -47 -25z"/>
</g>
</svg>
