<?xml version="1.0" standalone="no"?>
<!DOCTYPE svg PUBLIC "-//W3C//DTD SVG 20010904//EN"
 "http://www.w3.org/TR/2001/REC-SVG-20010904/DTD/svg10.dtd">
<svg version="1.0" xmlns="http://www.w3.org/2000/svg"
 width="84.000000pt" height="81.000000pt" viewBox="0 0 84.000000 81.000000"
 preserveAspectRatio="xMidYMid meet" fill="#D6DCE1">
<g transform="translate(0.000000,81.000000) scale(0.100000,-0.100000)"
 >
<path d="M106 709 l-26 -20 0 -284 0 -284 26 -20 c26 -20 38 -21 316 -21 l289
0 24 25 25 24 0 276 0 276 -25 24 -24 25 -289 0 c-278 0 -290 -1 -316 -21z
m606 -26 c17 -15 18 -37 18 -270 0 -156 -4 -262 -10 -274 -10 -18 -24 -19
-298 -19 -211 0 -291 3 -300 12 -9 9 -12 84 -12 274 0 260 0 263 22 278 35 24
553 24 580 -1z M180 484 c0 -3 8 -18 18 -32 10 -15 22 -32 25 -38 3 -6 -5 -27
-18 -47 -29 -42 -30 -47 -11 -47 8 0 23 14 34 31 l19 31 19 -31 c10 -17 24
-31 31 -31 17 0 17 5 -9 49 l-22 38 22 35 c25 41 27 48 9 48 -7 0 -21 -14 -31
-31 l-19 -31 -19 31 c-17 27 -48 43 -48 25z M334 476 c-10 -25 2 -150 14 -154
8 -2 12 15 12 55 l1 58 22 -54 c13 -30 28 -56 35 -59 7 -2 23 19 37 50 l24 53
0 -52 c1 -41 5 -53 16 -53 24 0 17 163 -6 168 -12 2 -23 -14 -39 -57 -12 -34
-26 -59 -30 -56 -4 3 -18 29 -30 60 -22 53 -45 70 -56 41z M540 405 c0 -80 15
-119 22 -57 2 22 9 28 38 32 49 7 71 47 47 84 -15 22 -25 26 -62 26 l-45 0 0
-85z m85 31 c0 -13 -10 -22 -27 -27 -26 -7 -28 -5 -28 23 0 26 3 29 28 26 19
-2 27 -9 27 -22z"/>
</g>
</svg>
